<?xml version="1.0" encoding="UTF-8" standalone="no"?>
<svg
   width="134"
   height="41"
   aria-hidden="true"
   version="1.1"
   id="svg18"
   xmlns="http://www.w3.org/2000/svg"
   xmlns:svg="http://www.w3.org/2000/svg">
  <defs
     id="defs18" />
  <g
     fill="none"
     id="g18">
    <path
       fill="#ffffff"
       d="m 60.839,24.824 a 6.4,6.4 0 0 1 -2.168,1.526 7.4,7.4 0 0 1 -3.016,0.573 7.3,7.3 0 0 1 -3.043,-0.591 6.4,6.4 0 0 1 -2.158,-1.554 6.5,6.5 0 0 1 -1.298,-2.187 7.5,7.5 0 0 1 -0.436,-2.526 c 0,-0.862 0.148,-1.718 0.436,-2.53 a 6.5,6.5 0 0 1 1.298,-2.202 6.4,6.4 0 0 1 2.164,-1.555 7.3,7.3 0 0 1 3.043,-0.592 7.3,7.3 0 0 1 3.01,0.582 6.4,6.4 0 0 1 2.162,1.554 l -1.574,1.317 a 4.5,4.5 0 0 0 -1.506,-1.106 5,5 0 0 0 -2.125,-0.42 q -1.613,0 -2.693,0.733 a 4.7,4.7 0 0 0 -1.622,1.828 5.51,5.51 0 0 0 0,4.761 4.7,4.7 0 0 0 1.617,1.828 q 1.08,0.732 2.693,0.733 a 5.1,5.1 0 0 0 2.096,-0.403 4.5,4.5 0 0 0 1.508,-1.069 l 1.574,1.315 z m 0.758,-7.917 h 1.915 v 0.972 c 0.21,-0.223 0.454,-0.412 0.721,-0.562 q 0.424,-0.24 0.891,-0.382 0.475,-0.143 0.968,-0.2 0.482,-0.058 0.967,-0.019 v 1.87 a 4.6,4.6 0 0 0 -1.745,0.114 2.26,2.26 0 0 0 -1.08,0.669 2.6,2.6 0 0 0 -0.56,1.105 6,6 0 0 0 -0.162,1.451 v 4.67 h -1.915 z m 10.279,9.903 q -1.684,0 -2.826,-0.745 a 4.74,4.74 0 0 1 -1.697,-1.87 5.45,5.45 0 0 1 -0.568,-2.424 5.2,5.2 0 0 1 0.559,-2.415 4.83,4.83 0 0 1 1.696,-1.87 q 1.13,-0.744 2.836,-0.744 1.706,0 2.835,0.744 a 4.85,4.85 0 0 1 1.698,1.87 c 0.379,0.75 0.57,1.582 0.559,2.423 0,0.841 -0.195,1.671 -0.568,2.424 a 4.74,4.74 0 0 1 -1.698,1.87 q -1.14,0.736 -2.826,0.736 z m 0,-8.626 a 2.83,2.83 0 0 0 -1.764,0.533 c -0.457,0.344 -0.82,0.8 -1.052,1.326 a 4.41,4.41 0 0 0 0,3.455 c 0.232,0.525 0.594,0.98 1.052,1.324 1.068,0.71 2.454,0.71 3.521,0 a 3.36,3.36 0 0 0 1.054,-1.324 4.43,4.43 0 0 0 0,-3.455 3.37,3.37 0 0 0 -1.054,-1.326 2.83,2.83 0 0 0 -1.757,-0.531 z m 15.118,6.048 2.01,-7.306 h 2.258 l -3.149,9.692 h -2.26 l -1.99,-7.44 -1.99,7.44 h -2.26 l -3.147,-9.692 h 2.26 l 2.011,7.306 2.01,-7.306 h 2.196 z M 99.282,13.263 h 1.933 v 13.355 h -1.933 v -1.374 c -0.384,0.505 -0.882,0.91 -1.452,1.183 a 4.62,4.62 0 0 1 -3.584,0.168 4.76,4.76 0 0 1 -2.77,-2.577 5.9,5.9 0 0 1 0,-4.502 4.8,4.8 0 0 1 1.16,-1.612 4.9,4.9 0 0 1 1.615,-0.964 4.63,4.63 0 0 1 3.59,0.172 c 0.571,0.273 1.07,0.678 1.454,1.183 z m -3.159,4.929 a 3,3 0 0 0 -1.39,0.308 3,3 0 0 0 -0.992,0.81 c -0.269,0.344 -0.47,0.736 -0.596,1.155 a 4.45,4.45 0 0 0 0,2.632 c 0.125,0.42 0.327,0.811 0.596,1.155 0.268,0.34 0.607,0.617 0.992,0.81 a 3.32,3.32 0 0 0 2.78,0 c 0.386,-0.193 0.724,-0.47 0.992,-0.81 0.269,-0.344 0.471,-0.736 0.596,-1.155 a 4.45,4.45 0 0 0 0,-2.632 3.5,3.5 0 0 0 -0.596,-1.155 3,3 0 0 0 -0.992,-0.81 3,3 0 0 0 -1.39,-0.314 z"
       id="path1" />
    <path
       fill="#f8ab13"
       d="m 107.625,13.186 c 0.969,0.003 1.93,0.168 2.845,0.487 a 10,10 0 0 1 2.371,1.217 l -1.062,1.221 -0.228,0.268 a 6.6,6.6 0 0 0 -2.171,-1.181 5.8,5.8 0 0 0 -1.99,-0.258 4,4 0 0 0 -1.603,0.412 2.43,2.43 0 0 0 -0.988,0.84 1.2,1.2 0 0 0 -0.153,1.011 q 0.154,0.525 0.891,0.944 c 0.593,0.325 1.22,0.583 1.87,0.77 q 1.051,0.316 2.075,0.687 c 0.652,0.234 1.278,0.535 1.868,0.898 0.546,0.33 0.98,0.819 1.243,1.402 0.166,0.377 0.266,0.78 0.294,1.192 a 3.3,3.3 0 0 1 -0.18,1.307 2.6,2.6 0 0 1 -0.46,0.83 3.6,3.6 0 0 1 -0.702,0.658 5.4,5.4 0 0 1 -1.8,0.803 8.8,8.8 0 0 1 -1.918,0.266 10,10 0 0 1 -1.64,-0.125 8,8 0 0 1 -1.469,-0.38 8,8 0 0 1 -1.378,-0.668 9.7,9.7 0 0 1 -1.378,-1.022 l 1.044,-1.201 0.265,-0.308 a 7.5,7.5 0 0 0 2.333,1.479 7.2,7.2 0 0 0 2.603,0.41 3.2,3.2 0 0 0 1.432,-0.335 c 0.4,-0.183 0.75,-0.465 1.015,-0.82 0.22,-0.297 0.3,-0.677 0.217,-1.039 q -0.124,-0.555 -0.919,-1.03 a 6.8,6.8 0 0 0 -1.318,-0.583 69,69 0 0 0 -1.592,-0.516 28,28 0 0 1 -1.63,-0.562 7,7 0 0 1 -1.443,-0.734 3.7,3.7 0 0 1 -1.024,-1.012 2.35,2.35 0 0 1 -0.369,-1.402 3.3,3.3 0 0 1 0.46,-1.694 4.1,4.1 0 0 1 1.157,-1.22 5.2,5.2 0 0 1 1.603,-0.745 6.7,6.7 0 0 1 1.8,-0.248 z M 118.7,25.34 a 2.93,2.93 0 0 0 1.585,-0.41 3.06,3.06 0 0 0 1.033,-1.06 l 1.404,1.088 a 4.64,4.64 0 0 1 -1.632,1.33 5.26,5.26 0 0 1 -2.39,0.504 5.5,5.5 0 0 1 -2.047,-0.35 4.7,4.7 0 0 1 -1.53,-0.954 4.6,4.6 0 0 1 -1.005,-1.386 5.5,5.5 0 0 1 -0.485,-1.624 5.6,5.6 0 0 1 0,-1.45 c 0.077,-0.563 0.24,-1.11 0.484,-1.623 a 4.6,4.6 0 0 1 1.004,-1.386 4.7,4.7 0 0 1 1.531,-0.953 6.12,6.12 0 0 1 4.095,0 4.8,4.8 0 0 1 1.531,0.953 4.6,4.6 0 0 1 1.005,1.386 c 0.243,0.513 0.406,1.06 0.483,1.622 0.063,0.482 0.063,0.97 0,1.451 h -8.157 c 0.063,0.376 0.174,0.742 0.333,1.088 0.155,0.339 0.367,0.649 0.626,0.916 0.264,0.27 0.58,0.484 0.93,0.628 a 3.1,3.1 0 0 0 1.224,0.23 z m 3.13,-4.313 a 4.3,4.3 0 0 0 -0.331,-1.087 3.3,3.3 0 0 0 -0.626,-0.915 2.8,2.8 0 0 0 -0.93,-0.63 3.38,3.38 0 0 0 -2.449,0 c -0.35,0.144 -0.665,0.359 -0.93,0.63 a 3.3,3.3 0 0 0 -0.625,0.915 c -0.159,0.346 -0.27,0.712 -0.333,1.087 z m 10.165,5.248 a 5.26,5.26 0 0 1 -2.426,0.514 q -1.684,0 -2.826,-0.744 a 4.73,4.73 0 0 1 -1.698,-1.87 5.5,5.5 0 0 1 -0.568,-2.422 5.2,5.2 0 0 1 0.559,-2.423 4.84,4.84 0 0 1 1.697,-1.87 q 1.13,-0.744 2.836,-0.744 a 5.26,5.26 0 0 1 2.426,0.515 4.6,4.6 0 0 1 1.632,1.355 l -1.404,1.106 a 3.14,3.14 0 0 0 -1.042,-1.097 2.9,2.9 0 0 0 -1.612,-0.43 2.83,2.83 0 0 0 -1.764,0.535 c -0.458,0.344 -0.821,0.8 -1.053,1.326 a 4.43,4.43 0 0 0 0,3.453 c 0.232,0.526 0.595,0.983 1.053,1.326 0.513,0.37 1.133,0.559 1.764,0.535 a 2.9,2.9 0 0 0 1.612,-0.43 c 0.431,-0.274 0.79,-0.65 1.042,-1.096 l 1.404,1.105 a 4.6,4.6 0 0 1 -1.632,1.356"
       id="path2" />
    <path
       fill="#ffffff"
       d="m 14.53,0.08 c 0.5,0.187 0.837,0.678 0.89,1.22 l 0.004,0.043 c 0.014,0.182 0.026,0.367 0.04,0.587 0.009,0.123 0.035,0.533 0.036,0.558 0.08,1.216 0.137,1.838 0.253,2.523 l 0.024,0.136 0.01,-0.006 a 2,2 0 0 1 0.527,-0.235 l 0.047,-0.013 c 0.423,-0.107 0.859,-0.07 1.245,0.089 L 17.62,4.987 17.632,4.965 A 2.79,2.79 0 0 1 20.037,3.5 h 0.053 a 2.79,2.79 0 0 1 2.458,1.466 l 0.012,0.023 0.015,-0.007 c 0.373,-0.152 0.79,-0.191 1.198,-0.098 l 0.05,0.012 c 0.206,0.053 0.4,0.138 0.573,0.25 L 24.403,5.15 V 5.147 l 0.029,-0.165 c 0.113,-0.678 0.17,-1.295 0.247,-2.498 L 24.695,2.226 24.7,2.163 24.754,1.35 c 0.04,-0.559 0.382,-1.071 0.895,-1.263 0.595,-0.223 1.228,0.03 1.724,0.661 0.9,1.153 1.431,2.66 1.605,4.24 0.147,1.34 0.014,2.607 -0.36,3.19 A 3,3 0 0 1 28.455,8.4 L 28.428,8.433 28.45,8.45 c 0.212,0.172 0.39,0.388 0.518,0.64 l 0.022,0.044 c 0.195,0.409 0.24,0.862 0.142,1.287 l -0.007,0.03 0.035,0.016 c 0.374,0.18 0.7,0.44 0.959,0.757 l 0.006,0.008 0.027,-0.018 a 2.36,2.36 0 0 1 2.173,-0.199 l 0.052,0.022 c 0.445,0.195 0.812,0.52 1.059,0.92 l 0.026,0.044 0.034,-0.01 a 1.7,1.7 0 0 1 0.907,-0.04 l 0.046,0.01 q 0.18,0.047 0.341,0.128 l 0.004,0.002 0.007,-0.043 c 0.078,-0.49 0.122,-0.966 0.178,-1.822 l 0.005,-0.087 10e-4,-0.012 0.012,-0.19 0.005,-0.071 0.043,-0.646 c 0.086,-1.174 1.426,-1.671 2.313,-0.55 l 0.001,0.002 c 0.739,0.941 1.175,2.17 1.318,3.459 0.122,1.1 0.012,2.141 -0.306,2.64 q -0.037,0.056 -0.077,0.11 l -0.01,0.013 0.032,0.03 q 0.204,0.196 0.338,0.453 l 0.021,0.044 c 0.154,0.321 0.2,0.675 0.142,1.013 l -0.005,0.027 0.007,0.003 a 2.35,2.35 0 0 1 1.241,1.724 l 0.008,0.051 c 0.1,0.753 -0.171,1.488 -0.695,1.995 l -0.03,0.029 0.007,0.014 c 0.197,0.384 0.245,0.838 0.113,1.27 l -0.014,0.044 c -0.187,0.556 -0.64,0.965 -1.187,1.108 l -0.012,0.003 -0.009,0.034 a 2.35,2.35 0 0 1 -1.49,1.591 l -0.032,0.01 10e-4,0.007 c 0.258,1.35 0.572,3.614 0.943,6.709 l 0.015,0.124 c 0.099,0.889 0.196,1.796 0.336,3.125 l 0.08,0.756 0.012,0.116 0.239,2.245 c 0.048,0.431 0.085,0.777 0.167,1.554 0.04,0.378 -0.274,0.7 -0.655,0.669 -2.785,-0.228 -5.833,-0.4 -9.052,-0.512 -0.115,-0.004 -5.957,-0.155 -8.689,-0.155 -2.775,0 -5.51,0.044 -8.156,0.13 -0.112,0.003 -6.856,0.305 -9.636,0.533 A 0.608,0.608 0 0 1 1.668,38.978 C 1.722,38.393 1.771,37.9 1.822,37.424 l 0.005,-0.047 v -0.001 q 0,-0.017 0.002,-0.033 L 1.832,37.311 1.848,37.158 1.977,36 2.014,35.668 2.052,35.336 2.089,35.004 2.238,33.723 2.271,33.44 c 0.484,-4.11 0.922,-7.295 1.256,-9.039 l 0.01,-0.057 -0.033,-0.01 A 2.35,2.35 0 0 1 1.996,22.726 L 1.991,22.706 1.979,22.703 A 1.71,1.71 0 0 1 0.807,21.638 L 0.792,21.596 A 1.7,1.7 0 0 1 0.89,20.28 L 0.897,20.266 0.867,20.238 A 2.35,2.35 0 0 1 0.165,18.295 L 0.172,18.243 A 2.35,2.35 0 0 1 1.421,16.467 L 1.427,16.464 1.422,16.438 A 1.7,1.7 0 0 1 1.543,15.47 l 0.021,-0.046 c 0.09,-0.189 0.213,-0.356 0.36,-0.496 L 1.956,14.898 1.942,14.878 1.902,14.823 1.863,14.766 C 1.55,14.276 1.44,13.234 1.562,12.135 1.704,10.845 2.14,9.617 2.879,8.675 3.305,8.132 3.866,7.907 4.399,8.107 c 0.457,0.17 0.76,0.624 0.796,1.117 a 71,71 0 0 1 0.057,0.86 l 0.002,0.032 0.001,0.027 c 0.059,0.905 0.103,1.402 0.182,1.903 L 5.445,12.094 5.452,12.09 Q 5.594,12.02 5.75,11.975 l 0.045,-0.012 c 0.322,-0.082 0.653,-0.067 0.956,0.032 l 0.03,0.01 0.026,-0.042 c 0.229,-0.373 0.561,-0.68 0.966,-0.88 L 7.822,11.06 a 2.36,2.36 0 0 1 2.24,0.138 l 0.01,0.006 0.011,-0.014 c 0.253,-0.3 0.567,-0.545 0.925,-0.717 l 0.035,-0.016 -0.007,-0.029 a 1.97,1.97 0 0 1 0.12,-1.239 L 11.178,9.142 A 2,2 0 0 1 11.717,8.458 L 11.75,8.431 11.716,8.389 A 3,3 0 0 1 11.594,8.223 L 11.557,8.166 C 11.184,7.591 11.048,6.322 11.197,4.979 11.37,3.397 11.904,1.891 12.807,0.739 13.302,0.11 13.935,-0.143 14.53,0.079 Z"
       id="path3" />
    <path
       fill="#4e4a99"
       d="m 15.72,36.616 c 4.978,0 9.056,-7.585 10.066,-16.881 a 2.18,2.18 0 0 0 2.108,-1.789 q 0.031,-0.168 0.037,-0.34 h 0.064 a 1.37,1.37 0 0 0 1.382,-0.93 1.36,1.36 0 0 0 -0.543,-1.571 2.171,2.171 0 0 0 -0.553,-4.133 c 0.32,-0.407 0.382,-0.96 0.159,-1.428 A 1.37,1.37 0 0 0 27.227,8.765 c 0.359,-0.174 0.664,-0.44 0.883,-0.772 0.512,-0.8 0.594,-4.4 -1.217,-6.723 -0.751,-0.955 -1.485,-0.38 -1.532,0.273 -0.142,1.995 -0.16,3.489 -0.679,5.2 A 1.373,1.373 0 0 0 22.246,6.118 2.176,2.176 0 0 0 20.09,4.255 2.176,2.176 0 0 0 17.933,6.118 1.373,1.373 0 0 0 15.498,6.737 c -0.52,-1.707 -0.538,-3.206 -0.68,-5.2 -0.047,-0.653 -0.78,-1.228 -1.53,-0.273 -1.819,2.318 -1.736,5.923 -1.219,6.723 0.215,0.335 0.516,0.606 0.871,0.786 a 1.37,1.37 0 0 0 -1.211,0.78 1.36,1.36 0 0 0 0.159,1.427 2.171,2.171 0 0 0 -0.553,4.132 1.36,1.36 0 0 0 -0.538,1.571 1.37,1.37 0 0 0 1.382,0.928 h 0.064 a 2.175,2.175 0 0 0 2.175,2.124 c -0.609,2.603 -1.531,10.053 -2.283,16.875 0.042,-0.387 0.134,-0.775 0.176,-1.165 1.086,0.758 2.2,1.171 3.409,1.171"
       id="path4" />
    <path
       fill="#3e3978"
       d="m 20.116,38.517 c 2.779,0 5.481,0.044 8.048,0.126 l -0.206,-1.918 c -0.275,-2.54 -0.55,-5.246 -0.831,-7.784 -0.487,-4.068 -0.965,-7.585 -1.341,-9.206 -1.01,9.302 -5.088,16.881 -10.066,16.881 -1.209,0 -2.322,-0.413 -3.401,-1.17 -0.043,0.39 -0.134,0.779 -0.177,1.165 q -0.11,1.032 -0.202,2.036 c 2.612,-0.085 5.352,-0.13 8.176,-0.13"
       id="path5" />
    <path
       fill="#4e4a99"
       d="m 11.7,18.181 a 1.98,1.98 0 0 1 -1.065,-0.607 6,6 0 0 0 -0.84,0.248 2.5,2.5 0 0 1 -1.768,0 6.7,6.7 0 0 0 -2.166,-0.395 9.5,9.5 0 0 0 -2.995,0.378 v 0.945 q 0.028,0.121 0.104,0.22 0.171,0.242 0.295,0.511 c 0.153,0.414 0.247,0.847 0.395,1.26 0.134,0.448 0.522,0.774 0.988,0.83 q 0.845,0.12 1.7,0.108 c 0.33,-0.002 0.655,-0.085 0.946,-0.242 a 9.2,9.2 0 0 1 0.688,-1.972 c 0.443,-0.876 1.149,-0.91 1.627,0 0.289,0.575 0.509,1.183 0.656,1.81 0.172,0.14 0.373,0.24 0.59,0.29 a 5,5 0 0 0 2.252,0.023 q 0.18,-0.038 0.348,-0.11 c 0.076,-0.455 0.152,-0.876 0.225,-1.243 A 2.78,2.78 0 0 1 11.7,18.181"
       id="path6" />
    <path
       fill="#ffffff"
       d="m 11.054,25.18 a 11,11 0 0 0 -0.305,-1.82 c -0.175,-0.694 -0.304,-1.39 -0.475,-2.073 a 8.3,8.3 0 0 0 -0.656,-1.81 c -0.478,-0.91 -1.184,-0.876 -1.627,0 A 9.2,9.2 0 0 0 7.303,21.449 C 7.15,22.081 7.021,22.722 6.86,23.365 a 11,11 0 0 0 -0.305,1.82 c -0.076,0.948 0.547,1.766 1.328,1.766 H 9.72 c 0.784,-0.004 1.41,-0.822 1.334,-1.77 z M 9.088,22.92 c 0,0.416 0,0.83 -0.04,1.238 -0.04,0.5 -0.062,0.998 -0.14,1.466 -0.054,0.329 -0.142,0.344 -0.202,0 C 8.627,25.159 8.607,24.659 8.566,24.158 A 12,12 0 0 1 8.526,22.92 C 7.982,22.776 7.549,22.226 7.423,21.519 c 0.858,0.487 1.91,0.487 2.77,0 -0.127,0.707 -0.56,1.257 -1.105,1.401"
       id="path7" />
    <path
       fill="#f39319"
       d="m 7.423,21.519 c 0.126,0.707 0.559,1.257 1.104,1.401 0,0.416 0,0.83 0.04,1.238 0.04,0.5 0.06,1.001 0.14,1.466 0.059,0.344 0.152,0.329 0.202,0 0.077,-0.468 0.099,-0.965 0.14,-1.466 0.035,-0.408 0.045,-0.822 0.04,-1.238 0.544,-0.144 0.977,-0.694 1.103,-1.401 a 2.8,2.8 0 0 1 -2.77,0 z"
       id="path8" />
    <path
       fill="#4e4a99"
       d="m 28.468,18.181 a 2.79,2.79 0 0 1 -1.953,2.054 q 0.095,0.486 0.2,1.115 c 0.165,0.125 0.36,0.203 0.564,0.228 a 11,11 0 0 0 1.7,0.109 c 0.331,-0.003 0.656,-0.086 0.946,-0.243 a 9.2,9.2 0 0 1 0.688,-1.972 c 0.442,-0.875 1.15,-0.91 1.626,0 0.29,0.576 0.51,1.183 0.658,1.81 0.171,0.14 0.373,0.24 0.589,0.29 a 5,5 0 0 0 2.253,0.024 c 0.509,-0.08 0.927,-0.44 1.078,-0.931 0.13,-0.381 0.242,-0.759 0.345,-1.155 0.06,-0.22 0.086,-0.443 0.335,-0.552 0.048,-0.021 0.078,-0.13 0.08,-0.2 0.009,-0.314 0,-0.627 0,-1.003 -0.61,-0.099 -1.208,-0.23 -1.812,-0.284 -1.134,-0.103 -2.26,-0.059 -3.35,0.354 a 2.5,2.5 0 0 1 -1.767,0 6.6,6.6 0 0 0 -1.087,-0.292 1.98,1.98 0 0 1 -1.093,0.648"
       id="path9" />
    <path
       fill="#ffffff"
       d="m 33.672,25.18 a 11,11 0 0 0 -0.305,-1.82 c -0.175,-0.694 -0.304,-1.39 -0.475,-2.073 a 8.2,8.2 0 0 0 -0.657,-1.81 c -0.477,-0.91 -1.185,-0.876 -1.626,0 a 9.2,9.2 0 0 0 -0.688,1.972 c -0.153,0.632 -0.282,1.273 -0.443,1.916 a 11,11 0 0 0 -0.305,1.82 c -0.076,0.948 0.545,1.766 1.328,1.766 h 1.837 c 0.787,-0.004 1.41,-0.822 1.334,-1.77 z m -1.966,-2.26 c 0,0.416 0,0.83 -0.04,1.238 -0.04,0.5 -0.062,0.998 -0.14,1.466 -0.054,0.329 -0.142,0.344 -0.202,0 -0.079,-0.465 -0.099,-0.965 -0.14,-1.466 a 12,12 0 0 1 -0.04,-1.238 c -0.545,-0.144 -0.977,-0.694 -1.103,-1.401 0.858,0.487 1.91,0.487 2.769,0 -0.126,0.707 -0.559,1.257 -1.104,1.401"
       id="path10" />
    <path
       fill="#f39319"
       d="m 30.04,21.519 c 0.127,0.707 0.56,1.257 1.104,1.401 q -0.012,0.62 0.04,1.238 c 0.041,0.5 0.061,1.001 0.14,1.466 0.06,0.344 0.152,0.329 0.203,0 0.077,-0.468 0.099,-0.965 0.14,-1.466 q 0.049,-0.613 0.04,-1.238 c 0.544,-0.144 0.977,-0.694 1.103,-1.401 a 2.8,2.8 0 0 1 -2.77,0 m 5.958,2.483 c 0.304,1.303 0.685,4.12 1.075,7.383 -0.341,-3.08 -0.689,-5.852 -1.075,-7.383"
       id="path11" />
    <path
       fill="#f8ab13"
       d="m 12.686,12.018 a 11.7,11.7 0 0 1 3.734,-0.475 8.3,8.3 0 0 1 2.7,0.491 c 0.71,0.27 1.495,0.27 2.205,0 1.358,-0.512 2.759,-0.569 4.175,-0.44 0.752,0.067 1.495,0.231 2.257,0.354 v 1.25 c 0,0.088 -0.04,0.224 -0.1,0.25 -0.305,0.137 -0.343,0.414 -0.416,0.689 -0.13,0.484 -0.27,0.965 -0.43,1.438 a 1.67,1.67 0 0 1 -1.345,1.162 6.2,6.2 0 0 1 -2.809,-0.03 1.64,1.64 0 0 1 -1.15,-0.894 c -0.288,-0.594 -0.565,-1.194 -0.88,-1.775 a 0.64,0.64 0 0 0 -0.422,-0.314 c -0.122,-0.009 -0.305,0.173 -0.38,0.313 q -0.354,0.628 -0.62,1.298 c -0.386,1.002 -1.142,1.487 -2.171,1.517 q -1.067,0.015 -2.121,-0.136 A 1.47,1.47 0 0 1 13.68,15.684 c -0.183,-0.517 -0.305,-1.062 -0.49,-1.571 a 4.3,4.3 0 0 0 -0.369,-0.64 0.7,0.7 0 0 1 -0.13,-0.272 c -0.014,-0.384 -0.005,-0.763 -0.005,-1.183"
       id="path12" />
    <path
       fill="#ffffff"
       d="m 22.51,18.934 c -0.418,-1.65 -0.61,-3.309 -1.412,-4.841 -0.595,-1.14 -1.476,-1.092 -2.027,0 -0.778,1.543 -0.995,3.186 -1.412,4.84 a 14,14 0 0 0 -0.376,2.276 c -0.094,1.182 0.68,2.201 1.657,2.201 h 2.283 c 0.975,0 1.75,-1.02 1.657,-2.2 a 14,14 0 0 0 -0.37,-2.276"
       id="path13" />
    <path
       fill="#4e4a99"
       d="m 21.81,16.638 a 3.5,3.5 0 0 1 -3.452,0 c 0.152,0.882 0.697,1.569 1.37,1.747 q -0.015,0.773 0.049,1.545 c 0.052,0.622 0.076,1.247 0.175,1.82 0.075,0.43 0.184,0.412 0.253,0 0.096,-0.582 0.123,-1.204 0.175,-1.82 q 0.061,-0.763 0.049,-1.545 c 0.685,-0.178 1.224,-0.865 1.382,-1.747 z"
       id="path14" />
    <path
       fill="#f8ab13"
       d="m 5.308,37.541 c 3.045,0 5.676,-3.545 7.108,-8.542 0.338,-2.73 0.711,-5.505 1.05,-7.51 a 2,2 0 0 1 -0.346,0.112 5,5 0 0 1 -2.253,-0.025 1.44,1.44 0 0 1 -0.59,-0.29 c 0.174,0.683 0.305,1.38 0.475,2.074 q 0.23,0.898 0.305,1.82 c 0.076,0.949 -0.547,1.767 -1.328,1.767 H 7.89 c -0.781,0 -1.404,-0.818 -1.328,-1.766 q 0.075,-0.923 0.305,-1.82 C 7.028,22.717 7.153,22.077 7.31,21.444 7.02,21.601 6.695,21.684 6.364,21.687 A 11,11 0 0 1 4.664,21.577 1.18,1.18 0 0 1 3.676,20.75 C 3.524,20.335 3.429,19.903 3.282,19.489 A 3.3,3.3 0 0 0 2.986,18.978 0.6,0.6 0 0 1 2.883,18.758 c -0.012,-0.304 0,-0.607 0,-0.945 a 9.5,9.5 0 0 1 2.994,-0.378 c 0.74,0.01 1.472,0.143 2.167,0.394 a 2.5,2.5 0 0 0 1.767,0 q 0.41,-0.155 0.84,-0.247 a 1.97,1.97 0 0 1 -0.242,-2.35 2.78,2.78 0 0 1 -0.668,-3.37 1.75,1.75 0 0 0 -1.66,-0.101 1.74,1.74 0 0 0 -0.992,1.33 1.103,1.103 0 0 0 -1.956,0.498 C 4.717,12.224 4.703,11.01 4.589,9.417 4.551,8.894 3.962,8.433 3.361,9.199 c -1.459,1.858 -1.392,4.75 -0.982,5.391 0.176,0.266 0.42,0.48 0.708,0.62 a 1.1,1.1 0 0 0 -0.97,0.625 c -0.18,0.374 -0.13,0.817 0.125,1.145 A 1.742,1.742 0 0 0 1.801,20.295 1.095,1.095 0 0 0 2.473,22.3 h 0.05 a 1.747,1.747 0 0 0 1.74,1.704 c -0.484,2.087 -1.228,8.062 -1.826,13.533 0.033,-0.304 0.106,-0.622 0.141,-0.935 0.87,0.607 1.762,0.94 2.731,0.94 z"
       id="path15" />
    <path
       fill="#f39319"
       d="m 11.538,36.545 c 0.193,-1.766 0.516,-4.624 0.878,-7.546 -1.432,4.997 -4.06,8.542 -7.108,8.542 -0.97,0 -1.862,-0.332 -2.728,-0.939 -0.035,0.313 -0.108,0.625 -0.141,0.935 q -0.09,0.834 -0.165,1.646 c 2.754,-0.226 5.8,-0.402 9.052,-0.516 0.064,-0.693 0.133,-1.405 0.212,-2.122"
       id="path16" />
    <path
       fill="#f8ab13"
       d="m 35.998,24.002 a 1.746,1.746 0 0 0 1.691,-1.434 q 0.024,-0.135 0.03,-0.273 h 0.05 A 1.095,1.095 0 0 0 38.442,20.29 1.742,1.742 0 0 0 38,16.975 c 0.255,-0.327 0.304,-0.77 0.125,-1.145 a 1.1,1.1 0 0 0 -0.97,-0.625 c 0.287,-0.14 0.532,-0.353 0.708,-0.62 0.41,-0.64 0.475,-3.532 -0.984,-5.39 -0.6,-0.759 -1.189,-0.304 -1.227,0.218 -0.114,1.599 -0.128,2.802 -0.545,4.172 a 1.101,1.101 0 0 0 -1.95,-0.502 1.74,1.74 0 0 0 -1.025,-1.341 1.75,1.75 0 0 0 -1.685,0.154 2.78,2.78 0 0 1 -0.685,3.338 c 0.44,0.731 0.358,1.661 -0.202,2.306 q 0.555,0.1 1.087,0.29 a 2.5,2.5 0 0 0 1.767,0 c 1.089,-0.412 2.214,-0.454 3.35,-0.353 0.608,0.053 1.199,0.185 1.811,0.284 v 1.003 c 0,0.07 -0.032,0.179 -0.08,0.2 -0.249,0.11 -0.275,0.332 -0.334,0.552 a 18,18 0 0 1 -0.346,1.155 c -0.15,0.49 -0.569,0.852 -1.078,0.931 a 5,5 0 0 1 -2.253,-0.024 1.44,1.44 0 0 1 -0.589,-0.29 c 0.174,0.683 0.305,1.379 0.475,2.074 q 0.23,0.897 0.305,1.82 c 0.076,0.948 -0.547,1.766 -1.328,1.766 h -1.84 c -0.783,0 -1.404,-0.818 -1.328,-1.766 q 0.075,-0.923 0.305,-1.82 c 0.161,-0.643 0.286,-1.284 0.443,-1.916 -0.29,0.157 -0.615,0.24 -0.946,0.243 a 11,11 0 0 1 -1.7,-0.11 1.16,1.16 0 0 1 -0.564,-0.227 c 0.466,2.803 1.081,7.771 1.897,15.31 q 0.044,0.393 0.087,0.803 c 3.632,-0.725 6.54,-6.49 7.297,-13.463"
       id="path17" />
    <path
       fill="#f39319"
       d="M 37.74,37.635 C 37.52,35.6 37.3,33.429 37.073,31.393 c -0.39,-3.263 -0.774,-6.08 -1.075,-7.383 -0.761,6.978 -3.665,12.742 -7.3,13.462 l 0.128,1.201 c 3.262,0.112 6.316,0.287 9.08,0.513 q -0.08,-0.777 -0.167,-1.55 z"
       id="path18" />
  </g>
</svg>
