<svg clip-rule="evenodd" fill-rule="evenodd" stroke-linejoin="round" stroke-miterlimit="2" viewBox="0 0 560 400" xmlns="http://www.w3.org/2000/svg"><g fill="#3f2ea0" transform="matrix(2.25038 0 0 2.25038 63.7387 154.981)"><path d="m52.7 25.24c-.31-.07-.56-.15-.8-.25-.16-.08-.3-.16-.42-.27-.081-.069-.122-.174-.11-.28.12-1.27-.01-2.4.1-3.65.51-5.12 3.73-3.5 6.62-4.33 1.65-.47 3.31-1.39 3.92-3.2.1-.3.01-.62-.2-.85-1.863-2.126-3.964-4.032-6.26-5.68-7.753-5.396-17.265-7.669-26.62-6.36-.235.028-.414.23-.414.467 0 .089.026.177.074.253 1.128 1.757 2.635 3.24 4.41 4.34.32.2.19.63-.18.54-1.069-.235-2.081-.677-2.98-1.3-.101-.066-.229-.078-.34-.03l-1.69.68c-.173.07-.286.239-.286.426 0 .137.061.267.166.354 4.582 3.971 11.246 4.535 16.43 1.39.32-.2.83.2.73.56-.17.57-.36 1.36-.56 2.43-1.3 6.53-5.02 6.03-9.63 4.38-9.2-3.34-14.43-.49-19.07-6.13-.33-.4-.9-.53-1.28-.2-.973.828-1.534 2.043-1.534 3.321 0 1.47.743 2.845 1.974 3.649.15.1.34.06.45-.07.29-.37.52-.6.82-.76.31-.16.47.3.2.53-.99.87-1.27 1.91-1.91 3.97-1.02 3.21-.59 6.5-5.32 7.36-2.5.13-2.46 1.83-3.37 4.36-1.06 3.06-2.44 4.4-5 7.08-.36.36-.39.95 0 1.28 1.02.87 2.08.92 3.15.48 2.66-1.12 4.71-4.56 6.64-6.79 2.15-2.48 7.31-1.42 11.21-3.85 2.1-1.29 3.37-2.94 2.97-5.4-.07-.4.39-.64.55-.27.31.7.52 1.44.6 2.2.03.21.2.36.41.35 4.22-.24 9.67 4.41 14.77 5.67.31.08.53-.28.36-.55-.626-.945-1.077-1.995-1.33-3.1-.1-.39.48-.5.68-.14 1.538 2.785 4.387 4.608 7.56 4.84 1.24.1 2.6-.05 4.02-.48 1.7-.51 3.27-1.17 5.14-.81 1.408.217 2.67.992 3.5 2.15 1.13 1.66 3.53 2.1 4.81.36.17-.24.2-.552.08-.82-2.82-6.6-9.97-7.05-13.05-7.85z"/><path d="m91.63 10.79c.08-.444.45-.782.9-.82l3.42-.3c.013-.001.026-.002.038-.002.22 0 .4.181.4.4 0 .028-.002.055-.008.082l-3.44 19.15c-.086.472-.5.818-.98.82h-2.59c-.23 0-.4-.2-.37-.44.06-.35-.37-.6-.67-.39-1.13.8-2.39 1.2-3.75 1.2-1.789.043-3.509-.704-4.7-2.04-1.247-1.346-1.922-3.126-1.88-4.96 0-2.5.77-4.58 2.31-6.24 1.51-1.647 3.666-2.557 5.9-2.49 1.43 0 2.64.38 3.63 1.13.33.25.85.1.92-.31l.87-4.8zm-5.8 15.8c1.106.035 2.171-.428 2.9-1.26.741-.859 1.134-1.966 1.1-3.1 0-1.06-.3-1.92-.9-2.57-.598-.66-1.459-1.023-2.35-.99-1.18 0-2.13.42-2.87 1.26-.751.854-1.148 1.963-1.11 3.1 0 1.05.3 1.9.9 2.57.596.656 1.454 1.015 2.34.98zm15.6-13.86c-.7 0-1.3-.25-1.8-.73-.493-.467-.766-1.121-.75-1.8 0-.88.33-1.64.98-2.26.64-.63 1.4-.94 2.3-.94.69 0 1.28.25 1.78.76.5.52.74 1.12.74 1.79 0 .88-.32 1.62-.96 2.24-.64.63-1.4.94-2.29.94zm-.48 16.58c-.086.472-.5.818-.98.82h-2.59c-.547-.002-.996-.453-.996-1 0-.06.005-.121.016-.18l2.33-13c.087-.475.507-.823.99-.82h2.6c.547.002.996.453.996 1 0 .06-.005.121-.016.18zm16.19-14.11c.11.05.2.14.25.25.05.12.04.26-.01.38l-1.38 2.97c-.044.102-.122.187-.22.24-.154.077-.336.077-.49 0-.47-.23-1-.33-1.56-.32-1.23 0-2.17.5-2.84 1.5-.24.38-.5 1.27-.79 2.66l-1.12 6.41c-.082.476-.497.827-.98.83h-2.616c-.549 0-1-.451-1-1 0-.06.005-.121.016-.18l2.34-13c.087-.475.507-.823.99-.82h2.2c.42 0 .74.37.67.78-.06.35.4.57.67.34 1.569-1.48 3.875-1.893 5.86-1.05zm7.99-.44c2.4 0 4.2.77 5.4 2.3 1.22 1.568 1.649 3.615 1.16 5.54-.01.13-.04.26-.08.4-.1.4-.48.66-.9.66h-9.2c-.53 0-.98.4-.9.92.1.67.38 1.2.84 1.61.66.59 1.51.88 2.57.88 1.49 0 2.82-.52 4-1.56.08-.06.17-.1.26-.1.11 0 .22.05.3.14l1.43 1.7c.139.179.127.436-.03.6-1.762 1.734-4.148 2.689-6.62 2.65-2.22 0-4-.7-5.38-2.11-1.382-1.421-2.058-3.389-1.84-5.36.091-2.906 1.708-5.558 4.25-6.97 1.431-.859 3.071-1.309 4.74-1.3zm-3.55 4.96c-.37.57.11 1.23.78 1.23h4.2c.53 0 1-.43.87-.95-.088-.352-.248-.683-.47-.97-.48-.67-1.24-1-2.25-.99-.91 0-1.7.26-2.35.78-.3.26-.56.57-.78.9zm18.85 10.78c-2.15 0-3.9-.68-5.26-2.04-1.381-1.381-2.124-3.278-2.05-5.23-.021-2.704 1.289-5.253 3.5-6.81 1.567-1.095 3.438-1.676 5.35-1.66 2.59 0 4.57.86 5.96 2.58.08.1.1.23.07.36-.025.08-.074.15-.14.2l-2.7 2.15c-.065.054-.146.085-.23.09-.129.002-.251-.058-.33-.16-.667-.856-1.706-1.34-2.79-1.3-1.13 0-2.07.34-2.81 1.03-.878.851-1.351 2.038-1.3 3.26 0 1.1.32 1.96.95 2.62.61.66 1.44 1 2.47 1 1.07 0 2.03-.4 2.86-1.18.074-.07.173-.11.275-.11.112 0 .219.047.295.13l1.9 2.12c.149.167.14.424-.02.58-1.607 1.552-3.766 2.405-6 2.37zm20.02-12.78c-.087.475-.507.823-.99.82h-2.64c-.486-.002-.907.351-.99.83l-.92 5.12c-.25 1.38.2 2.07 1.38 2.07.49 0 .95-.15 1.4-.44.113-.078.263-.082.38-.01.07.04.12.11.14.2l.65 2.39c.068.267-.036.55-.26.71-1.07.725-2.337 1.106-3.63 1.09-1.62 0-2.89-.47-3.8-1.41-.92-.92-1.23-2.3-.91-4.15l.95-5.22c.011-.059.016-.12.016-.18 0-.547-.449-.998-.996-1h-.19c-.547-.003-.995-.453-.995-1 0-.057.005-.114.015-.17l.24-1.41c.083-.479.504-.832.99-.83h.93c.48-.002.894-.348.98-.82l.53-2.95c.08-.444.45-.782.9-.82l3.36-.3c.009-.001.019-.001.028-.001.22 0 .4.181.4.4 0 .027-.002.054-.008.081l-.58 3.23c-.011.059-.016.12-.016.18 0 .547.449.998.996 1h1.905c.548 0 1 .451 1 1 0 .057-.005.114-.015.17zm10.69 6.26 1.43-8.03c.087-.475.507-.823.99-.82h2.566c.549 0 1 .451 1 1 0 .06-.005.121-.016.18l-2.33 13c-.086.472-.5.818-.98.82h-2.547c-.208 0-.38-.171-.38-.38 0-.023.003-.047.007-.07.06-.36-.38-.62-.68-.4-1.103.789-2.424 1.216-3.78 1.22-1.8 0-3.16-.6-4.07-1.78-.92-1.18-1.21-2.75-.88-4.71l1.45-8.06c.086-.472.5-.818.98-.82h2.616c.549 0 1 .451 1 1 0 .06-.005.121-.016.18l-1.34 7.46c-.14.85-.04 1.53.3 2.04.34.5.88.75 1.61.75 1.03 0 1.83-.39 2.4-1.15.31-.33.53-.8.67-1.43zm12.56 6.55c-1.49 0-2.8-.26-3.96-.78-.966-.364-1.802-1.008-2.4-1.85-.059-.092-.08-.203-.06-.31.02-.1.07-.2.15-.26l2.24-2.09c.07-.06.15-.1.24-.1.11 0 .22.07.3.16.32.44.84.83 1.54 1.17.77.38 1.54.57 2.31.57.61 0 1.08-.12 1.41-.35.34-.24.51-.56.51-.97 0-.24-.09-.47-.27-.67-.18-.22-.4-.39-.65-.52-.33-.15-.65-.29-.97-.4-1.089-.319-2.119-.812-3.05-1.46-.975-.661-1.54-1.783-1.49-2.96 0-1.46.6-2.66 1.79-3.58 1.363-.984 3.02-1.478 4.7-1.4 1.205-.013 2.401.212 3.52.66.98.41 1.72.96 2.22 1.66.07.09.1.2.07.32-.01.1-.06.2-.14.27l-2.17 1.91c-.075.064-.171.1-.27.1-.121-.001-.237-.051-.32-.14-.394-.425-.87-.765-1.4-1-.571-.262-1.192-.399-1.82-.4-.52 0-.94.1-1.26.32-.292.169-.472.482-.47.82 0 .21.1.4.28.54.24.2.5.35.78.47l.43.19c.44.181.884.354 1.33.52 1.023.414 1.944 1.046 2.7 1.85.58.67.87 1.52.87 2.53 0 1.59-.61 2.84-1.84 3.77-1.416.992-3.123 1.485-4.85 1.4z" fill-rule="nonzero"/></g></svg>