<?xml version="1.0" encoding="UTF-8" standalone="no"?>
<!-- Created with Inkscape (http://www.inkscape.org/) -->

<svg
   width="20.505207mm"
   height="20.505278mm"
   viewBox="0 0 20.505207 20.505278"
   version="1.1"
   id="svg1"
   xmlns="http://www.w3.org/2000/svg"
   xmlns:svg="http://www.w3.org/2000/svg">
  <defs
     id="defs1" />
  <g
     id="layer1"
     transform="translate(-54.76875,-131.23328)">
    <path
       class="pf0"
       d="m 61.749537,144.67769 c 0.580323,0 1.0806,-0.1801 1.500834,-0.52029 0.420233,-0.34018 0.720399,-0.80044 0.880489,-1.36076 0.160089,-0.5603 0.120066,-1.02056 -0.100054,-1.36074 -0.220123,-0.34019 -0.640356,-0.52029 -1.22068,-0.52029 -0.580321,0 -1.080601,0.1801 -1.500834,0.52029 -0.420234,0.34018 -0.700388,0.80044 -0.860477,1.36074 -0.160091,0.56032 -0.140078,1.02058 0.100053,1.36076 0.200111,0.36021 0.600335,0.52029 1.200668,0.52029"
       style="fill:#263eb5;fill-opacity:1;stroke-width:0.200111"
       id="path1" />
    <path
       class="pf1"
       d="m 66.712294,140.91561 0.52029,-1.84103 h 0.920511 l 0.3602,-1.32073 c 0.120068,-0.40023 0.260145,-0.80045 0.440245,-1.16066 0.160088,-0.36019 0.400222,-0.68037 0.680378,-0.96052 0.280155,-0.28016 0.640356,-0.50028 1.06059,-0.66037 0.420233,-0.16008 0.960533,-0.24013 1.580879,-0.24013 0.160089,0 0.300167,0 0.460255,0.02 -0.140078,-0.58032 -0.660368,-1.00054 -1.2607,-1.02056 H 58.567768 c -0.720401,0 -1.300722,0.60034 -1.300722,1.32074 v 11.48637 l 2.101167,-7.46411 h 2.121178 l -0.280156,0.98053 h 0.04003 c 0.120068,-0.14007 0.280156,-0.26013 0.480268,-0.40021 0.200111,-0.14007 0.400222,-0.26015 0.620345,-0.38021 0.220122,-0.12007 0.460255,-0.20011 0.7204,-0.28016 0.260145,-0.08 0.520288,-0.10001 0.780435,-0.10001 0.560311,0 1.020566,0.10001 1.420787,0.28017 0.400224,0.18009 0.700391,0.46025 0.940524,0.80043 0.200111,0.30016 0.320178,0.66037 0.380211,1.08061 l 0.160086,-0.12004 H 66.7123 Z"
       style="fill:#0b75cf;fill-opacity:1;stroke-width:0.200111"
       id="path7" />
    <path
       class="pf2"
       d="m 72.615575,136.71327 c -0.100054,-0.0201 -0.220122,-0.04 -0.3602,-0.04 -0.3602,0 -0.660367,0.0801 -0.9005,0.24014 -0.220123,0.16008 -0.420234,0.48025 -0.560313,0.98054 l -0.340187,1.18066 h 1.300722 l 0.320177,1.02056 -0.840467,0.82045 h -1.300721 l -1.580879,5.60312 h -2.281268 l 1.580878,-5.60312 h -0.88049 l -0.1801,0.12008 c 0,0.04 0.02001,0.10001 0.02001,0.14008 0.04002,0.46024 -0.02001,0.98054 -0.1801,1.54084 -0.140078,0.5203 -0.360201,1.02058 -0.660367,1.50085 -0.300167,0.48026 -0.640357,0.90049 -1.020567,1.26069 -0.400223,0.3602 -0.840466,0.66038 -1.320734,0.8805 -0.480267,0.22013 -0.980545,0.32017 -1.520846,0.32017 -0.480267,0 -0.9005,-0.08 -1.280711,-0.22012 -0.380211,-0.14008 -0.640357,-0.40023 -0.800445,-0.76042 h -0.04003 l -1.000556,3.54197 h 12.667041 c 0.7204,0 1.320732,-0.58032 1.320732,-1.32074 v -11.1462 c -0.06003,-0.0201 -0.120065,-0.04 -0.160087,-0.06"
       style="fill:#140975;fill-opacity:1;stroke-width:0.200111"
       id="path8" />
  </g>
</svg>
