<?xml version="1.0" encoding="UTF-8" standalone="no"?>
<svg
   version="1.1"
   id="svg2"
   height="512"
   width="512"
   viewBox="0 0 512 512"
   sodipodi:docname="astro.svg"
   inkscape:version="1.3.2 (091e20ef0f, 2023-11-25, custom)"
   xml:space="preserve"
   inkscape:export-filename="../../../../../../../home/simon/.local/share/icons/funkysquaredance/scalable/apps/astro.svg"
   inkscape:export-xdpi="96"
   inkscape:export-ydpi="96"
   xmlns:inkscape="http://www.inkscape.org/namespaces/inkscape"
   xmlns:sodipodi="http://sodipodi.sourceforge.net/DTD/sodipodi-0.dtd"
   xmlns:xlink="http://www.w3.org/1999/xlink"
   xmlns="http://www.w3.org/2000/svg"
   xmlns:svg="http://www.w3.org/2000/svg"
   xmlns:rdf="http://www.w3.org/1999/02/22-rdf-syntax-ns#"
   xmlns:cc="http://creativecommons.org/ns#"
   xmlns:dc="http://purl.org/dc/elements/1.1/"><title
     id="title1">Funky Square Dance Icon</title><sodipodi:namedview
     id="namedview1"
     pagecolor="#ffffff"
     bordercolor="#000000"
     borderopacity="0.25"
     inkscape:showpageshadow="2"
     inkscape:pageopacity="0.0"
     inkscape:pagecheckerboard="0"
     inkscape:deskcolor="#d1d1d1"
     inkscape:zoom="1"
     inkscape:cx="-328"
     inkscape:cy="98"
     inkscape:window-width="3832"
     inkscape:window-height="1104"
     inkscape:window-x="0"
     inkscape:window-y="0"
     inkscape:window-maximized="1"
     inkscape:current-layer="svg2"
     showguides="false"><sodipodi:guide
       position="9.9132435,361.13442"
       orientation="1,0"
       id="guide1"
       inkscape:locked="false" /></sodipodi:namedview><defs
     id="defs4"><linearGradient
       id="linearGradient2"
       y2="44.984001"
       gradientUnits="userSpaceOnUse"
       x2="19.360001"
       y1="21.030804"
       x1="19.244999"><stop
         id="stop1"
         style="stop-color:#011e31;stop-opacity:1;"
         offset="0" /><stop
         id="stop2"
         style="stop-color:#61018f;stop-opacity:1;"
         offset="1" /></linearGradient><linearGradient
       id="linearGradient2460"
       y2="44.984001"
       gradientUnits="userSpaceOnUse"
       x2="19.360001"
       y1="21.030804"
       x1="19.244999"><stop
         id="stop3602"
         style="stop-color:#0271bc;stop-opacity:1"
         offset="0" /><stop
         id="stop3604"
         style="stop-color:#026bb2;stop-opacity:1"
         offset="1" /></linearGradient><linearGradient
       y2="20.625916"
       x2="1006.8082"
       y1="484.41721"
       x1="1012.5133"
       gradientTransform="matrix(1.0317796,0,0,1.0317796,-830.86406,592.67791)"
       gradientUnits="userSpaceOnUse"
       id="linearGradient4114-2-6"
       xlink:href="#ButtonShadow-0-1-1-5-9" /><linearGradient
       gradientTransform="matrix(1.0058652,0,0,0.994169,100,0)"
       gradientUnits="userSpaceOnUse"
       id="ButtonShadow-0-1-1-5-9"
       y2="7.0165396"
       x2="45.447727"
       y1="92.539597"
       x1="45.447727"><stop
         offset="0"
         style="stop-color:#000000;stop-opacity:1"
         id="stop3750-8-9-3-6-4" /><stop
         offset="1"
         style="stop-color:#000000;stop-opacity:0.58823532"
         id="stop3752-5-6-4-2-9" /></linearGradient><linearGradient
       y2="20.625916"
       x2="1006.8082"
       y1="484.41721"
       x1="1012.5133"
       gradientTransform="matrix(1.0402541,0,0,1.0402541,-837.95116,592.51825)"
       gradientUnits="userSpaceOnUse"
       id="linearGradient4112-2-6"
       xlink:href="#ButtonShadow-0-1-1-5-9" /><linearGradient
       y2="20.625916"
       x2="1006.8082"
       y1="484.41721"
       x1="1012.5133"
       gradientTransform="matrix(1.023305,0,0,1.023305,-823.77704,592.83757)"
       gradientUnits="userSpaceOnUse"
       id="linearGradient4110-6-7"
       xlink:href="#ButtonShadow-0-1-1-5-9" /><linearGradient
       y2="20.625916"
       x2="1006.8082"
       y1="484.41721"
       x1="1012.5133"
       gradientTransform="matrix(1.0148305,0,0,1.0148305,-816.68996,592.99723)"
       gradientUnits="userSpaceOnUse"
       id="linearGradient4116-6-3"
       xlink:href="#ButtonShadow-0-1-1-5-9" /><linearGradient
       xlink:href="#ButtonShadow-0-1-1-5-9"
       id="linearGradient5342-3"
       gradientUnits="userSpaceOnUse"
       gradientTransform="matrix(1.0074153,0,0,1.0074153,-810.48879,593.1369)"
       x1="1012.5133"
       y1="484.41721"
       x2="1006.8082"
       y2="20.625916" /><linearGradient
       y2="363.73825"
       x2="988.78552"
       y1="51.511765"
       x1="993.43896"
       gradientTransform="translate(778.59979,-360.55963)"
       gradientUnits="userSpaceOnUse"
       id="linearGradient4084-8"
       xlink:href="#linearGradient3737-9" /><linearGradient
       id="linearGradient3737-9"><stop
         offset="0"
         style="stop-color:#ffffff;stop-opacity:1"
         id="stop3739-7" /><stop
         offset="1"
         style="stop-color:#ffffff;stop-opacity:0"
         id="stop3741-4" /></linearGradient><linearGradient
       y2="-55.941216"
       x2="1763.6903"
       y1="155.59685"
       x1="1764.6487"
       gradientUnits="userSpaceOnUse"
       id="linearGradient4086-12"
       xlink:href="#linearGradient4046-3" /><linearGradient
       id="linearGradient4046-3"><stop
         offset="0"
         style="stop-color:#000000;stop-opacity:1;"
         id="stop4048-7" /><stop
         offset="1"
         style="stop-color:#ffffff;stop-opacity:0.2"
         id="stop4050-73" /></linearGradient><linearGradient
       xlink:href="#linearGradient2"
       id="linearGradient3157"
       gradientUnits="userSpaceOnUse"
       gradientTransform="matrix(12.593166,0,0,12.595674,-56.579947,-68.883849)"
       x1="18.930269"
       y1="6.2951212"
       x2="19.360001"
       y2="36.643665" /><clipPath
       id="clipPath3699"
       clipPathUnits="userSpaceOnUse"><path
         style="fill:url(#linearGradient3703);stroke:none"
         d="M 118.34375,20 C 63.867087,20 20,63.867084 20,118.34375 l 0,23.0625 0,252.25 C 20,448.13291 63.867087,492 118.34375,492 l 275.3125,0 C 448.13292,492 492,448.13291 492,393.65625 l 0,-252.25 0,-23.0625 C 492,63.867084 448.13292,20 393.65625,20 Z"
         id="path3701" /></clipPath><linearGradient
       y2="36.643665"
       x2="19.360001"
       y1="6.2951212"
       x1="18.930269"
       gradientTransform="matrix(12.102564,0,0,12.102564,-34.468255,-46.187105)"
       gradientUnits="userSpaceOnUse"
       id="linearGradient3703"
       xlink:href="#linearGradient2460" /><linearGradient
       y2="36.643665"
       x2="19.360001"
       y1="6.2951212"
       x1="18.930269"
       gradientTransform="matrix(12.593166,0,0,12.592196,-56.579947,-68.729179)"
       gradientUnits="userSpaceOnUse"
       id="linearGradient4658"
       xlink:href="#linearGradient2460" /><linearGradient
       id="paint0_linear_1_59"
       x1="22.4702"
       y1="107"
       x2="69.1451"
       y2="84.9468"
       gradientUnits="userSpaceOnUse"><stop
         stop-color="#D83333"
         id="stop3" /><stop
         offset="1"
         stop-color="#F041FF"
         id="stop4" /></linearGradient><linearGradient
       y2="363.73825"
       x2="988.78552"
       y1="51.511765"
       x1="993.43896"
       gradientTransform="translate(778.59979,-360.55963)"
       gradientUnits="userSpaceOnUse"
       id="linearGradient4084-8-7"
       xlink:href="#linearGradient3737-9" /><linearGradient
       y2="-55.941216"
       x2="1763.6903"
       y1="155.59685"
       x1="1764.6487"
       gradientUnits="userSpaceOnUse"
       id="linearGradient4086-12-3"
       xlink:href="#linearGradient4046-3" /></defs><metadata
     id="metadata7"><rdf:RDF><cc:Work
         rdf:about=""><dc:format>image/svg+xml</dc:format><dc:type
           rdf:resource="http://purl.org/dc/dcmitype/StillImage" /><cc:license
           rdf:resource="http://creativecommons.org/licenses/by/4.0/" /><dc:date>27/11/24</dc:date><dc:creator><cc:Agent><dc:title>Simon Greer</dc:title></cc:Agent></dc:creator><dc:source>https://simongreer.co.uk/projects/funkysquaredance</dc:source><dc:description>based on FlatWoken by alecive</dc:description><dc:title>Funky Square Dance Icon</dc:title></cc:Work><cc:License
         rdf:about="http://creativecommons.org/licenses/by/4.0/"><cc:permits
           rdf:resource="http://creativecommons.org/ns#Reproduction" /><cc:permits
           rdf:resource="http://creativecommons.org/ns#Distribution" /><cc:requires
           rdf:resource="http://creativecommons.org/ns#Notice" /><cc:requires
           rdf:resource="http://creativecommons.org/ns#Attribution" /><cc:permits
           rdf:resource="http://creativecommons.org/ns#DerivativeWorks" /></cc:License></rdf:RDF></metadata><g
     transform="matrix(1.040537,0,0,1.0404569,-33.18536,-636.74592)"
     id="g4103"
     style="display:inline"
     inkscape:label="outer-shadow"><rect
       style="color:#000000;display:inline;overflow:visible;visibility:visible;opacity:0.1;fill:url(#linearGradient4114-2-6);fill-opacity:1;fill-rule:nonzero;stroke:none;stroke-width:1.5;marker:none;enable-background:accumulate"
       id="rect6187"
       width="487"
       height="487"
       x="31.985071"
       y="612.11719"
       ry="101.45834" /><rect
       ry="102.29167"
       y="612.11719"
       x="31.985071"
       height="491"
       width="491"
       id="rect6191"
       style="color:#000000;display:inline;overflow:visible;visibility:visible;opacity:0.08;fill:url(#linearGradient4112-2-6);fill-opacity:1;fill-rule:nonzero;stroke:none;stroke-width:1.5;marker:none;enable-background:accumulate" /><rect
       ry="100.62501"
       y="612.11719"
       x="31.985071"
       height="483"
       width="483"
       id="rect6183"
       style="color:#000000;display:inline;overflow:visible;visibility:visible;opacity:0.2;fill:url(#linearGradient4110-6-7);fill-opacity:1;fill-rule:nonzero;stroke:none;stroke-width:1.5;marker:none;enable-background:accumulate" /><rect
       style="color:#000000;display:inline;overflow:visible;visibility:visible;opacity:0.25;fill:url(#linearGradient4116-6-3);fill-opacity:1;fill-rule:nonzero;stroke:none;stroke-width:1.5;marker:none;enable-background:accumulate"
       id="rect6179"
       width="479"
       height="479"
       x="31.985071"
       y="612.11719"
       ry="99.791664" /><rect
       ry="99.0625"
       y="612.11719"
       x="31.985071"
       height="475.5"
       width="475.5"
       id="rect5574"
       style="color:#000000;display:inline;overflow:visible;visibility:visible;opacity:0.25;fill:url(#linearGradient5342-3);fill-opacity:1;fill-rule:nonzero;stroke:none;stroke-width:1.5;marker:none;enable-background:accumulate" /></g><path
     id="rect5505"
     d="M 102.42661,0 C 45.741623,0 0.09629285,45.654418 0.09629285,102.35069 v 24.00218 262.52776 c 0,56.69626 45.64533015,102.35069 102.33031715,102.35069 h 286.47287 c 56.68499,0 102.33032,-45.65443 102.33032,-102.35069 V 126.35287 102.35069 C 491.2298,45.654418 445.58447,0 388.89948,0 Z"
     style="display:inline;fill:url(#linearGradient3157);stroke:none;stroke-width:1.04063"
     inkscape:label="button base" /><g
     id="g4038-9-6"
     transform="matrix(1.040537,0,0,1.0407444,-1615.0117,323.06388)"
     style="display:inline"
     inkscape:label="bevels"><path
       id="rect6809-2-3-1"
       d="m 1650.4994,-310.41615 c -54.4767,0 -98.3125,43.83583 -98.3125,98.3125 V 63.240097 c 0,54.476673 43.8358,98.343753 98.3125,98.343753 h 2.9375 c -53.3225,0 -91.4499,-42.60693 -91.4499,-95.929432 V -203.84558 c 0,-53.3225 39.2662,-87.57001 92.5887,-87.57001 h 269.5001 c 53.3225,0 91.1033,32.94416 91.2817,86.26636 l 0.8996,268.855192 c 0.1785,53.322208 -39.9976,97.877888 -93.3201,97.877888 h 2.9062 c 54.4767,0 98.3438,-43.86708 98.3438,-98.343753 V -212.10365 c 0,-54.47667 -43.8671,-98.3125 -98.3438,-98.3125 z"
       style="color:#000000;display:inline;overflow:visible;visibility:visible;opacity:0.145191;fill:url(#linearGradient4084-8-7);fill-opacity:1;fill-rule:nonzero;stroke:none;stroke-width:1.5;marker:none;enable-background:accumulate"
       sodipodi:nodetypes="sssscsssssscsssss"
       inkscape:label="top bevel" /><path
       style="color:#000000;display:inline;overflow:visible;visibility:visible;opacity:0.2;fill:url(#linearGradient4086-12-3);fill-opacity:1;fill-rule:nonzero;stroke:none;stroke-width:1.5;marker:none;enable-background:accumulate"
       d="m 1650.4994,161.58385 c -54.4767,0 -98.3125,-43.83583 -98.3125,-98.312503 V -212.0724 c 0,-54.47667 43.8358,-98.34375 98.3125,-98.34375 h 2.9375 c -53.3225,0 -91.7042,43.65846 -91.7225,96.98096 l -0.093,270.416042 c -0.018,53.322508 40.1747,82.481468 93.4972,82.481468 h 269.5001 c 53.3225,0 92.1773,-30.88586 91.9328,-84.207802 l -1.2279,-267.784188 c -0.2445,-53.32194 -39.0642,-97.88648 -92.3867,-97.88648 h 2.9062 c 54.4767,0 98.3438,43.86708 98.3438,98.34375 V 63.271347 c 0,54.476673 -43.8671,98.312503 -98.3438,98.312503 z"
       id="path3981-7-8"
       sodipodi:nodetypes="sssscsssssscsssss"
       inkscape:label="bottom bevel" /></g><path
     id="path4456"
     clip-path="none"
     style="display:inline;fill:#000000;fill-opacity:0.235294;stroke-width:1.04049"
     d="m 192.24309,69.641827 -89.19192,232.638213 142.61188,165.65205 3.64185,23.29927 h 139.66923 l -0.0747,0.004 c 56.52564,4.2456 102.33029,-45.4645 102.33032,-102.32243 l 5e-5,-93.13933 -7.71083,-17.60599 L 302.31868,66.660125 Z"
     sodipodi:nodetypes="ccccccscccc"
     inkscape:label="shadow" /><g
     style="display:inline;fill:none"
     id="g1"
     transform="matrix(3.4053177,0,0,3.4050554,103.05117,65.333816)"
     inkscape:label="Astro"><path
       d="m 27.5894,91.1365 c -4.8339,-4.4187 -6.245,-13.703 -4.2311,-20.4293 3.492,4.2408 8.3305,5.5842 13.3422,6.3425 7.737,1.1702 15.3354,0.7325 22.5227,-2.8038 0.8222,-0.4049 1.582,-0.9432 2.4804,-1.4885 0.6744,1.9566 0.8499,3.9318 0.6144,5.9422 -0.5728,4.8961 -3.0094,8.6782 -6.8848,11.5452 -1.5497,1.1468 -3.1895,2.1719 -4.79,3.2531 -4.917,3.3234 -6.2473,7.2201 -4.3997,12.8881 0.0439,0.139 0.0832,0.277 0.1825,0.614 -2.5105,-1.124 -4.3443,-2.76 -5.7415,-4.911 -1.4758,-2.2697 -2.1779,-4.7809 -2.2149,-7.4981 -0.0185,-1.3223 -0.0185,-2.6564 -0.1963,-3.96 -0.4342,-3.1782 -1.9262,-4.6012 -4.7369,-4.6831 -2.8846,-0.0842 -5.1664,1.6991 -5.7715,4.5076 -0.0462,0.2153 -0.1132,0.4283 -0.1802,0.6787 z"
       fill="#ffffff"
       id="path1" /><path
       d="m 27.5894,91.1365 c -4.8339,-4.4187 -6.245,-13.703 -4.2311,-20.4293 3.492,4.2408 8.3305,5.5842 13.3422,6.3425 7.737,1.1702 15.3354,0.7325 22.5227,-2.8038 0.8222,-0.4049 1.582,-0.9432 2.4804,-1.4885 0.6744,1.9566 0.8499,3.9318 0.6144,5.9422 -0.5728,4.8961 -3.0094,8.6782 -6.8848,11.5452 -1.5497,1.1468 -3.1895,2.1719 -4.79,3.2531 -4.917,3.3234 -6.2473,7.2201 -4.3997,12.8881 0.0439,0.139 0.0832,0.277 0.1825,0.614 -2.5105,-1.124 -4.3443,-2.76 -5.7415,-4.911 -1.4758,-2.2697 -2.1779,-4.7809 -2.2149,-7.4981 -0.0185,-1.3223 -0.0185,-2.6564 -0.1963,-3.96 -0.4342,-3.1782 -1.9262,-4.6012 -4.7369,-4.6831 -2.8846,-0.0842 -5.1664,1.6991 -5.7715,4.5076 -0.0462,0.2153 -0.1132,0.4283 -0.1802,0.6787 z"
       fill="url(#paint0_linear_1_59)"
       id="path2"
       style="fill:url(#paint0_linear_1_59)" /><path
       d="m 0,69.5866 c 0,0 14.3139,-6.9729 28.6678,-6.9729 L 39.4901,29.1204 c 0.4052,-1.6197 1.5882,-2.7205 2.9238,-2.7205 1.3356,0 2.5186,1.1008 2.9238,2.7205 l 10.8224,33.4933 c 17,0 28.6677,6.9729 28.6677,6.9729 0,0 -24.3133,-66.23427 -24.3608,-66.36716 C 59.7692,1.2612 58.5911,0 57.0029,0 H 27.8274 C 26.2392,0 25.1087,1.2612 24.3634,3.21944 24.3108,3.34983 0,69.5866 0,69.5866 Z"
       fill="#ffffff"
       id="path3" /></g></svg>
