<?xml version="1.0" encoding="UTF-8" standalone="no"?>
<svg
   version="1.1"
   id="svg2"
   height="512"
   width="512"
   viewBox="0 0 512 512"
   xml:space="preserve"
   xmlns:xlink="http://www.w3.org/1999/xlink"
   xmlns="http://www.w3.org/2000/svg"
   xmlns:svg="http://www.w3.org/2000/svg"
   xmlns:rdf="http://www.w3.org/1999/02/22-rdf-syntax-ns#"
   xmlns:cc="http://creativecommons.org/ns#"
   xmlns:dc="http://purl.org/dc/elements/1.1/"><title
     id="title1">Funky Square Dance Icon</title><defs
     id="defs4"><linearGradient
       id="linearGradient6"><stop
         offset="0"
         style="stop-color:#000000;stop-opacity:1;"
         id="stop5" /><stop
         offset="1"
         style="stop-color:#ffffff;stop-opacity:0;"
         id="stop6" /></linearGradient><linearGradient
       id="linearGradient2"
       y2="44.984001"
       gradientUnits="userSpaceOnUse"
       x2="19.360001"
       y1="21.030804"
       x1="19.244999"><stop
         id="stop1"
         style="stop-color:#011e31;stop-opacity:1;"
         offset="0" /><stop
         id="stop2"
         style="stop-color:#014618;stop-opacity:1;"
         offset="1" /></linearGradient><linearGradient
       y2="20.625916"
       x2="1006.8082"
       y1="484.41721"
       x1="1012.5133"
       gradientTransform="matrix(1.0317796,0,0,1.0317796,-830.86406,592.67791)"
       gradientUnits="userSpaceOnUse"
       id="linearGradient4114-2-6"
       xlink:href="#ButtonShadow-0-1-1-5-9" /><linearGradient
       gradientTransform="matrix(1.0058652,0,0,0.994169,100,0)"
       gradientUnits="userSpaceOnUse"
       id="ButtonShadow-0-1-1-5-9"
       y2="7.0165396"
       x2="45.447727"
       y1="92.539597"
       x1="45.447727"><stop
         offset="0"
         style="stop-color:#000000;stop-opacity:1"
         id="stop3750-8-9-3-6-4" /><stop
         offset="1"
         style="stop-color:#000000;stop-opacity:0.58823532"
         id="stop3752-5-6-4-2-9" /></linearGradient><linearGradient
       y2="20.625916"
       x2="1006.8082"
       y1="484.41721"
       x1="1012.5133"
       gradientTransform="matrix(1.0402541,0,0,1.0402541,-837.95116,592.51825)"
       gradientUnits="userSpaceOnUse"
       id="linearGradient4112-2-6"
       xlink:href="#ButtonShadow-0-1-1-5-9" /><linearGradient
       y2="20.625916"
       x2="1006.8082"
       y1="484.41721"
       x1="1012.5133"
       gradientTransform="matrix(1.023305,0,0,1.023305,-823.77704,592.83757)"
       gradientUnits="userSpaceOnUse"
       id="linearGradient4110-6-7"
       xlink:href="#ButtonShadow-0-1-1-5-9" /><linearGradient
       y2="20.625916"
       x2="1006.8082"
       y1="484.41721"
       x1="1012.5133"
       gradientTransform="matrix(1.0148305,0,0,1.0148305,-816.68996,592.99723)"
       gradientUnits="userSpaceOnUse"
       id="linearGradient4116-6-3"
       xlink:href="#ButtonShadow-0-1-1-5-9" /><linearGradient
       xlink:href="#ButtonShadow-0-1-1-5-9"
       id="linearGradient5342-3"
       gradientUnits="userSpaceOnUse"
       gradientTransform="matrix(1.0074153,0,0,1.0074153,-810.48879,593.1369)"
       x1="1012.5133"
       y1="484.41721"
       x2="1006.8082"
       y2="20.625916" /><linearGradient
       id="linearGradient3737-9"><stop
         offset="0"
         style="stop-color:#ffffff;stop-opacity:1"
         id="stop3739-7" /><stop
         offset="1"
         style="stop-color:#ffffff;stop-opacity:0"
         id="stop3741-4" /></linearGradient><linearGradient
       xlink:href="#linearGradient2"
       id="linearGradient3157"
       gradientUnits="userSpaceOnUse"
       gradientTransform="matrix(12.593166,0,0,12.595674,-56.579947,-68.883849)"
       x1="18.930269"
       y1="6.2951212"
       x2="19.360001"
       y2="36.643665" /><linearGradient
       y2="416.86551"
       x2="994.22198"
       y1="217.29123"
       x1="991.40027"
       gradientTransform="translate(778.59979,-360.55963)"
       gradientUnits="userSpaceOnUse"
       id="linearGradient4084-8-7"
       xlink:href="#linearGradient3737-9" /><linearGradient
       y2="-55.941216"
       x2="1763.6903"
       y1="155.59685"
       x1="1764.6487"
       gradientUnits="userSpaceOnUse"
       id="linearGradient4086-12-3"
       xlink:href="#linearGradient6" /><linearGradient
       id="paint0_linear_193_425"
       x1="373.698"
       y1="-1.11451e-06"
       x2="373.698"
       y2="495.63599"
       gradientUnits="userSpaceOnUse"><stop
         stop-color="#00D196"
         id="stop9" /><stop
         offset="1"
         stop-color="#00B381"
         id="stop10" /></linearGradient><radialGradient
       id="paint1_radial_193_425"
       cx="0"
       cy="0"
       r="1"
       gradientUnits="userSpaceOnUse"
       gradientTransform="matrix(-761.99501,-158.49519,77.223803,-371.26775,-386.689,113.40161)"><stop
         stop-color="white"
         id="stop11" /><stop
         offset="1"
         stop-color="white"
         stop-opacity="0"
         id="stop12" /></radialGradient><radialGradient
       id="paint3_radial_193_425"
       cx="0"
       cy="0"
       r="1"
       gradientUnits="userSpaceOnUse"
       gradientTransform="matrix(-761.99501,-158.49519,77.223803,-371.26775,-386.689,113.40161)"><stop
         stop-color="white"
         id="stop15" /><stop
         offset="1"
         stop-color="white"
         stop-opacity="0"
         id="stop16" /></radialGradient><radialGradient
       id="paint5_radial_193_425"
       cx="0"
       cy="0"
       r="1"
       gradientUnits="userSpaceOnUse"
       gradientTransform="matrix(-761.99501,-158.49519,77.223803,-371.26775,-386.689,113.40161)"><stop
         stop-color="white"
         id="stop19" /><stop
         offset="1"
         stop-color="white"
         stop-opacity="0"
         id="stop20" /></radialGradient><radialGradient
       id="paint7_radial_193_425"
       cx="0"
       cy="0"
       r="1"
       gradientUnits="userSpaceOnUse"
       gradientTransform="matrix(-761.99501,-158.49519,77.223803,-371.26775,-386.689,113.40161)"><stop
         stop-color="white"
         id="stop23" /><stop
         offset="1"
         stop-color="white"
         stop-opacity="0"
         id="stop24" /></radialGradient><linearGradient
       xlink:href="#paint0_linear_193_425"
       id="linearGradient1"
       gradientUnits="userSpaceOnUse"
       x1="373.698"
       y1="-1.11451e-06"
       x2="373.698"
       y2="495.63599"
       gradientTransform="translate(-1108,-162.55039)" /><linearGradient
       xlink:href="#paint0_linear_193_425"
       id="linearGradient3"
       gradientUnits="userSpaceOnUse"
       x1="373.698"
       y1="-1.11451e-06"
       x2="373.698"
       y2="495.63599"
       gradientTransform="translate(-1108,-162.55039)" /><linearGradient
       xlink:href="#paint0_linear_193_425"
       id="linearGradient4"
       gradientUnits="userSpaceOnUse"
       x1="373.698"
       y1="-1.11451e-06"
       x2="373.698"
       y2="495.63599"
       gradientTransform="translate(-1108,-162.55039)" /><linearGradient
       xlink:href="#paint0_linear_193_425"
       id="linearGradient5"
       gradientUnits="userSpaceOnUse"
       x1="373.698"
       y1="-1.11451e-06"
       x2="373.698"
       y2="495.63599"
       gradientTransform="translate(-1108,-162.55039)" /></defs><metadata
     id="metadata7"><rdf:RDF><cc:Work
         rdf:about=""><dc:format>image/svg+xml</dc:format><dc:type
           rdf:resource="http://purl.org/dc/dcmitype/StillImage" /><cc:license
           rdf:resource="http://creativecommons.org/licenses/by/4.0/" /><dc:date>27/11/24</dc:date><dc:creator><cc:Agent><dc:title>Simon Greer</dc:title></cc:Agent></dc:creator><dc:source>https://simongreer.co.uk/projects/funkysquaredance</dc:source><dc:description>based on FlatWoken by alecive</dc:description><dc:title>Funky Square Dance Icon</dc:title></cc:Work><cc:License
         rdf:about="http://creativecommons.org/licenses/by/4.0/"><cc:permits
           rdf:resource="http://creativecommons.org/ns#Reproduction" /><cc:permits
           rdf:resource="http://creativecommons.org/ns#Distribution" /><cc:requires
           rdf:resource="http://creativecommons.org/ns#Notice" /><cc:requires
           rdf:resource="http://creativecommons.org/ns#Attribution" /><cc:permits
           rdf:resource="http://creativecommons.org/ns#DerivativeWorks" /></cc:License></rdf:RDF></metadata><g
     transform="matrix(1.040537,0,0,1.0404569,-33.18536,-636.74592)"
     id="g4103"
     style="display:inline"><rect
       style="color:#000000;display:inline;overflow:visible;visibility:visible;opacity:0.1;fill:url(#linearGradient4114-2-6);fill-opacity:1;fill-rule:nonzero;stroke:none;stroke-width:1.5;marker:none;enable-background:accumulate"
       id="rect6187"
       width="487"
       height="487"
       x="31.985071"
       y="612.11719"
       ry="101.45834" /><rect
       ry="102.29167"
       y="612.11719"
       x="31.985071"
       height="491"
       width="491"
       id="rect6191"
       style="color:#000000;display:inline;overflow:visible;visibility:visible;opacity:0.08;fill:url(#linearGradient4112-2-6);fill-opacity:1;fill-rule:nonzero;stroke:none;stroke-width:1.5;marker:none;enable-background:accumulate" /><rect
       ry="100.62501"
       y="612.11719"
       x="31.985071"
       height="483"
       width="483"
       id="rect6183"
       style="color:#000000;display:inline;overflow:visible;visibility:visible;opacity:0.2;fill:url(#linearGradient4110-6-7);fill-opacity:1;fill-rule:nonzero;stroke:none;stroke-width:1.5;marker:none;enable-background:accumulate" /><rect
       style="color:#000000;display:inline;overflow:visible;visibility:visible;opacity:0.25;fill:url(#linearGradient4116-6-3);fill-opacity:1;fill-rule:nonzero;stroke:none;stroke-width:1.5;marker:none;enable-background:accumulate"
       id="rect6179"
       width="479"
       height="479"
       x="31.985071"
       y="612.11719"
       ry="99.791664" /><rect
       ry="99.0625"
       y="612.11719"
       x="31.985071"
       height="475.5"
       width="475.5"
       id="rect5574"
       style="color:#000000;display:inline;overflow:visible;visibility:visible;opacity:0.25;fill:url(#linearGradient5342-3);fill-opacity:1;fill-rule:nonzero;stroke:none;stroke-width:1.5;marker:none;enable-background:accumulate" /></g><path
     id="rect5505"
     d="M 102.42661,0 C 45.741623,0 0.09629285,45.654418 0.09629285,102.35069 v 24.00218 262.52776 c 0,56.69626 45.64533015,102.35069 102.33031715,102.35069 h 286.47287 c 56.68499,0 102.33032,-45.65443 102.33032,-102.35069 V 126.35287 102.35069 C 491.2298,45.654418 445.58447,0 388.89948,0 Z"
     style="display:inline;fill:url(#linearGradient3157);stroke:none;stroke-width:1.04063" /><g
     id="g4038-9-6"
     transform="matrix(1.040537,0,0,1.0407444,-1615.0117,323.06388)"
     style="display:inline"><path
       id="rect6809-2-3-1"
       d="m 1650.4994,-310.41615 c -54.4767,0 -98.3125,43.83583 -98.3125,98.3125 V 63.240097 c 0,54.476673 43.8358,98.343753 98.3125,98.343753 h 2.9375 c -53.3225,0 -91.4499,-42.60693 -91.4499,-95.929432 V -203.84558 c 0,-53.3225 39.2662,-87.57001 92.5887,-87.57001 h 269.5001 c 53.3225,0 91.1033,32.94416 91.2817,86.26636 l 0.8996,268.855192 c 0.1785,53.322208 -39.9976,97.877888 -93.3201,97.877888 h 2.9062 c 54.4767,0 98.3438,-43.86708 98.3438,-98.343753 V -212.10365 c 0,-54.47667 -43.8671,-98.3125 -98.3438,-98.3125 z"
       style="color:#000000;display:inline;overflow:visible;visibility:visible;opacity:0.145191;fill:url(#linearGradient4084-8-7);fill-opacity:1;fill-rule:nonzero;stroke:none;stroke-width:1.5;marker:none;enable-background:accumulate" /><path
       style="color:#000000;display:inline;overflow:visible;visibility:visible;opacity:0.2;fill:url(#linearGradient4086-12-3);fill-opacity:1;fill-rule:nonzero;stroke:none;stroke-width:1.5;marker:none;enable-background:accumulate"
       d="m 1650.4994,161.58385 c -54.4767,0 -98.3125,-43.83583 -98.3125,-98.312503 V -212.0724 c 0,-54.47667 43.8358,-98.34375 98.3125,-98.34375 h 2.9375 c -53.3225,0 -91.7042,43.65846 -91.7225,96.98096 l -0.093,270.416042 c -0.018,53.322508 40.1747,82.481468 93.4972,82.481468 h 269.5001 c 53.3225,0 92.1773,-30.88586 91.9328,-84.207802 l -1.2279,-267.784188 c -0.2445,-53.32194 -39.0642,-97.88648 -92.3867,-97.88648 h 2.9062 c 54.4767,0 98.3438,43.86708 98.3438,98.34375 V 63.271347 c 0,54.476673 -43.8671,98.312503 -98.3438,98.312503 z"
       id="path3981-7-8" /></g><path
     id="path4456"
     clip-path="none"
     style="display:inline;fill:#000000;fill-opacity:0.235294;stroke-width:1.04049"
     d="m 229.71975,103.70427 -159.435171,42.98199 -44.100449,44.87643 219.47892,274.3694 3.64185,25.29928 139.59458,-5e-5 c 56.32075,5e-5 102.33024,-44.56983 102.33027,-104.31839 l 5e-5,-93.13933 -7.71083,-17.60599 L 364.9364,142.33868 Z" /><g
     id="g5"
     transform="matrix(0.58731622,0,0,0.58731622,676.93052,186.03745)"><path
       opacity="0.6"
       d="m -626.669,309.54961 c -60.011,33.411 -132.958,37.478 -197.829,8.596 -64.872,-28.883 -110.709,-85.875 -126.018,-152.782 45.291,28.678 98.635,56.838 157.138,82.885 58.503,26.047 115.06,46.818 166.709,61.301 z"
       fill="#00b381"
       id="path1-3" /><path
       d="m -704.903,151.34861 c -7.476,16.791 -30.487,22.856 -51.397,13.547 -20.909,-9.31 -31.8,-30.469 -24.324,-47.261 7.476,-16.791 30.488,-22.856003 51.397,-13.547 20.91,9.31 31.8,30.469 24.324,47.261 z"
       fill="url(#paint0_linear_193_425)"
       id="path2-6"
       style="fill:url(#linearGradient5)" /><path
       d="m -704.903,151.34861 c -7.476,16.791 -30.487,22.856 -51.397,13.547 -20.909,-9.31 -31.8,-30.469 -24.324,-47.261 7.476,-16.791 30.488,-22.856003 51.397,-13.547 20.91,9.31 31.8,30.469 24.324,47.261 z"
       fill="url(#paint1_radial_193_425)"
       style="mix-blend-mode:soft-light;fill:url(#paint1_radial_193_425)"
       id="path3-7" /><path
       d="m -579.653,223.83961 c 21.89,6.277 43.722,-2.883 48.761,-20.458 5.04,-17.576 -8.62,-36.912 -30.511,-43.189 -21.89,-6.277 -43.721,2.883 -48.761,20.458 -5.039,17.576 8.621,36.912 30.511,43.189 z"
       fill="url(#paint2_linear_193_425)"
       id="path4"
       style="fill:url(#linearGradient4)" /><path
       d="m -579.653,223.83961 c 21.89,6.277 43.722,-2.883 48.761,-20.458 5.04,-17.576 -8.62,-36.912 -30.511,-43.189 -21.89,-6.277 -43.721,2.883 -48.761,20.458 -5.039,17.576 8.621,36.912 30.511,43.189 z"
       fill="url(#paint3_radial_193_425)"
       style="mix-blend-mode:soft-light;fill:url(#paint3_radial_193_425)"
       id="path5" /><path
       d="m -883.225,16.909607 c 19.312,12.068 27.114,34.42 17.425,49.926 -9.689,15.506 -33.199,18.292 -52.511,6.225 -19.313,-12.068 -27.114,-34.42 -17.425,-49.926 9.689,-15.5049996 33.199,-18.2919996 52.511,-6.225 z"
       fill="url(#paint4_linear_193_425)"
       id="path6"
       style="fill:url(#linearGradient3)" /><path
       d="m -883.225,16.909607 c 19.312,12.068 27.114,34.42 17.425,49.926 -9.689,15.506 -33.199,18.292 -52.511,6.225 -19.313,-12.068 -27.114,-34.42 -17.425,-49.926 9.689,-15.5049996 33.199,-18.2919996 52.511,-6.225 z"
       fill="url(#paint5_radial_193_425)"
       style="mix-blend-mode:soft-light;fill:url(#paint5_radial_193_425)"
       id="path7" /><path
       fill-rule="evenodd"
       clip-rule="evenodd"
       d="m -621.279,-138.37229 c 98.796,43.986697 162.233,139.9148974 164.791,247.0859 58.163,45.759 115.969,109.806 89.109,170.133 -43.559,97.835 -248.585,48.351 -426.014,-30.645 -177.429,-78.997 -351.3916,-198.249003 -307.8324,-296.085003 26.8594,-60.326797 113.1344,-60.224097 186.0594,-47.6201 81.355,-69.810017 195.091,-86.855397 293.887,-42.868797 z m -428.7403,113.287897 c -14.6338,32.8680004 64.0393,126.184003 279.4253,222.080003 215.385,95.895 337.375,91.92 352.009,59.053 12.112,-27.204 -38.057,-85.319 -94.847,-120.037 -1.739,-1.063 -4.164,-2.569 -7.201,-4.455 -27.65,-17.168 -105.958,-65.791003 -177.473,-97.631003 -21.602,-9.618 -30.044,-35.2729996 -20.968,-55.66 9.077,-20.386 29.027,-34.014 71.033,-35.943 19.773,-0.055 22.366,-5.5345 23.269,-10.2328 1.118,-7.2484 -9.16,-14.7391 -19.305,-19.256 -82.442,-36.705497 -183.347,-21.348297 -253.273,52.2468 -68.341,-15.319 -140.5577,-17.368 -152.6693,9.835 z"
       fill="url(#paint6_linear_193_425)"
       id="path8"
       style="fill:url(#linearGradient1)" /><path
       fill-rule="evenodd"
       clip-rule="evenodd"
       d="m -621.279,-138.37229 c 98.796,43.986697 162.233,139.9148974 164.791,247.0859 58.163,45.759 115.969,109.806 89.109,170.133 -43.559,97.835 -248.585,48.351 -426.014,-30.645 -177.429,-78.997 -351.3916,-198.249003 -307.8324,-296.085003 26.8594,-60.326797 113.1344,-60.224097 186.0594,-47.6201 81.355,-69.810017 195.091,-86.855397 293.887,-42.868797 z m -428.7403,113.287897 c -14.6338,32.8680004 64.0393,126.184003 279.4253,222.080003 215.385,95.895 337.375,91.92 352.009,59.053 12.112,-27.204 -38.057,-85.319 -94.847,-120.037 -1.739,-1.063 -4.164,-2.569 -7.201,-4.455 -27.65,-17.168 -105.958,-65.791003 -177.473,-97.631003 -21.602,-9.618 -30.044,-35.2729996 -20.968,-55.66 9.077,-20.386 29.027,-34.014 71.033,-35.943 19.773,-0.055 22.366,-5.5345 23.269,-10.2328 1.118,-7.2484 -9.16,-14.7391 -19.305,-19.256 -82.442,-36.705497 -183.347,-21.348297 -253.273,52.2468 -68.341,-15.319 -140.5577,-17.368 -152.6693,9.835 z"
       fill="url(#paint7_radial_193_425)"
       style="mix-blend-mode:soft-light;fill:url(#paint7_radial_193_425)"
       id="path9" /></g></svg>
