<?xml version="1.0" encoding="UTF-8" standalone="no"?>
<!-- Created with Inkscape (http://www.inkscape.org/) -->

<svg
   width="2445.114mm"
   height="740.17285mm"
   viewBox="0 0 2445.114 740.17284"
   version="1.1"
   id="svg1"
   xml:space="preserve"
   xmlns="http://www.w3.org/2000/svg"
   xmlns:svg="http://www.w3.org/2000/svg"><defs
     id="defs1" /><path
     id="path54"
     style="display:inline;fill:#dedede;stroke-width:5.02946;stroke-miterlimit:1.8;stroke-dashoffset:6.42104;paint-order:stroke markers fill"
     d="m 933.81378,80.877254 c -1.3819,61.990786 -18.3766,352.616946 -168.6409,424.186546 -11.0372,-21.5104 -31.995,-41.0455 -62.7068,-55.4489 -35.7025,-11.9981 -120.4898,-23.9258 -155.93151,41.7577 -1.47674,2.7376 -2.69474,5.542 -3.97391,8.3395 -9.06467,-8.66 -19.06777,-16.5486 -30.04158,-23.4269 -0.46047,-0.4724 -0.85639,-0.9944 -1.32343,-1.4615 -29.15014,-29.15 -68.68668,-45.5264 -109.91112,-45.5264 -68.10583,0.066 -128.23733,44.462 -148.35218,109.5298 -16.65494,-4.4757 -33.81501,-6.7987 -51.06045,-6.9123 -53.53934,10e-5 -104.88674,21.2686 -142.74478,59.1267 C 21.26903,628.8994 0,686.6336 0,740.1729 h 403.30094 1532.65826 508.5017 a 104.03877,103.40287 0 0 0 0.6532,-3.2649 104.03877,103.40287 0 0 0 -98.4188,-103.2407 213.44165,212.13706 0 0 0 -201.9241,-147.0469 213.44165,212.13706 0 0 0 -30.4777,2.1813 c -17.3038,-23.7545 -41.7497,-40.6575 -70.8996,-45.6106 -42.0928,-7.1493 -83.3712,12.0159 -111.2273,46.7588 -9.8738,-29.16 -32.2679,-51.2548 -61.3043,-56.1877 -8.0046,-1.3584 -15.9466,-1.273 -23.6739,0 -11.5447,-43.433 -43.2262,-77.0526 -85.0941,-84.1639 -40.5835,-6.8899 -80.3234,12.924 -105.73,47.9966 -1.4685,-0.3445 -2.9119,-0.7585 -4.4074,-1.0139 -29.8718,-5.0747 -59.1333,9.3326 -78.0728,34.9033 -20.3576,-32.2749 -51.3956,-55.3496 -88.8865,-61.7167 -41.2357,-7.0052 -81.7695,7.6429 -113.021,36.4066 -30.8258,-36.3335 -71.893,-61.6941 -119.6057,-69.7973 -8.2042,-1.3938 -16.3928,-2.2423 -24.5365,-2.5688 -54.4008,-2.1813 -106.7021,19.1181 -148.7971,56.4647 C 1015.3635,263.36233 1020.0586,78.636444 991.83088,91.499354 Z" /><path
     id="path4-8"
     style="display:inline;fill:#ffffff;stroke-width:6.25282;stroke-miterlimit:1.8;stroke-dashoffset:6.42104;paint-order:stroke markers fill"
     d="m 969.91228,80.353274 c 3.3181,6.43552 4.2415,20.635226 -26.3157,39.314386 -13.7289,8.39239 9.3746,199.60992 -99.8838,420.50714 -12.7044,6.642 -25.9137,13.3919 -39.5841,20.1972 -2.7911,-42.4623 -23.6648,-82.369 -58.3505,-111.5555 -34.6856,-29.1864 -80.562,-45.4471 -128.2438,-45.4556 -46.0004,0.076 -90.35481,15.278 -124.57793,42.6982 -34.22312,27.4202 -55.91262,65.1336 -60.91876,105.9253 -34.0271,-15.8841 -70.21361,-22.4611 -105.58373,-20.2551 -4.78225,-0.6558 -9.59452,-1.074 -14.41876,-1.2531 -38.46846,0 -75.3614,15.1795 -102.56273,42.1989 -27.20133,27.0196 -42.48314,63.6661 -42.48319,101.8775 0.0204,6.5631 0.49229,13.1172 1.41232,19.6164 -18.0349,-13.1212 -39.78713,-20.2375 -62.14194,-20.33 C 62.0346,673.8391 0,698.6921 0,740.0959 c 0,2e-4 0,0.077 0,0.077 H 268.38205 2357.5525 c -3.2561,-53.5519 -25.8451,-104.2976 -64.2312,-142.4492 -41.5494,-41.2955 -97.9029,-64.4953 -156.6628,-64.4953 -11.1884,0.043 -22.3575,0.9284 -33.4114,2.6485 -33.4356,-51.0831 -92.9465,-83.8381 -158.9469,-83.8574 -64.6161,0.069 -124.6203,31.632 -158.7076,83.4832 -45.4717,7.0325 -88.855,26.6131 -124.9128,57.4373 -7.7052,-6.8696 -15.8821,-13.3226 -25.0739,-18.7363 -21.1277,-12.4793 -43.8551,-19.1934 -66.6424,-21.2111 -18.6363,-83.0063 -93.9809,-142.2456 -181.1998,-142.4672 -53.6291,0.022 -104.6382,22.5969 -139.9362,61.93 -19.9145,-12.949 -42.6888,-20.0018 -65.9897,-20.4359 -37.6806,0.034 -73.5362,17.3645 -98.4653,47.5919 -69.1799,-157.1185 -85.16422,-399.30328 -85.16422,-399.30328 -16.7811,-10.038766 -24.5435,-16.273276 -28.296,-19.954846 z" /><path
     id="path10-2"
     d="m 1053.3031,157.92555 c 0,61.37462 -14.8448,107.54474 -25.6914,133.17525 -6.453,15.09765 -11.4834,23.08658 -11.4834,23.08658 0,0 -16.65333,7.43435 -46.21633,7.43435 -29.56182,0 -46.21402,-7.43435 -46.21402,-7.43435 0,0 -5.1629,-8.21076 -11.6183,-23.52414 -10.97324,-25.75261 -25.55885,-71.80774 -25.55885,-132.73769 0,-50.38081 19.4893,-91.115079 39.76097,-118.637243 C 943.06061,16.539554 960.23005,2.7738929 967.71874,2.2999457e-6 h 4.38646 C 979.59389,2.7738929 996.76332,16.539554 1013.5433,39.288307 c 20.2705,27.522164 39.7598,68.256433 39.7598,118.637243"
     style="display:inline;fill:#d6d5d2;fill-opacity:1;fill-rule:nonzero;stroke:none;stroke-width:1.09745"
     clip-path="none" /><path
     id="path20-5"
     d="m 979.05708,251.75499 c 0,31.7003 -4.09647,79.59418 -9.14575,79.59418 -5.04809,0 -9.14574,-47.89388 -9.14574,-79.59418 0,-31.7064 4.09765,-35.20683 9.14574,-35.20683 5.04928,0 9.14575,3.50043 9.14575,35.20683"
     style="display:inline;fill:#eb464a;fill-opacity:1;fill-rule:nonzero;stroke:none;stroke-width:1.09745"
     clip-path="none" /><path
     id="path12"
     d="m 970.42904,299.20309 c -30.2057,0 -50.34363,-5.76554 -58.34956,-8.54045 6.45541,15.31339 11.61831,23.52516 11.61831,23.52516 0,0 16.65219,7.43334 46.21401,7.43334 29.56419,0 46.2164,-7.43334 46.2164,-7.43334 0,0 5.0303,-7.98893 11.4834,-23.08658 -8.6475,2.88989 -28.27054,8.10187 -57.18256,8.10187"
     style="display:inline;fill:#4aa1af;fill-opacity:1;fill-rule:nonzero;stroke:none;stroke-width:1.09745"
     clip-path="none" /><path
     id="path14-4"
     d="m 1012.1552,106.95962 c 0,20.05525 -18.91403,36.31803 -42.24297,36.31803 -23.32775,0 -42.24418,-16.26278 -42.24418,-36.31803 0,-20.055246 18.91643,-36.318019 42.24418,-36.318019 23.32894,0 42.24297,16.262773 42.24297,36.318019"
     style="display:inline;fill:#eb464a;fill-opacity:1;fill-rule:nonzero;stroke:none;stroke-width:1.09745"
     clip-path="none" /><path
     id="path16-7"
     d="m 1000.8612,106.95962 c 0,14.69674 -13.85529,26.60636 -30.94897,26.60636 -17.09486,0 -30.94782,-11.90962 -30.94782,-26.60636 0,-14.695715 13.85296,-26.606349 30.94782,-26.606349 17.09368,0 30.94897,11.910634 30.94897,26.606349"
     style="display:inline;fill:#4aa1af;fill-opacity:1;fill-rule:nonzero;stroke:none;stroke-width:1.09745"
     clip-path="none" /><path
     id="path18-7"
     d="m 1013.5435,39.287887 c -12.777,4.220872 -27.75322,6.659983 -43.63134,6.659983 -15.87693,0 -30.85432,-2.439111 -43.63019,-6.659983 C 943.06081,16.539134 960.23024,2.7744907 967.71893,6.0007895e-4 h 4.38646 C 979.5929,2.7744907 996.76352,16.539134 1013.5435,39.287887"
     style="display:inline;fill:#eb464a;fill-opacity:1;fill-rule:nonzero;stroke:none;stroke-width:1.09745"
     clip-path="none" /><path
     id="path5-9"
     d="m 941.01566,318.83096 c 0,0 -23.9527,35.06031 32.52439,139.10462 47.60355,-104.04431 24.90432,-138.66604 24.90432,-138.66604 0,0 -29.44228,-8.44785 -57.42871,-0.43858"
     style="display:inline;fill:#fec514;fill-opacity:1;fill-rule:nonzero;stroke:none;stroke-width:1.09745"
     clip-path="none" /><path
     d="m 954.95253,320.86812 c 0,0 -11.26441,25.39342 14.95727,55.91334 25.41327,-29.13196 17.34579,-55.16034 17.34579,-55.16034 0,0 -14.74304,-9.04923 -32.30306,-0.753"
     style="display:inline;fill:#ffffff;fill-opacity:1;fill-rule:nonzero;stroke:none;stroke-width:1.09745"
     clip-path="none"
     id="path8-2" /><path
     id="path3"
     d="m 1047.7954,216.54795 c 0,0 44.4114,27.05612 47.6379,93.64476 -25.0096,-15.95343 -50.765,-18.2511 -68.5522,-19.53018 l -8.8996,-54.68717 z"
     style="display:inline;fill:#eb464a;fill-opacity:1;fill-rule:nonzero;stroke:none;stroke-width:1.09745"
     clip-path="none" /><path
     id="path1"
     d="m 892.02996,216.54795 c 0,0 -44.41256,27.05612 -47.64026,93.64476 25.01202,-15.95343 50.76735,-18.2511 68.55463,-19.53018 l 8.89956,-54.68717 z"
     style="display:inline;fill:#eb464a;fill-opacity:1;fill-rule:nonzero;stroke:none;stroke-width:1.09745"
     clip-path="none" /></svg>
