<svg
   width="600.1402mm"
   height="111.048mm"
   viewBox="0 0 600.1402 111.04798"
   version="1.1"
   id="svg1">
<defs
     id="defs1"><filter
       style="color-interpolation-filters:sRGB"
       inkscape:label="Drop Shadow"
       id="filter7"
       x="-0.00074768807"
       y="-0.0047829822"
       width="1.0049684"
       height="1.0398932"><feFlood
         result="flood"
         in="SourceGraphic"
         flood-opacity="1.000000"
         flood-color="rgb(0,0,0)"
         id="feFlood6" /><feGaussianBlur
         result="blur"
         in="SourceGraphic"
         stdDeviation="0.000000"
         id="feGaussianBlur6" /><feOffset
         result="offset"
         in="blur"
         dx="10.000000"
         dy="10.049933"
         id="feOffset6" /><feComposite
         result="comp1"
         operator="in"
         in="flood"
         in2="offset"
         id="feComposite6" /><feComposite
         result="comp2"
         operator="over"
         in="SourceGraphic"
         in2="comp1"
         id="feComposite7" /></filter></defs><g
     inkscape:groupmode="layer"
     id="layer1"
     inkscape:label="bg"><path
       id="rect7"
       style="opacity:1;fill:#1d429e;fill-opacity:1;stroke:none;stroke-width:0.475501;stroke-miterlimit:1.8;stroke-dashoffset:6.42104;paint-order:fill markers stroke"
       d="M 0,0 H 599.903 V 111.048 H 0 Z" /></g><path
     id="path54"
     style="display:inline;fill:#dedede;stroke-width:0.718349;stroke-miterlimit:1.8;stroke-dashoffset:6.42104;paint-order:stroke markers fill"
     d="m 134.40863,16.466838 c -0.19651,8.893057 -2.61319,50.585657 -23.98109,60.85287 -1.56952,-3.085837 -4.54976,-5.888298 -8.91705,-7.954575 -5.076974,-1.721224 -17.133907,-3.432344 -22.173791,5.990471 -0.209997,0.392731 -0.3832,0.795042 -0.5651,1.196362 -1.289012,-1.242345 -2.711476,-2.374025 -4.271976,-3.360775 -0.06548,-0.06776 -0.121779,-0.142648 -0.188193,-0.209659 -4.145211,-4.181794 -9.767392,-6.531118 -15.629595,-6.531118 -9.684791,0.0095 -18.23562,6.378422 -21.095994,15.712906 -2.368367,-0.642073 -4.808566,-0.975332 -7.260904,-0.991622 -7.613408,1.2e-5 -14.915117,3.051142 -20.29861,8.482184 -5.3835009,5.431013 -8.408002,13.713428 -8.408002,21.394068 h 57.350249 217.947256 72.31003 a 14.794533,14.833949 0 0 0 0.0929,-0.46837 14.794533,14.833949 0 0 0 -13.99536,-14.810693 30.351856,30.432719 0 0 0 -28.71404,-21.095022 30.351856,30.432719 0 0 0 -4.33399,0.312919 c -2.46064,-3.407764 -5.9369,-5.832632 -10.08208,-6.543198 -5.98568,-1.025626 -11.85555,1.723775 -15.81675,6.707916 -1.40407,-4.18323 -4.58856,-7.352903 -8.7176,-8.06056 -1.13827,-0.194876 -2.26764,-0.182624 -3.36648,0 -1.64169,-6.230803 -6.14686,-11.053799 -12.10056,-12.073971 -5.77106,-0.988407 -11.42216,1.854044 -15.03504,6.885486 -0.20882,-0.04941 -0.41407,-0.108809 -0.62673,-0.145448 -4.24784,-0.72801 -8.40889,1.338834 -11.10212,5.007146 -2.8949,-4.630082 -7.30856,-7.940333 -12.63985,-8.853738 -5.8638,-1.004953 -11.6278,1.096432 -16.07183,5.222804 -4.38349,-5.212322 -10.22334,-8.850498 -17.00818,-10.012966 -1.16665,-0.199951 -2.33109,-0.321679 -3.48914,-0.368513 -7.73591,-0.312924 -15.17326,2.742638 -21.15926,8.100304 -9.05455,-18.206301 -8.3869,-44.706669 -12.40095,-42.861388 z" /><path
     id="path4-8"
     style="display:inline;fill:#ffffff;stroke-width:0.89308;stroke-miterlimit:1.8;stroke-dashoffset:6.42104;paint-order:stroke markers fill"
     d="m 139.54191,16.391663 c 0.47184,0.923226 0.60316,2.960289 -3.74215,5.639959 -1.95228,1.203955 1.33309,28.635604 -14.20369,60.325033 -1.80659,0.952852 -3.68498,1.921175 -5.62893,2.897447 -0.3969,-6.091547 -3.36519,-11.816478 -8.29757,-16.003507 -4.93237,-4.187016 -11.456084,-6.519739 -18.236549,-6.52096 -6.541352,0.01091 -12.848646,2.191749 -17.715244,6.12539 -4.866601,3.933641 -7.950893,9.343925 -8.662779,15.195811 -4.838723,-2.278699 -9.984521,-3.22222 -15.014227,-2.905749 -0.68005,-0.09408 -1.364364,-0.154078 -2.050381,-0.179774 -5.470295,0 -10.716549,2.177621 -14.584635,6.053767 -3.868087,3.876172 -6.041193,9.133399 -6.0412,14.61513 0.0029,0.94152 0.07,1.88176 0.200834,2.81412 -2.564601,-1.88234 -5.657814,-2.90322 -8.836715,-2.9165 -6.288897,2e-5 -15.110349,3.56538 -15.110349,9.50507 0,4e-5 0,0.0111 0,0.0111 H 39.782822 336.8673 c -0.46302,-7.68245 -3.67524,-14.96231 -9.13381,-20.435455 -5.90843,-5.924167 -13.92201,-9.252357 -22.27779,-9.252357 -1.59101,0.0062 -3.17929,0.133187 -4.75117,0.379952 -4.75462,-7.328272 -13.21719,-12.027235 -22.60259,-12.030001 -9.18855,0.0099 -17.72127,4.537859 -22.56855,11.976316 -6.46618,1.008865 -12.63538,3.81786 -17.76288,8.239835 -1.09569,-0.985503 -2.25846,-1.911231 -3.56555,-2.687874 -3.0044,-1.790248 -6.23629,-2.753443 -9.47669,-3.042894 -2.65012,-11.907906 -13.36429,-20.406248 -25.767,-20.438035 -7.62617,0.0029 -14.87977,3.2417 -19.89922,8.884337 -2.83189,-1.857634 -6.07044,-2.869412 -9.38388,-2.931685 -5.35827,0.0052 -10.457,2.491078 -14.00198,6.827433 -9.83752,-22.539902 -12.11052,-57.283196 -12.11052,-57.283196 -2.38631,-1.440142 -3.49014,-2.334528 -4.02376,-2.862684 z" /><path
     id="path10-2"
     d="m 151.40027,27.520014 c 0,8.804671 -2.11097,15.428135 -3.65338,19.105027 -0.91763,2.165881 -1.63296,3.311955 -1.63296,3.311955 0,0 -2.36814,1.066516 -6.57206,1.066516 -4.20376,0 -6.57173,-1.066516 -6.57173,-1.066516 0,0 -0.73417,-1.177899 -1.65214,-3.374727 -1.56043,-3.694412 -3.63454,-10.301376 -3.63454,-19.042255 0,-7.227522 2.77143,-13.071172 5.6541,-17.019441 2.38599,-3.2634873 4.82751,-5.238275 5.89242,-5.6362075 h 0.62377 c 1.06491,0.3979325 3.50644,2.3727202 5.89259,5.6362075 2.8825,3.948269 5.65393,9.791919 5.65393,17.019441"
     style="display:inline;fill:#d6d5d2;fill-opacity:1;fill-rule:nonzero;stroke:none;stroke-width:0.156748"
     clip-path="none" /><path
     id="path20-5"
     d="m 140.84233,40.980581 c 0,4.547659 -0.58254,11.418408 -1.30055,11.418408 -0.71785,0 -1.30054,-6.870749 -1.30054,-11.418408 0,-4.548532 0.58269,-5.050698 1.30054,-5.050698 0.71801,0 1.30055,0.502166 1.30055,5.050698"
     style="display:inline;fill:#eb464a;fill-opacity:1;fill-rule:nonzero;stroke:none;stroke-width:0.156748"
     clip-path="none" /><path
     id="path12"
     d="m 139.6154,47.787384 c -4.29532,0 -7.15897,-0.827116 -8.29743,-1.225195 0.91797,2.196825 1.65214,3.374865 1.65214,3.374865 0,0 2.36798,1.066374 6.57174,1.066374 4.20408,0 6.57207,-1.066374 6.57207,-1.066374 0,0 0.71531,-1.146073 1.63295,-3.311951 -1.22968,0.41458 -4.02012,1.162281 -8.13147,1.162281"
     style="display:inline;fill:#4aa1af;fill-opacity:1;fill-rule:nonzero;stroke:none;stroke-width:0.156748"
     clip-path="none" /><path
     id="path14-4"
     d="m 145.54895,20.208553 c 0,2.877081 -2.68962,5.210106 -6.00705,5.210106 -3.31725,0 -6.0072,-2.333025 -6.0072,-5.210106 0,-2.877081 2.68995,-5.210097 6.0072,-5.210097 3.31743,0 6.00705,2.333016 6.00705,5.210097"
     style="display:inline;fill:#eb464a;fill-opacity:1;fill-rule:nonzero;stroke:none;stroke-width:0.156748"
     clip-path="none" /><path
     id="path16-7"
     d="m 143.94292,20.208553 c 0,2.10836 -1.97026,3.816891 -4.40102,3.816891 -2.43092,0 -4.40084,-1.708531 -4.40084,-3.816891 0,-2.108213 1.96992,-3.81689 4.40084,-3.81689 2.43076,0 4.40102,1.708677 4.40102,3.81689"
     style="display:inline;fill:#4aa1af;fill-opacity:1;fill-rule:nonzero;stroke:none;stroke-width:0.156748"
     clip-path="none" /><path
     id="path18-7"
     d="m 145.74637,10.500519 c -1.81692,0.60551 -3.94657,0.955419 -6.20448,0.955419 -2.25773,0 -4.38754,-0.349909 -6.20429,-0.955419 2.38598,-3.2634879 4.8275,-5.2381326 5.89241,-5.6360694 h 0.62377 c 1.06474,0.3979368 3.50644,2.3725815 5.89259,5.6360694"
     style="display:inline;fill:#eb464a;fill-opacity:1;fill-rule:nonzero;stroke:none;stroke-width:0.156748"
     clip-path="none" /><path
     id="path5-9"
     d="m 135.43276,50.603149 c 0,0 -3.40613,5.029678 4.62503,19.955651 6.76933,-14.925973 3.54145,-19.892728 3.54145,-19.892728 0,0 -4.18676,-1.211909 -8.16648,-0.06292"
     style="display:inline;fill:#fec514;fill-opacity:1;fill-rule:nonzero;stroke:none;stroke-width:0.156748"
     clip-path="none" /><path
     d="m 137.41461,50.895404 c 0,0 -1.60182,3.64288 2.12695,8.021201 3.61382,-4.179205 2.46662,-7.913186 2.46662,-7.913186 0,0 -2.0965,-1.298178 -4.59357,-0.108015"
     style="display:inline;fill:#ffffff;fill-opacity:1;fill-rule:nonzero;stroke:none;stroke-width:0.156748"
     clip-path="none"
     id="path8-2" /><path
     id="path3"
     d="m 150.61706,35.929854 c 0,0 6.3154,3.881413 6.77421,13.434073 -3.55642,-2.288646 -7.21889,-2.618258 -9.74827,-2.801754 l -1.26554,-7.845306 z"
     style="display:inline;fill:#eb464a;fill-opacity:1;fill-rule:nonzero;stroke:none;stroke-width:0.156748"
     clip-path="none" /><path
     id="path1"
     d="m 128.46689,35.929854 c 0,0 -6.31556,3.881413 -6.77456,13.434073 3.55677,-2.288646 7.21923,-2.618258 9.74862,-2.801754 l 1.26554,-7.845306 z"
     style="display:inline;fill:#eb464a;fill-opacity:1;fill-rule:nonzero;stroke:none;stroke-width:0.156748"
     clip-path="none" /><path
     d="m 1323.7346,149.27246 q -1.8575,3.1578 -4.0865,4.45807 -2.0433,1.11452 -5.2011,1.11452 -3.3436,0 -7.0586,-1.67177 -3.5293,-1.85753 -7.9874,-3.90082 -4.2723,-2.22903 -9.8449,-3.90081 -5.5726,-1.85753 -12.817,-1.85753 -11.1451,0 -17.275,5.20109 -6.1298,5.01532 -6.1298,13.55996 0,5.75834 3.5293,9.65915 3.5293,3.71506 9.2876,6.68711 5.9441,2.78629 13.1885,5.20108 7.4301,2.41479 15.2317,5.20108 7.8016,2.78629 15.046,6.68711 7.4301,3.71505 13.1885,9.28764 5.9441,5.57259 9.4734,13.55997 3.5293,7.98737 3.5293,19.13255 0,13.37421 -4.6439,24.70514 -4.6438,11.33093 -13.7457,19.50405 -8.9161,8.17313 -22.2903,12.81696 -13.1885,4.64382 -30.6493,4.64382 -8.9161,0 -17.6465,-1.67178 -8.7304,-1.67177 -16.7177,-4.64382 -7.9874,-3.1578 -15.046,-7.24436 -6.8729,-4.08657 -11.8882,-8.91614 l 10.9594,-17.83229 q 2.0433,-3.15779 4.8296,-5.01532 2.7863,-1.85753 7.2443,-1.85753 4.0866,0 7.6159,2.22903 3.7151,2.22904 7.9874,5.01533 4.2723,2.60054 10.2164,4.82958 5.9441,2.22903 14.8602,2.22903 6.6871,0 11.331,-1.67177 4.8295,-1.67178 7.6158,-4.45807 2.9721,-2.97205 4.2724,-6.68711 1.486,-3.71506 1.486,-7.61587 0,-8.17313 -6.1299,-12.6312 -6.1298,-4.64382 -15.4175,-7.98738 -9.2876,-3.34355 -20.0613,-6.87285 -10.5879,-3.52931 -19.8755,-9.65916 -9.2877,-6.12984 -15.4175,-16.1605 -6.1299,-10.03066 -6.1299,-26.56267 0,-11.51668 4.2723,-21.73309 4.2723,-10.40217 12.6312,-18.20379 8.5447,-7.80162 20.9901,-12.44544 12.6312,-4.64382 29.349,-4.64382 9.1019,0 17.6465,1.67177 8.5446,1.67178 15.9748,4.82957 7.6158,2.97205 13.7457,7.24437 6.3156,4.27232 11.1451,9.28764 z m 38.4509,147.30208 z m 53.6826,-184.45266 v 184.45266 h -47.1813 V 112.12188 Z m 5.7583,-52.939583 q 0,6.129847 -2.4148,11.516682 -2.4147,5.201082 -6.5013,9.287646 -4.0866,3.900811 -9.6592,6.3156 -5.5726,2.229035 -11.7024,2.229035 -5.9441,0 -11.3309,-2.229035 -5.2011,-2.414789 -9.2877,-6.3156 -3.9008,-4.086564 -6.3156,-9.287646 -2.229,-5.386835 -2.229,-11.516682 0,-6.129847 2.229,-11.516682 2.4148,-5.386834 6.3156,-9.287646 4.0866,-4.086564 9.2877,-6.3156 5.3868,-2.414788 11.3309,-2.414788 6.1298,0 11.7024,2.414788 5.5726,2.229036 9.6592,6.3156 4.0866,3.900812 6.5013,9.287646 2.4148,5.386835 2.4148,11.516682 z m 41.0514,237.392243 V 112.12188 h 28.9775 q 4.4581,0 7.4301,2.04328 3.1578,2.04328 4.0866,6.3156 l 3.1578,13.00271 q 5.0153,-5.20109 10.2164,-9.65916 5.3868,-4.45807 11.5167,-7.61587 6.1298,-3.34355 13.0027,-5.20108 7.0586,-1.85752 15.4175,-1.85752 17.6465,0 28.9774,9.47339 11.5167,9.28765 17.0893,24.70514 4.4581,-9.10189 10.9594,-15.60325 6.6871,-6.50135 14.6745,-10.58791 7.9874,-4.08656 16.7178,-5.94409 8.9161,-2.04328 17.8322,-2.04328 15.6033,0 27.6772,4.82957 12.2597,4.64382 20.4328,13.74571 8.3589,8.91615 12.6312,21.91885 4.2724,13.00271 4.2724,29.53472 V 296.57454 H 1680.566 V 179.17869 q 0,-33.24978 -29.7204,-33.24978 -6.6872,0 -12.4455,2.22904 -5.7583,2.04328 -10.2164,6.3156 -4.2723,4.08656 -6.8729,10.40216 -2.4148,6.12985 -2.4148,14.30298 v 117.39585 h -47.1812 V 179.17869 q 0,-17.83229 -7.4301,-25.44816 -7.4301,-7.80162 -21.5474,-7.80162 -9.4734,0 -17.6465,4.27232 -8.1731,4.27232 -15.2317,12.07394 v 134.29937 z m 388.2237,-187.4247 q 20.247,0 36.9648,6.6871 16.7178,6.50135 28.6059,18.9468 11.8882,12.25969 18.3896,29.90622 6.5013,17.46077 6.5013,39.19387 0,22.10459 -6.5013,39.75112 -6.5014,17.64653 -18.3896,30.09198 -11.8881,12.25969 -28.6059,18.94679 -16.7178,6.68711 -36.9648,6.68711 -20.4329,0 -37.3364,-6.68711 -16.7177,-6.6871 -28.7917,-18.94679 -11.8882,-12.44545 -18.3895,-30.09198 -6.5014,-17.64653 -6.5014,-39.75112 0,-21.7331 6.5014,-39.19387 6.5013,-17.64653 18.3895,-29.90622 12.074,-12.44545 28.7917,-18.9468 16.9035,-6.6871 37.3364,-6.6871 z m 0,154.17492 q 21.3615,0 31.578,-14.86023 10.2164,-15.04599 10.2164,-44.2092 0,-29.16321 -10.2164,-44.02344 -10.2165,-15.04599 -31.578,-15.04599 -21.7331,0 -32.1353,15.04599 -10.2164,14.86023 -10.2164,44.02344 0,29.16321 10.2164,44.2092 10.4022,14.86023 32.1353,14.86023 z m 125.0117,33.24978 V 112.12188 h 28.9774 q 4.4581,0 7.4302,2.04328 3.1578,2.04328 4.0865,6.3156 l 3.1578,13.55996 q 5.5726,-5.57258 11.5167,-10.03065 5.9441,-4.64383 12.817,-7.80163 6.8728,-3.34355 14.4887,-5.20108 7.8016,-1.85752 17.0893,-1.85752 15.0459,0 26.5626,5.20107 11.5167,5.20109 19.3183,14.48873 7.8017,9.28765 11.7025,22.29035 4.0865,12.81696 4.0865,28.0487 v 117.39585 h -47.1812 V 179.17869 q 0,-15.789 -7.2444,-24.51939 -7.2443,-8.73039 -21.7331,-8.73039 -10.7736,0 -20.247,4.64382 -9.2877,4.64383 -17.6466,13.00271 v 132.9991 z m 266.7412,-187.61046 q 11.1452,0 20.9901,2.41479 10.0306,2.41479 18.3895,6.87286 h 51.2678 v 17.64652 q 0,4.08657 -2.4148,6.50136 -2.229,2.41478 -7.6159,3.5293 l -14.4887,2.97205 q 3.3436,9.28764 3.3436,19.68981 0,13.74572 -5.3869,24.89089 -5.201,10.95942 -14.6744,18.76105 -9.2877,7.80162 -22.1046,12.07394 -12.6312,4.08656 -27.3057,4.08656 -4.4581,0 -8.7304,-0.3715 -4.2723,-0.37151 -8.5446,-1.11452 -6.8729,4.45807 -6.8729,10.40216 0,5.38684 4.8296,7.80163 4.8295,2.41478 12.6312,3.5293 7.8016,0.92877 17.8323,1.30027 10.0306,0.18575 20.4328,1.11452 10.5879,0.92876 20.6186,3.1578 10.0306,2.22903 17.8322,7.24436 7.8017,5.01533 12.6312,13.37421 4.8296,8.35889 4.8296,21.54734 0,12.2597 -5.7583,23.77638 -5.7584,11.70243 -16.7178,20.80433 -10.9594,9.10189 -26.9342,14.48872 -15.9747,5.57259 -36.4075,5.57259 -20.0614,0 -34.9216,-4.08656 -14.8602,-4.08657 -24.5194,-10.77367 -9.6591,-6.68711 -14.4887,-15.60325 -4.6438,-8.73039 -4.6438,-18.20378 0,-12.44545 7.0586,-20.99009 7.0586,-8.73038 19.504,-13.93147 -6.5013,-3.71505 -10.5879,-10.21641 -3.9008,-6.50135 -3.9008,-16.53201 0,-4.08656 1.3003,-8.35888 1.486,-4.45807 4.458,-8.73039 2.9721,-4.45807 7.2444,-8.35888 4.2723,-3.90081 10.2164,-7.05861 -13.3742,-7.61587 -21.1758,-20.06132 -7.6159,-12.63119 -7.6159,-29.53471 0,-13.74572 5.3869,-24.70514 5.3868,-11.14518 14.6744,-18.76105 9.4734,-7.80162 22.2904,-11.88818 13.0027,-4.27232 28.0487,-4.27232 z m 44.0234,195.41208 q 0,-5.01533 -2.7863,-8.17313 -2.7863,-3.1578 -7.6158,-4.82958 -4.8296,-1.85752 -11.331,-2.60054 -6.5013,-0.92876 -13.9314,-1.30027 -7.2444,-0.55726 -15.2318,-0.92876 -7.8016,-0.37151 -15.4175,-1.30027 -6.1298,3.90081 -10.0306,9.10189 -3.7151,5.20108 -3.7151,12.07394 0,4.64382 1.8575,8.54464 2.0433,3.90081 6.5014,6.6871 4.4581,2.7863 11.8882,4.27232 7.4301,1.67178 18.3895,1.67178 11.5167,0 19.3183,-1.85753 7.9874,-1.67178 12.817,-4.82958 5.0153,-2.97205 7.0586,-7.24436 2.229,-4.27232 2.229,-9.28765 z m -44.0234,-106.25068 q 14.303,0 20.9901,-7.80162 6.8728,-7.80162 6.8728,-20.61857 0,-13.00271 -6.8728,-20.43283 -6.6871,-7.61587 -20.9901,-7.61587 -14.1172,0 -20.9901,7.61587 -6.6871,7.43012 -6.6871,20.43283 0,12.6312 6.6871,20.61857 6.8729,7.80162 20.9901,7.80162 z m 115.1668,98.44906 V 112.12188 h 27.6772 q 7.2443,0 10.0306,2.60054 2.9721,2.60054 3.9008,9.10189 l 2.4148,18.76105 q 8.3589,-15.789 19.5041,-24.89089 11.1452,-9.10189 25.8196,-9.10189 12.074,0 19.8756,5.75833 l -3.5293,35.29306 q -0.3715,3.34355 -2.229,4.82958 -1.8576,1.30027 -5.0154,1.30027 -2.7863,0 -7.9873,-0.74302 -5.2011,-0.92876 -9.6592,-0.92876 -6.5013,0 -11.7024,1.85753 -5.0154,1.85753 -9.1019,5.57259 -3.9008,3.5293 -7.0586,8.73039 -3.1578,5.20108 -5.7584,11.88818 v 114.42381 z m 210.6438,-187.4247 q 17.4608,0 32.1353,5.75833 14.6744,5.57259 25.2624,16.34626 10.5879,10.58792 16.532,26.19116 5.9441,15.60325 5.9441,35.66457 0,5.38683 -0.5573,8.91614 -0.5573,3.34355 -1.8575,5.38683 -1.1145,2.04328 -3.3436,2.97205 -2.0433,0.74301 -5.2011,0.74301 h -110.3372 q 1.1145,13.37421 4.8296,23.21912 3.715,9.8449 9.8449,16.1605 6.1298,6.3156 14.4887,9.4734 8.3589,2.97205 18.5753,2.97205 10.2164,0 17.6465,-2.41479 7.6159,-2.60054 13.1885,-5.38684 5.7583,-2.97204 10.2164,-5.38683 4.4581,-2.60054 8.7304,-2.60054 5.2011,0 8.5446,4.27231 l 13.56,17.46078 q -7.6159,8.91614 -16.9035,14.86023 -9.2877,5.75835 -19.3183,9.28765 -9.8449,3.34355 -20.0613,4.82958 -10.2165,1.48602 -19.6899,1.48602 -19.1325,0 -35.6645,-6.3156 -16.532,-6.3156 -28.7917,-18.76105 -12.2597,-12.63119 -19.3183,-31.02073 -6.8729,-18.5753 -6.8729,-42.90893 0,-18.76105 6.1299,-35.29306 6.1298,-16.71776 17.4607,-28.97745 11.5167,-12.44545 27.863,-19.68981 16.3462,-7.24436 36.9648,-7.24436 z m 0.9288,33.62127 q -18.0181,0 -28.2345,10.58792 -10.2164,10.40216 -13.1884,29.53471 h 78.0162 q 0,-7.98737 -2.229,-15.23174 -2.0433,-7.24436 -6.6871,-12.81695 -4.4581,-5.57259 -11.331,-8.73039 -6.8728,-3.34355 -16.3462,-3.34355 z m 190.5824,-33.62127 q 17.4608,0 32.1353,5.75833 14.6745,5.57259 25.2624,16.34626 10.5879,10.58792 16.532,26.19116 5.9441,15.60325 5.9441,35.66457 0,5.38683 -0.5573,8.91614 -0.5572,3.34355 -1.8575,5.38683 -1.1145,2.04328 -3.3435,2.97205 -2.0433,0.74301 -5.2011,0.74301 h -110.3373 q 1.1146,13.37421 4.8296,23.21912 3.7151,9.8449 9.8449,16.1605 6.1299,6.3156 14.4887,9.4734 8.3589,2.97205 18.5753,2.97205 10.2164,0 17.6466,-2.41479 7.6158,-2.60054 13.1884,-5.38684 5.7584,-2.97204 10.2164,-5.38683 4.4581,-2.60054 8.7304,-2.60054 5.2011,0 8.5447,4.27231 l 13.5599,17.46078 q -7.6159,8.91614 -16.9035,14.86023 -9.2876,5.75835 -19.3183,9.28765 -9.8449,3.34355 -20.0613,4.82958 -10.2164,1.48602 -19.6898,1.48602 -19.1326,0 -35.6646,-6.3156 -16.532,-6.3156 -28.7917,-18.76105 -12.2597,-12.63119 -19.3183,-31.02073 -6.8729,-18.5753 -6.8729,-42.90893 0,-18.76105 6.1299,-35.29306 6.1298,-16.71776 17.4608,-28.97745 11.5166,-12.44545 27.8629,-19.68981 16.3463,-7.24436 36.9648,-7.24436 z m 0.9288,33.62127 q -18.018,0 -28.2344,10.58792 -10.2165,10.40216 -13.1885,29.53471 h 78.0162 q 0,-7.98737 -2.229,-15.23174 -2.0433,-7.24436 -6.6871,-12.81695 -4.4581,-5.57259 -11.3309,-8.73039 -6.8729,-3.34355 -16.3463,-3.34355 z m 110.8946,153.80343 V 112.12188 h 27.6772 q 7.2443,0 10.0306,2.60054 2.9721,2.60054 3.9008,9.10189 l 2.4148,18.76105 q 8.3589,-15.789 19.5041,-24.89089 11.1452,-9.10189 25.8196,-9.10189 12.074,0 19.8756,5.75833 l -3.5293,35.29306 q -0.3715,3.34355 -2.229,4.82958 -1.8576,1.30027 -5.0154,1.30027 -2.7863,0 -7.9873,-0.74302 -5.2011,-0.92876 -9.6592,-0.92876 -6.5013,0 -11.7024,1.85753 -5.0154,1.85753 -9.1019,5.57259 -3.9008,3.5293 -7.0586,8.73039 -3.1578,5.20108 -5.7584,11.88818 v 114.42381 z m 103.8359,-25.44815 q 0,-5.75835 2.0432,-10.95943 2.2291,-5.20108 5.9441,-8.91614 3.9009,-3.71506 9.1019,-5.94409 5.2011,-2.22904 11.1452,-2.22904 5.9441,0 11.1452,2.22904 5.2011,2.22903 8.9161,5.94409 3.9008,3.71506 6.1299,8.91614 2.229,5.20108 2.229,10.95943 0,5.94409 -2.229,11.14517 -2.2291,5.20108 -6.1299,8.91614 -3.715,3.71506 -8.9161,5.75834 -5.2011,2.22904 -11.1452,2.22904 -5.9441,0 -11.1452,-2.22904 -5.201,-2.04328 -9.1019,-5.75834 -3.715,-3.71506 -5.9441,-8.91614 -2.0432,-5.20108 -2.0432,-11.14517 z m 220.4887,-118.69613 q -2.0433,2.60054 -4.0866,4.27232 -2.0433,1.48602 -5.7584,1.48602 -3.5293,0 -6.5013,-2.04328 -2.9721,-2.04328 -6.8729,-4.45807 -3.715,-2.60054 -8.9161,-4.64382 -5.0153,-2.04328 -12.817,-2.04328 -9.6591,0 -16.9035,4.08656 -7.0586,4.08657 -11.7024,11.70244 -4.6438,7.61587 -7.0586,18.57529 -2.2291,10.95942 -2.2291,24.51939 0,28.7917 9.845,44.39494 9.8449,15.4175 27.1199,15.4175 9.1019,0 14.4887,-2.60054 5.3868,-2.60054 9.1019,-5.57259 3.7151,-3.1578 6.6871,-5.75834 3.1578,-2.60054 7.4301,-2.60054 5.3869,0 8.3589,4.27231 l 13.7457,17.46078 q -7.4301,8.91614 -15.789,14.86023 -8.3589,5.75835 -17.275,9.28765 -8.7304,3.52931 -17.8323,4.82958 -8.9161,1.48602 -17.6465,1.48602 -15.6033,0 -29.5347,-6.3156 -13.7457,-6.50135 -24.3337,-18.76105 -10.4021,-12.25969 -16.532,-29.90622 -6.1298,-17.83228 -6.1298,-40.49413 0,-20.24707 5.3868,-37.5221 5.3869,-17.27502 15.789,-29.90622 10.5879,-12.81695 26.0054,-20.06131 15.6033,-7.24436 36.0361,-7.24436 19.3183,0 33.9928,6.87285 14.6745,6.68711 26.3769,19.50406 z m 118.5104,-43.28042 q 20.247,0 36.9648,6.6871 16.7178,6.50135 28.6059,18.9468 11.8882,12.25969 18.3896,29.90622 6.5013,17.46077 6.5013,39.19387 0,22.10459 -6.5013,39.75112 -6.5014,17.64653 -18.3896,30.09198 -11.8881,12.25969 -28.6059,18.94679 -16.7178,6.68711 -36.9648,6.68711 -20.4329,0 -37.3364,-6.68711 -16.7177,-6.6871 -28.7917,-18.94679 -11.8882,-12.44545 -18.3895,-30.09198 -6.5014,-17.64653 -6.5014,-39.75112 0,-21.7331 6.5014,-39.19387 6.5013,-17.64653 18.3895,-29.90622 12.074,-12.44545 28.7917,-18.9468 16.9035,-6.6871 37.3364,-6.6871 z m 0,154.17492 q 21.3615,0 31.578,-14.86023 10.2164,-15.04599 10.2164,-44.2092 0,-29.16321 -10.2164,-44.02344 -10.2165,-15.04599 -31.578,-15.04599 -21.7331,0 -32.1353,15.04599 -10.2164,14.86023 -10.2164,44.02344 0,29.16321 10.2164,44.2092 10.4022,14.86023 32.1353,14.86023 z m 124.4544,7.80163 q 0,-5.75835 2.0432,-10.95943 2.2291,-5.20108 5.9441,-8.91614 3.9008,-3.71506 9.1019,-5.94409 5.2011,-2.22904 11.1452,-2.22904 5.9441,0 11.1452,2.22904 5.2011,2.22903 8.9161,5.94409 3.9008,3.71506 6.1299,8.91614 2.229,5.20108 2.229,10.95943 0,5.94409 -2.229,11.14517 -2.2291,5.20108 -6.1299,8.91614 -3.715,3.71506 -8.9161,5.75834 -5.2011,2.22904 -11.1452,2.22904 -5.9441,0 -11.1452,-2.22904 -5.2011,-2.04328 -9.1019,-5.75834 -3.715,-3.71506 -5.9441,-8.91614 -2.0432,-5.20108 -2.0432,-11.14517 z m 146.1876,-159.00451 v 117.2101 q 0,15.97475 7.2444,24.70514 7.2443,8.73038 21.7331,8.73038 10.5879,0 20.0613,-4.64382 9.4734,-4.82958 17.8322,-13.0027 v -132.9991 h 47.1813 v 184.45266 h -28.9775 q -4.458,0 -7.6158,-2.04329 -2.9721,-2.22903 -3.9008,-6.50135 l -3.3436,-13.37421 q -10.9594,10.95942 -24.3336,17.83228 -13.1885,6.87286 -31.3923,6.87286 -15.046,0 -26.5626,-5.20108 -11.5167,-5.20108 -19.3183,-14.48873 -7.8017,-9.28765 -11.8882,-22.1046 -3.9008,-12.81695 -3.9008,-28.23444 V 112.12188 Z M 3789.4189,29.647581 V 181.59347 h 7.2444 q 4.4581,0 6.6871,-1.30027 2.4148,-1.30027 4.8296,-4.82957 l 33.807,-55.35438 q 2.7863,-3.71505 6.3156,-5.75834 3.7151,-2.22903 9.1019,-2.22903 h 43.0947 l -44.5807,67.79982 q -3.1578,4.08656 -6.6871,7.24436 -3.3436,3.1578 -7.4301,5.75834 3.715,2.7863 6.5013,6.50135 2.9721,3.52931 5.7583,7.80163 l 48.4816,89.34716 h -42.3517 q -10.7737,0 -15.6033,-8.17313 l -33.807,-68.72859 q -2.229,-4.27231 -4.8296,-5.57258 -2.4147,-1.30027 -7.0586,-1.30027 h -9.4734 v 83.77457 h -47.1812 V 29.647581 Z"
     id="text1"
     style="font-weight:bold;font-size:380.422px;font-family:Carlito;-inkscape-font-specification:'Carlito, Bold';text-align:center;text-anchor:middle;opacity:1;fill:#ffffff;fill-opacity:1;stroke:#2c2c2c;stroke-width:21.3752738;stroke-miterlimit:1.8;stroke-dasharray:none;stroke-dashoffset:6.42104;stroke-opacity:1;paint-order:markers stroke fill"
     aria-label="simongreer.co.uk"
     transform="matrix(0.14220212,0,0,0.14345781,1.618325,4.8643655)" /></svg>
