<?xml version="1.0" encoding="UTF-8" standalone="no"?>
<!-- Created with Inkscape (http://www.inkscape.org/) -->

<svg
   width="150.42319mm"
   height="17.356937mm"
   viewBox="0 0 150.42318 17.356938"
   version="1.1"
   id="svg1"
   sodipodi:docname="astronomical-text-logo3.svg"
   inkscape:version="1.3.2 (091e20ef0f, 2023-11-25, custom)"
   xmlns:inkscape="http://www.inkscape.org/namespaces/inkscape"
   xmlns:sodipodi="http://sodipodi.sourceforge.net/DTD/sodipodi-0.dtd"
   xmlns:xlink="http://www.w3.org/1999/xlink"
   xmlns="http://www.w3.org/2000/svg"
   xmlns:svg="http://www.w3.org/2000/svg">
  <sodipodi:namedview
     id="namedview1"
     pagecolor="#ffffff"
     bordercolor="#000000"
     borderopacity="0.25"
     inkscape:showpageshadow="2"
     inkscape:pageopacity="0.0"
     inkscape:pagecheckerboard="0"
     inkscape:deskcolor="#d1d1d1"
     inkscape:document-units="mm"
     inkscape:zoom="2.8626174"
     inkscape:cx="236.49685"
     inkscape:cy="1.047992"
     inkscape:window-width="3832"
     inkscape:window-height="1096"
     inkscape:window-x="0"
     inkscape:window-y="0"
     inkscape:window-maximized="1"
     inkscape:current-layer="svg1" />
  <defs
     id="defs1">
    <linearGradient
       id="linearGradient1">
      <stop
         style="stop-color:#ffffff;stop-opacity:1;"
         offset="0"
         id="stop1" />
      <stop
         style="stop-color:#bc52ff;stop-opacity:1;"
         offset="0.23364577"
         id="stop2" />
    </linearGradient>
    <linearGradient
       xlink:href="#linearGradient1"
       id="linearGradient2-4"
       x1="70.155052"
       y1="12.071167"
       x2="70.2481"
       y2="25.263283"
       gradientUnits="userSpaceOnUse"
       gradientTransform="matrix(1.310858,0,0,1.310858,-14.800387,-7.275221)" />
    <filter
       style="color-interpolation-filters:sRGB"
       id="filter50"
       x="-0.010630822"
       y="-0.082748986"
       width="1.0256078"
       height="1.2472924">
      <feFlood
         result="flood"
         in="SourceGraphic"
         flood-opacity="0.560784"
         flood-color="rgb(127,127,127)"
         id="feFlood49" />
      <feGaussianBlur
         result="blur"
         in="SourceGraphic"
         stdDeviation="0.000000"
         id="feGaussianBlur49" />
      <feOffset
         result="offset"
         in="blur"
         dx="1.000000"
         dy="1.000000"
         id="feOffset49" />
      <feComposite
         result="comp1"
         operator="in"
         in="flood"
         in2="offset"
         id="feComposite49" />
      <feComposite
         result="comp2"
         operator="over"
         in="SourceGraphic"
         in2="comp1"
         id="feComposite50" />
    </filter>
  </defs>
  <path
     d="M 14.403767,24.087263 13.538815,21.259534 H 9.2140532 L 8.3491009,24.087263 H 5.6378078 L 9.8295001,12.160901 H 12.906734 L 17.11506,24.087263 Z M 12.07505,16.38586 q -0.08317,-0.282773 -0.216239,-0.715249 -0.133069,-0.432476 -0.266139,-0.881586 -0.133069,-0.44911 -0.216238,-0.781784 -0.08317,0.332674 -0.232872,0.831685 -0.133069,0.482378 -0.266139,0.931487 -0.116436,0.432477 -0.182971,0.615447 l -0.8483182,2.761194 h 3.0938682 z m 13.53984,4.407931 q 0,1.580201 -1.147725,2.528322 -1.131092,0.931487 -3.226938,0.931487 -1.879608,0 -3.360007,-0.715249 v -2.345352 q 0.848318,0.365942 1.746538,0.681982 0.914853,0.299407 1.813073,0.299407 0.931487,0 1.314062,-0.349308 0.399209,-0.365941 0.399209,-0.914853 0,-0.44911 -0.31604,-0.765151 -0.299407,-0.31604 -0.815051,-0.582179 -0.515645,-0.282773 -1.180993,-0.598813 -0.415842,-0.199605 -0.89822,-0.465744 -0.482377,-0.282773 -0.931487,-0.681982 -0.432476,-0.415842 -0.715249,-0.998022 -0.282773,-0.582179 -0.282773,-1.39723 0,-1.596835 1.081191,-2.478422 1.08119,-0.898219 2.944164,-0.898219 0.931488,0 1.763173,0.216238 0.848318,0.216238 1.763172,0.615447 l -0.815052,1.962776 q -0.815051,-0.332674 -1.463765,-0.515644 -0.648714,-0.182971 -1.330696,-0.182971 -0.715249,0 -1.097824,0.332674 -0.382575,0.332674 -0.382575,0.864952 0,0.632081 0.565545,0.998022 0.565546,0.365942 1.680004,0.89822 0.914854,0.432476 1.546934,0.89822 0.648714,0.465743 0.998022,1.097824 0.349308,0.63208 0.349308,1.563568 z m 6.736659,3.293472 H 29.83986 v -9.780615 h -3.226937 v -2.095846 h 8.965564 v 2.095846 H 32.351549 Z M 40.86801,12.210802 q 2.42852,0 3.576245,0.881586 1.164359,0.881586 1.164359,2.678025 0,0.815052 -0.31604,1.430499 -0.299407,0.598813 -0.815052,1.031289 -0.499011,0.415842 -1.08119,0.681982 l 3.493077,5.17308 h -2.794462 l -2.827729,-4.557634 h -1.347329 v 4.557634 H 37.4082 V 12.210802 Z m -0.182971,2.062578 h -0.76515 v 3.210304 h 0.815051 q 1.247527,0 1.779806,-0.415842 0.548912,-0.415843 0.548912,-1.230894 0,-0.848318 -0.58218,-1.197626 -0.565545,-0.365942 -1.796439,-0.365942 z m 18.480037,3.859019 q 0,1.84634 -0.615447,3.226937 -0.598813,1.363964 -1.84634,2.129114 -1.247528,0.76515 -3.19367,0.76515 -1.92951,0 -3.193671,-0.76515 -1.247527,-0.76515 -1.862974,-2.145747 -0.598813,-1.380597 -0.598813,-3.226938 0,-1.846341 0.598813,-3.210304 0.615447,-1.363963 1.862974,-2.11248 1.264161,-0.76515 3.210304,-0.76515 1.929509,0 3.177037,0.76515 1.247527,0.748517 1.84634,2.129114 0.615447,1.363963 0.615447,3.210304 z m -8.666157,0 q 0,1.862974 0.715249,2.944165 0.715249,1.064556 2.295451,1.064556 1.613468,0 2.312084,-1.064556 0.698615,-1.081191 0.698615,-2.944165 0,-1.879608 -0.698615,-2.944165 -0.698616,-1.064557 -2.295451,-1.064557 -1.596835,0 -2.312084,1.064557 -0.715249,1.064557 -0.715249,2.944165 z m 21.657069,5.954864 h -3.19367 l -5.17308,-8.982198 h -0.06653 q 0.03327,0.848319 0.06653,1.696638 0.0499,0.848318 0.08317,1.696637 v 5.588923 H 61.626857 V 12.210802 h 3.177036 l 5.156447,8.899029 h 0.0499 q -0.01663,-0.831685 -0.0499,-1.646736 -0.03327,-0.815052 -0.06654,-1.630103 v -5.62219 h 2.262183 z m 13.772695,-5.954864 q 0,1.84634 -0.615446,3.226937 -0.598814,1.363964 -1.846341,2.129114 -1.247528,0.76515 -3.19367,0.76515 -1.92951,0 -3.193671,-0.76515 -1.247527,-0.76515 -1.862974,-2.145747 -0.598813,-1.380597 -0.598813,-3.226938 0,-1.846341 0.598813,-3.210304 0.615447,-1.363963 1.862974,-2.11248 1.264161,-0.76515 3.210304,-0.76515 1.929509,0 3.177037,0.76515 1.247527,0.748517 1.846341,2.129114 0.615446,1.363963 0.615446,3.210304 z m -8.666157,0 q 0,1.862974 0.715249,2.944165 0.715249,1.064556 2.295451,1.064556 1.613468,0 2.312084,-1.064556 0.698615,-1.081191 0.698615,-2.944165 0,-1.879608 -0.698615,-2.944165 -0.698616,-1.064557 -2.295451,-1.064557 -1.596835,0 -2.312084,1.064557 -0.715249,1.064557 -0.715249,2.944165 z m 16.151315,5.954864 -2.860996,-9.314872 h -0.06654 q 0.01663,0.332674 0.0499,0.998022 0.03327,0.665348 0.06654,1.430499 0.03327,0.748516 0.03327,1.363963 v 5.522388 H 88.390464 V 12.210802 h 3.426542 l 2.811095,9.082 h 0.0499 l 2.977432,-9.082 h 3.426547 v 11.876461 h -2.345356 v -5.62219 q 0,-0.565546 0.01663,-1.297429 0.03327,-0.731883 0.0499,-1.380597 0.03327,-0.665348 0.0499,-0.998022 h -0.06654 l -3.060601,9.298238 z m 15.103409,0 h -5.40595 v -1.430498 l 1.44713,-0.665348 V 14.306648 L 103.1113,13.6413 v -1.430498 h 5.40595 V 13.6413 l -1.44713,0.665348 v 7.684769 l 1.44713,0.665348 z m 7.06933,-9.946952 q -1.44713,0 -2.21228,1.08119 -0.76515,1.081191 -0.76515,2.960799 0,1.896242 0.69861,2.944165 0.71525,1.031289 2.27882,1.031289 0.73188,0 1.44713,-0.166337 0.73188,-0.166337 1.5802,-0.465744 v 2.11248 q -0.78178,0.316041 -1.54693,0.465744 -0.76515,0.149703 -1.71327,0.149703 -1.82971,0 -3.02734,-0.748516 -1.18099,-0.765151 -1.74653,-2.129114 -0.56555,-1.380597 -0.56555,-3.210304 0,-1.796439 0.64871,-3.177036 0.64872,-1.380598 1.87961,-2.162381 1.24753,-0.781784 3.04397,-0.781784 0.88159,0 1.76317,0.232872 0.89822,0.216238 1.71327,0.598813 l -0.81505,2.045945 q -0.66535,-0.316041 -1.34733,-0.548912 -0.66535,-0.232872 -1.31406,-0.232872 z m 12.82457,9.946952 -0.86496,-2.827729 h -4.32476 l -0.86495,2.827729 h -2.71129 l 4.19169,-11.926362 h 3.07723 l 4.20833,11.926362 z m -2.32872,-7.701403 q -0.0832,-0.282773 -0.21624,-0.715249 -0.13307,-0.432476 -0.26614,-0.881586 -0.13307,-0.44911 -0.21624,-0.781784 -0.0832,0.332674 -0.23287,0.831685 -0.13307,0.482378 -0.26614,0.931487 -0.11644,0.432477 -0.18297,0.615447 l -0.84832,2.761194 h 3.09387 z m 6.53705,7.701403 V 12.210802 h 2.51168 v 9.797249 h 4.82378 v 2.079212 z"
     id="text1-0"
     style="font-weight:bold;font-size:16.6337px;font-family:'Noto Serif Tibetan';-inkscape-font-specification:'Noto Serif Tibetan, Bold';fill:url(#linearGradient2-4);fill-rule:evenodd;stroke:#ffffff;stroke-width:2.02334;stroke-linecap:butt;stroke-miterlimit:1.8;stroke-dasharray:none;stroke-dashoffset:6.42104;stroke-opacity:1;paint-order:markers stroke fill;filter:url(#filter50);stroke-linejoin:miter"
     transform="matrix(0.92345423,0,0,0.76623844,-3.8876558,-5.6606504)"
     aria-label="ASTRONOMICAL" />
  <path
     id="path1"
     style="display:inline;fill:#7f7f7f;fill-opacity:0.560784;fill-rule:nonzero;stroke:none;stroke-width:1.0667;stroke-dasharray:none;stroke-opacity:1"
     d="m 142.42394,0.71730519 c -1.58028,-0.00102 -3.34325,0.2418896 -5.18101,0.89913351 -1.40676,0.503101 -2.65111,1.0656969 -3.74009,1.6360303 -0.24641,-0.1622158 -2.80871,-1.7507331 -6.97423,-0.4538653 1.51054,1.0092458 2.17472,2.3642045 2.61249,3.3241214 -0.86174,0.7132775 -1.29032,1.1902545 -1.29032,1.1902545 0,0 -0.01,0.06866 -0.0142,0.197617 -0.002,0.06447 -0.004,0.144074 -0.002,0.237545 0.003,0.168278 0.016,0.383878 0.0475,0.63632 -0.13273,-0.02124 -2.87745,-0.383175 -8.35957,5.0410164 7.69629,0.240978 9.48918,-1.827581 9.48918,-1.827581 0,0 -7.8e-4,-0.01898 -7.8e-4,-0.02375 0.1463,0.23609 0.28255,0.42515 0.39421,0.566066 0.0581,0.07328 0.10936,0.133634 0.15213,0.181949 0.0856,0.09663 0.13647,0.144045 0.13647,0.144045 0,0 0.61877,0.095 1.7265,0.104621 0.008,4.5e-5 0.0185,-5.4e-4 0.0268,-5.05e-4 0.27014,1.0197 0.61447,2.488002 0.0869,4.224771 4.04672,-1.640246 5.01902,-4.497234 5.10521,-4.774662 1.20304,-0.249156 2.52204,-0.60246 3.92962,-1.10585 3.26713,-1.1684334 5.51975,-3.1998054 6.90044,-4.9682373 0.14258,-0.1828875 0.27602,-0.3629043 0.40028,-0.5387734 0.12428,-0.17587 0.23948,-0.3475325 0.34571,-0.5140084 0.10623,-0.166474 0.20366,-0.3274603 0.29213,-0.4821665 0.0885,-0.1547052 0.16807,-0.303195 0.23906,-0.4437549 0.071,-0.1405598 0.13322,-0.2732181 0.187,-0.3972569 0.0538,-0.1240385 0.0991,-0.2395516 0.13596,-0.3446936 0.0369,-0.1051422 0.0652,-0.2001743 0.0854,-0.2840437 0.0202,-0.083869 0.0321,-0.1560962 0.0359,-0.2163176 l -0.0874,-0.24463 c -0.0411,-0.044148 -0.0964,-0.093012 -0.16526,-0.1450548 -0.0688,-0.052043 -0.15096,-0.1073449 -0.24614,-0.1652707 -0.0952,-0.057926 -0.20323,-0.1186362 -0.32346,-0.1804338 -0.12026,-0.061797 -0.25273,-0.1248628 -0.39676,-0.1885203 -0.14404,-0.063657 -0.29948,-0.1275414 -0.466,-0.1910473 -0.16651,-0.063506 -0.34398,-0.1266725 -0.5317,-0.1880147 -0.1877,-0.061343 -0.38574,-0.1207392 -0.59335,-0.1779066 -0.20761,-0.057167 -0.42475,-0.1117635 -0.65098,-0.162744 -0.9577,-0.21518911 -2.07631,-0.36361321 -3.30542,-0.36440591 z" />
  <g
     id="g70"
     style="stroke:none;stroke-width:1.4;stroke-dasharray:none;stroke-opacity:1"
     transform="matrix(0.77903646,0,0,0.77903646,27.701605,0.21444877)">
    <g
       id="group-R5"
       transform="matrix(0.02323005,0.06495511,-0.06495511,0.02323005,152.23049,-6.71005)"
       style="stroke:none;stroke-width:20.2945;stroke-dasharray:none;stroke-opacity:1">
      <path
         id="path2"
         d="m 402.496,2372.2 c 0,0 -375.2343,-265.89 -402.496,-920.28 211.313,156.78 428.91,179.36 579.195,191.92 l 75.192,537.44 -251.891,190.92"
         style="fill:#e830eb;fill-opacity:1;fill-rule:nonzero;stroke:none;stroke-width:152.209;stroke-dasharray:none;stroke-opacity:1"
         transform="matrix(0.13333333,0,0,-0.13333333,0,600.04)" />
      <path
         id="path3"
         d="m 1718.52,2372.2 c 0,0 375.22,-265.89 402.48,-920.28 -211.3,156.78 -428.9,179.36 -579.18,191.92 l -75.2,537.44 251.9,190.92"
         style="fill:#e830eb;fill-opacity:1;fill-rule:nonzero;stroke:none;stroke-width:152.209;stroke-dasharray:none;stroke-opacity:1"
         transform="matrix(0.13333333,0,0,-0.13333333,0,600.04)" />
      <path
         id="path4"
         d="m 816.363,1367.03 c 0,0 -202.371,-344.55 274.787,-1367.03 402.19,1022.48 210.41,1362.72 210.41,1362.72 0,0 -248.75,83.02 -485.197,4.31"
         style="fill:#fac10e;fill-opacity:1;fill-rule:nonzero;stroke:none;stroke-width:152.209;stroke-dasharray:none;stroke-opacity:1"
         transform="matrix(0.13333333,0,0,-0.13333333,0,600.04)" />
      <path
         id="path5"
         d="M 1060.48,797.531 C 838.941,1097.46 934.109,1347.01 934.109,1347.01 c 46.637,25.63 90.911,34.41 129.711,34.41 84.64,0 143.21,-41.81 143.21,-41.81 0,0 68.17,-255.79 -146.55,-542.079"
         style="fill:#fbe26f;fill-opacity:1;fill-rule:nonzero;stroke:none;stroke-width:152.209;stroke-dasharray:none;stroke-opacity:1"
         transform="matrix(0.13333333,0,0,-0.13333333,0,600.04)" />
      <path
         id="path6"
         d="m 1765.05,2948.3 c 0,-603.15 -125.42,-1056.88 -217.06,-1308.76 -54.52,-148.37 -97.02,-226.88 -97.02,-226.88 0,0 -140.7,-73.05 -390.47,-73.05 -249.762,0 -390.457,73.05 -390.457,73.05 0,0 -43.613,80.7 -98.152,231.18 -92.711,253.08 -215.946,705.68 -215.946,1304.46 0,495.11 164.664,895.42 335.934,1165.9 141.758,223.56 286.82,358.83 350.091,386.09 h 37.06 c 63.26,-27.26 208.33,-162.53 350.1,-386.09 171.26,-270.48 335.92,-670.79 335.92,-1165.9"
         style="fill:#d7d6d1;fill-opacity:1;fill-rule:nonzero;stroke:none;stroke-width:152.209;stroke-dasharray:none;stroke-opacity:1"
         transform="matrix(0.13333333,0,0,-0.13333333,0,600.04)" />
      <path
         id="path7"
         d="m 1064.87,1559.92 c -255.202,0 -425.343,56.66 -492.979,83.92 54.539,-150.48 98.152,-231.18 98.152,-231.18 0,0 140.695,-73.05 390.457,-73.05 249.77,0 390.47,73.05 390.47,73.05 0,0 42.5,78.51 97.02,226.88 -73.06,-28.4 -238.85,-79.62 -483.12,-79.62"
         style="fill:#7621ff;fill-opacity:1;fill-rule:nonzero;stroke:none;stroke-width:152.209;stroke-dasharray:none;stroke-opacity:1"
         transform="matrix(0.13333333,0,0,-0.13333333,0,600.04)" />
      <path
         id="path8"
         d="m 1417.4,3449.16 c 0,-197.09 -159.8,-356.91 -356.9,-356.91 -197.094,0 -356.91,159.82 -356.91,356.91 0,197.1 159.816,356.91 356.91,356.91 197.1,0 356.9,-159.81 356.9,-356.91"
         style="fill:#7621ff;fill-opacity:1;fill-rule:nonzero;stroke:none;stroke-width:152.209;stroke-dasharray:none;stroke-opacity:1"
         transform="matrix(0.13333333,0,0,-0.13333333,0,600.04)" />
      <path
         id="path9"
         d="m 1321.98,3449.16 c 0,-144.43 -117.06,-261.47 -261.48,-261.47 -144.426,0 -261.473,117.04 -261.473,261.47 0,144.42 117.047,261.48 261.473,261.48 144.42,0 261.48,-117.06 261.48,-261.48"
         style="fill:#ffffff;fill-opacity:1;fill-rule:nonzero;stroke:none;stroke-width:152.209;stroke-dasharray:none;stroke-opacity:1"
         transform="matrix(0.13333333,0,0,-0.13333333,0,600.04)" />
      <path
         id="path10"
         d="m 1429.13,4114.2 c -107.95,-41.49 -234.48,-65.45 -368.63,-65.45 -134.145,0 -260.676,23.96 -368.621,65.45 141.758,223.56 286.82,358.83 350.091,386.09 h 37.06 c 63.26,-27.26 208.33,-162.53 350.1,-386.09"
         style="fill:#7621ff;fill-opacity:1;fill-rule:nonzero;stroke:none;stroke-width:152.209;stroke-dasharray:none;stroke-opacity:1"
         transform="matrix(0.13333333,0,0,-0.13333333,0,600.04)" />
      <path
         id="path11"
         d="m 1137.76,2026.21 c 0,-311.54 -34.61,-782.2 -77.27,-782.2 -42.65,0 -77.263,470.66 -77.263,782.2 0,311.59 34.613,345.99 77.263,345.99 42.66,0 77.27,-34.4 77.27,-345.99"
         style="fill:#e830eb;fill-opacity:1;fill-rule:nonzero;stroke:none;stroke-width:152.209;stroke-dasharray:none;stroke-opacity:1"
         transform="matrix(0.13333333,0,0,-0.13333333,0,600.04)" />
    </g>
    <g
       id="g20"
       transform="matrix(0.02323005,0.06495511,-0.06495511,0.02323005,152.23049,-6.71005)"
       style="stroke:none;stroke-width:20.2945;stroke-dasharray:none;stroke-opacity:1" />
  </g>
</svg>
