<?xml version="1.0" encoding="UTF-8" standalone="no"?>
<!-- Created with Inkscape (http://www.inkscape.org/) -->

<svg
   width="186.38052mm"
   height="30.232666mm"
   viewBox="0 0 186.38052 30.232667"
   version="1.1"
   id="svg1"
   inkscape:version="1.3.2 (091e20ef0f, 2023-11-25, custom)"
   sodipodi:docname="astronomical-text-logo.svg"
   inkscape:export-filename="astronomical-text-logo.svg"
   inkscape:export-xdpi="54.512135"
   inkscape:export-ydpi="54.512135"
   xmlns:inkscape="http://www.inkscape.org/namespaces/inkscape"
   xmlns:sodipodi="http://sodipodi.sourceforge.net/DTD/sodipodi-0.dtd"
   xmlns:xlink="http://www.w3.org/1999/xlink"
   xmlns="http://www.w3.org/2000/svg"
   xmlns:svg="http://www.w3.org/2000/svg">
  <sodipodi:namedview
     id="namedview1"
     pagecolor="#ffffff"
     bordercolor="#000000"
     borderopacity="0.25"
     inkscape:showpageshadow="2"
     inkscape:pageopacity="0.0"
     inkscape:pagecheckerboard="0"
     inkscape:deskcolor="#d1d1d1"
     inkscape:document-units="mm"
     inkscape:zoom="1"
     inkscape:cx="313.5"
     inkscape:cy="134"
     inkscape:window-width="1975"
     inkscape:window-height="1096"
     inkscape:window-x="0"
     inkscape:window-y="0"
     inkscape:window-maximized="0"
     inkscape:current-layer="svg1" />
  <defs
     id="defs1">
    <linearGradient
       id="linearGradient6"
       inkscape:collect="always">
      <stop
         style="stop-color:#870087;stop-opacity:1;"
         offset="0"
         id="stop7" />
      <stop
         style="stop-color:#cf00cf;stop-opacity:0.34307292;"
         offset="0.25"
         id="stop10" />
    </linearGradient>
    <filter
       style="color-interpolation-filters:sRGB"
       inkscape:label="Drop Shadow"
       id="filter29"
       x="-0.014035258"
       y="-0.1276222"
       width="1.0322458"
       height="1.2932084">
      <feFlood
         result="flood"
         in="SourceGraphic"
         flood-opacity="0.854902"
         flood-color="rgb(0,0,0)"
         id="feFlood28" />
      <feGaussianBlur
         result="blur"
         in="SourceGraphic"
         stdDeviation="0.500000"
         id="feGaussianBlur28" />
      <feOffset
         result="offset"
         in="blur"
         dx="0.600000"
         dy="0.600000"
         id="feOffset28" />
      <feComposite
         result="comp1"
         operator="in"
         in="flood"
         in2="offset"
         id="feComposite28" />
      <feComposite
         result="comp2"
         operator="over"
         in="SourceGraphic"
         in2="comp1"
         id="feComposite29" />
    </filter>
    <filter
       style="color-interpolation-filters:sRGB"
       inkscape:label="Drop Shadow"
       id="filter37"
       x="-0.014567181"
       y="-0.071325532"
       width="1.036418"
       height="1.1783138">
      <feFlood
         result="flood"
         in="SourceGraphic"
         flood-opacity="0.854902"
         flood-color="rgb(0,0,0)"
         id="feFlood36" />
      <feGaussianBlur
         result="blur"
         in="SourceGraphic"
         stdDeviation="0.500000"
         id="feGaussianBlur36" />
      <feOffset
         result="offset"
         in="blur"
         dx="0.600000"
         dy="0.600000"
         id="feOffset36" />
      <feComposite
         result="comp1"
         operator="in"
         in="flood"
         in2="offset"
         id="feComposite36" />
      <feComposite
         result="comp2"
         operator="over"
         in="SourceGraphic"
         in2="comp1"
         id="feComposite37" />
    </filter>
    <filter
       style="color-interpolation-filters:sRGB"
       inkscape:label="Drop Shadow"
       id="filter41"
       x="-0.040947717"
       y="-0.12868364"
       width="1.1023693"
       height="1.3217092">
      <feFlood
         result="flood"
         in="SourceGraphic"
         flood-opacity="0.854902"
         flood-color="rgb(0,0,0)"
         id="feFlood40" />
      <feGaussianBlur
         result="blur"
         in="SourceGraphic"
         stdDeviation="0.500000"
         id="feGaussianBlur40" />
      <feOffset
         result="offset"
         in="blur"
         dx="0.600000"
         dy="0.600000"
         id="feOffset40" />
      <feComposite
         result="comp1"
         operator="in"
         in="flood"
         in2="offset"
         id="feComposite40" />
      <feComposite
         result="fbSourceGraphic"
         operator="over"
         in="SourceGraphic"
         in2="comp1"
         id="feComposite41" />
      <feColorMatrix
         result="fbSourceGraphicAlpha"
         in="fbSourceGraphic"
         values="0 0 0 -1 0 0 0 0 -1 0 0 0 0 -1 0 0 0 0 1 0"
         id="feColorMatrix41" />
      <feFlood
         id="feFlood41"
         result="flood"
         in="fbSourceGraphic"
         flood-opacity="0.854902"
         flood-color="rgb(0,0,0)" />
      <feGaussianBlur
         id="feGaussianBlur41"
         result="blur"
         in="fbSourceGraphic"
         stdDeviation="0.500000" />
      <feOffset
         id="feOffset41"
         result="offset"
         in="blur"
         dx="0.600000"
         dy="0.600000" />
      <feComposite
         id="feComposite42"
         result="comp1"
         operator="in"
         in="flood"
         in2="offset" />
      <feComposite
         id="feComposite43"
         result="comp2"
         operator="over"
         in="fbSourceGraphic"
         in2="comp1" />
    </filter>
    <filter
       style="color-interpolation-filters:sRGB"
       inkscape:label="Drop Shadow"
       id="filter46"
       x="-0.020473858"
       y="-0.064341817"
       width="1.0511846"
       height="1.1608545">
      <feFlood
         result="flood"
         in="SourceGraphic"
         flood-opacity="0.854902"
         flood-color="rgb(0,0,0)"
         id="feFlood45" />
      <feGaussianBlur
         result="blur"
         in="SourceGraphic"
         stdDeviation="0.500000"
         id="feGaussianBlur45" />
      <feOffset
         result="offset"
         in="blur"
         dx="0.600000"
         dy="0.600000"
         id="feOffset45" />
      <feComposite
         result="comp1"
         operator="in"
         in="flood"
         in2="offset"
         id="feComposite45" />
      <feComposite
         result="comp2"
         operator="over"
         in="SourceGraphic"
         in2="comp1"
         id="feComposite46" />
    </filter>
    <filter
       style="color-interpolation-filters:sRGB"
       inkscape:label="Drop Shadow"
       id="filter37-9"
       x="-0.014567179"
       y="-0.071325537"
       width="1.0364179"
       height="1.1783138">
      <feFlood
         result="flood"
         in="SourceGraphic"
         flood-opacity="0.854902"
         flood-color="rgb(0,0,0)"
         id="feFlood36-6" />
      <feGaussianBlur
         result="blur"
         in="SourceGraphic"
         stdDeviation="0.500000"
         id="feGaussianBlur36-2" />
      <feOffset
         result="offset"
         in="blur"
         dx="0.600000"
         dy="0.600000"
         id="feOffset36-1" />
      <feComposite
         result="comp1"
         operator="in"
         in="flood"
         in2="offset"
         id="feComposite36-7" />
      <feComposite
         result="comp2"
         operator="over"
         in="SourceGraphic"
         in2="comp1"
         id="feComposite37-8" />
    </filter>
    <linearGradient
       inkscape:collect="always"
       xlink:href="#linearGradient6"
       id="linearGradient8"
       x1="78.038628"
       y1="12.395355"
       x2="80.872734"
       y2="48.002861"
       gradientUnits="userSpaceOnUse"
       spreadMethod="reflect"
       gradientTransform="matrix(0.68532184,0,0,0.68532187,2.2891576,7.224651)" />
  </defs>
  <path
     style="color:#000000;display:inline;fill:#ffffff;fill-opacity:1;fill-rule:evenodd;stroke:none;stroke-linecap:square;stroke-linejoin:miter;stroke-miterlimit:1.8;stroke-dasharray:none;stroke-dashoffset:1.6989;stroke-opacity:1;-inkscape-stroke:none;paint-order:stroke fill markers;filter:url(#filter37-9)"
     d="m 66.102051,9.2979523 -0.447265,0.675781 0.335937,0.2226567 c 0.447095,0.296632 0.892182,0.59794 1.332031,0.904297 l 0.332032,0.230468 0.460937,-0.664062 -0.330078,-0.230469 C 67.340364,10.126484 66.889722,9.8222713 66.437989,9.5225623 Z m 3.996094,2.7851557 -0.474609,0.654297 0.326171,0.238282 0.65625,0.476562 0.650391,0.476563 0.326172,0.238281 0.478516,-0.654297 -0.328125,-0.238281 -0.650391,-0.47461 a 0.40454046,0.40454046 0 0 0 0,-0.002 L 70.42627,12.32139 Z m 77.431655,2.048829 -0.31836,0.251953 -0.27539,0.21875 -0.31641,0.251953 0.50391,0.632812 0.3164,-0.25 0.27539,-0.220703 0.31641,-0.251953 z m -73.507826,0.804687 -0.470703,0.658203 0.330078,0.234375 c 0.440262,0.314182 0.881933,0.625759 1.328125,0.933594 l 0.333984,0.230469 0.458985,-0.666016 -0.333985,-0.230469 c -0.441674,-0.304718 -0.880604,-0.613388 -1.318359,-0.925781 z m 70.664076,1.332031 -0.33399,0.226563 c -0.44357,0.299446 -0.89272,0.592222 -1.3457,0.873047 l -0.34375,0.21289 0.42773,0.687499 0.34375,-0.21289 c 0.46379,-0.287522 0.91874,-0.586563 1.36914,-0.890624 l 0.33594,-0.22461 z m -66.675795,1.394532 -0.433593,0.681639 0.341796,0.216797 0.275391,0.175781 a 0.40454046,0.40454046 0 0 0 0.0039,0.002 l 0.580078,0.357422 a 0.40454046,0.40454046 0 0 0 0.0039,0.0039 l 0.521484,0.314453 0.347656,0.208984 0.417969,-0.693359 -0.347656,-0.208985 -0.521485,-0.314453 -0.574218,-0.355469 -0.273438,-0.173827 z m 62.574225,1.115233 -0.35742,0.189453 c -0.47267,0.250499 -0.94918,0.493788 -1.42969,0.726563 l -0.36328,0.175781 0.35156,0.728515 0.36524,-0.175781 c 0.49023,-0.237486 0.9747,-0.485649 1.45508,-0.740234 l 0.35742,-0.189453 z m -58.419929,1.318359 -0.369139,0.720703 0.359374,0.183594 c 0.483279,0.248755 0.971605,0.49104 1.464843,0.722656 l 0.365235,0.171875 0.343751,-0.732421 -0.365236,-0.171875 c -0.483135,-0.226873 -0.963677,-0.464092 -1.439453,-0.708985 z m 54.076179,0.753907 -0.37304,0.152343 c -0.49581,0.202414 -0.99513,0.398632 -1.4961,0.583985 l -0.3789,0.140625 0.28125,0.757812 0.3789,-0.140625 c 0.51068,-0.188943 1.01671,-0.38652 1.51953,-0.591797 l 0.375,-0.154297 z m -49.707037,1.253906 -0.291016,0.755859 0.378906,0.144531 c 0.508495,0.195457 1.020805,0.3822 1.537105,0.556641 l 0.38282,0.128906 0.25976,-0.767578 -0.38476,-0.128906 c -0.50559,-0.170821 -1.00753,-0.351419 -1.50586,-0.542969 z m 45.181647,0.392578 -0.38672,0.119141 c -0.51136,0.157217 -1.02472,0.305828 -1.54101,0.447265 l -0.39063,0.107422 0.21289,0.78125 0.39063,-0.107422 c 0.52401,-0.14355 1.04676,-0.295314 1.5664,-0.455078 l 0.38672,-0.119141 z m -40.617192,1.109375 -0.20117,0.783203 0.39257,0.09961 c 0.52766,0.135389 1.05724,0.260867 1.58985,0.375 l 0.39648,0.08398 0.16797,-0.791016 -0.39453,-0.08398 c -0.52209,-0.111878 -1.04145,-0.234496 -1.55859,-0.367188 z m 35.962902,0.138672 -0.39454,0.08594 c -0.52327,0.114155 -1.04798,0.220738 -1.57421,0.320313 l -0.39844,0.07617 0.15039,0.794922 0.39844,-0.07617 c 0.5336,-0.100969 1.06511,-0.208469 1.5957,-0.324219 l 0.39453,-0.08594 z m -31.255872,0.832031 -0.11328,0.800781 0.40039,0.05664 c 0.53891,0.07669 1.08004,0.144016 1.62109,0.201172 l 0.40234,0.04297 0.084,-0.804688 -0.40235,-0.04297 c -0.53163,-0.05616 -1.06085,-0.121983 -1.58984,-0.197265 z m 26.513682,0.04102 -0.40039,0.05469 -0.49024,0.06641 -0.75195,0.09375 -0.35352,0.04102 -0.40234,0.04492 0.0918,0.804687 0.40234,-0.04687 0.35547,-0.03906 a 0.40454046,0.40454046 0 0 0 0.004,0 l 0.75781,-0.0957 a 0.40454046,0.40454046 0 0 0 0.004,0 l 0.49218,-0.06836 0.40039,-0.05469 z m -15.50586,0.404297 -0.54102,0.02734 -0.45507,0.01953 -0.4043,0.01758 0.0352,0.808593 0.4043,-0.01758 0.45703,-0.01953 a 0.40454046,0.40454046 0 0 0 0.004,0 l 0.51953,-0.02539 c 0.19051,0.02256 0.38421,0.045 0.58008,0.0625 l 0.40234,0.03516 0.0723,-0.804688 -0.4043,-0.03711 c -0.19821,-0.01771 -0.39841,-0.04024 -0.60156,-0.06445 a 0.40454046,0.40454046 0 0 0 -0.0684,-0.002 z m -6.21681,0.02734 -0.0371,0.808594 0.4043,0.01758 c 0.54403,0.02467 1.0884,0.03932 1.63087,0.04687 l 0.4043,0.0059 0.01,-0.808594 -0.4043,-0.0059 c -0.53606,-0.0075 -1.07,-0.02073 -1.60352,-0.04492 z m 16.92775,0.08789 -0.4043,0.02539 c -0.53648,0.03476 -1.07181,0.06521 -1.60547,0.08594 l -0.4043,0.01563 0.0312,0.808594 0.4043,-0.01563 c 0.5442,-0.02113 1.08706,-0.05291 1.62695,-0.08789 l 0.40235,-0.02539 z m -7.23828,0.132812 -0.0254,0.808594 0.4043,0.01172 c 0.54325,0.01737 1.08661,0.0264 1.62891,0.0293 l 0.40429,0.002 0.004,-0.808594 -0.4043,-0.002 c -0.53632,-0.0029 -1.07256,-0.01219 -1.60742,-0.0293 z"
     id="path35-7" />
  <g
     id="group-R5"
     transform="matrix(0.02323005,0.06495511,-0.06495511,0.02323005,183.03849,-6.71005)"
     inkscape:label="rocket">
    <path
       id="path2"
       d="m 402.496,2372.2 c 0,0 -375.2343,-265.89 -402.496,-920.28 211.313,156.78 428.91,179.36 579.195,191.92 l 75.192,537.44 -251.891,190.92"
       style="fill:#e830eb;fill-opacity:1;fill-rule:nonzero;stroke:none"
       transform="matrix(0.13333333,0,0,-0.13333333,0,600.04)"
       inkscape:label="top-fin" />
    <path
       id="path3"
       d="m 1718.52,2372.2 c 0,0 375.22,-265.89 402.48,-920.28 -211.3,156.78 -428.9,179.36 -579.18,191.92 l -75.2,537.44 251.9,190.92"
       style="fill:#e830eb;fill-opacity:1;fill-rule:nonzero;stroke:none"
       transform="matrix(0.13333333,0,0,-0.13333333,0,600.04)"
       inkscape:label="bottom-fin" />
    <path
       id="path4"
       d="m 816.363,1367.03 c 0,0 -202.371,-344.55 274.787,-1367.03 402.19,1022.48 210.41,1362.72 210.41,1362.72 0,0 -248.75,83.02 -485.197,4.31"
       style="fill:#fac10e;fill-opacity:1;fill-rule:nonzero;stroke:none"
       transform="matrix(0.13333333,0,0,-0.13333333,0,600.04)"
       inkscape:label="outer-flame" />
    <path
       id="path5"
       d="M 1060.48,797.531 C 838.941,1097.46 934.109,1347.01 934.109,1347.01 c 46.637,25.63 90.911,34.41 129.711,34.41 84.64,0 143.21,-41.81 143.21,-41.81 0,0 68.17,-255.79 -146.55,-542.079"
       style="fill:#fbe26f;fill-opacity:1;fill-rule:nonzero;stroke:none"
       transform="matrix(0.13333333,0,0,-0.13333333,0,600.04)"
       inkscape:label="inner-flame" />
    <path
       id="path6"
       d="m 1765.05,2948.3 c 0,-603.15 -125.42,-1056.88 -217.06,-1308.76 -54.52,-148.37 -97.02,-226.88 -97.02,-226.88 0,0 -140.7,-73.05 -390.47,-73.05 -249.762,0 -390.457,73.05 -390.457,73.05 0,0 -43.613,80.7 -98.152,231.18 -92.711,253.08 -215.946,705.68 -215.946,1304.46 0,495.11 164.664,895.42 335.934,1165.9 141.758,223.56 286.82,358.83 350.091,386.09 h 37.06 c 63.26,-27.26 208.33,-162.53 350.1,-386.09 171.26,-270.48 335.92,-670.79 335.92,-1165.9"
       style="fill:#d7d6d1;fill-opacity:1;fill-rule:nonzero;stroke:none"
       transform="matrix(0.13333333,0,0,-0.13333333,0,600.04)"
       inkscape:label="body" />
    <path
       id="path7"
       d="m 1064.87,1559.92 c -255.202,0 -425.343,56.66 -492.979,83.92 54.539,-150.48 98.152,-231.18 98.152,-231.18 0,0 140.695,-73.05 390.457,-73.05 249.77,0 390.47,73.05 390.47,73.05 0,0 42.5,78.51 97.02,226.88 -73.06,-28.4 -238.85,-79.62 -483.12,-79.62"
       style="fill:#7621ff;fill-opacity:1;fill-rule:nonzero;stroke:none"
       transform="matrix(0.13333333,0,0,-0.13333333,0,600.04)"
       inkscape:label="bottom" />
    <path
       id="path8"
       d="m 1417.4,3449.16 c 0,-197.09 -159.8,-356.91 -356.9,-356.91 -197.094,0 -356.91,159.82 -356.91,356.91 0,197.1 159.816,356.91 356.91,356.91 197.1,0 356.9,-159.81 356.9,-356.91"
       style="fill:#7621ff;fill-opacity:1;fill-rule:nonzero;stroke:none"
       transform="matrix(0.13333333,0,0,-0.13333333,0,600.04)"
       inkscape:label="outer-window" />
    <path
       id="path9"
       d="m 1321.98,3449.16 c 0,-144.43 -117.06,-261.47 -261.48,-261.47 -144.426,0 -261.473,117.04 -261.473,261.47 0,144.42 117.047,261.48 261.473,261.48 144.42,0 261.48,-117.06 261.48,-261.48"
       style="fill:#ffffff;fill-opacity:1;fill-rule:nonzero;stroke:none"
       transform="matrix(0.13333333,0,0,-0.13333333,0,600.04)"
       inkscape:label="inner-window" />
    <path
       id="path10"
       d="m 1429.13,4114.2 c -107.95,-41.49 -234.48,-65.45 -368.63,-65.45 -134.145,0 -260.676,23.96 -368.621,65.45 141.758,223.56 286.82,358.83 350.091,386.09 h 37.06 c 63.26,-27.26 208.33,-162.53 350.1,-386.09"
       style="fill:#7621ff;fill-opacity:1;fill-rule:nonzero;stroke:none"
       transform="matrix(0.13333333,0,0,-0.13333333,0,600.04)"
       inkscape:label="nose" />
    <path
       id="path11"
       d="m 1137.76,2026.21 c 0,-311.54 -34.61,-782.2 -77.27,-782.2 -42.65,0 -77.263,470.66 -77.263,782.2 0,311.59 34.613,345.99 77.263,345.99 42.66,0 77.27,-34.4 77.27,-345.99"
       style="fill:#e830eb;fill-opacity:1;fill-rule:nonzero;stroke:none;stroke-width:0.978487;stroke-dasharray:none"
       transform="matrix(0.13333333,0,0,-0.13333333,0,600.04)"
       inkscape:label="middle-fin" />
  </g>
  <text
     xml:space="preserve"
     style="font-style:normal;font-variant:normal;font-weight:900;font-stretch:normal;font-size:15.4731px;font-family:'FT Polar';-inkscape-font-specification:'FT Polar, Heavy';font-variant-ligatures:normal;font-variant-caps:normal;font-variant-numeric:normal;font-variant-east-asian:normal;fill:url(#linearGradient8);fill-opacity:1;fill-rule:evenodd;stroke:#050000;stroke-width:0.048;stroke-linecap:square;stroke-linejoin:miter;stroke-miterlimit:1.8;stroke-dasharray:none;stroke-dashoffset:6.42104;stroke-opacity:0.93120402;paint-order:markers fill stroke"
     x="8.6694393"
     y="22.194094"
     id="text1"
     transform="scale(1.066368,0.93776261)"><tspan
       sodipodi:role="line"
       id="tspan10"
       style="fill:url(#linearGradient8);stroke-width:0.048;-inkscape-font-specification:'FT Polar, Heavy';font-family:'FT Polar';font-weight:900;font-style:normal;font-stretch:normal;font-variant:normal;font-size:15.47309937px;font-variant-ligatures:normal;font-variant-caps:normal;font-variant-numeric:normal;font-variant-east-asian:normal;stroke-dasharray:none;stroke-linejoin:miter;paint-order:markers fill stroke;stroke-linecap:square;stroke:#050000;stroke-opacity:0.93120402"
       x="8.6694393"
       y="22.194094">ASTRONOMICAL</tspan></text>
  <path
     style="color:#000000;fill:#ffffff;fill-opacity:1;fill-rule:evenodd;stroke:none;stroke-linecap:square;stroke-linejoin:round;stroke-miterlimit:1.8;stroke-dasharray:none;stroke-dashoffset:1.82405;stroke-opacity:1;-inkscape-stroke:none;paint-order:stroke fill markers;filter:url(#filter46)"
     d="m 39.430025,6.8623026 -0.0039,0.867187 0.433594,0.002 0.261719,0.002 0.640625,0.0098 0.679687,0.01953 0.142578,0.0039 0.433594,0.01563 0.03125,-0.867187 -0.433594,-0.01563 -0.144531,-0.0059 a 0.43434192,0.43434192 0 0 0 -0.0039,0 l -0.685559,-0.017659 a 0.43434192,0.43434192 0 0 0 -0.0039,0 l -0.644532,-0.01172 a 0.43434192,0.43434192 0 0 0 -0.0059,0 h -0.261719 z m -2.640625,0.111328 -0.43164,0.03516 -0.546875,0.04492 a 0.43434192,0.43434192 0 0 0 -0.0039,0 l -0.72461,0.06641 a 0.43434192,0.43434192 0 0 0 -0.0059,0.002 l -0.458985,0.04687 -0.43164,0.04297 0.08984,0.865234 0.43164,-0.04492 0.457031,-0.04687 0.71875,-0.06641 0.544922,-0.04492 0.431641,-0.03516 z m 7.875,0.07617 -0.05859,0.867187 0.433593,0.0293 0.300782,0.01953 0.853515,0.06445 0.572266,0.04687 0.431641,0.03516 0.07227,-0.865235 -0.433594,-0.03516 -0.572265,-0.04687 a 0.43434192,0.43434192 0 0 0 -0.0039,0 l -0.857422,-0.06445 a 0.43434192,0.43434192 0 0 0 -0.002,0 l -0.302735,-0.02149 z m 5.210938,0.453125 -0.09766,0.863281 0.43164,0.04687 0.441407,0.05078 0.904296,0.109375 0.373047,0.04883 0.429688,0.05469 0.111332,-0.861324 -0.429688,-0.054688 -0.375,-0.04883 a 0.43434192,0.43434192 0 0 0 -0.002,0 l -0.910156,-0.111328 a 0.43434192,0.43434192 0 0 0 -0.0039,0 l -0.441406,-0.05078 z m -18.296875,0.04883 -0.429688,0.06836 -0.43164,0.06836 a 0.43434192,0.43434192 0 0 0 -0.0039,0.002 l -0.71875,0.121093 a 0.43434192,0.43434192 0 0 0 -0.0039,0.002 l -0.5625,0.103516 -0.427734,0.07617 0.15625,0.855469 0.427734,-0.07813 0.558594,-0.101563 0.712891,-0.123047 0.429687,-0.06641 0.429688,-0.06836 z m 23.486328,0.648437 -0.146484,0.855469 0.429687,0.07227 c 0.567295,0.09601 1.13201,0.200312 1.695313,0.3125 l 0.425781,0.08398 0.169922,-0.851563 -0.425781,-0.08398 c -0.572505,-0.11402 -1.146133,-0.219168 -1.720704,-0.316406 z m -28.636719,0.353516 -0.421875,0.103515 -0.287109,0.07031 a 0.43434192,0.43434192 0 0 0 -0.0059,0.002 l -0.69336,0.181641 a 0.43434192,0.43434192 0 0 0 -0.0059,0.002 l -0.689453,0.189453 a 0.43434192,0.43434192 0 0 0 -0.0059,0.002 l -0.0078,0.002 -0.417969,0.121094 0.242188,0.8339844 0.417968,-0.1210944 h 0.0059 l 0.683593,-0.189453 0.6875,-0.179687 0.285157,-0.07031 0.421875,-0.105468 z m 33.78125,0.728515 -0.238281,0.8359384 0.417969,0.11914 c 0.261736,0.07453 0.522907,0.156469 0.785156,0.242188 l 0.304688,0.101562 0.291015,0.105469 0.230469,0.08789 0.40625,0.152344 0.308594,-0.8125 -0.40625,-0.1523444 -0.236328,-0.08984 a 0.43434192,0.43434192 0 0 0 -0.0078,-0.002 l -0.296875,-0.107422 a 0.43434192,0.43434192 0 0 0 -0.0078,-0.002 l -0.308594,-0.105469 a 0.43434192,0.43434192 0 0 0 -0.0039,0 C 61.17718,9.5667396 60.90272,9.4802476 60.625369,9.4012736 Z M 21.385104,10.032224 20.9769,10.180662 c -0.549831,0.19915 -1.095124,0.409113 -1.636718,0.630859 l -0.402344,0.164063 0.328125,0.802734 0.402344,-0.164062 c 0.53017,-0.21707 1.064463,-0.421942 1.603515,-0.617188 l 0.408203,-0.148437 z m -4.84961,2.048828 -0.386719,0.201172 c -0.519885,0.269989 -1.032609,0.551835 -1.539062,0.84961 l -0.375,0.220703 0.439453,0.748047 0.375,-0.21875 c 0.491891,-0.289213 0.992128,-0.566328 1.5,-0.830078 l 0.386719,-0.199219 z m -4.511718,2.742188 -0.347657,0.261719 c -0.46895,0.355014 -0.926482,0.725525 -1.371093,1.113281 l -0.3281254,0.285156 0.5722654,0.654297 0.326172,-0.285156 c 0.428189,-0.373433 0.871817,-0.730254 1.326172,-1.074219 l 0.345703,-0.263672 z m -3.9296884,3.554687 -0.279297,0.332032 -0.126953,0.15039 a 0.43434192,0.43434192 0 0 0 -0.002,0.0039 c -0.334938,0.402752 -0.656672,0.816667 -0.960938,1.24414 l -0.251953,0.353516 0.708985,0.503906 0.251953,-0.353516 c 0.290614,-0.408293 0.597032,-0.805387 0.917969,-1.191406 l 0.002,-0.002 0.125,-0.148437 0.279297,-0.332032 z m -2.9804687,4.400391 -0.1835938,0.392578 -0.1152344,0.251953 a 0.43434192,0.43434192 0 0 0 -0.00391,0.0078 l -0.1269531,0.287109 a 0.43434192,0.43434192 0 0 0 -0.00391,0.0059 l -0.1230469,0.291015 a 0.43434192,0.43434192 0 0 0 0,0.0039 c -0.1069643,0.259935 -0.2125458,0.52398 -0.3085937,0.792969 l -0.1445238,0.408182 0.8183594,0.292969 0.1445313,-0.408203 c 0.089428,-0.250449 0.1881654,-0.501894 0.2910156,-0.751953 l 0.00195,-0.0039 0.1191406,-0.283204 0.125,-0.28125 0.1152375,-0.248052 0.1816406,-0.394532 z"
     id="path39"
     inkscape:label="path39"
     transform="matrix(1,0,0,1.0739479,1.2356489,-2.9036351)" />
</svg>
