<svg
   viewBox="0 0 24 24"
   fill="currentColor"
   width="10"
   height="10"
   version="1.1"
   id="svg2"
   sodipodi:docname="briefcase-icon.svg"
   inkscape:version="1.3.2 (091e20ef0f, 2023-11-25, custom)"
   xmlns:inkscape="http://www.inkscape.org/namespaces/inkscape"
   xmlns:sodipodi="http://sodipodi.sourceforge.net/DTD/sodipodi-0.dtd"
   xmlns="http://www.w3.org/2000/svg"
   xmlns:svg="http://www.w3.org/2000/svg">
  <defs
     id="defs2" />
  <sodipodi:namedview
     id="namedview2"
     pagecolor="#ffffff"
     bordercolor="#000000"
     borderopacity="0.25"
     inkscape:showpageshadow="2"
     inkscape:pageopacity="0.0"
     inkscape:pagecheckerboard="0"
     inkscape:deskcolor="#d1d1d1"
     inkscape:zoom="22.5"
     inkscape:cx="9.7111111"
     inkscape:cy="10.888889"
     inkscape:window-width="1941"
     inkscape:window-height="1104"
     inkscape:window-x="0"
     inkscape:window-y="0"
     inkscape:window-maximized="0"
     inkscape:current-layer="svg2" />
  <path
     fill-rule="evenodd"
     d="M7.5 5.25a3 3 0 0 1 3-3h3a3 3 0 0 1 3 3v.205c.933.085 1.857.197 2.774.334 1.454.218 2.476 1.483 2.476 2.917v3.033c0 1.211-.734 2.352-1.936 2.752A24.726 24.726 0 0 1 12 15.75c-2.73 0-5.357-.442-7.814-1.259-1.202-.4-1.936-1.541-1.936-2.752V8.706c0-1.434 1.022-2.7 2.476-2.917A48.814 48.814 0 0 1 7.5 5.455V5.25Zm7.5 0v.09a49.488 49.488 0 0 0-6 0v-.09a1.5 1.5 0 0 1 1.5-1.5h3a1.5 1.5 0 0 1 1.5 1.5Zm-3 8.25a.75.75 0 1 0 0-1.5.75.75 0 0 0 0 1.5Z"
     clip-rule="evenodd"
     id="path1"
     style="fill:#f0f0f0;fill-opacity:1" />
  <path
     d="M3 18.4v-2.796a4.3 4.3 0 0 0 .713.31A26.226 26.226 0 0 0 12 17.25c2.892 0 5.68-.468 8.287-1.335.252-.084.49-.189.713-.311V18.4c0 1.452-1.047 2.728-2.523 2.923-2.12.282-4.282.427-6.477.427a49.19 49.19 0 0 1-6.477-.427C4.047 21.128 3 19.852 3 18.4Z"
     id="path2"
     style="fill:#f0f0f0;fill-opacity:1" />
</svg>
