<?xml version="1.0" encoding="UTF-8" standalone="no"?>
<svg
   viewBox="0 0 120 100.672"
   version="1.1"
   id="svg13"
   width="120"
   height="100.672"
   xmlns="http://www.w3.org/2000/svg"
   xmlns:svg="http://www.w3.org/2000/svg">
  <defs
     id="defs13" />
  <path
     fill="#fbf0df"
     d="M 116,54.309 C 116,77.776 90.928,96.799004 60,96.799004 29.072,96.799004 4,77.776 4,54.309 4,39.759 13.6,26.908 28.352,19.286 43.104,11.664 52.288,3.857 60,3.857 c 7.712,0 14.304,6.372 31.648,15.43 C 106.4,26.906 116,39.759 116,54.309 Z"
     id="path2" />
  <path
     fill="#f6dece"
     d="m 116,54.309 a 32.314,32.314 0 0 0 -1.28,-8.918 c -4.368,51.377004 -69.360001,53.846004 -94.912,38.48 11.486,8.584004 25.66,13.144004 40.192,12.928004 30.88,0 56,-19.054004 56,-42.490004 z"
     id="path3" />
  <path
     fill="#fffefc"
     d="M 38.448,16.463 C 45.6,12.328 55.103999,4.567 64.447999,4.552 a 15.372,15.372 0 0 0 -4.448,-0.695 c -3.872,0 -8,1.93 -13.2,4.83 -1.808,1.018 -3.68,2.144 -5.664,3.317 -3.728,2.222 -8,4.736 -12.8,7.251 C 13.103999,27.201 4,40.3 4,54.309 v 1.836 C 13.695999,23.112 31.311999,20.598 38.448,16.463 Z"
     id="path4" />
  <path
     fill="#ccbea7"
     d="M 55.392,7.761 A 24.553,24.553 0 0 1 53.067,18.329 25.407,25.407 0 0 1 46.384,27 c -0.448001,0.386 -0.096,1.127 0.479999,0.91 5.392001,-2.02 12.672001,-8.068 9.6,-20.272 -0.128,-0.695 -1.072,-0.51 -1.071999,0.123 z m 3.632,0 a 24.474,24.474 0 0 1 3.646,10.12 c 0.444999,3.587 0.08,7.224 -1.07,10.662 -0.192,0.54 0.496,1.003 0.88,0.556 3.504,-4.32 6.56,-12.899 -2.592,-22.156 -0.464,-0.4 -1.184,0.216 -0.864,0.756 z m 4.415999,-0.262 a 25.702,25.702 0 0 1 7.521,7.925 24.71,24.71 0 0 1 3.439,10.219 c -0.016,0.13 0.02,0.26 0.101,0.365 a 0.543,0.543 0 0 0 0.718,0.117 0.509,0.509 0 0 0 0.221,-0.313 c 1.472,-5.384 0.64,-14.564 -11.471999,-19.332 -0.64,-0.246 -1.056,0.587 -0.528001,0.957 z m -29.536,16.045 a 27.418,27.418 0 0 0 9.91,-5.222 26.262,26.262 0 0 0 6.842,-8.663 c 0.288,-0.556 1.2,-0.34 1.056,0.277 -2.768,12.343 -12.032,14.92 -17.792,14.58 -0.608,0.016 -0.592,-0.802 -0.016,-0.972 z"
     id="path5" />
  <path
     d="M 60,100.672 C 26.911999,100.672 0,79.874 0,54.309 0,38.88 9.8879995,24.486 26.448,15.861 31.247999,13.392 35.359999,10.908 39.024,8.733 41.039999,7.53 42.944,6.403 44.783999,5.354 50.399999,2.145 55.2,0 60,0 c 4.799999,0 8.992,1.852 14.239999,4.845 1.6,0.88 3.2,1.836 4.912001,2.885 3.983999,2.376 8.48,5.06 14.4,8.131 16.56,8.625 26.448,23.004 26.448,38.448 0,25.565 -26.912,46.363 -60,46.363 z M 60,3.858 c -3.872,0 -8,1.928 -13.200001,4.829 -1.808,1.018 -3.68,2.144 -5.664,3.317 -3.728,2.222 -8,4.736 -12.8,7.251 C 13.103999,27.201 4,40.3 4,54.309 4,77.745 29.119999,96.815004 60,96.815004 90.879999,96.815004 116,77.745 116,54.309 116,40.299 106.896,27.201 91.648,19.286 85.6,16.2 80.88,13.3 77.056,11.016 75.312,9.983 73.712,9.026 72.256,8.178 67.408,5.4 63.872,3.858 60,3.858 Z"
     id="path6" />
  <path
     fill="#b71422"
     d="m 71.28,65.572 c -0.719,2.839 -2.355001,5.383 -4.672,7.267 a 11.07,11.07 0 0 1 -6.4,2.9 11.13,11.13 0 0 1 -6.608,-2.9 c -2.293,-1.892 -3.906,-4.436 -4.608,-7.267 a 1.073,1.073 0 0 1 0.05,-0.5 1.11,1.11 0 0 1 0.272,-0.428 1.19,1.19 0 0 1 0.958,-0.322 h 19.744 a 1.185,1.185 0 0 1 0.947,0.33 1.073,1.073 0 0 1 0.317,0.92 z"
     id="path7" />
  <path
     fill="#ff6164"
     d="m 53.6,72.962 a 11.24,11.24 0 0 0 6.592,2.932 11.239,11.239 0 0 0 6.576,-2.932 16.652,16.652 0 0 0 1.599999,-1.65 10.904,10.904 0 0 0 -3.538,-2.564 11.26,11.26 0 0 0 -4.302,-1 10.121,10.121 0 0 0 -4.549,1.192 9.71,9.71 0 0 0 -3.451,3.097 C 52.896,72.36 53.216,72.669 53.6,72.962 Z"
     id="path8" />
  <path
     d="m 53.856,71.743 a 8.518,8.518 0 0 1 2.97,-2.347 8.836,8.836 0 0 1 3.734,-0.862 9.78,9.78 0 0 1 6.4,2.608 c 0.368,-0.386 0.72,-0.787 1.056,-1.188 -2.035,-1.87 -4.726,-2.933 -7.536,-2.978 a 10.487,10.487 0 0 0 -4.335,0.975 10.125,10.125 0 0 0 -3.489,2.666 c 0.378,0.396 0.779,0.772 1.2,1.126 z"
     id="path9" />
  <path
     d="M 60.143999,76.665 A 12.078,12.078 0 0 1 53.024,73.579 c -2.477,-2.02 -4.22,-4.75 -4.976,-7.791 -0.054,-0.27 -0.045,-0.55 0.027,-0.817 a 1.83,1.83 0 0 1 0.389,-0.726 2.25,2.25 0 0 1 0.81,-0.595 2.32,2.32 0 0 1 0.998,-0.192 h 19.744 c 0.343,-0.007 0.683,0.06 0.996,0.196 a 2.3,2.3 0 0 1 0.811999,0.591 c 0.182001,0.212 0.313001,0.46 0.382001,0.728 0.07,0.267 0.076,0.545 0.018,0.815 -0.756,3.042 -2.5,5.771 -4.976,7.791 a 12.078,12.078 0 0 1 -7.104001,3.086 z m -9.872,-11.417 c -0.256,0 -0.32,0.108 -0.336,0.139 C 50.612,68.025 52.142,70.386 54.304,72.129 a 10.122,10.122 0 0 0 5.84,2.7 10.207,10.207 0 0 0 5.84,-2.67 c 2.155,-1.745 3.679,-4.106 4.352,-6.741 a 0.333,0.333 0 0 0 -0.14,-0.113 0.348,0.348 0 0 0 -0.18,-0.026 z"
     id="path10" />
  <path
     fill="#febbd0"
     d="m 84.352,66.529 c 5.17,0 9.36,-2.377 9.36,-5.308 0,-2.931 -4.19,-5.307 -9.36,-5.307 -5.17,0 -9.36,2.376 -9.36,5.307 0,2.931 4.19,5.307 9.36,5.307 z m -48.432,0 c 5.17,0 9.36,-2.377 9.36,-5.308 0,-2.931 -4.19,-5.307 -9.36,-5.307 -5.17,0 -9.36,2.376 -9.36,5.307 0,2.931 4.19,5.307 9.36,5.307 z"
     id="path11" />
  <path
     d="m 40.32,59.092 a 9.052,9.052 0 0 0 4.902,-1.425 8.578,8.578 0 0 0 3.253999,-3.812 8.22,8.22 0 0 0 0.508001,-4.913 8.41,8.41 0 0 0 -2.408,-4.357 8.92,8.92 0 0 0 -4.514001,-2.33 9.12,9.12 0 0 0 -5.096,0.48 8.755,8.755 0 0 0 -3.96,3.131 8.287,8.287 0 0 0 -1.486,4.725 c 0,2.252 0.927,4.412 2.577,6.005 1.65,1.594 3.888,2.492 6.223001,2.496 z m 39.631999,0 A 9.054,9.054 0 0 0 84.867,57.689 8.582,8.582 0 0 0 88.142,53.887 8.22,8.22 0 0 0 88.67,48.97 8.408,8.408 0 0 0 86.272,44.602 8.92,8.92 0 0 0 81.76,42.258 a 9.12,9.12 0 0 0 -5.103,0.473 8.756,8.756 0 0 0 -3.967,3.13 8.287,8.287 0 0 0 -1.49,4.73 c -0.004,2.245 0.914,4.4 2.555,5.994 1.64,1.593 3.869,2.495 6.196999,2.507 z"
     id="path12" />
  <path
     fill="#ffffff"
     d="M 37.6,51.131 A 3.4,3.4 0 0 0 39.444,50.6 c 0.546999,-0.35 0.973999,-0.847 1.226999,-1.43 a 3.088,3.088 0 0 0 0.195,-1.847 3.16,3.16 0 0 0 -0.902,-1.639 3.351,3.351 0 0 0 -1.695999,-0.878 3.426,3.426 0 0 0 -1.916,0.179 3.29,3.29 0 0 0 -1.489,1.176 3.113,3.113 0 0 0 -0.559,1.776 c 0,0.844 0.347,1.654 0.964,2.253 a 3.374,3.374 0 0 0 2.332,0.94 z m 39.631999,0 a 3.4,3.4 0 0 0 1.844,-0.531 c 0.547,-0.35 0.974,-0.847 1.227,-1.43 a 3.088,3.088 0 0 0 0.195,-1.847 3.16,3.16 0 0 0 -0.902,-1.639 3.351,3.351 0 0 0 -1.696,-0.878 3.426,3.426 0 0 0 -1.916,0.179 3.29,3.29 0 0 0 -1.489,1.176 3.113,3.113 0 0 0 -0.559,1.776 c 0,0.84 0.342,1.644 0.953,2.242 0.61,0.598 1.44,0.94 2.311001,0.952 z"
     id="path13" />
</svg>
