<?xml version="1.0" encoding="UTF-8" standalone="no"?>
<svg
   width="400.1431"
   height="122.199"
   viewBox="0 0 105.87119 32.331815"
   version="1.1"
   id="svg1"
   xml:space="preserve"
   sodipodi:docname="rocket-launch-logotext.svg"
   inkscape:version="1.3.2 (091e20ef0f, 2023-11-25, custom)"
   inkscape:export-filename="rocket-launch-logotext2.svg"
   inkscape:export-xdpi="25.404108"
   inkscape:export-ydpi="25.404108"
   xmlns:inkscape="http://www.inkscape.org/namespaces/inkscape"
   xmlns:sodipodi="http://sodipodi.sourceforge.net/DTD/sodipodi-0.dtd"
   xmlns="http://www.w3.org/2000/svg"
   xmlns:svg="http://www.w3.org/2000/svg"><sodipodi:namedview
     id="namedview1"
     pagecolor="#ffffff"
     bordercolor="#000000"
     borderopacity="0.25"
     inkscape:showpageshadow="2"
     inkscape:pageopacity="0.0"
     inkscape:pagecheckerboard="true"
     inkscape:deskcolor="#d1d1d1"
     inkscape:document-units="mm"
     inkscape:zoom="2.5737231"
     inkscape:cx="215.0581"
     inkscape:cy="9.7135546"
     inkscape:window-width="1941"
     inkscape:window-height="1104"
     inkscape:window-x="0"
     inkscape:window-y="0"
     inkscape:window-maximized="0"
     inkscape:current-layer="layer1"
     shape-rendering="crispEdges" /><defs
     id="defs1"><filter
       style="color-interpolation-filters:sRGB"
       inkscape:label="Drop Shadow"
       id="filter7"
       x="-0.00074768806"
       y="-0.0047829822"
       width="1.0049684"
       height="1.0398932"><feFlood
         result="flood"
         in="SourceGraphic"
         flood-opacity="1.000000"
         flood-color="rgb(0,0,0)"
         id="feFlood6" /><feGaussianBlur
         result="blur"
         in="SourceGraphic"
         stdDeviation="0.000000"
         id="feGaussianBlur6" /><feOffset
         result="offset"
         in="blur"
         dx="10.000000"
         dy="10.049933"
         id="feOffset6" /><feComposite
         result="comp1"
         operator="in"
         in="flood"
         in2="offset"
         id="feComposite6" /><feComposite
         result="comp2"
         operator="over"
         in="SourceGraphic"
         in2="comp1"
         id="feComposite7" /></filter></defs><g
     inkscape:groupmode="layer"
     id="layer1"
     inkscape:label="bg"
     transform="translate(-1.618325,-4.8643655)" /><path
     id="path54"
     style="display:inline;fill:#dedede;stroke-width:0.218385;stroke-miterlimit:1.8;stroke-dashoffset:6.42104;paint-order:stroke markers fill"
     d="m 40.639681,3.5328639 c -0.05965,2.7078384 -0.793179,15.4027791 -7.278961,18.5290321 -0.476399,-0.939603 -1.380987,-1.792922 -2.706589,-2.422081 -1.541011,-0.524093 -5.200646,-1.045111 -6.730396,1.824034 -0.06374,0.119582 -0.116312,0.242081 -0.171526,0.364278 -0.391253,-0.37828 -0.823011,-0.722864 -1.296669,-1.023319 -0.01989,-0.02064 -0.03696,-0.04343 -0.05712,-0.06384 -1.258193,-1.27331 -2.96469,-1.988654 -4.74404,-1.988654 -2.93962,0.0029 -5.535048,1.94216 -6.403255,4.784408 -0.718869,-0.195504 -1.4595404,-0.296978 -2.2038979,-0.301938 -2.3108927,3e-6 -4.5271759,0.929039 -6.1612207,2.582732 C 1.2519565,27.4712 0.33392725,29.993104 0.33392725,32.331774 H 17.741412 83.894797 105.84302 a 4.4905751,4.5167751 0 0 0 0.0282,-0.142613 4.4905751,4.5167751 0 0 0 -4.248,-4.509693 9.2126795,9.26643 0 0 0 -8.715556,-6.423204 9.2126795,9.26643 0 0 0 -1.315493,0.09528 c -0.746877,-1.037626 -1.802021,-1.775972 -3.060208,-1.992332 -1.816831,-0.312291 -3.598508,0.524871 -4.800845,2.042487 -0.426179,-1.273748 -1.392763,-2.238879 -2.646047,-2.454352 -0.345501,-0.05934 -0.6883,-0.05561 -1.021829,0 -0.498298,-1.897211 -1.865753,-3.36576 -3.672874,-3.676392 -1.751684,-0.300959 -3.466963,0.564536 -4.563577,2.096555 -0.06338,-0.01504 -0.125683,-0.03313 -0.190229,-0.04429 -1.289347,-0.221672 -2.552346,0.40766 -3.369818,1.524621 -0.87869,-1.409809 -2.218364,-2.417744 -3.836569,-2.695866 -1.779834,-0.305998 -3.529377,0.333851 -4.878271,1.590286 -1.330519,-1.587095 -3.103083,-2.69488 -5.162483,-3.048838 -0.35411,-0.06088 -0.707553,-0.09795 -1.059057,-0.112208 -2.348076,-0.09528 -4.605525,0.835102 -6.422452,2.466454 C 44.159561,11.504054 44.362211,3.4349825 43.143827,3.9968504 Z" /><path
     id="path4-8"
     style="display:inline;fill:#ffffff;stroke-width:0.271504;stroke-miterlimit:1.8;stroke-dashoffset:6.42104;paint-order:stroke markers fill"
     d="m 42.197779,3.5099739 c 0.143219,0.2811123 0.183079,0.9013756 -1.135852,1.7173057 -0.592575,0.3665912 0.404633,8.7192284 -4.311231,18.3683124 -0.548353,0.290133 -1.118503,0.584976 -1.708548,0.882241 -0.120472,-1.85481 -1.021435,-3.597989 -2.518557,-4.872894 -1.497117,-1.2749 -3.477258,-1.985188 -5.535326,-1.98556 -1.985493,0.0033 -3.899943,0.667364 -5.3771,1.865114 -1.477152,1.197751 -2.413328,2.845123 -2.629404,4.626958 -1.468695,-0.693839 -3.030594,-0.98113 -4.55726,-0.884769 -0.206417,-0.02865 -0.414126,-0.04692 -0.622351,-0.05474 -1.660397,0 -3.252785,0.663063 -4.4268657,1.843306 -1.1740758,1.180252 -1.8336802,2.78102 -1.8336802,4.450147 0.00101,0.286683 0.021258,0.572975 0.060961,0.856869 -0.7784354,-0.573152 -1.7173133,-0.883999 -2.6822053,-0.888042 -1.9088648,6e-6 -4.58643505,1.085618 -4.58643505,2.894188 0,1.2e-5 0,0.0034 0,0.0034 H 11.917972 102.09183 c -0.14054,-2.339221 -1.11554,-4.555858 -2.772377,-6.222371 -1.793381,-1.803844 -4.225741,-2.817241 -6.761965,-2.817241 -0.482918,0.0019 -0.965008,0.04056 -1.44212,0.115692 -1.443165,-2.231379 -4.011806,-3.662162 -6.860548,-3.663004 -2.788994,0.003 -5.378928,1.381728 -6.850218,3.646657 -1.962675,0.307188 -3.83521,1.162496 -5.391556,2.50894 -0.332574,-0.300076 -0.685507,-0.581949 -1.082249,-0.818429 -0.911924,-0.545111 -1.892898,-0.838393 -2.876453,-0.926528 -0.804389,-3.625827 -4.056457,-6.213479 -7.821043,-6.223158 -2.314765,8.83e-4 -4.516446,0.987063 -6.039996,2.705183 -0.859563,-0.565628 -1.842557,-0.873704 -2.848283,-0.892665 -1.626393,0.0016 -3.174004,0.758506 -4.250011,2.078878 C 44.109037,14.960612 43.419112,4.381659 43.419112,4.381659 42.6948,3.9431515 42.359752,3.6708208 42.197784,3.5100031 Z" /><path
     id="path10-2"
     d="m 45.79714,6.898435 c 0,2.6809261 -0.64074,4.697698 -1.108909,5.817271 -0.278526,0.659488 -0.495647,1.008454 -0.495647,1.008454 0,0 -0.718803,0.324743 -1.99481,0.324743 -1.275966,0 -1.994713,-0.324743 -1.994713,-0.324743 0,0 -0.222848,-0.358657 -0.501475,-1.027567 -0.473637,-1.124908 -1.103188,-3.1366559 -1.103188,-5.798158 0,-2.2007014 0.841203,-3.9800289 1.716182,-5.1822336 0.724216,-0.99369611 1.465291,-1.59499731 1.788519,-1.716163312104 h 0.189335 C 42.615667,0.12120409 43.356742,0.72250529 44.081009,1.7162014 44.955932,2.9184061 45.79714,4.6977336 45.79714,6.898435"
     style="display:inline;fill:#d6d5d2;fill-opacity:1;fill-rule:nonzero;stroke:none;stroke-width:0.0476529"
     clip-path="none" /><path
     id="path20-5"
     d="m 42.592496,10.99703 c 0,1.384713 -0.176818,3.47678 -0.394752,3.47678 -0.217889,0 -0.394757,-2.092067 -0.394757,-3.47678 0,-1.3849777 0.176868,-1.5378821 0.394757,-1.5378821 0.217934,0 0.394752,0.1529044 0.394752,1.5378821"
     style="display:inline;fill:#eb464a;fill-opacity:1;fill-rule:nonzero;stroke:none;stroke-width:0.0476529"
     clip-path="none" /><path
     id="path12"
     d="m 42.220087,13.069627 c -1.303758,0 -2.17296,-0.251848 -2.518511,-0.373058 0.278627,0.668909 0.501469,1.027609 0.501469,1.027609 0,0 0.718753,0.324699 1.994719,0.324699 1.276062,0 1.994815,-0.324699 1.994815,-0.324699 0,0 0.217116,-0.348967 0.495647,-1.008453 -0.373241,0.126236 -1.220222,0.353902 -2.468139,0.353902"
     style="display:inline;fill:#4aa1af;fill-opacity:1;fill-rule:nonzero;stroke:none;stroke-width:0.0476529"
     clip-path="none" /><path
     id="path14-4"
     d="m 44.021093,4.6721751 c 0,0.8760397 -0.816376,1.5864203 -1.823314,1.5864203 -1.006882,0 -1.823364,-0.7103806 -1.823364,-1.5864203 0,-0.8760396 0.816482,-1.5864174 1.823364,-1.5864174 1.006938,0 1.823314,0.7103778 1.823314,1.5864174"
     style="display:inline;fill:#eb464a;fill-opacity:1;fill-rule:nonzero;stroke:none;stroke-width:0.0476529"
     clip-path="none" /><path
     id="path16-7"
     d="m 43.533615,4.6721751 c 0,0.6419726 -0.598032,1.1622015 -1.335836,1.1622015 -0.737854,0 -1.335786,-0.5202289 -1.335786,-1.1622015 0,-0.6419277 0.597932,-1.1622012 1.335786,-1.1622012 0.737804,0 1.335836,0.5202735 1.335836,1.1622012"
     style="display:inline;fill:#4aa1af;fill-opacity:1;fill-rule:nonzero;stroke:none;stroke-width:0.0476529"
     clip-path="none" /><path
     id="path18-7"
     d="m 44.081019,1.7161849 c -0.551493,0.1843712 -1.197904,0.2909147 -1.88324,0.2909147 -0.68529,0 -1.331746,-0.1065435 -1.883189,-0.2909147 0.724216,-0.99369623 1.465286,-1.59495392 1.788524,-1.716121207526 h 0.18933 C 42.615627,0.12123098 43.356753,0.72248867 44.081019,1.7161849"
     style="display:inline;fill:#eb464a;fill-opacity:1;fill-rule:nonzero;stroke:none;stroke-width:0.0476529"
     clip-path="none" /><path
     id="path5-9"
     d="m 40.950533,13.926997 c 0,0 -1.033855,1.531482 1.403836,6.076277 2.054685,-4.544795 1.074932,-6.057118 1.074932,-6.057118 0,0 -1.270801,-0.369013 -2.478768,-0.01916"
     style="display:inline;fill:#fec514;fill-opacity:1;fill-rule:nonzero;stroke:none;stroke-width:0.0476529"
     clip-path="none" /><path
     d="m 41.552081,14.015985 c 0,0 -0.486196,1.109218 0.645592,2.442368 1.096902,-1.272522 0.748695,-2.409478 0.748695,-2.409478 0,0 -0.636347,-0.395281 -1.394287,-0.03289"
     style="display:inline;fill:#ffffff;fill-opacity:1;fill-rule:nonzero;stroke:none;stroke-width:0.0476529"
     clip-path="none"
     id="path8-2" /><path
     id="path3"
     d="m 45.559413,9.4591391 c 0,0 1.916913,1.1818479 2.056174,4.0905279 C 46.53611,12.8528 45.424444,12.752436 44.656703,12.696564 l -0.384128,-2.38881 z"
     style="display:inline;fill:#eb464a;fill-opacity:1;fill-rule:nonzero;stroke:none;stroke-width:0.0476529"
     clip-path="none" /><path
     id="path1"
     d="m 38.836191,9.4591391 c 0,0 -1.916959,1.1818479 -2.05628,4.0905279 1.079588,-0.696867 2.191249,-0.797231 2.958995,-0.853103 l 0.384123,-2.38881 z"
     style="display:inline;fill:#eb464a;fill-opacity:1;fill-rule:nonzero;stroke:none;stroke-width:0.0476529"
     clip-path="none" /></svg>
