<?xml version="1.0" encoding="UTF-8" standalone="no"?>
<!-- Created with Inkscape (http://www.inkscape.org/) -->

<svg
   width="400"
   height="52"
   viewBox="0 0 105.83333 13.758334"
   version="1.1"
   id="svg1"
   inkscape:export-filename="logo-text.svg"
   inkscape:export-xdpi="39.36594"
   inkscape:export-ydpi="39.36594"
   inkscape:version="1.3.2 (091e20ef0f, 2023-11-25, custom)"
   sodipodi:docname="logo-text.svg"
   xmlns:inkscape="http://www.inkscape.org/namespaces/inkscape"
   xmlns:sodipodi="http://sodipodi.sourceforge.net/DTD/sodipodi-0.dtd"
   xmlns="http://www.w3.org/2000/svg"
   xmlns:svg="http://www.w3.org/2000/svg">
  <sodipodi:namedview
     id="namedview1"
     pagecolor="#ffffff"
     bordercolor="#000000"
     borderopacity="0.25"
     inkscape:showpageshadow="2"
     inkscape:pageopacity="0.0"
     inkscape:pagecheckerboard="true"
     inkscape:deskcolor="#d1d1d1"
     inkscape:document-units="mm"
     inkscape:zoom="1.1338707"
     inkscape:cx="215.19208"
     inkscape:cy="-2.2048369"
     inkscape:window-width="1314"
     inkscape:window-height="897"
     inkscape:window-x="0"
     inkscape:window-y="0"
     inkscape:window-maximized="0"
     inkscape:current-layer="layer1"
     shape-rendering="crispEdges" />
  <defs
     id="defs1" />
  <g
     inkscape:label="Layer 1"
     inkscape:groupmode="layer"
     id="layer1"
     transform="translate(159.81045,-115.62965)">
    <path
       d="m -154.59542,120.71194 q -0.0722,0.12318 -0.15886,0.1739 -0.0794,0.0435 -0.2022,0.0435 -0.12998,0 -0.27441,-0.0652 -0.1372,-0.0724 -0.31051,-0.15216 -0.16608,-0.0869 -0.38272,-0.15215 -0.21664,-0.0725 -0.49827,-0.0725 -0.43327,0 -0.67157,0.20287 -0.2383,0.19563 -0.2383,0.52892 0,0.22461 0.13721,0.37676 0.1372,0.14491 0.36105,0.26084 0.23108,0.10868 0.51271,0.20287 0.28885,0.0942 0.59214,0.20287 0.30329,0.10868 0.58492,0.26084 0.28885,0.14491 0.5127,0.36227 0.23108,0.21736 0.36829,0.52892 0.1372,0.31155 0.1372,0.74628 0,0.52167 -0.18053,0.96365 -0.18053,0.44197 -0.53437,0.76077 -0.34662,0.3188 -0.86654,0.49994 -0.51271,0.18113 -1.19151,0.18113 -0.34661,0 -0.68601,-0.0652 -0.3394,-0.0652 -0.6499,-0.18113 -0.31052,-0.12318 -0.58492,-0.28258 -0.26719,-0.1594 -0.46216,-0.34778 l 0.42605,-0.69556 q 0.0794,-0.12317 0.18775,-0.19563 0.10832,-0.0724 0.28163,-0.0724 0.15887,0 0.29607,0.0869 0.14442,0.087 0.31051,0.19563 0.16609,0.10144 0.39717,0.18838 0.23107,0.0869 0.57769,0.0869 0.25996,0 0.4405,-0.0652 0.18775,-0.0652 0.29606,-0.17389 0.11555,-0.11593 0.16609,-0.26084 0.0578,-0.14491 0.0578,-0.29706 0,-0.3188 -0.2383,-0.4927 -0.2383,-0.18113 -0.59936,-0.31155 -0.36106,-0.13042 -0.77989,-0.26808 -0.41161,-0.13766 -0.77266,-0.37677 -0.36107,-0.23909 -0.59936,-0.63035 -0.23831,-0.39125 -0.23831,-1.0361 0,-0.44922 0.16609,-0.84772 0.16609,-0.40574 0.49104,-0.71005 0.33218,-0.30431 0.816,-0.48545 0.49104,-0.18113 1.14095,-0.18113 0.35384,0 0.68601,0.0652 0.33218,0.0652 0.62103,0.18838 0.29607,0.11593 0.53437,0.28257 0.24552,0.16664 0.43327,0.36227 z m 1.49479,5.74565 z m 2.08693,-7.19474 v 7.19474 h -1.83419 v -7.19474 z m 0.22385,-2.06495 q 0,0.2391 -0.0939,0.44922 -0.0939,0.20287 -0.25274,0.36227 -0.15887,0.15216 -0.37551,0.24635 -0.21663,0.0869 -0.45493,0.0869 -0.23108,0 -0.44049,-0.0869 -0.2022,-0.0942 -0.36107,-0.24635 -0.15164,-0.1594 -0.24552,-0.36227 -0.0866,-0.21012 -0.0866,-0.44922 0,-0.2391 0.0866,-0.44922 0.0939,-0.21012 0.24552,-0.36227 0.15887,-0.1594 0.36107,-0.24635 0.20941,-0.0942 0.44049,-0.0942 0.2383,0 0.45493,0.0942 0.21664,0.087 0.37551,0.24635 0.15886,0.15215 0.25274,0.36227 0.0939,0.21012 0.0939,0.44922 z m 1.59589,9.25969 v -7.19474 h 1.12651 q 0.17331,0 0.28884,0.0797 0.12277,0.0797 0.15887,0.24635 l 0.12276,0.50718 q 0.19498,-0.20287 0.39717,-0.37676 0.20941,-0.17389 0.44771,-0.29707 0.2383,-0.13041 0.50549,-0.20287 0.2744,-0.0725 0.59936,-0.0725 0.68601,0 1.1265,0.36952 0.44772,0.36227 0.66436,0.96364 0.17331,-0.35503 0.42605,-0.60862 0.25996,-0.25359 0.57047,-0.41299 0.31051,-0.1594 0.64991,-0.23185 0.34662,-0.0797 0.69323,-0.0797 0.60659,0 1.07596,0.18838 0.4766,0.18114 0.79433,0.53616 0.32496,0.34778 0.49105,0.85497 0.16609,0.50718 0.16609,1.15202 v 4.57913 h -1.83419 v -4.57913 q 0,-1.29693 -1.15539,-1.29693 -0.25997,0 -0.48382,0.0869 -0.22386,0.0797 -0.39717,0.24635 -0.16609,0.1594 -0.26718,0.40574 -0.0939,0.2391 -0.0939,0.5579 v 4.57913 h -1.83418 v -4.57913 q 0,-0.69556 -0.28885,-0.99262 -0.28885,-0.30431 -0.83767,-0.30431 -0.36827,0 -0.68601,0.16664 -0.31773,0.16665 -0.59214,0.47096 v 5.23846 z m 15.09231,-7.31066 q 0.78711,0 1.43702,0.26083 0.64991,0.25359 1.11207,0.73904 0.46215,0.4782 0.7149,1.16652 0.25274,0.68107 0.25274,1.52879 0,0.86221 -0.25274,1.55053 -0.25275,0.68831 -0.7149,1.17376 -0.46216,0.4782 -1.11207,0.73903 -0.64991,0.26084 -1.43702,0.26084 -0.79433,0 -1.45146,-0.26084 -0.64991,-0.26083 -1.11929,-0.73903 -0.46215,-0.48545 -0.71489,-1.17376 -0.25275,-0.68832 -0.25275,-1.55053 0,-0.84772 0.25275,-1.52879 0.25274,-0.68832 0.71489,-1.16652 0.46938,-0.48545 1.11929,-0.73904 0.65713,-0.26083 1.45146,-0.26083 z m 0,6.01372 q 0.83044,0 1.22761,-0.57963 0.39716,-0.58689 0.39716,-1.72442 0,-1.13754 -0.39716,-1.71717 -0.39717,-0.58689 -1.22761,-0.58689 -0.84488,0 -1.24927,0.58689 -0.39716,0.57963 -0.39716,1.71717 0,1.13753 0.39716,1.72442 0.40439,0.57963 1.24927,0.57963 z m 4.85987,1.29694 v -7.19474 h 1.12651 q 0.17331,0 0.28885,0.0797 0.12276,0.0797 0.15886,0.24635 l 0.12276,0.52892 q 0.21664,-0.21737 0.44772,-0.39126 0.23108,-0.18113 0.49826,-0.30431 0.26719,-0.13041 0.56326,-0.20287 0.30329,-0.0725 0.66435,-0.0725 0.58491,0 1.03263,0.20287 0.44771,0.20287 0.751,0.56514 0.3033,0.36228 0.45494,0.86946 0.15887,0.49994 0.15887,1.09406 v 4.57913 h -1.83419 v -4.57913 q 0,-0.61586 -0.28163,-0.9564 -0.28162,-0.34053 -0.84488,-0.34053 -0.41882,0 -0.78711,0.18113 -0.36106,0.18114 -0.68601,0.50718 v 5.18775 z m 10.36965,-7.31791 q 0.43327,0 0.816,0.0942 0.38994,0.0942 0.71489,0.26808 h 1.99306 v 0.68832 q 0,0.1594 -0.0939,0.25359 -0.0867,0.0942 -0.29607,0.13767 l -0.56325,0.11593 q 0.12998,0.36227 0.12998,0.76801 0,0.53616 -0.20942,0.97089 -0.20219,0.42748 -0.57047,0.73179 -0.36106,0.30431 -0.85932,0.47096 -0.49104,0.1594 -1.06152,0.1594 -0.17331,0 -0.3394,-0.0145 -0.16608,-0.0145 -0.33217,-0.0435 -0.26719,0.17389 -0.26719,0.40575 0,0.21012 0.18775,0.30431 0.18775,0.0942 0.49105,0.13766 0.30329,0.0362 0.69323,0.0507 0.38995,0.007 0.79433,0.0435 0.41161,0.0362 0.80156,0.12317 0.38994,0.087 0.69323,0.28258 0.30329,0.19562 0.49104,0.52167 0.18775,0.32604 0.18775,0.84047 0,0.4782 -0.22385,0.92742 -0.22386,0.45646 -0.64991,0.81149 -0.42605,0.35503 -1.04708,0.56515 -0.62102,0.21736 -1.41535,0.21736 -0.77989,0 -1.35759,-0.1594 -0.57769,-0.1594 -0.9532,-0.42024 -0.3755,-0.26083 -0.56325,-0.60862 -0.18053,-0.34053 -0.18053,-0.71005 0,-0.48545 0.27441,-0.81874 0.2744,-0.34053 0.75822,-0.5434 -0.25274,-0.14491 -0.41161,-0.3985 -0.15164,-0.25359 -0.15164,-0.64485 0,-0.1594 0.0506,-0.32605 0.0578,-0.17389 0.1733,-0.34053 0.11555,-0.17389 0.28163,-0.32605 0.16609,-0.15215 0.39717,-0.27532 -0.51993,-0.29707 -0.82322,-0.78251 -0.29607,-0.4927 -0.29607,-1.15203 0,-0.53616 0.20942,-0.96365 0.20941,-0.43472 0.57047,-0.73179 0.36828,-0.30431 0.86655,-0.4637 0.50548,-0.16665 1.0904,-0.16665 z m 1.71142,7.62222 q 0,-0.19563 -0.10832,-0.3188 -0.10831,-0.12317 -0.29606,-0.18838 -0.18775,-0.0725 -0.4405,-0.10144 -0.25274,-0.0362 -0.54159,-0.0507 -0.28162,-0.0217 -0.59214,-0.0362 -0.30329,-0.0145 -0.59936,-0.0507 -0.23829,0.15215 -0.38994,0.35502 -0.14442,0.20288 -0.14442,0.47096 0,0.18113 0.0722,0.33329 0.0794,0.15215 0.25274,0.26083 0.17331,0.10869 0.46216,0.16665 0.28884,0.0652 0.71489,0.0652 0.44772,0 0.75101,-0.0725 0.31051,-0.0652 0.49826,-0.18838 0.19498,-0.11592 0.27441,-0.28257 0.0867,-0.16664 0.0867,-0.36227 z m -1.71142,-4.1444 q 0.55603,0 0.816,-0.30431 0.26718,-0.30431 0.26718,-0.80424 0,-0.50719 -0.26718,-0.79701 -0.25997,-0.29706 -0.816,-0.29706 -0.54881,0 -0.816,0.29706 -0.25996,0.28982 -0.25996,0.79701 0,0.49268 0.25996,0.80424 0.26719,0.30431 0.816,0.30431 z m 4.47714,3.84009 v -7.19474 h 1.07596 q 0.28163,0 0.38995,0.10144 0.11554,0.10144 0.15164,0.35503 l 0.0939,0.73179 q 0.32495,-0.61586 0.75823,-0.97089 0.43327,-0.35503 1.00374,-0.35503 0.46938,0 0.77267,0.22461 l -0.1372,1.37664 q -0.0144,0.13041 -0.0867,0.18838 -0.0722,0.0507 -0.19498,0.0507 -0.10832,0 -0.31051,-0.029 -0.20219,-0.0362 -0.3755,-0.0362 -0.25274,0 -0.45494,0.0725 -0.19497,0.0725 -0.35384,0.21736 -0.15164,0.13767 -0.2744,0.34054 -0.12276,0.20287 -0.22386,0.46371 v 4.4632 z m 8.18885,-7.31066 q 0.67879,0 1.24927,0.2246 0.57047,0.21737 0.98208,0.63761 0.41161,0.41299 0.64269,1.0216 0.23108,0.60862 0.23108,1.39113 0,0.21012 -0.0217,0.34778 -0.0217,0.13042 -0.0722,0.21012 -0.0433,0.0797 -0.12998,0.11593 -0.0794,0.029 -0.2022,0.029 h -4.28939 q 0.0433,0.52167 0.18775,0.90568 0.14442,0.38401 0.38273,0.63036 0.23829,0.24634 0.56325,0.36952 0.32495,0.11592 0.72212,0.11592 0.39716,0 0.68601,-0.0942 0.29607,-0.10143 0.51271,-0.21012 0.22385,-0.11592 0.39716,-0.21012 0.17331,-0.10143 0.3394,-0.10143 0.2022,0 0.33218,0.16664 l 0.52714,0.68108 q -0.29607,0.34778 -0.65712,0.57963 -0.36107,0.22461 -0.75101,0.36228 -0.38272,0.13042 -0.77989,0.18838 -0.39717,0.058 -0.76545,0.058 -0.74378,0 -1.38647,-0.24634 -0.64268,-0.24635 -1.11928,-0.73179 -0.4766,-0.4927 -0.75101,-1.21 -0.26719,-0.72454 -0.26719,-1.6737 0,-0.73179 0.23831,-1.37663 0.23829,-0.65209 0.67879,-1.13029 0.44771,-0.48545 1.08318,-0.76802 0.63546,-0.28257 1.43702,-0.28257 z m 0.0361,1.31142 q -0.70045,0 -1.09762,0.41299 -0.39717,0.40575 -0.5127,1.15203 h 3.0329 q 0,-0.31155 -0.0866,-0.59413 -0.0794,-0.28257 -0.25997,-0.49993 -0.17331,-0.21737 -0.44049,-0.34054 -0.26718,-0.13042 -0.63547,-0.13042 z m 7.408955,-1.31142 q 0.678794,0 1.249269,0.2246 0.570476,0.21737 0.982084,0.63761 0.411608,0.41299 0.642687,1.0216 0.231078,0.60862 0.231078,1.39113 0,0.21012 -0.02166,0.34778 -0.02166,0.13042 -0.07221,0.21012 -0.04333,0.0797 -0.12998,0.11593 -0.07943,0.029 -0.202194,0.029 h -4.289389 q 0.0433,0.52167 0.18775,0.90568 0.14442,0.38401 0.382718,0.63036 0.238302,0.24634 0.563253,0.36952 0.324955,0.11592 0.72212,0.11592 0.397166,0 0.686017,-0.0942 0.296067,-0.10143 0.512704,-0.21012 0.223859,-0.11592 0.397165,-0.21012 0.17331,-0.10143 0.339397,-0.10143 0.202195,0 0.332178,0.16664 l 0.527145,0.68108 q -0.29607,0.34778 -0.657128,0.57963 -0.361059,0.22461 -0.751005,0.36228 -0.382724,0.13042 -0.779889,0.18838 -0.397166,0.058 -0.765447,0.058 -0.743786,0 -1.386468,-0.24634 -0.64269,-0.24635 -1.11929,-0.73179 -0.4766,-0.4927 -0.751,-1.21 -0.26719,-0.72454 -0.26719,-1.6737 0,-0.73179 0.2383,-1.37663 0.2383,-0.65209 0.6788,-1.13029 0.44771,-0.48545 1.08318,-0.76802 0.63546,-0.28257 1.437011,-0.28257 z m 0.03611,1.31142 q -0.700455,0 -1.097621,0.41299 -0.397174,0.40575 -0.512714,1.15203 h 3.032911 q 0,-0.31155 -0.08665,-0.59413 -0.07943,-0.28257 -0.259963,-0.49993 -0.17331,-0.21737 -0.440492,-0.34054 -0.267187,-0.13042 -0.635468,-0.13042 z m 4.311062,5.99924 v -7.19474 h 1.07596 q 0.281624,0 0.389942,0.10144 0.115541,0.10144 0.151645,0.35503 l 0.09388,0.73179 q 0.324955,-0.61586 0.758228,-0.97089 0.433273,-0.35503 1.003745,-0.35503 0.46938,0 0.77267,0.22461 l -0.137203,1.37664 q -0.01444,0.13041 -0.08665,0.18838 -0.07221,0.0507 -0.194975,0.0507 -0.108318,0 -0.310509,-0.029 -0.202194,-0.0362 -0.375504,-0.0362 -0.25274,0 -0.454934,0.0725 -0.194976,0.0725 -0.353839,0.21736 -0.151645,0.13767 -0.274406,0.34054 -0.12276,0.20287 -0.223859,0.46371 v 4.4632 z m 4.036652,-0.99263 q 0,-0.22461 0.07943,-0.42748 0.08666,-0.20287 0.231078,-0.34778 0.151649,-0.14491 0.353839,-0.23185 0.202195,-0.0869 0.433274,-0.0869 0.231078,0 0.433273,0.0869 0.202195,0.0869 0.346617,0.23185 0.151644,0.14491 0.2383,0.34778 0.08665,0.20287 0.08665,0.42748 0,0.23186 -0.08665,0.43473 -0.08666,0.20287 -0.2383,0.34778 -0.144422,0.14491 -0.346617,0.22461 -0.202195,0.087 -0.433273,0.087 -0.231079,0 -0.433274,-0.087 -0.20219,-0.0797 -0.353839,-0.22461 -0.144421,-0.14491 -0.231078,-0.34778 -0.07943,-0.20287 -0.07943,-0.43473 z m 8.571568,-4.62984 q -0.07943,0.10143 -0.15887,0.16664 -0.07943,0.058 -0.223858,0.058 -0.137204,0 -0.25274,-0.0797 -0.115542,-0.0797 -0.267186,-0.17389 -0.144422,-0.10144 -0.346617,-0.18114 -0.194972,-0.0797 -0.498266,-0.0797 -0.375499,0 -0.657128,0.1594 -0.274406,0.1594 -0.454933,0.45646 -0.180529,0.29707 -0.274405,0.72455 -0.08666,0.42748 -0.08666,0.9564 0,1.12304 0.382727,1.73166 0.382725,0.60137 1.054295,0.60137 0.35384,0 0.563255,-0.10143 0.209412,-0.10144 0.353836,-0.21737 0.144427,-0.12317 0.259964,-0.22461 0.122761,-0.10143 0.288848,-0.10143 0.209418,0 0.324954,0.16664 l 0.534369,0.68108 q -0.288846,0.34778 -0.613803,0.57963 -0.324953,0.22461 -0.67157,0.36228 -0.339397,0.13766 -0.693236,0.18838 -0.346617,0.058 -0.686013,0.058 -0.606583,0 -1.148172,-0.24634 -0.534366,-0.25359 -0.945979,-0.73179 -0.404384,-0.4782 -0.642688,-1.16652 -0.238297,-0.69557 -0.238297,-1.57951 0,-0.78976 0.209415,-1.46358 0.209418,-0.67383 0.613802,-1.16652 0.411608,-0.49994 1.010967,-0.78251 0.606583,-0.28257 1.400915,-0.28257 0.751004,0 1.321481,0.26808 0.570474,0.26084 1.02541,0.76077 z m 4.607128,-1.68819 q 0.787107,0 1.437017,0.26083 0.649911,0.25359 1.112064,0.73904 0.462158,0.4782 0.714901,1.16652 0.25274,0.68107 0.25274,1.52879 0,0.86221 -0.25274,1.55053 -0.252743,0.68831 -0.714901,1.17376 -0.462153,0.4782 -1.112064,0.73903 -0.64991,0.26084 -1.437017,0.26084 -0.794335,0 -1.451465,-0.26084 -0.649905,-0.26083 -1.119286,-0.73903 -0.462158,-0.48545 -0.714896,-1.17376 -0.252746,-0.68832 -0.252746,-1.55053 0,-0.84772 0.252746,-1.52879 0.252738,-0.68832 0.714896,-1.16652 0.469381,-0.48545 1.119286,-0.73904 0.65713,-0.26083 1.451465,-0.26083 z m 0,6.01372 q 0.830435,0 1.227605,-0.57963 0.397165,-0.58689 0.397165,-1.72442 0,-1.13754 -0.397165,-1.71717 -0.39717,-0.58689 -1.227605,-0.58689 -0.844883,0 -1.24927,0.58689 -0.397165,0.57963 -0.397165,1.71717 0,1.13753 0.397165,1.72442 0.404387,0.57963 1.24927,0.57963 z m 4.838204,0.30431 q 0,-0.22461 0.07943,-0.42748 0.08666,-0.20287 0.23108,-0.34778 0.151644,-0.14491 0.353839,-0.23185 0.202193,-0.0869 0.433273,-0.0869 0.231078,0 0.433273,0.0869 0.202195,0.0869 0.346617,0.23185 0.151644,0.14491 0.2383,0.34778 0.08665,0.20287 0.08665,0.42748 0,0.23186 -0.08665,0.43473 -0.08666,0.20287 -0.2383,0.34778 -0.144422,0.14491 -0.346617,0.22461 -0.202195,0.087 -0.433273,0.087 -0.23108,0 -0.433273,-0.087 -0.202195,-0.0797 -0.353839,-0.22461 -0.144422,-0.14491 -0.23108,-0.34778 -0.07943,-0.20287 -0.07943,-0.43473 z m 5.683086,-6.20211 v 4.57188 q 0,0.62312 0.281628,0.96365 0.281626,0.34054 0.844883,0.34054 0.411608,0 0.779887,-0.18114 0.368282,-0.18838 0.693233,-0.50718 v -5.18775 h 1.834188 v 7.19474 h -1.126509 q -0.173307,0 -0.296066,-0.0797 -0.115542,-0.0869 -0.151644,-0.25359 l -0.129984,-0.52168 q -0.426051,0.42749 -0.945977,0.69557 -0.512706,0.26808 -1.220385,0.26808 -0.58492,0 -1.03263,-0.20287 -0.447715,-0.20287 -0.751004,-0.56515 -0.303294,-0.36227 -0.462158,-0.86221 -0.151644,-0.49993 -0.151644,-1.10131 v -4.57188 z m 7.936095,-3.21698 v 5.92678 h 0.281629 q 0.17331,0 0.259963,-0.0507 0.09388,-0.0507 0.187753,-0.18839 l 1.314258,-2.15914 q 0.108316,-0.14491 0.24552,-0.22461 0.144425,-0.087 0.35384,-0.087 h 1.67532 l -1.733088,2.64459 q -0.122762,0.1594 -0.259964,0.28258 -0.129984,0.12317 -0.288848,0.22461 0.144421,0.10868 0.25274,0.25359 0.115542,0.13766 0.223855,0.30431 l 1.884739,3.48506 h -1.646435 q -0.418833,0 -0.606586,-0.3188 l -1.314255,-2.68082 q -0.08665,-0.16664 -0.187753,-0.21736 -0.09387,-0.0507 -0.274405,-0.0507 h -0.368283 v 3.2677 h -1.834184 v -10.41172 z"
       id="text1"
       style="font-weight:bold;font-size:380.422px;font-family:Carlito;-inkscape-font-specification:'Carlito, Bold';text-align:center;text-anchor:middle;fill:#fe6cff;fill-opacity:1;stroke:none;stroke-width:1.632;stroke-miterlimit:1.8;stroke-dasharray:none;stroke-dashoffset:6.42104;stroke-opacity:1;paint-order:markers stroke fill"
       aria-label="simongreer.co.uk" />
  </g>
</svg>
