<?xml version="1.0" encoding="UTF-8" standalone="no"?>
<svg
   width="600px"
   height="111px"
   viewBox="0 0 599.90302 111.04799"
   version="1.1"
   id="svg1"
   xml:space="preserve"
   xmlns="http://www.w3.org/2000/svg"
   xmlns:svg="http://www.w3.org/2000/svg"><defs
     id="defs1" /><g
     id="layer1"><path
       id="rect7"
       style="opacity:1;fill:#1d429e;fill-opacity:1;stroke:none;stroke-width:0.475501;stroke-miterlimit:1.8;stroke-dashoffset:6.42104;paint-order:fill markers stroke"
       d="M 0,0 H 599.903 V 111.048 H 0 Z" /></g><path
     id="path54"
     style="display:inline;fill:#dedede;stroke-width:0.718349;stroke-miterlimit:1.8;stroke-dashoffset:6.42104;paint-order:stroke markers fill"
     d="m 134.40863,16.466838 c -0.19651,8.893057 -2.61319,50.585657 -23.98109,60.85287 -1.56952,-3.085837 -4.54976,-5.888298 -8.91705,-7.954575 -5.076974,-1.721224 -17.133907,-3.432344 -22.173791,5.990471 -0.209997,0.392731 -0.3832,0.795042 -0.5651,1.196362 -1.289012,-1.242345 -2.711476,-2.374025 -4.271976,-3.360775 -0.06548,-0.06776 -0.121779,-0.142648 -0.188193,-0.209659 -4.145211,-4.181794 -9.767392,-6.531118 -15.629595,-6.531118 -9.684791,0.0095 -18.23562,6.378422 -21.095994,15.712906 -2.368367,-0.642073 -4.808566,-0.975332 -7.260904,-0.991622 -7.613408,1.2e-5 -14.915117,3.051142 -20.29861,8.482184 -5.3835009,5.431013 -8.408002,13.713428 -8.408002,21.394068 h 57.350249 217.947256 72.31003 a 14.794533,14.833949 0 0 0 0.0929,-0.46837 14.794533,14.833949 0 0 0 -13.99536,-14.810693 30.351856,30.432719 0 0 0 -28.71404,-21.095022 30.351856,30.432719 0 0 0 -4.33399,0.312919 c -2.46064,-3.407764 -5.9369,-5.832632 -10.08208,-6.543198 -5.98568,-1.025626 -11.85555,1.723775 -15.81675,6.707916 -1.40407,-4.18323 -4.58856,-7.352903 -8.7176,-8.06056 -1.13827,-0.194876 -2.26764,-0.182624 -3.36648,0 -1.64169,-6.230803 -6.14686,-11.053799 -12.10056,-12.073971 -5.77106,-0.988407 -11.42216,1.854044 -15.03504,6.885486 -0.20882,-0.04941 -0.41407,-0.108809 -0.62673,-0.145448 -4.24784,-0.72801 -8.40889,1.338834 -11.10212,5.007146 -2.8949,-4.630082 -7.30856,-7.940333 -12.63985,-8.853738 -5.8638,-1.004953 -11.6278,1.096432 -16.07183,5.222804 -4.38349,-5.212322 -10.22334,-8.850498 -17.00818,-10.012966 -1.16665,-0.199951 -2.33109,-0.321679 -3.48914,-0.368513 -7.73591,-0.312924 -15.17326,2.742638 -21.15926,8.100304 -9.05455,-18.206301 -8.3869,-44.706669 -12.40095,-42.861388 z" /><path
     id="path4-8"
     style="display:inline;fill:#ffffff;stroke-width:0.89308;stroke-miterlimit:1.8;stroke-dashoffset:6.42104;paint-order:stroke markers fill"
     d="m 139.54191,16.391663 c 0.47184,0.923226 0.60316,2.960289 -3.74215,5.639959 -1.95228,1.203955 1.33309,28.635604 -14.20369,60.325033 -1.80659,0.952852 -3.68498,1.921175 -5.62893,2.897447 -0.3969,-6.091547 -3.36519,-11.816478 -8.29757,-16.003507 -4.93237,-4.187016 -11.456084,-6.519739 -18.236549,-6.52096 -6.541352,0.01091 -12.848646,2.191749 -17.715244,6.12539 -4.866601,3.933641 -7.950893,9.343925 -8.662779,15.195811 -4.838723,-2.278699 -9.984521,-3.22222 -15.014227,-2.905749 -0.68005,-0.09408 -1.364364,-0.154078 -2.050381,-0.179774 -5.470295,0 -10.716549,2.177621 -14.584635,6.053767 -3.868087,3.876172 -6.041193,9.133399 -6.0412,14.61513 0.0029,0.94152 0.07,1.88176 0.200834,2.81412 -2.564601,-1.88234 -5.657814,-2.90322 -8.836715,-2.9165 -6.288897,2e-5 -15.110349,3.56538 -15.110349,9.50507 0,4e-5 0,0.0111 0,0.0111 H 39.782822 336.8673 c -0.46302,-7.68245 -3.67524,-14.96231 -9.13381,-20.435455 -5.90843,-5.924167 -13.92201,-9.252357 -22.27779,-9.252357 -1.59101,0.0062 -3.17929,0.133187 -4.75117,0.379952 -4.75462,-7.328272 -13.21719,-12.027235 -22.60259,-12.030001 -9.18855,0.0099 -17.72127,4.537859 -22.56855,11.976316 -6.46618,1.008865 -12.63538,3.81786 -17.76288,8.239835 -1.09569,-0.985503 -2.25846,-1.911231 -3.56555,-2.687874 -3.0044,-1.790248 -6.23629,-2.753443 -9.47669,-3.042894 -2.65012,-11.907906 -13.36429,-20.406248 -25.767,-20.438035 -7.62617,0.0029 -14.87977,3.2417 -19.89922,8.884337 -2.83189,-1.857634 -6.07044,-2.869412 -9.38388,-2.931685 -5.35827,0.0052 -10.457,2.491078 -14.00198,6.827433 -9.83752,-22.539902 -12.11052,-57.283196 -12.11052,-57.283196 -2.38631,-1.440142 -3.49014,-2.334528 -4.02376,-2.862684 z" /><path
     id="path10-2"
     d="m 151.40027,27.520014 c 0,8.804671 -2.11097,15.428135 -3.65338,19.105027 -0.91763,2.165881 -1.63296,3.311955 -1.63296,3.311955 0,0 -2.36814,1.066516 -6.57206,1.066516 -4.20376,0 -6.57173,-1.066516 -6.57173,-1.066516 0,0 -0.73417,-1.177899 -1.65214,-3.374727 -1.56043,-3.694412 -3.63454,-10.301376 -3.63454,-19.042255 0,-7.227522 2.77143,-13.071172 5.6541,-17.019441 2.38599,-3.2634873 4.82751,-5.238275 5.89242,-5.6362075 h 0.62377 c 1.06491,0.3979325 3.50644,2.3727202 5.89259,5.6362075 2.8825,3.948269 5.65393,9.791919 5.65393,17.019441"
     style="display:inline;fill:#d6d5d2;fill-opacity:1;fill-rule:nonzero;stroke:none;stroke-width:0.156748"
     clip-path="none" /><path
     id="path20-5"
     d="m 140.84233,40.980581 c 0,4.547659 -0.58254,11.418408 -1.30055,11.418408 -0.71785,0 -1.30054,-6.870749 -1.30054,-11.418408 0,-4.548532 0.58269,-5.050698 1.30054,-5.050698 0.71801,0 1.30055,0.502166 1.30055,5.050698"
     style="display:inline;fill:#eb464a;fill-opacity:1;fill-rule:nonzero;stroke:none;stroke-width:0.156748"
     clip-path="none" /><path
     id="path12"
     d="m 139.6154,47.787384 c -4.29532,0 -7.15897,-0.827116 -8.29743,-1.225195 0.91797,2.196825 1.65214,3.374865 1.65214,3.374865 0,0 2.36798,1.066374 6.57174,1.066374 4.20408,0 6.57207,-1.066374 6.57207,-1.066374 0,0 0.71531,-1.146073 1.63295,-3.311951 -1.22968,0.41458 -4.02012,1.162281 -8.13147,1.162281"
     style="display:inline;fill:#4aa1af;fill-opacity:1;fill-rule:nonzero;stroke:none;stroke-width:0.156748"
     clip-path="none" /><path
     id="path14-4"
     d="m 145.54895,20.208553 c 0,2.877081 -2.68962,5.210106 -6.00705,5.210106 -3.31725,0 -6.0072,-2.333025 -6.0072,-5.210106 0,-2.877081 2.68995,-5.210097 6.0072,-5.210097 3.31743,0 6.00705,2.333016 6.00705,5.210097"
     style="display:inline;fill:#eb464a;fill-opacity:1;fill-rule:nonzero;stroke:none;stroke-width:0.156748"
     clip-path="none" /><path
     id="path16-7"
     d="m 143.94292,20.208553 c 0,2.10836 -1.97026,3.816891 -4.40102,3.816891 -2.43092,0 -4.40084,-1.708531 -4.40084,-3.816891 0,-2.108213 1.96992,-3.81689 4.40084,-3.81689 2.43076,0 4.40102,1.708677 4.40102,3.81689"
     style="display:inline;fill:#4aa1af;fill-opacity:1;fill-rule:nonzero;stroke:none;stroke-width:0.156748"
     clip-path="none" /><path
     id="path18-7"
     d="m 145.74637,10.500519 c -1.81692,0.60551 -3.94657,0.955419 -6.20448,0.955419 -2.25773,0 -4.38754,-0.349909 -6.20429,-0.955419 2.38598,-3.2634879 4.8275,-5.2381326 5.89241,-5.6360694 h 0.62377 c 1.06474,0.3979368 3.50644,2.3725815 5.89259,5.6360694"
     style="display:inline;fill:#eb464a;fill-opacity:1;fill-rule:nonzero;stroke:none;stroke-width:0.156748"
     clip-path="none" /><path
     id="path5-9"
     d="m 135.43276,50.603149 c 0,0 -3.40613,5.029678 4.62503,19.955651 6.76933,-14.925973 3.54145,-19.892728 3.54145,-19.892728 0,0 -4.18676,-1.211909 -8.16648,-0.06292"
     style="display:inline;fill:#fec514;fill-opacity:1;fill-rule:nonzero;stroke:none;stroke-width:0.156748"
     clip-path="none" /><path
     d="m 137.41461,50.895404 c 0,0 -1.60182,3.64288 2.12695,8.021201 3.61382,-4.179205 2.46662,-7.913186 2.46662,-7.913186 0,0 -2.0965,-1.298178 -4.59357,-0.108015"
     style="display:inline;fill:#ffffff;fill-opacity:1;fill-rule:nonzero;stroke:none;stroke-width:0.156748"
     clip-path="none"
     id="path8-2" /><path
     id="path3"
     d="m 150.61706,35.929854 c 0,0 6.3154,3.881413 6.77421,13.434073 -3.55642,-2.288646 -7.21889,-2.618258 -9.74827,-2.801754 l -1.26554,-7.845306 z"
     style="display:inline;fill:#eb464a;fill-opacity:1;fill-rule:nonzero;stroke:none;stroke-width:0.156748"
     clip-path="none" /><path
     id="path1"
     d="m 128.46689,35.929854 c 0,0 -6.31556,3.881413 -6.77456,13.434073 3.55677,-2.288646 7.21923,-2.618258 9.74862,-2.801754 l 1.26554,-7.845306 z"
     style="display:inline;fill:#eb464a;fill-opacity:1;fill-rule:nonzero;stroke:none;stroke-width:0.156748"
     clip-path="none" /><path
     d="m 189.85619,26.278666 q -0.26414,0.453011 -0.58111,0.639545 -0.29056,0.159886 -0.7396,0.159886 -0.47547,0 -1.00375,-0.239828 -0.50188,-0.266477 -1.13583,-0.559603 -0.60753,-0.319772 -1.39996,-0.559602 -0.79244,-0.266477 -1.82261,-0.266477 -1.58486,0 -2.45654,0.746137 -0.87167,0.719487 -0.87167,1.945282 0,0.826079 0.50187,1.385681 0.50188,0.532954 1.32072,0.959318 0.84526,0.399715 1.87543,0.746135 1.05658,0.346421 2.16598,0.746136 1.10941,0.399715 2.13958,0.959318 1.05657,0.532953 1.87543,1.332384 0.84526,0.799432 1.34714,1.945284 0.50187,1.145851 0.50187,2.744714 0,1.918635 -0.66037,3.544145 -0.66036,1.62551 -1.95467,2.798008 -1.26789,1.1725 -3.16973,1.838693 -1.87543,0.666193 -4.35839,0.666193 -1.26789,0 -2.50937,-0.23983 -1.24148,-0.239829 -2.3773,-0.666193 -1.13582,-0.453011 -2.13957,-1.03926 -0.97734,-0.58625 -1.69053,-1.27909 l 1.55845,-2.558181 q 0.29057,-0.453009 0.68678,-0.719487 0.39622,-0.266477 1.03016,-0.266477 0.58112,0 1.083,0.319772 0.52829,0.319773 1.13582,0.719488 0.60753,0.373068 1.45279,0.692841 0.84527,0.319772 2.11316,0.319772 0.95092,0 1.61129,-0.239829 0.68676,-0.239829 1.08298,-0.639544 0.42264,-0.426364 0.60755,-0.959319 0.21131,-0.532954 0.21131,-1.092556 0,-1.172499 -0.87169,-1.812044 -0.87167,-0.666192 -2.1924,-1.145852 -1.32071,-0.479658 -2.85276,-0.985964 -1.50562,-0.506307 -2.82634,-1.385682 -1.32073,-0.879373 -2.1924,-2.31835 -0.87168,-1.438976 -0.87168,-3.810622 0,-1.652158 0.60753,-3.117782 0.60753,-1.492272 1.79618,-2.611476 1.21508,-1.119203 2.98484,-1.785395 1.79618,-0.666192 4.17349,-0.666192 1.29431,0 2.50937,0.239828 1.21506,0.23983 2.27165,0.69284 1.08298,0.426363 1.95467,1.039261 0.89809,0.612898 1.58485,1.332384 z m 5.4678,21.131634 z m 7.63378,-26.461175 V 47.4103 h -6.70928 V 20.949125 Z m 0.81884,-7.594597 q 0,0.879375 -0.34339,1.652158 -0.34337,0.746136 -0.9245,1.332386 -0.58112,0.559601 -1.37355,0.906022 -0.79244,0.319772 -1.66411,0.319772 -0.84526,0 -1.61128,-0.319772 -0.73961,-0.346421 -1.32073,-0.906022 -0.5547,-0.58625 -0.89809,-1.332386 -0.31697,-0.772783 -0.31697,-1.652158 0,-0.879374 0.31697,-1.652158 0.34339,-0.772783 0.89809,-1.332385 0.58112,-0.5862496 1.32073,-0.9060223 0.76602,-0.3464202 1.61128,-0.3464202 0.87167,0 1.66411,0.3464202 0.79243,0.3197727 1.37355,0.9060223 0.58113,0.559602 0.9245,1.332385 0.34339,0.772784 0.34339,1.652158 z m 5.8376,34.055772 V 20.949125 h 4.12066 q 0.63395,0 1.05658,0.293124 0.44904,0.293125 0.58112,0.906022 l 0.44905,1.865341 q 0.71318,-0.746137 1.45279,-1.385682 0.76601,-0.639545 1.6377,-1.092556 0.87167,-0.479659 1.84901,-0.746136 1.00375,-0.266475 2.1924,-0.266475 2.50937,0 4.12065,1.359031 1.6377,1.332386 2.43013,3.544146 0.63396,-1.305738 1.55845,-2.238409 0.95092,-0.932669 2.08675,-1.518918 1.13582,-0.586249 2.37731,-0.852726 1.26788,-0.293124 2.53577,-0.293124 2.21882,0 3.93576,0.692839 1.74335,0.666192 2.90559,1.971929 1.18865,1.279092 1.79618,3.144431 0.60754,1.86534 0.60754,4.236986 V 47.4103 h -6.70928 V 30.568948 q 0,-4.769941 -4.2263,-4.769941 -0.95093,0 -1.76978,0.319774 -0.81884,0.293124 -1.45279,0.906022 -0.60753,0.586249 -0.97734,1.492271 -0.34339,0.879375 -0.34339,2.051874 V 47.4103 H 225.1195 V 30.568948 q 0,-2.558181 -1.05657,-3.650737 -1.05658,-1.119204 -3.06409,-1.119204 -1.34714,0 -2.50937,0.612898 -1.16223,0.612898 -2.16598,1.732101 V 47.4103 Z m 55.20623,-26.887537 q 2.87917,0 5.25648,0.959316 2.3773,0.93267 4.06781,2.718067 1.69053,1.758748 2.61504,4.29028 0.9245,2.504884 0.9245,5.622667 0,3.171076 -0.9245,5.702609 -0.92451,2.531532 -2.61504,4.316929 -1.69051,1.758749 -4.06781,2.718065 -2.37731,0.959319 -5.25648,0.959319 -2.9056,0 -5.30931,-0.959319 -2.3773,-0.959316 -4.09424,-2.718065 -1.69053,-1.785397 -2.61503,-4.316929 -0.92451,-2.531533 -0.92451,-5.702609 0,-3.117783 0.92451,-5.622667 0.9245,-2.531532 2.61503,-4.29028 1.71694,-1.785397 4.09424,-2.718067 2.40371,-0.959316 5.30931,-0.959316 z m 0,22.117596 q 3.03765,0 4.49046,-2.131816 1.45279,-2.158465 1.45279,-6.342155 0,-4.18369 -1.45279,-6.315506 -1.45281,-2.158465 -4.49046,-2.158465 -3.09049,0 -4.56971,2.158465 -1.45279,2.131816 -1.45279,6.315506 0,4.18369 1.45279,6.342155 1.47922,2.131816 4.56971,2.131816 z M 282.59737,47.4103 V 20.949125 h 4.12065 q 0.63395,0 1.05659,0.293124 0.44904,0.293125 0.58111,0.906022 l 0.44904,1.945283 q 0.79244,-0.79943 1.6377,-1.438975 0.84527,-0.666194 1.82261,-1.119205 0.97732,-0.479659 2.06032,-0.746136 1.10941,-0.266475 2.43014,-0.266475 2.13955,0 3.77725,0.746134 1.6377,0.746137 2.74711,2.078521 1.10942,1.332386 1.66412,3.197725 0.58111,1.838693 0.58111,4.023805 V 47.4103 h -6.70927 V 30.568948 q 0,-2.265055 -1.03017,-3.517498 -1.03015,-1.252443 -3.09049,-1.252443 -1.53203,0 -2.87917,0.666193 -1.32073,0.666193 -2.50938,1.86534 V 47.4103 Z m 37.93117,-26.914186 q 1.58487,0 2.98483,0.34642 1.42637,0.346421 2.61503,0.985966 h 7.29039 v 2.531531 q 0,0.58625 -0.34339,0.932671 -0.31697,0.346419 -1.083,0.506305 l -2.06032,0.426364 q 0.47546,1.332385 0.47546,2.824657 0,1.971931 -0.76602,3.570793 -0.7396,1.572214 -2.08674,2.691419 -1.32073,1.119203 -3.14332,1.732101 -1.79618,0.586249 -3.88292,0.586249 -0.63396,0 -1.24149,-0.05329 -0.60753,-0.0533 -1.21506,-0.159886 -0.97734,0.639545 -0.97734,1.492271 0,0.772784 0.68678,1.119204 0.68677,0.34642 1.79619,0.506306 1.1094,0.133239 2.53579,0.186534 1.42637,0.02665 2.90558,0.159887 1.50563,0.133237 2.93201,0.453011 1.42637,0.319771 2.53578,1.03926 1.10942,0.719488 1.79618,1.918635 0.68678,1.199148 0.68678,3.091134 0,1.75875 -0.81884,3.410907 -0.81886,1.678805 -2.37731,2.984544 -1.55845,1.305737 -3.8301,2.07852 -2.27163,0.799431 -5.17722,0.799431 -2.85277,0 -4.96593,-0.586249 -2.11315,-0.58625 -3.48671,-1.545567 -1.37354,-0.959318 -2.06032,-2.238408 -0.66036,-1.252442 -0.66036,-2.611474 0,-1.785397 1.00375,-3.011192 1.00375,-1.252442 2.77351,-1.998579 -0.9245,-0.532953 -1.50562,-1.465623 -0.55471,-0.93267 -0.55471,-2.371646 0,-0.586249 0.18491,-1.199147 0.21131,-0.639545 0.63394,-1.252443 0.42264,-0.639545 1.03017,-1.199146 0.60753,-0.559602 1.45279,-1.012613 -1.90184,-1.092556 -3.01124,-2.877953 -1.083,-1.812043 -1.083,-4.236985 0,-1.971931 0.76603,-3.544145 0.76601,-1.598863 2.08673,-2.691419 1.34714,-1.119204 3.16974,-1.705453 1.84901,-0.612897 3.98859,-0.612897 z m 6.26022,28.033389 q 0,-0.719488 -0.39622,-1.1725 -0.39622,-0.453011 -1.08298,-0.69284 -0.68678,-0.266476 -1.6113,-0.373068 -0.9245,-0.133238 -1.98107,-0.186534 -1.03017,-0.07994 -2.166,-0.133238 -1.1094,-0.0533 -2.1924,-0.186534 -0.87167,0.559602 -1.42637,1.305737 -0.52829,0.746136 -0.52829,1.732101 0,0.666193 0.26414,1.225796 0.29056,0.559601 0.92451,0.959316 0.63395,0.399717 1.69053,0.612898 1.05657,0.23983 2.61502,0.23983 1.6377,0 2.7471,-0.266477 1.13583,-0.23983 1.82261,-0.692841 0.71319,-0.426364 1.00375,-1.03926 0.31697,-0.612898 0.31697,-1.332386 z m -6.26022,-15.24249 q 2.03391,0 2.98483,-1.119203 0.97733,-1.119204 0.97733,-2.957895 0,-1.865341 -0.97733,-2.931249 -0.95092,-1.092556 -2.98483,-1.092556 -2.0075,0 -2.98484,1.092556 -0.95092,1.065908 -0.95092,2.931249 0,1.812044 0.95092,2.957895 0.97734,1.119203 2.98484,1.119203 z M 336.9055,47.4103 V 20.949125 h 3.93575 q 1.03016,0 1.42638,0.373068 0.42264,0.373067 0.5547,1.305737 l 0.34339,2.691419 q 1.18865,-2.265055 2.77352,-3.570793 1.58487,-1.305737 3.67161,-1.305737 1.71694,0 2.82635,0.826078 l -0.50188,5.063065 q -0.0528,0.479658 -0.31696,0.692841 -0.26416,0.186534 -0.71321,0.186534 -0.39621,0 -1.13581,-0.106592 -0.7396,-0.133238 -1.37355,-0.133238 -0.9245,0 -1.66411,0.266477 -0.7132,0.266477 -1.29431,0.799431 -0.5547,0.506306 -1.00375,1.252443 -0.44904,0.746136 -0.81886,1.705452 V 47.4103 Z m 29.95399,-26.887537 q 2.48297,0 4.56971,0.826077 2.08673,0.799431 3.59237,2.344999 1.50562,1.518919 2.35088,3.757326 0.84527,2.238408 0.84527,5.116361 0,0.772783 -0.0793,1.27909 -0.0793,0.479658 -0.26414,0.772783 -0.15849,0.293124 -0.47547,0.426364 -0.29056,0.10659 -0.73961,0.10659 h -15.69018 q 0.15848,1.918635 0.68678,3.330964 0.52828,1.412328 1.39996,2.31835 0.87167,0.906022 2.06033,1.359034 1.18865,0.426363 2.64144,0.426363 1.4528,0 2.50937,-0.34642 1.083,-0.373068 1.87544,-0.772784 0.81884,-0.426363 1.45279,-0.772783 0.63395,-0.373068 1.24148,-0.373068 0.73961,0 1.21506,0.612896 l 1.92826,2.504885 q -1.08299,1.27909 -2.40371,2.131816 -1.32073,0.826081 -2.7471,1.332386 -1.39997,0.479659 -2.85276,0.692841 -1.45281,0.213182 -2.79995,0.213182 -2.72068,0 -5.07157,-0.906023 -2.35088,-0.906022 -4.09424,-2.691419 -1.74335,-1.812043 -2.7471,-4.450166 -0.97734,-2.664772 -0.97734,-6.155621 0,-2.691419 0.87168,-5.063065 0.87167,-2.398293 2.48295,-4.157041 1.6377,-1.785397 3.96218,-2.824657 2.32446,-1.03926 5.25647,-1.03926 z m 0.13208,4.823233 q -2.56221,0 -4.01501,1.51892 -1.45279,1.492271 -1.87541,4.236985 h 11.09407 q 0,-1.145851 -0.31697,-2.185112 -0.29056,-1.03926 -0.95092,-1.838692 -0.63395,-0.799431 -1.6113,-1.252442 -0.97732,-0.479659 -2.32446,-0.479659 z m 27.10122,-4.823233 q 2.48296,0 4.56971,0.826077 2.08674,0.799431 3.59237,2.344999 1.50562,1.518919 2.35088,3.757326 0.84527,2.238408 0.84527,5.116361 0,0.772783 -0.0793,1.27909 -0.0792,0.479658 -0.26414,0.772783 -0.15849,0.293124 -0.47546,0.426364 -0.29056,0.10659 -0.7396,0.10659 h -15.6902 q 0.1585,1.918635 0.68678,3.330964 0.52829,1.412328 1.39996,2.31835 0.87169,0.906022 2.06033,1.359034 1.18865,0.426363 2.64144,0.426363 1.4528,0 2.50939,-0.34642 1.08298,-0.373068 1.87542,-0.772784 0.81885,-0.426363 1.45279,-0.772783 0.63395,-0.373068 1.24148,-0.373068 0.73961,0 1.21508,0.612896 l 1.92824,2.504885 q -1.083,1.27909 -2.40371,2.131816 -1.32072,0.826081 -2.7471,1.332386 -1.39997,0.479659 -2.85276,0.692841 -1.4528,0.213182 -2.79994,0.213182 -2.72069,0 -5.07158,-0.906023 -2.35088,-0.906022 -4.09424,-2.691419 -1.74335,-1.812043 -2.7471,-4.450166 -0.97734,-2.664772 -0.97734,-6.155621 0,-2.691419 0.87168,-5.063065 0.87167,-2.398293 2.48297,-4.157041 1.63768,-1.785397 3.96216,-2.824657 2.32448,-1.03926 5.25647,-1.03926 z m 0.13208,4.823233 q -2.5622,0 -4.01499,1.51892 -1.45281,1.492271 -1.87544,4.236985 h 11.09407 q 0,-1.145851 -0.31696,-2.185112 -0.29057,-1.03926 -0.95092,-1.838692 -0.63396,-0.799431 -1.61128,-1.252442 -0.97734,-0.479659 -2.32448,-0.479659 z M 409.99432,47.4103 V 20.949125 h 3.93575 q 1.03016,0 1.42638,0.373068 0.42263,0.373067 0.5547,1.305737 l 0.34339,2.691419 q 1.18865,-2.265055 2.77352,-3.570793 1.58487,-1.305737 3.6716,-1.305737 1.71695,0 2.82636,0.826078 l -0.50188,5.063065 q -0.0528,0.479658 -0.31697,0.692841 -0.26415,0.186534 -0.7132,0.186534 -0.39621,0 -1.13581,-0.106592 -0.73961,-0.133238 -1.37356,-0.133238 -0.9245,0 -1.6641,0.266477 -0.7132,0.266477 -1.29431,0.799431 -0.5547,0.506306 -1.00375,1.252443 -0.44905,0.746136 -0.81886,1.705452 V 47.4103 Z M 424.76,43.759564 q 0,-0.826081 0.29055,-1.572216 0.31698,-0.746136 0.84526,-1.27909 0.55472,-0.532954 1.29431,-0.852726 0.73961,-0.319773 1.58487,-0.319773 0.84527,0 1.58487,0.319773 0.73961,0.319772 1.26789,0.852726 0.5547,0.532954 0.87169,1.27909 0.31697,0.746135 0.31697,1.572216 0,0.852726 -0.31697,1.598861 -0.31699,0.746136 -0.87169,1.27909 -0.52828,0.532955 -1.26789,0.826079 -0.7396,0.319773 -1.58487,0.319773 -0.84526,0 -1.58487,-0.319773 -0.73959,-0.293124 -1.29431,-0.826079 -0.52828,-0.532954 -0.84526,-1.27909 Q 424.76,44.61229 424.76,43.759564 Z m 31.35396,-17.027887 q -0.29056,0.373068 -0.58112,0.612897 -0.29056,0.213182 -0.81886,0.213182 -0.50187,0 -0.9245,-0.293125 -0.42264,-0.293124 -0.97734,-0.639545 -0.52828,-0.373068 -1.26789,-0.666192 -0.71318,-0.293125 -1.8226,-0.293125 -1.37354,0 -2.40371,0.586249 -1.00375,0.586251 -1.66411,1.678807 -0.66036,1.092556 -1.00375,2.66477 -0.31698,1.572215 -0.31698,3.517498 0,4.130394 1.39998,6.368801 1.39996,2.211761 3.85651,2.211761 1.29431,0 2.06032,-0.373068 0.76601,-0.373068 1.29431,-0.799431 0.52829,-0.453012 0.95092,-0.826079 0.44905,-0.373068 1.05658,-0.373068 0.76602,0 1.18865,0.612896 l 1.95467,2.504885 q -1.05658,1.27909 -2.24523,2.131816 -1.18866,0.826081 -2.45654,1.332386 -1.24149,0.506308 -2.5358,0.692841 -1.26788,0.213182 -2.50936,0.213182 -2.21883,0 -4.1999,-0.906023 -1.95467,-0.932669 -3.46031,-2.691419 -1.4792,-1.758748 -2.35088,-4.290281 -0.87167,-2.558179 -0.87167,-5.809199 0,-2.9046 0.76601,-5.382838 0.76603,-2.478237 2.24523,-4.290281 1.50562,-1.838691 3.69803,-2.877951 2.21882,-1.03926 5.1244,-1.03926 2.74711,0 4.83385,0.985964 2.08675,0.959318 3.75085,2.798009 z m 16.85243,-6.208914 q 2.87917,0 5.25648,0.959316 2.3773,0.93267 4.06781,2.718067 1.69053,1.758748 2.61504,4.29028 0.9245,2.504884 0.9245,5.622667 0,3.171076 -0.9245,5.702609 -0.92451,2.531532 -2.61504,4.316929 -1.69051,1.758749 -4.06781,2.718065 -2.37731,0.959319 -5.25648,0.959319 -2.9056,0 -5.30931,-0.959319 -2.3773,-0.959316 -4.09424,-2.718065 -1.69053,-1.785397 -2.61503,-4.316929 -0.92451,-2.531533 -0.92451,-5.702609 0,-3.117783 0.92451,-5.622667 0.9245,-2.531532 2.61503,-4.29028 1.71694,-1.785397 4.09424,-2.718067 2.40371,-0.959316 5.30931,-0.959316 z m 0,22.117596 q 3.03765,0 4.49046,-2.131816 1.45279,-2.158465 1.45279,-6.342155 0,-4.18369 -1.45279,-6.315506 -1.45281,-2.158465 -4.49046,-2.158465 -3.09049,0 -4.56971,2.158465 -1.45279,2.131816 -1.45279,6.315506 0,4.18369 1.45279,6.342155 1.47922,2.131816 4.56971,2.131816 z m 17.69768,1.119205 q 0,-0.826081 0.29055,-1.572216 0.31698,-0.746136 0.84526,-1.27909 0.5547,-0.532954 1.29431,-0.852726 0.73961,-0.319773 1.58487,-0.319773 0.84527,0 1.58487,0.319773 0.73961,0.319772 1.26789,0.852726 0.5547,0.532954 0.87169,1.27909 0.31697,0.746135 0.31697,1.572216 0,0.852726 -0.31697,1.598861 -0.31699,0.746136 -0.87169,1.27909 -0.52828,0.532955 -1.26789,0.826079 -0.7396,0.319773 -1.58487,0.319773 -0.84526,0 -1.58487,-0.319773 -0.73961,-0.293124 -1.29431,-0.826079 -0.52828,-0.532954 -0.84526,-1.27909 -0.29055,-0.746135 -0.29055,-1.598861 z m 20.78819,-22.810439 v 16.814704 q 0,2.291703 1.03017,3.544145 1.03015,1.252442 3.09049,1.252442 1.50562,0 2.85276,-0.666193 1.34714,-0.692841 2.53578,-1.865339 V 20.949125 h 6.70928 V 47.4103 h -4.12066 q -0.63394,0 -1.08299,-0.293126 -0.42264,-0.319772 -0.5547,-0.93267 l -0.47547,-1.918635 q -1.55845,1.572215 -3.46029,2.55818 -1.87543,0.985966 -4.46405,0.985966 -2.13957,0 -3.77726,-0.746136 -1.6377,-0.746136 -2.7471,-2.078521 -1.10942,-1.332386 -1.69053,-3.171078 -0.5547,-1.838692 -0.5547,-4.050451 V 20.949125 Z M 540.48173,9.1175425 V 30.915367 h 1.03017 q 0.63395,0 0.95091,-0.186534 0.34339,-0.186534 0.68678,-0.692839 l 4.80743,-7.941019 q 0.39622,-0.532952 0.89809,-0.826078 0.5283,-0.319772 1.29431,-0.319772 h 6.12816 l -6.33947,9.726414 q -0.44905,0.586249 -0.95092,1.03926 -0.47547,0.453011 -1.05658,0.826078 0.52829,0.399717 0.9245,0.93267 0.42264,0.506307 0.81885,1.119205 l 6.89418,12.817548 h -6.0225 q -1.53204,0 -2.21882,-1.1725 l -4.80743,-9.859653 q -0.31697,-0.612896 -0.68678,-0.79943 -0.34337,-0.186534 -1.00375,-0.186534 h -1.34713 V 47.4103 h -6.70927 V 9.1175425 Z"
     id="text1"
     style="font-weight:bold;font-size:380.422px;font-family:Carlito;-inkscape-font-specification:'Carlito, Bold';text-align:center;text-anchor:middle;opacity:1;fill:#ffffff;fill-opacity:1;stroke:#2c2c2c;stroke-width:3.053;stroke-miterlimit:1.8;stroke-dasharray:none;stroke-dashoffset:6.42104;stroke-opacity:1;paint-order:markers stroke fill"
     aria-label="simongreer.co.uk" /></svg>
