<svg width="1327" height="320" viewBox="0 0 1327 320" fill="none" xmlns="http://www.w3.org/2000/svg">
<path d="M485.538 228.056H454.003V146.667C454.003 137.593 451.771 130.463 447.306 125.278C442.841 119.908 436.701 117.222 428.888 117.222C419.958 117.222 412.981 120.185 407.958 126.111C403.121 132.037 400.702 140.185 400.702 150.556V228.056H368.889V91.9446H400.144V103.889C408.702 93.7039 420.516 88.6113 435.585 88.6113C452.515 88.6113 465.259 94.5372 473.817 106.389C484.422 94.5372 498.654 88.6113 516.514 88.6113C534.374 88.6113 547.862 93.7965 556.978 104.167C566.281 114.352 570.932 129.259 570.932 148.889V228.056H539.118V146.667C539.118 137.593 536.886 130.463 532.421 125.278C527.956 119.908 521.816 117.222 514.002 117.222C505.072 117.222 498.096 120.278 493.073 126.389C488.049 132.315 485.538 140.371 485.538 150.556V228.056Z" fill="white"/>
<path d="M722.907 158.334L722.627 169.445H629.141C629.885 179.63 633.513 187.685 640.024 193.611C646.536 199.537 654.908 202.5 665.14 202.5C679.838 202.5 691.558 196.111 700.302 183.334L721.79 203.334C707.279 221.852 688.396 231.111 665.14 231.111C644.489 231.111 627.931 224.63 615.467 211.667C602.816 198.519 596.49 181.574 596.49 160.834C596.49 140.648 602.257 123.519 613.792 109.445C625.513 95.5557 641.048 88.6113 660.396 88.6113C681.047 88.6113 696.581 95.4631 707 109.167C717.604 122.871 722.907 139.259 722.907 158.334ZM660.675 117.5C652.675 117.5 646.071 120 640.861 125C635.838 130 632.49 136.389 630.815 144.167H689.14C688.954 136.574 686.442 130.278 681.605 125.278C676.768 120.093 669.791 117.5 660.675 117.5Z" fill="white"/>
<path d="M813.827 88.6113C829.083 88.6113 841.827 93.0557 852.059 101.945V33.3335H883.873V228.056H852.617V215.834C842.943 226.019 830.013 231.111 813.827 231.111C794.479 231.111 778.479 224.445 765.828 211.111C753.363 197.593 747.131 180.556 747.131 160C747.131 139.445 753.363 122.408 765.828 108.889C778.293 95.3705 794.293 88.6113 813.827 88.6113ZM842.85 128.889C836.339 120.741 827.408 116.667 816.06 116.667C804.711 116.667 795.781 120.741 789.27 128.889C782.758 137.037 779.502 147.408 779.502 160C779.502 172.593 782.758 182.963 789.27 191.111C795.781 199.259 804.711 203.334 816.06 203.334C827.408 203.334 836.339 199.259 842.85 191.111C849.362 182.963 852.617 172.593 852.617 160C852.617 147.408 849.362 137.037 842.85 128.889Z" fill="white"/>
<path d="M916.109 91.9446H947.922V173.334C947.922 182.408 950.155 189.63 954.62 195C959.085 200.185 965.41 202.778 973.596 202.778C982.34 202.778 989.224 199.722 994.247 193.611C999.456 187.315 1002.06 178.982 1002.06 168.611V91.9446H1033.87V228.056H1002.62V216.945C993.875 226.389 982.061 231.111 967.178 231.111C951.55 231.111 939.085 225.834 929.783 215.278C920.667 204.537 916.109 189.815 916.109 171.111V91.9446Z" fill="white"/>
<path d="M1125.36 176.667L1107.22 172.222C1079.5 165.741 1065.64 151.389 1065.64 129.167C1065.64 116.945 1070.29 107.13 1079.59 99.7224C1088.9 92.315 1100.9 88.6113 1115.59 88.6113C1135.31 88.6113 1152.52 96.2039 1167.22 111.389L1146.85 133.056C1138.48 121.574 1127.78 115.834 1114.76 115.834C1109.17 115.834 1104.62 117.13 1101.08 119.722C1097.73 122.13 1096.06 125.093 1096.06 128.611C1096.06 134.908 1100.52 139.167 1109.45 141.389L1130.94 146.389C1158.85 152.685 1172.8 166.852 1172.8 188.889C1172.8 201.482 1167.96 211.667 1158.29 219.445C1148.8 227.222 1135.59 231.111 1118.66 231.111C1094.85 231.111 1075.97 222.315 1062.01 204.722L1082.1 184.167C1092.15 197.315 1105.17 203.889 1121.17 203.889C1135.13 203.889 1142.1 199.259 1142.1 190C1142.1 184.074 1136.52 179.63 1125.36 176.667Z" fill="white"/>
<path d="M1238.56 231.111C1225.36 231.111 1214.38 227.408 1205.63 220C1196.89 212.408 1192.52 202.315 1192.52 189.722C1192.52 175.278 1197.73 164.074 1208.15 156.111C1218.56 148.148 1232.33 144.167 1249.45 144.167C1258.01 144.167 1267.21 145.741 1277.08 148.889V139.722C1277.08 133.056 1274.56 127.685 1269.54 123.611C1264.52 119.352 1258.1 117.222 1250.28 117.222C1235.96 117.222 1225.17 123.796 1217.91 136.945L1196.43 116.945C1201.45 107.871 1208.8 100.926 1218.47 96.1113C1228.33 91.1113 1239.03 88.6113 1250.56 88.6113C1268.61 88.6113 1282.84 93.0557 1293.26 101.945C1303.68 110.834 1308.89 123.519 1308.89 140V228.056H1277.63V217.5C1267.4 226.574 1254.38 231.111 1238.56 231.111ZM1224.33 187.5C1224.33 192.13 1226.1 195.926 1229.63 198.889C1233.35 201.852 1238.47 203.334 1244.98 203.334C1258.38 203.334 1269.08 199.445 1277.08 191.667V176.111C1267.03 172.408 1257.54 170.556 1248.61 170.556C1241.17 170.556 1235.22 172.037 1230.75 175C1226.47 177.963 1224.33 182.13 1224.33 187.5Z" fill="white"/>
<path d="M248.667 63.95L184.267 26.8937C163.196 14.7392 137.377 14.7392 116.306 26.8937L51.6095 63.95C30.8354 76.1045 17.7773 98.6348 17.7773 122.647V197.056C17.7773 221.365 30.8354 243.599 51.6095 255.754L116.009 293.106C137.08 305.261 162.899 305.261 183.97 293.106L248.37 255.754C269.441 243.599 282.202 221.365 282.202 197.056V122.647C282.796 98.6348 269.738 76.1045 248.667 63.95ZM150.138 226.109C113.635 226.109 83.9578 196.463 83.9578 160C83.9578 123.537 113.635 93.8915 150.138 93.8915C186.641 93.8915 216.615 123.537 216.615 160C216.615 196.463 186.938 226.109 150.138 226.109Z" fill="white"/>
</svg>
