<?xml version="1.0" encoding="UTF-8" standalone="no"?>
<!-- Created with Inkscape (http://www.inkscape.org/) -->

<svg
   width="115.42834mm"
   height="118.35566mm"
   viewBox="0 0 115.42834 118.35566"
   version="1.1"
   id="svg1"
   xml:space="preserve"
   inkscape:version="1.3.2 (091e20ef0f, 2023-11-25, custom)"
   sodipodi:docname="man listening to music using laptop (me).svg"
   xmlns:inkscape="http://www.inkscape.org/namespaces/inkscape"
   xmlns:sodipodi="http://sodipodi.sourceforge.net/DTD/sodipodi-0.dtd"
   xmlns="http://www.w3.org/2000/svg"
   xmlns:svg="http://www.w3.org/2000/svg"><sodipodi:namedview
     id="namedview1"
     pagecolor="#ffffff"
     bordercolor="#000000"
     borderopacity="0.25"
     inkscape:showpageshadow="2"
     inkscape:pageopacity="0.0"
     inkscape:pagecheckerboard="0"
     inkscape:deskcolor="#d1d1d1"
     inkscape:document-units="mm"
     inkscape:zoom="1.6035354"
     inkscape:cx="-227.93386"
     inkscape:cy="230.11654"
     inkscape:window-width="3832"
     inkscape:window-height="1104"
     inkscape:window-x="0"
     inkscape:window-y="0"
     inkscape:window-maximized="1"
     inkscape:current-layer="layer1" /><defs
     id="defs1" /><g
     inkscape:label="Layer 1"
     inkscape:groupmode="layer"
     id="layer1"
     transform="translate(-47.107102,-60.7081)"><path
       id="rect8"
       style="display:none;fill:#ffffff;fill-opacity:1;stroke-width:7.89551;stroke-linecap:round;stroke-miterlimit:1.8;stroke-dashoffset:6.42104;paint-order:stroke fill markers"
       d="m 109.62225,115.57442 -0.29766,0.28577 13.40487,11.7961 12.57805,-12.08187 z"
       inkscape:label="collar" /><path
       id="rect3"
       style="stroke-width:6.63199;stroke-linecap:round;stroke-miterlimit:1.8;stroke-dashoffset:6.42104;paint-order:stroke fill markers"
       d="M 54.011238,168.61427 H 156.53544 c 3.324,0 6,2.33024 6,5.22475 0,2.89451 -2.676,5.22475 -6,5.22475 H 54.011238 c -3.324,0 -6,-2.33024 -6,-5.22475 0,-2.89451 2.676,-5.22475 6,-5.22475 z"
       inkscape:label="desk" /><g
       id="path3"
       style="fill:#000000;fill-opacity:1"
       inkscape:label="body"><path
         id="path6"
         style="color:#000000;display:inline;fill:#000000;fill-opacity:1;stroke-width:0.997287;stroke-linecap:round;stroke-miterlimit:1.8;stroke-dashoffset:6.42104;-inkscape-stroke:none;paint-order:stroke fill markers"
         inkscape:label="body"
         d="m 135.00458,115.86546 -12.27522,11.79101 -12.9744,-11.41739 0.004,2.93263 c -1.34742,0.18171 -1.74561,0.17961 -3.71657,0.56121 -1.93519,0.37467 -3.99256,0.84523 -5.90661,1.47071 -1.775269,0.58012 -3.417116,1.14711 -4.981095,2.51148 -5.16371,3.21746 -7.770585,7.88479 -7.770585,7.88479 l -0.523482,0.9095 v 36.80499 h 64.316492 5.1e-4 l 0.60152,-0.19585 c 0,0 2.14701,-0.76614 3.77341,-2.62672 1.62641,-1.86056 2.94983,-4.98002 2.75952,-9.0196 l -0.61702,-18.69653 -0.0408,-0.24857 c -0.63615,-3.90093 -0.65366,-5.73619 -1.74821,-8.01088 -1.09457,-2.27469 -2.59509,-3.39226 -5.11907,-5.83375 l -0.11317,-0.10904 -0.12144,-0.10077 c -2.53202,-2.08661 -4.91077,-3.52682 -7.79643,-4.21524 -2.06279,-0.49211 -4.52082,-0.6968 -7.48843,-0.90331 l -0.0925,-3.48867 z" /><path
         id="rect9"
         style="fill:#ffffff;stroke-width:8.16584;stroke-linecap:round;stroke-miterlimit:1.8;stroke-dashoffset:6.42104;paint-order:stroke fill markers"
         d="m 113.18173,157.60316 h 14.54261 v 11.24387 h -14.54261 z"
         inkscape:label="arm" /></g><path
       id="path4"
       style="fill:none;stroke:#000000;stroke-width:3.80591;stroke-linecap:round;stroke-miterlimit:1.8;stroke-dashoffset:6.42104;paint-order:stroke fill markers"
       inkscape:label="face"
       d="m 142.62714,91.189568 a 20.031307,22.481894 0 0 1 -20.03131,22.481892 20.031307,22.481894 0 0 1 -20.0313,-22.481892 20.031307,22.481894 0 0 1 20.0313,-22.481894 20.031307,22.481894 0 0 1 20.03131,22.481894 z" /><path
       id="rect4"
       style="fill:#000000;fill-opacity:1;stroke-width:4.59882;stroke-linecap:round;stroke-miterlimit:1.8;stroke-dashoffset:6.42104;paint-order:stroke fill markers"
       d="m 104.68648,60.7081 h 26.64512 c 3.34956,0 6.04614,3.454783 6.04614,7.746151 v 1.931994 c 0,4.291368 -2.69658,7.746152 -6.04614,7.746152 h -26.64512 c -3.34956,0 -6.046131,-3.454784 -6.046131,-7.746152 v -1.931994 c 0,-7.235741 -6.821658,-7.746151 6.046131,-7.746151 z"
       sodipodi:nodetypes="sssssssss"
       inkscape:label="hair" /><g
       id="g13"
       inkscape:label="headphones"><path
         id="rect5-6"
         style="stroke-width:4.103;stroke-linecap:round;stroke-miterlimit:1.8;stroke-dashoffset:6.42104;paint-order:stroke fill markers"
         d="m 147.94739,81.975446 c 3.02884,0 5.46721,1.77361 5.46721,5.09761 v 7.578211 c 0,3.324002 -2.67718,4.498755 -5.70602,4.498755 -3.02883,0 -6.30935,0.191381 -6.26074,-0.360401 l 1.03235,-11.716565 c 0.29175,-3.311172 2.43837,-5.09761 5.4672,-5.09761 z"
         sodipodi:nodetypes="sssssss"
         inkscape:label="right ear" /><path
         id="rect5-6-3"
         style="stroke-width:4.103;stroke-linecap:round;stroke-miterlimit:1.8;stroke-dashoffset:6.42104;paint-order:stroke fill markers"
         d="m 97.097309,82.302849 c 3.028841,0 5.279951,1.778889 5.467221,5.097614 l 0.67762,12.00843 c 0,0 -3.354806,0.06853 -6.383651,0.06853 -3.02883,0 -5.22839,-1.17475 -5.22839,-4.49875 v -7.57821 c 0,-3.324004 2.43837,-5.097614 5.4672,-5.097614 z"
         sodipodi:nodetypes="sscssss"
         inkscape:label="left ear" /><path
         id="path5"
         style="color:#000000;display:inline;fill:#000000;stroke:none;stroke-width:0;stroke-linecap:round;stroke-miterlimit:1.8;stroke-dasharray:none;stroke-dashoffset:6.42104;paint-order:stroke fill markers"
         d="M 123.16101,62.167514 C 108.55199,62.167402 96.809599,74.64679 96.809648,89.755495 v 0.07441 l 0.0036,0.0739 c 0.01911,0.416322 0.04712,0.831419 0.08423,1.246435 l 0.26355,2.947107 h 52.185442 l 0.13901,-3.091801 c 0.0185,-0.415419 0.0269,-0.830058 0.0274,-1.245918 v -0.0021 -0.0021 c 5e-5,-15.108467 -11.74309,-27.587747 -26.35188,-27.587981 z m 0,6.468856 c 10.24949,1.64e-4 18.66647,8.243383 19.682,18.992123 h -0.36276 v 6.468339 h -39.05188 v -6.468856 h 0.0512 c 1.01578,-10.748651 9.43198,-18.991685 19.68148,-18.991606 z"
         inkscape:label="headphone band" /></g><g
       id="rect2"
       transform="translate(-2.1488672,-1.9284375)"
       inkscape:label="laptop"><path
         style="color:#000000;fill:#ffffff;stroke-linecap:round;stroke-miterlimit:1.8;stroke-dashoffset:6.42104;-inkscape-stroke:none;paint-order:stroke fill markers"
         d="m 58.113281,132.125 c -2.331105,0 -4.324471,0.83076 -5.568359,2.29687 -1.243888,1.46612 -1.651676,3.54109 -1.021485,5.64649 l 6.996094,23.37695 c 1.260382,4.21079 5.83193,7.3086 10.494141,7.3086 h 46.257808 c 2.33111,0 4.32448,-0.83077 5.56836,-2.29688 1.24389,-1.46611 1.65168,-3.54109 1.02149,-5.64648 l -6.9961,-23.37696 c -1.26038,-4.21079 -5.82998,-7.30859 -10.49218,-7.30859 z m 0,2.2168 h 46.259769 c 3.6255,0 7.46621,2.7165 8.36718,5.72656 l 6.99805,23.37695 c 0.45049,1.50502 0.16703,2.68834 -0.58789,3.57813 -0.75492,0.88979 -2.06615,1.51367 -3.87891,1.51367 H 69.013672 c -3.625513,0 -7.468168,-2.71652 -8.369141,-5.72656 l -6.998047,-23.37696 c -0.450488,-1.50502 -0.165077,-2.68833 0.589844,-3.57812 0.754922,-0.88979 2.064197,-1.51367 3.876953,-1.51367 z"
         id="path10"
         inkscape:label="laptop outer" /><path
         style="color:#000000;fill:#000000;stroke-linecap:round;stroke-miterlimit:1.8;stroke-dashoffset:6.42104;-inkscape-stroke:none;paint-order:stroke fill markers"
         d="m 58.114142,133.23416 h 46.258178 c 4.14386,0 8.3499,2.90659 9.43058,6.51702 l 6.99725,23.37699 c 1.08068,3.61042 -1.38535,6.51701 -5.52922,6.51701 H 69.012763 c -4.143866,0 -8.349911,-2.90659 -9.430589,-6.51701 l -6.997248,-23.37699 c -1.080681,-3.61043 1.38535,-6.51702 5.529216,-6.51702 z"
         id="path11"
         inkscape:label="laptop inner" /></g><path
       id="path12"
       style="color:#000000;fill:#000000;-inkscape-stroke:none"
       d="m 58.832484,68.848688 c -0.246883,0.01966 -0.481196,0.08358 -0.656807,0.166915 -0.03692,0.01752 -0.117344,0.04309 -0.26355,0.130742 -0.146206,0.08765 -0.339649,0.263284 -0.453202,0.458886 -0.227106,0.391205 -0.244045,0.723126 -0.279053,1.25212 -0.07001,1.057989 -0.06031,3.005335 -0.05891,7.121013 6.84e-4,2.025355 -0.0039,3.871178 -0.0098,5.211051 -0.0019,0.425199 -0.0033,0.695039 -0.0057,1.007691 -0.257947,-0.05727 -0.479728,-0.194355 -0.756026,-0.222726 -0.6954,-0.0714 -1.415868,-0.05595 -2.072225,0.111621 -2.606875,0.665538 -4.433541,3.070139 -4.042647,5.595524 0.302911,1.95697 1.828966,3.493626 3.817854,3.925859 1.269752,0.275945 2.59786,0.102715 3.783232,-0.480591 1.276698,-0.628245 2.302062,-1.824981 2.754354,-3.19102 0.114211,-0.344924 0.08133,-0.444776 0.09767,-0.769979 0.01634,-0.325202 0.02946,-0.78291 0.04082,-1.437121 0.02271,-1.308425 0.04007,-3.395739 0.05684,-6.681763 l 0.03101,-6.275586 c 1.284769,1.145262 2.286576,2.0367 2.736267,2.482536 0.891621,0.883977 1.492785,1.600175 1.949235,2.302702 0.137368,0.211423 0.283158,0.40873 0.425814,0.578259 0.07133,0.08476 0.141884,0.162204 0.220658,0.238229 0.07877,0.07603 0.125333,0.151508 0.363285,0.259932 1.18908,0.541783 2.605526,-0.371997 2.605526,-1.677934 10e-7,-0.44056 -0.113864,-0.539531 -0.21084,-0.734322 -0.09698,-0.194791 -0.217024,-0.399225 -0.359668,-0.621151 C 68.261334,77.155726 67.890754,76.64888 67.490355,76.169689 66.6691,75.186823 64.98425,73.579961 63.064269,71.90845 62.159756,71.12099 61.082758,70.154901 60.732111,69.820205 60.313728,69.420854 60.015272,69.134619 59.564224,68.94739 59.338699,68.85378 59.079369,68.829028 58.832485,68.84869 Z m 26.592693,8.14679 c -0.05601,0.0014 -0.08978,0.01203 -0.132292,0.01602 -0.08503,0.008 -0.163069,0.01956 -0.251664,0.03514 -0.177192,0.03116 -0.392064,0.07769 -0.664043,0.141076 -0.543958,0.126766 -1.307164,0.322143 -2.308902,0.589628 -1.629186,0.435029 -3.349934,0.892792 -3.810621,1.013892 -2.005332,0.527135 -4.293552,1.140904 -6.109187,1.634526 -0.907818,0.246811 -1.697188,0.463055 -2.275314,0.624768 -0.289062,0.08086 -0.524644,0.148519 -0.699182,0.199471 -0.08727,0.02548 -0.158062,0.04624 -0.217041,0.06459 -0.05898,0.01835 -0.0597,0.0091 -0.19327,0.06821 -0.371425,0.164626 -0.558474,0.30755 -0.794783,0.668176 -0.118493,0.1808 -0.198324,0.465323 -0.224793,0.72037 -0.02647,0.255048 -0.03943,0.591761 -0.05064,1.166337 -0.02242,1.149152 -0.02903,3.236713 -0.03927,7.17734 l -0.01757,6.912239 c -0.78135,-0.320413 -1.587374,-0.527412 -2.538863,-0.523482 -3.26711,0.01233 -6.032201,2.158536 -6.638871,5.246191 -0.133185,0.67766 -0.137073,1.07418 -0.01344,1.80092 0.206491,1.21379 0.714855,2.21048 1.56838,3.05253 0.774146,0.76374 1.702277,1.22792 2.761588,1.52342 0.211273,0.066 1.773632,0.51994 3.497978,0.0842 0.436488,-0.11025 0.960971,-0.33038 1.429887,-0.56069 1.512379,-0.7428 2.701425,-2.04289 3.279386,-3.60339 l 0.279053,-0.75396 0.0217,-10.370945 0.02119,-9.515698 c 0.136464,-0.03622 0.253718,-0.06908 0.377238,-0.101802 0.715619,-0.189567 4.881292,-1.308165 5.868893,-1.576132 0.485416,-0.131711 1.325168,-0.354431 1.8557,-0.494026 1.071927,-0.282052 1.417806,-0.376922 3.605465,-0.971001 0.172288,-0.04679 0.292747,-0.07697 0.449068,-0.118855 0.0041,0.294552 0.0085,0.542577 0.01189,0.941544 0.01096,1.287964 0.01757,3.068901 0.01757,5.027084 v 5.691642 c -0.297318,-0.121785 -0.56815,-0.314576 -0.849561,-0.388607 -2.373145,-0.62431 -4.985991,0.118324 -6.711218,1.892391 -0.652426,0.670892 -1.109017,1.402139 -1.429887,2.289266 -0.201294,0.556519 -0.268001,1.004202 -0.269234,1.827795 -9.64e-4,0.622849 -0.0152,1.042035 0.15813,1.548743 0.68677,2.007511 2.310941,3.486871 4.37286,3.986321 0.992942,0.24031 2.231878,0.23968 3.220992,-0.006 1.955605,-0.48489 3.62783,-1.75067 4.499983,-3.46697 0.233098,-0.45867 0.482361,-0.943759 0.541053,-2.370912 0.05869,-1.427151 0.04471,-4.054223 0.03307,-9.633004 l -0.02119,-10.546643 -0.541052,-0.465088 c -0.244661,-0.210435 -0.390931,-0.33372 -0.803052,-0.437182 -0.131888,-0.0331 -0.210124,-0.04121 -0.266133,-0.03979 z"
       inkscape:label="notes"
       sodipodi:nodetypes="sssscccccsssscscccsssccssssssssscssssssssccssccccssccscccccsssccscssscccccsccccscc" /></g></svg>
