<?xml version="1.0" encoding="UTF-8" standalone="no"?>
<svg
   version="1.1"
   id="Layer_1"
   x="0px"
   y="0px"
   viewBox="0 0 255.99999 256"
   xml:space="preserve"
   width="255.99998"
   height="256"
   xmlns="http://www.w3.org/2000/svg"
   xmlns:svg="http://www.w3.org/2000/svg"><defs
     id="defs5" /><style
     type="text/css"
     id="style1">.st0{fill-rule:evenodd;clip-rule:evenodd;fill:#00ACD7;} .st1{fill:#00ACD7;}</style><g
     id="g5"
     transform="matrix(2.0296804,0,0,2.0296804,3.2936717,68.431526)"
     style="fill:#ffffff;fill-opacity:1"><path
       class="st0"
       d="m 9.27,13.9 c -0.24,0 -0.3,-0.12 -0.18,-0.3 l 1.26,-1.62 c 0.12,-0.18 0.42,-0.3 0.66,-0.3 h 21.36 c 0.24,0 0.3,0.18 0.18,0.36 l -1.02,1.56 c -0.12,0.18 -0.42,0.36 -0.6,0.36 z"
       id="path1"
       style="fill:#ffffff;fill-opacity:1" /><path
       class="st0"
       d="m 0.24,19.41 c -0.24,0 -0.3,-0.12 -0.18,-0.3 l 1.26,-1.62 c 0.12,-0.18 0.42,-0.3 0.66,-0.3 h 27.28 c 0.24,0 0.36,0.18 0.3,0.36 l -0.48,1.44 c -0.06,0.24 -0.3,0.36 -0.54,0.36 z"
       id="path2"
       style="fill:#ffffff;fill-opacity:1" /><path
       class="st0"
       d="m 14.72,24.91 c -0.24,0 -0.3,-0.18 -0.18,-0.36 l 0.84,-1.5 c 0.12,-0.18 0.36,-0.36 0.6,-0.36 h 11.97 c 0.24,0 0.36,0.18 0.36,0.42 l -0.12,1.44 c 0,0.24 -0.24,0.42 -0.42,0.42 z"
       id="path3"
       style="fill:#ffffff;fill-opacity:1" /><path
       class="st0"
       d="m 76.82,12.82 c -3.77,0.96 -6.34,1.68 -10.05,2.63 -0.9,0.24 -0.96,0.3 -1.74,-0.6 -0.9,-1.02 -1.56,-1.67 -2.81,-2.27 -3.77,-1.85 -7.42,-1.32 -10.83,0.9 -4.07,2.63 -6.16,6.52 -6.1,11.37 0.06,4.79 3.35,8.73 8.08,9.39 4.07,0.54 7.48,-0.9 10.17,-3.95 0.54,-0.66 1.02,-1.38 1.62,-2.21 -2.15,0 -4.85,0 -11.55,0 -1.26,0 -1.56,-0.78 -1.14,-1.79 0.78,-1.85 2.21,-4.97 3.05,-6.52 0.18,-0.36 0.6,-0.96 1.5,-0.96 H 78.8 c -0.12,1.62 -0.12,3.23 -0.36,4.85 -0.66,4.31 -2.27,8.26 -4.91,11.73 C 69.22,41.07 63.6,44.6 56.48,45.56 50.62,46.34 45.17,45.2 40.39,41.61 35.96,38.26 33.45,33.83 32.79,28.33 32.01,21.81 33.93,15.95 37.88,10.8 42.13,5.24 47.75,1.71 54.63,0.45 c 5.62,-1.02 11.01,-0.36 15.85,2.93 3.17,2.09 5.44,4.97 6.94,8.44 0.36,0.53 0.12,0.82 -0.6,1 z"
       id="path4"
       style="fill:#ffffff;fill-opacity:1" /><path
       class="st1"
       d="M 96.62,45.91 C 91.18,45.79 86.21,44.23 82.02,40.65 78.49,37.6 76.28,33.71 75.56,29.1 74.48,22.34 76.34,16.36 80.41,11.03 84.78,5.29 90.04,2.3 97.16,1.04 c 6.1,-1.08 11.85,-0.48 17.05,3.05 4.73,3.23 7.66,7.6 8.44,13.34 1.02,8.08 -1.32,14.66 -6.88,20.28 -3.95,4.01 -8.79,6.52 -14.36,7.66 -1.62,0.3 -3.23,0.36 -4.79,0.54 z M 110.86,21.74 C 110.8,20.96 110.8,20.36 110.68,19.77 109.6,13.85 104.16,10.5 98.47,11.81 92.91,13.07 89.32,16.6 88,22.22 c -1.08,4.67 1.2,9.39 5.5,11.31 3.29,1.44 6.58,1.26 9.75,-0.36 4.74,-2.46 7.31,-6.29 7.61,-11.43 z"
       id="path5"
       style="fill:#ffffff;fill-opacity:1" /></g></svg>
