<?xml version="1.0" encoding="UTF-8" standalone="no"?>
<!-- Created with Inkscape (http://www.inkscape.org/) -->

<svg
   width="20.505207mm"
   height="20.505278mm"
   viewBox="0 0 20.505207 20.505278"
   version="1.1"
   id="svg1"
   sodipodi:docname="pfsense-icon.svg"
   inkscape:version="1.3.2 (091e20ef0f, 2023-11-25, custom)"
   inkscape:export-filename="pfsense-icon.svg"
   inkscape:export-xdpi="96"
   inkscape:export-ydpi="96"
   xmlns:inkscape="http://www.inkscape.org/namespaces/inkscape"
   xmlns:sodipodi="http://sodipodi.sourceforge.net/DTD/sodipodi-0.dtd"
   xmlns="http://www.w3.org/2000/svg"
   xmlns:svg="http://www.w3.org/2000/svg">
  <sodipodi:namedview
     id="namedview1"
     pagecolor="#ffffff"
     bordercolor="#000000"
     borderopacity="0.25"
     inkscape:showpageshadow="2"
     inkscape:pageopacity="0.0"
     inkscape:pagecheckerboard="0"
     inkscape:deskcolor="#d1d1d1"
     inkscape:document-units="mm"
     inkscape:zoom="4"
     inkscape:cx="178.25"
     inkscape:cy="44.5"
     inkscape:window-width="3832"
     inkscape:window-height="1104"
     inkscape:window-x="0"
     inkscape:window-y="864"
     inkscape:window-maximized="1"
     inkscape:current-layer="layer2" />
  <defs
     id="defs1" />
  <g
     id="layer1"
     transform="translate(-54.76875,-131.23328)">
    <g
       inkscape:groupmode="layer"
       id="layer2"
       inkscape:label="Layer 1"
       transform="translate(54.76875,131.23328)"
       style="fill:#070000;fill-opacity:1" />
    <path
       id="rect4"
       style="display:inline;fill:#ffffff;fill-opacity:1;stroke-width:10.5338;stroke-linecap:round;stroke-miterlimit:1.8;stroke-dashoffset:6.42104;paint-order:stroke fill markers"
       d="m 58.594205,132.06895 13.49883,-0.0988 c 0.64861,-0.005 1.268659,-0.0597 1.54767,0.47454 0.02216,0.0424 1.175176,0.057 1.193441,0.10161 0.08069,0.19692 0.149422,0.42246 0.149422,0.66408 v 2.17136 l -1.364258,13.95893 1.083138,0.27518 -1.542811,1.40234 -0.110465,-0.90345 -15.494029,-0.60963 -0.463021,1.94303 h -0.333464 c -0.941749,0 -1.700115,-0.7582 -1.699908,-1.7 l 3.9e-4,-1.7744 c 2.07e-4,-0.9418 2.593341,-15.89793 3.535065,-15.90482 z"
       sodipodi:nodetypes="ssssscccccccssss"
       inkscape:label="whitebg" />
    <path
       class="pf0"
       d="m 60.817944,145.58649 c 0.745559,0 1.388282,-0.23138 1.928171,-0.66844 0.539887,-0.43703 0.92552,-1.02835 1.131192,-1.74821 0.205672,-0.71983 0.154253,-1.31115 -0.128543,-1.74818 -0.282799,-0.43706 -0.822686,-0.66844 -1.568247,-0.66844 -0.745558,0 -1.388283,0.23138 -1.928171,0.66844 -0.539888,0.43703 -0.899811,1.02835 -1.105483,1.74818 -0.205673,0.71986 -0.179962,1.31118 0.128542,1.74821 0.257089,0.46277 0.771269,0.66844 1.542538,0.66844"
       style="display:inline;fill:#263eb5;fill-opacity:1;stroke-width:0.257089"
       id="path1"
       inkscape:label="middle of p" />
    <path
       class="pf1"
       d="m 67.193761,140.75322 0.668433,-2.36524 h 1.182611 l 0.46276,-1.69678 c 0.154255,-0.51418 0.334217,-1.02836 0.565597,-1.49113 0.205671,-0.46275 0.51418,-0.87411 0.874105,-1.23402 0.359924,-0.35993 0.822686,-0.64272 1.362574,-0.84839 0.539888,-0.20567 1.234029,-0.30851 2.031008,-0.30851 0.205671,0 0.385634,0 0.591304,0.0257 -0.179962,-0.74556 -0.848396,-1.28543 -1.619663,-1.31115 H 56.73022 c -0.925522,0 -1.67108,0.77128 -1.67108,1.6968 v 14.75692 l 2.699438,-9.58939 h 2.725147 l -0.359925,1.25972 h 0.05142 c 0.154255,-0.17995 0.359925,-0.3342 0.617015,-0.51416 0.25709,-0.17996 0.514179,-0.33423 0.796979,-0.48847 0.282797,-0.15426 0.591304,-0.25709 0.925521,-0.35994 0.334216,-0.10282 0.668431,-0.12848 1.00265,-0.12848 0.71985,0 1.311155,0.12848 1.825332,0.35994 0.514181,0.23138 0.899815,0.5913 1.208322,1.02835 0.257089,0.38562 0.411343,0.84839 0.488469,1.38828 l 0.205668,-0.15421 h -0.05141 z"
       style="display:inline;fill:#0b75cf;fill-opacity:1;stroke-width:0.257089"
       id="path7"
       inkscape:label="top blue" />
    <path
       class="pf2"
       d="m 74.7779,135.35434 c -0.128543,-0.0258 -0.282798,-0.0514 -0.462762,-0.0514 -0.462761,0 -0.848395,0.10294 -1.156901,0.30851 -0.282799,0.20567 -0.539888,0.61701 -0.719853,1.25974 l -0.43705,1.51683 h 1.671081 l 0.411342,1.31115 -1.079775,1.05407 h -1.67108 l -2.031007,7.1985 h -2.93082 l 2.031006,-7.1985 h -1.131194 l -0.23138,0.15426 c 0,0.0514 0.02571,0.12848 0.02571,0.17996 0.05141,0.59129 -0.02571,1.25974 -0.23138,1.97958 -0.179963,0.66844 -0.462763,1.31117 -0.848396,1.92818 -0.385635,0.61701 -0.822687,1.1569 -1.311155,1.61966 -0.514181,0.46275 -1.079776,0.8484 -1.696791,1.1312 -0.617016,0.2828 -1.259739,0.41134 -1.953881,0.41134 -0.617015,0 -1.156902,-0.10282 -1.645372,-0.2828 -0.488469,-0.17996 -0.822687,-0.51418 -1.028358,-0.97694 h -0.05142 l -1.285448,4.55049 H 73.28678 c 0.925521,0 1.696788,-0.74556 1.696788,-1.6968 v -14.3199 c -0.07712,-0.0258 -0.154252,-0.0514 -0.20567,-0.077"
       style="display:inline;fill:#140975;fill-opacity:1;stroke-width:0.257089"
       id="path8"
       inkscape:label="bottom blue" />
  </g>
</svg>
