<?xml version="1.0" encoding="UTF-8" standalone="no"?>
<!-- Created with Inkscape (http://www.inkscape.org/) -->

<svg
   width="191.44835mm"
   height="39.04237mm"
   viewBox="0 0 191.44835 39.04237"
   version="1.1"
   id="svg1"
   inkscape:version="1.3.2 (091e20ef0f, 2023-11-25, custom)"
   sodipodi:docname="wordpress-official-horizontal.svg"
   xmlns:inkscape="http://www.inkscape.org/namespaces/inkscape"
   xmlns:sodipodi="http://sodipodi.sourceforge.net/DTD/sodipodi-0.dtd"
   xmlns="http://www.w3.org/2000/svg"
   xmlns:svg="http://www.w3.org/2000/svg">
  <sodipodi:namedview
     id="namedview1"
     pagecolor="#ffffff"
     bordercolor="#000000"
     borderopacity="0.25"
     inkscape:showpageshadow="2"
     inkscape:pageopacity="0.0"
     inkscape:pagecheckerboard="true"
     inkscape:deskcolor="#d1d1d1"
     inkscape:document-units="mm"
     shape-rendering="auto"
     inkscape:zoom="0.80176768"
     inkscape:cx="372.92598"
     inkscape:cy="125.97165"
     inkscape:window-width="3832"
     inkscape:window-height="1104"
     inkscape:window-x="0"
     inkscape:window-y="864"
     inkscape:window-maximized="1"
     inkscape:current-layer="layer1" />
  <defs
     id="defs1">
    <clipPath
       clipPathUnits="userSpaceOnUse"
       id="clipPath2">
      <path
         d="M 0,475 H 1400 V 0 H 0 Z"
         transform="translate(-780.92702,-188.6716)"
         id="path2" />
    </clipPath>
    <clipPath
       clipPathUnits="userSpaceOnUse"
       id="clipPath4">
      <path
         d="M 0,475 H 1400 V 0 H 0 Z"
         transform="translate(-487.49281,-215.56291)"
         id="path4" />
    </clipPath>
    <clipPath
       clipPathUnits="userSpaceOnUse"
       id="clipPath6">
      <path
         d="M 0,475 H 1400 V 0 H 0 Z"
         transform="translate(-577.12841,-263.54741)"
         id="path6" />
    </clipPath>
    <clipPath
       clipPathUnits="userSpaceOnUse"
       id="clipPath8">
      <path
         d="M 0,475 H 1400 V 0 H 0 Z"
         transform="translate(-893.49932,-285.16991)"
         id="path8" />
    </clipPath>
    <clipPath
       clipPathUnits="userSpaceOnUse"
       id="clipPath10">
      <path
         d="M 0,475 H 1400 V 0 H 0 Z"
         transform="translate(-977.07842,-225.32161)"
         id="path10" />
    </clipPath>
    <clipPath
       clipPathUnits="userSpaceOnUse"
       id="clipPath12">
      <path
         d="M 0,475 H 1400 V 0 H 0 Z"
         transform="translate(-1170.3271,-177.07231)"
         id="path12" />
    </clipPath>
    <clipPath
       clipPathUnits="userSpaceOnUse"
       id="clipPath14">
      <path
         d="M 0,475 H 1400 V 0 H 0 Z"
         transform="translate(-1250.0475,-177.07231)"
         id="path14" />
    </clipPath>
    <clipPath
       clipPathUnits="userSpaceOnUse"
       id="clipPath16">
      <path
         d="M 0,475 H 1400 V 0 H 0 Z"
         transform="translate(-237.28791,-356.35591)"
         id="path16" />
    </clipPath>
    <clipPath
       clipPathUnits="userSpaceOnUse"
       id="clipPath18">
      <path
         d="M 0,475 H 1400 V 0 H 0 Z"
         transform="translate(-324.04971,-285.14611)"
         id="path18" />
    </clipPath>
  </defs>
  <g
     inkscape:label="Layer 1"
     inkscape:groupmode="layer"
     id="layer1"
     transform="translate(-6.2249745,-115.32464)">
    <path
       id="path1"
       d="m 0,0 h -1.846 c -9.491,0 -10.809,2.373 -10.809,14.501 V 71.712 H 0 c 27.418,0 32.428,-20.035 32.428,-35.591 C 32.428,20.038 27.418,0 0,0 m -111.258,36.65 v 35.062 h 10.808 c 11.864,0 17.139,-8.171 17.139,-17.662 0,-9.229 -5.275,-17.4 -17.139,-17.4 z M -0.791,79.621 h -47.193 v -5.007 c 14.763,0 17.135,-3.164 17.135,-21.884 V 18.982 c 0,-18.718 -2.372,-22.146 -17.135,-22.146 -11.335,1.582 -18.982,7.648 -29.529,19.247 l -12.125,13.181 c 16.344,2.902 25.044,13.184 25.044,24.786 0,14.498 -12.39,25.571 -35.591,25.571 h -46.403 v -5.007 c 14.763,0 17.136,-3.164 17.136,-21.884 V 18.982 c 0,-18.718 -2.373,-22.146 -17.136,-22.146 v -5.007 h 52.466 v 5.007 c -14.763,0 -17.136,3.428 -17.136,22.146 v 9.491 h 4.481 l 29.264,-36.644 h 76.722 c 37.703,0 54.047,20.035 54.047,44.03 0,23.989 -16.344,43.762 -54.047,43.762"
       style="fill:#32373c;fill-opacity:1;fill-rule:nonzero;stroke:none"
       transform="matrix(0.1645358,0,0,-0.1645358,115.19425,142.91471)"
       clip-path="url(#clipPath2)" />
    <path
       id="path3"
       d="m 0,0 18.191,53.789 c 5.275,15.553 2.902,20.034 -13.972,20.034 v 5.275 h 49.567 v -5.275 c -16.61,0 -20.564,-3.954 -27.156,-23.201 L -3.428,-39.546 h -3.426 l -26.894,82.523 -27.417,-82.523 h -3.429 l -29.264,90.168 c -6.327,19.247 -10.546,23.201 -25.838,23.201 v 5.275 h 58.531 v -5.275 c -15.557,0 -19.776,-3.69 -14.237,-20.034 L -57.74,0 -31.111,79.098 h 5.011 z"
       style="fill:#32373c;fill-opacity:1;fill-rule:nonzero;stroke:none"
       transform="matrix(0.1645358,0,0,-0.1645358,66.91382,138.49012)"
       clip-path="url(#clipPath4)" />
    <path
       id="path5"
       d="m 0,0 c -24.254,0 -32.692,-21.881 -32.692,-39.017 0,-17.403 8.438,-39.022 32.692,-39.022 24.522,0 32.957,21.619 32.957,39.022 C 32.957,-21.881 24.522,0 0,0 m 0,-86.475 c -28.999,0 -52.73,21.355 -52.73,47.458 0,25.836 23.731,47.194 52.73,47.194 29.003,0 52.73,-21.358 52.73,-47.194 C 52.73,-65.12 29.003,-86.475 0,-86.475"
       style="fill:#32373c;fill-opacity:1;fill-rule:nonzero;stroke:none"
       transform="matrix(0.1645358,0,0,-0.1645358,81.662091,130.59496)"
       clip-path="url(#clipPath6)" />
    <path
       id="path7"
       d="M 0,0 H -15.027 V -45.876 H 0 c 14.766,0 21.619,10.281 21.619,22.672 C 21.619,-10.55 14.766,0 0,0 m 5.801,-99.397 v -5.272 h -60.374 v 5.272 c 17.665,0 20.828,4.481 20.828,30.848 v 42.181 C -33.745,0 -36.908,4.216 -54.573,4.216 V 9.491 H 0 c 27.156,0 42.187,-13.975 42.187,-32.695 0,-18.192 -15.031,-32.428 -42.187,-32.428 h -15.027 v -12.917 c 0,-26.367 3.163,-30.848 20.828,-30.848"
       style="fill:#32373c;fill-opacity:1;fill-rule:nonzero;stroke:none"
       transform="matrix(0.1645358,0,0,-0.1645358,133.71642,127.03728)"
       clip-path="url(#clipPath8)" />
    <path
       id="path9"
       d="M 0,0 V 35.062 H 10.808 C 22.672,35.062 27.947,26.891 27.947,17.4 27.947,8.171 22.672,0 10.808,0 Z m 139.728,-20.041 -1.317,-4.745 c -2.373,-8.7 -5.275,-11.864 -23.992,-11.864 h -3.693 c -13.708,0 -16.08,3.164 -16.08,21.884 V -2.64 c 20.563,0 22.145,-1.844 22.145,-15.554 h 5.011 V 21.09 h -5.011 c 0,-13.71 -1.582,-15.553 -22.145,-15.553 v 29.525 h 14.498 c 18.72,0 21.619,-3.164 23.992,-11.864 l 1.32,-5.007 h 4.216 l -1.843,24.78 H 59.316 v -5.007 c 14.763,0 17.135,-3.163 17.135,-21.884 v -33.748 c 0,-17.123 -2.016,-21.437 -13.655,-22.051 -11.064,1.688 -18.66,7.723 -29.051,19.152 L 21.616,-7.386 c 16.348,2.902 25.048,13.184 25.048,24.786 0,14.498 -12.39,25.571 -35.591,25.571 H -35.33 v -5.007 c 14.763,0 17.136,-3.163 17.136,-21.884 v -33.748 c 0,-18.717 -2.373,-22.146 -17.136,-22.146 v -5.007 h 52.465 v 5.007 C 2.373,-39.814 0,-36.385 0,-17.668 v 9.491 h 4.481 l 29.264,-36.644 h 108.356 l 1.581,24.78 z"
       style="fill:#32373c;fill-opacity:1;fill-rule:nonzero;stroke:none"
       transform="matrix(0.1645358,0,0,-0.1645358,147.46818,136.88447)"
       clip-path="url(#clipPath10)" />
    <path
       id="path11"
       d="M 0,0 C -10.547,0 -19.776,5.537 -23.73,8.965 -25.048,7.645 -27.42,3.69 -27.947,0 h -5.01 v 36.382 h 5.272 C -25.574,18.982 -13.448,8.7 2.108,8.7 c 8.436,0 15.293,4.746 15.293,12.655 0,6.854 -6.066,12.129 -16.875,17.136 l -15.027,7.118 c -10.547,5.013 -18.456,13.713 -18.456,25.312 0,12.655 11.864,23.463 28.212,23.463 8.7,0 16.08,-3.164 20.564,-6.853 1.317,1.055 2.634,3.957 3.428,7.121 h 5.007 V 63.538 h -5.536 c -1.847,12.393 -8.7,22.675 -22.672,22.675 -7.383,0 -14.24,-4.219 -14.24,-10.811 0,-6.853 5.537,-10.544 18.194,-16.345 L 14.498,51.939 C 27.156,45.877 32.163,36.118 32.163,28.209 32.163,11.599 17.662,0 0,0"
       style="fill:#32373c;fill-opacity:1;fill-rule:nonzero;stroke:none"
       transform="matrix(0.1645358,0,0,-0.1645358,179.26451,144.82321)"
       clip-path="url(#clipPath12)" />
    <path
       id="path13"
       d="M 0,0 C -10.547,0 -19.776,5.537 -23.73,8.965 -25.048,7.645 -27.421,3.69 -27.947,0 h -5.01 v 36.382 h 5.272 C -25.574,18.982 -13.449,8.7 2.108,8.7 c 8.436,0 15.292,4.746 15.292,12.655 0,6.854 -6.066,12.129 -16.874,17.136 l -15.027,7.118 c -10.547,5.013 -18.456,13.713 -18.456,25.312 0,12.655 11.864,23.463 28.212,23.463 8.7,0 16.079,-3.164 20.563,-6.853 1.318,1.055 2.635,3.957 3.426,7.121 h 5.01 V 63.538 h -5.537 c -1.846,12.393 -8.7,22.675 -22.672,22.675 -7.382,0 -14.239,-4.219 -14.239,-10.811 0,-6.853 5.536,-10.544 18.194,-16.345 L 14.498,51.939 C 27.156,45.877 32.163,36.118 32.163,28.209 32.163,11.599 17.662,0 0,0"
       style="fill:#32373c;fill-opacity:1;fill-rule:nonzero;stroke:none"
       transform="matrix(0.1645358,0,0,-0.1645358,192.38136,144.82321)"
       clip-path="url(#clipPath14)" />
    <path
       id="path15"
       d="m 0,0 c -65.525,0 -118.644,-53.119 -118.644,-118.644 0,-65.525 53.119,-118.644 118.644,-118.644 65.525,0 118.644,53.119 118.644,118.644 C 118.644,-53.119 65.525,0 0,0 m 0,-7.119 c 15.059,0 29.664,-2.947 43.409,-8.761 6.606,-2.794 12.979,-6.253 18.941,-10.281 5.907,-3.991 11.462,-8.574 16.51,-13.623 5.049,-5.048 9.632,-10.603 13.623,-16.51 4.028,-5.962 7.487,-12.335 10.281,-18.941 5.814,-13.745 8.761,-28.35 8.761,-43.409 0,-15.059 -2.947,-29.664 -8.761,-43.409 -2.794,-6.606 -6.253,-12.979 -10.281,-18.941 -3.991,-5.907 -8.574,-11.462 -13.623,-16.51 -5.048,-5.049 -10.603,-9.632 -16.51,-13.623 -5.962,-4.028 -12.335,-7.487 -18.941,-10.281 -13.745,-5.814 -28.35,-8.761 -43.409,-8.761 -15.059,0 -29.664,2.947 -43.408,8.761 -6.607,2.794 -12.98,6.253 -18.942,10.281 -5.907,3.991 -11.462,8.574 -16.51,13.623 -5.049,5.048 -9.632,10.603 -13.623,16.51 -4.027,5.962 -7.487,12.335 -10.281,18.941 -5.814,13.745 -8.761,28.35 -8.761,43.409 0,15.059 2.947,29.664 8.761,43.409 2.794,6.606 6.254,12.979 10.281,18.941 3.991,5.907 8.574,11.462 13.623,16.51 5.048,5.049 10.603,9.632 16.51,13.623 5.962,4.028 12.335,7.487 18.942,10.281 13.744,5.814 28.349,8.761 43.408,8.761"
       style="fill:#32373c;fill-opacity:1;fill-rule:nonzero;stroke:none"
       transform="matrix(0.1645358,0,0,-0.1645358,25.74616,115.32464)"
       clip-path="url(#clipPath16)" />
    <path
       id="path17"
       d="m 0,0 c 0.424,-3.149 0.665,-6.527 0.665,-10.166 0,-10.029 -1.879,-21.307 -7.521,-35.411 l -30.197,-87.31 c 29.394,17.137 49.161,48.982 49.161,85.456 C 12.108,-30.241 7.716,-14.081 0,0 m -85.025,-56.079 -29.669,-86.197 c 8.861,-2.606 18.228,-4.028 27.932,-4.028 11.514,0 22.559,1.987 32.835,5.605 -0.265,0.423 -0.509,0.872 -0.71,1.363 z m 65.009,13.635 c 0,12.223 -4.391,20.682 -8.151,27.266 -5.012,8.148 -9.712,15.041 -9.712,23.189 0,9.087 6.891,17.547 16.603,17.547 0.439,0 0.854,-0.053 1.28,-0.08 -17.59,16.117 -41.026,25.958 -66.766,25.958 -34.543,0 -64.929,-17.724 -82.609,-44.562 2.322,-0.073 4.509,-0.12 6.364,-0.12 10.339,0 26.351,1.257 26.351,1.257 5.327,0.312 5.957,-7.518 0.632,-8.148 0,0 -5.358,-0.627 -11.315,-0.939 l 36.003,-107.094 21.64,64.89 -15.403,42.204 c -5.327,0.312 -10.37,0.939 -10.37,0.939 -5.33,0.315 -4.705,8.46 0.627,8.148 0,0 16.324,-1.257 26.039,-1.257 10.339,0 26.354,1.257 26.354,1.257 5.329,0.312 5.956,-7.518 0.629,-8.148 0,0 -5.363,-0.627 -11.314,-0.939 l 35.73,-106.279 10.2,32.32 c 4.531,14.124 7.188,24.131 7.188,32.591 m -165.616,-4.987 c 0,-39.133 22.741,-72.954 55.725,-88.978 l -47.164,129.215 c -5.486,-12.295 -8.561,-25.902 -8.561,-40.237"
       style="fill:#32373c;fill-opacity:1;fill-rule:nonzero;stroke:none"
       transform="matrix(0.1645358,0,0,-0.1645358,40.021578,127.0412)"
       clip-path="url(#clipPath18)" />
  </g>
</svg>
