<?xml version="1.0" encoding="UTF-8" standalone="no"?>
<!-- Created with Inkscape (http://www.inkscape.org/) -->

<svg
   width="1022"
   height="400"
   viewBox="0 0 1022 400"
   version="1.1"
   id="svg1"
   xml:space="preserve"
   sodipodi:docname="astro-cloudflare-pages-workflow-orbit.svg"
   inkscape:export-filename="astro-cloudflare-pages-workflow-orbit.svg"
   inkscape:export-xdpi="96"
   inkscape:export-ydpi="96"
   inkscape:version="1.4 (e7c3feb100, 2024-10-09)"
   xmlns:inkscape="http://www.inkscape.org/namespaces/inkscape"
   xmlns:sodipodi="http://sodipodi.sourceforge.net/DTD/sodipodi-0.dtd"
   xmlns:xlink="http://www.w3.org/1999/xlink"
   xmlns="http://www.w3.org/2000/svg"
   xmlns:svg="http://www.w3.org/2000/svg"><sodipodi:namedview
     id="namedview1"
     pagecolor="#ffffff"
     bordercolor="#000000"
     borderopacity="0.25"
     inkscape:showpageshadow="2"
     inkscape:pageopacity="0.0"
     inkscape:pagecheckerboard="0"
     inkscape:deskcolor="#d1d1d1"
     inkscape:zoom="0.67123288"
     inkscape:cx="227.19388"
     inkscape:cy="189.94898"
     inkscape:window-width="1920"
     inkscape:window-height="1132"
     inkscape:window-x="0"
     inkscape:window-y="0"
     inkscape:window-maximized="1"
     inkscape:current-layer="svg1" /><defs
     id="defs1"><linearGradient
       id="swatch94"><stop
         style="stop-color:#000000;stop-opacity:1;"
         offset="0"
         id="stop94" /><stop
         style="stop-color:#00113b;stop-opacity:1;"
         offset="1"
         id="stop95" /></linearGradient><linearGradient
       id="linearGradient87"><stop
         style="stop-color:#000000;stop-opacity:0.0903125;"
         offset="0.26885396"
         id="stop86" /><stop
         style="stop-color:#000000;stop-opacity:0.76969868;"
         offset="1"
         id="stop87" /></linearGradient><linearGradient
       id="linearGradient84"><stop
         style="stop-color:#d162ff;stop-opacity:0.06754465;"
         offset="0"
         id="stop84" /><stop
         style="stop-color:#d162ff;stop-opacity:0;"
         offset="1"
         id="stop85" /></linearGradient><linearGradient
       id="linearGradient6"><stop
         style="stop-color:#381a00;stop-opacity:1;"
         offset="0"
         id="stop5" /><stop
         style="stop-color:#e09500;stop-opacity:1;"
         offset="1"
         id="stop6" /></linearGradient><linearGradient
       id="linearGradient1"><stop
         style="stop-color:#ff7a02;stop-opacity:1;"
         offset="0"
         id="stop3" /><stop
         style="stop-color:#e09500;stop-opacity:1;"
         offset="1"
         id="stop4" /></linearGradient><style
       id="style1">
      .cls-1 {
        fill: none;
      }

      .cls-2 {
        fill: url(#linear-gradient);
      }
    </style><linearGradient
       id="linear-gradient"
       x1="75.540001"
       y1="113"
       x2="75.540001"
       y2="143.14999"
       gradientUnits="userSpaceOnUse"><stop
         offset="0"
         stop-color="#ee46e0"
         id="stop1" /><stop
         offset="1"
         stop-color="#da3737"
         id="stop2" /></linearGradient><linearGradient
       xlink:href="#linearGradient1"
       id="linearGradient4"
       x1="92.06369"
       y1="493.35678"
       x2="677.61224"
       y2="493.35678"
       gradientUnits="userSpaceOnUse"
       gradientTransform="translate(2.8284271,-1.4142135)" /><linearGradient
       xlink:href="#linearGradient6"
       id="linearGradient5"
       gradientUnits="userSpaceOnUse"
       gradientTransform="matrix(0.7004759,-0.2352758,0.28374454,1.3099744,73.109418,35.700902)"
       x1="92.06369"
       y1="493.35678"
       x2="677.61224"
       y2="493.35678" /><radialGradient
       xlink:href="#linearGradient84"
       id="radialGradient85"
       cx="492.33273"
       cy="133.61086"
       fx="492.33273"
       fy="133.61086"
       r="667.32245"
       gradientTransform="matrix(0.20879876,-0.94422628,0.80741741,0.18821583,319.81559,770.37744)"
       gradientUnits="userSpaceOnUse" /><linearGradient
       xlink:href="#swatch94"
       id="linearGradient95"
       gradientUnits="userSpaceOnUse"
       x1="1"
       y1="200.25"
       x2="1022"
       y2="200.25" /><radialGradient
       xlink:href="#linearGradient87"
       id="radialGradient85-6-4"
       cx="629.90308"
       cy="-122.02279"
       fx="629.90308"
       fy="-122.02279"
       r="667.32245"
       gradientTransform="matrix(0.39418319,-0.92180963,0.85390369,0.34369486,114.49853,488.23856)"
       gradientUnits="userSpaceOnUse" /></defs><rect
     style="display:none;opacity:1;fill:url(#linearGradient95);fill-opacity:1;stroke-width:1.00773"
     id="rect5"
     width="1021"
     height="400.5"
     x="1"
     y="1.8384759e-08" /><path
     id="path84-3-5"
     style="display:inline;fill:url(#radialGradient85-6-4);fill-opacity:0.201108;stroke-width:0.987766"
     d="m 796.53822,-158.89804 c -231.14534,38.16301 23.5526,292.84269 -305.54383,521.73744 l -757.19396,-46.83847 c 17.44138,-164.5583 -201.2538,-360.319609 401.49473,-276.094132 510.37367,99.179722 245.75064,-229.543048 419.3315,-224.734518 232.7188,14.606 241.91156,25.92968 241.91156,25.92968 z" /><path
     id="path84"
     style="opacity:1;fill:url(#radialGradient85);stroke-width:0.920758"
     d="M 1162.4836,451.9532 C 1064.0882,906.88152 631.25269,765.90429 374.89592,1038.2141 L -43.041152,668.32569 C -52.580626,508.42945 -275.71561,357.4097 270.19059,339.12142 736.66054,350.22549 688.78873,240.04681 843.04958,216.22155 1051.1041,192.06568 1162.4836,451.9532 1162.4836,451.9532 Z" /><ellipse
     style="fill:url(#linearGradient4);fill-opacity:1;stroke:#000000;stroke-width:0;stroke-linecap:round;stroke-miterlimit:1.8;stroke-dasharray:none;stroke-dashoffset:6.42104;stroke-opacity:1;paint-order:fill markers stroke"
     id="path164"
     cx="387.66641"
     cy="491.94257"
     rx="292.77429"
     ry="296.91736" /><path
     id="path164-8"
     style="display:inline;opacity:0.105461;fill:url(#linearGradient5);stroke:#000000;stroke-width:0;stroke-linecap:round;stroke-miterlimit:1.8;stroke-dashoffset:6.42104;paint-order:fill markers stroke"
     d="m 423.41797,197.33789 a 398.98448,214.47074 80.383942 0 0 -25,5.15039 398.98448,214.47074 80.383942 0 0 -120.83203,457.83789 398.98448,214.47074 80.383942 0 0 36.80468,118.53711 292.77429,296.91736 0 0 0 73.2754,9.9961 A 292.77429,296.91736 0 0 0 680.33789,493.40234 398.98448,214.47074 80.383942 0 0 526.38477,230.49023 292.77429,296.91736 0 0 0 423.41797,197.33789 Z" /><g
     id="g7"
     transform="matrix(1.0187435,0,0,0.20346222,-35.815693,241.04483)"
     style="opacity:0.363563">
		<path
   style="fill:#dce8ef"
   d="m 486.42,85.24 c -0.84,2.82 -2.54,5.28 -4.84,7.05 0.17,3.1 -0.39,6.24 -1.68,9.14 -2.38,5.34 -6.99,9.36 -12.61,10.99 -5.61,1.63 -11.65,0.7 -16.52,-2.53 -1.1,-0.74 -2.12,-1.57 -3.05,-2.52 -2.34,3.32 -5.9,5.71 -10.03,6.53 -3.96,0.78 -7.97,0.05 -11.33,-1.93 -3.2,8.34 -10.32,14.69 -19.17,16.82 -8.92,2.16 -18.23,-0.31 -24.9,-6.38 -7.37,3.04 -15.67,3.4 -23.39,0.85 -6.41,-2.11 -11.96,-6.06 -16.02,-11.25 -2.95,2.17 -6.64,3.21 -10.39,2.82 -3.92,-0.41 -7.45,-2.34 -9.89,-5.26 -1.68,3.85 -4.75,6.98 -8.66,8.73 -4.27,1.92 -9.12,1.98 -13.39,0.22 -3.63,3.97 -8.61,6.56 -14.08,7.16 -5.98,0.66 -11.92,-1.1 -16.53,-4.81 -6.54,5.38 -15.73,6.66 -23.63,2.95 -6.29,-2.94 -10.66,-8.53 -12.22,-14.96 -5.15,2.55 -11.52,2.04 -16.27,-1.82 -4.05,-3.29 -5.96,-8.24 -5.52,-13.08 -1.59,-1.19 -2.88,-2.8 -3.68,-4.72 -0.71,-1.7 -0.99,-3.49 -0.86,-5.25 5.7,11.57 18.25,17.89 30.74,15.85 1.72,4.35 5.11,7.88 9.47,9.78 3.68,1.6 7.74,1.9 11.55,0.92 5.38,5.18 13.32,6.91 20.47,4.27 5.81,-2.16 10.13,-6.86 11.91,-12.54 4.57,2.91 10.08,4.13 15.54,3.32 5.53,-0.82 10.51,-3.63 14.03,-7.84 3.11,4.07 8.27,6.21 13.49,5.38 4.03,-0.64 7.48,-2.96 9.61,-6.22 6.88,7.9 17.62,11.49 28,9.13 8.7,-1.98 15.81,-7.83 19.52,-15.61 2.99,3.31 7.24,5.37 11.87,5.51 4.9,0.15 9.51,-1.85 12.74,-5.32 4.16,4.75 10.49,7.18 16.9,6.26 4.38,-0.62 8.29,-2.74 11.17,-5.84 2.28,2.39 5.25,4.05 8.55,4.73 4.64,0.95 9.45,-0.15 13.21,-3.01 3.77,-2.87 6.11,-7.22 6.43,-11.93 0.32,-4.72 -1.41,-9.34 -4.75,-12.69 2.72,-1.01 5.7,-1.14 8.54,-0.37 3.62,1 6.68,3.42 8.5,6.7 1.83,3.29 2.25,7.17 1.17,10.77 z"
   id="path1" />
		<path
   style="fill:#f9fbfc"
   d="m 472.96,80.83 c -0.32,4.71 -2.66,9.06 -6.43,11.93 -3.76,2.86 -8.57,3.96 -13.21,3.01 -3.3,-0.68 -6.27,-2.34 -8.55,-4.73 -2.88,3.1 -6.79,5.22 -11.17,5.84 -6.41,0.92 -12.74,-1.51 -16.9,-6.26 -3.23,3.47 -7.84,5.47 -12.74,5.32 -4.63,-0.14 -8.88,-2.2 -11.87,-5.51 -3.71,7.78 -10.82,13.63 -19.52,15.61 -10.38,2.36 -21.12,-1.23 -28,-9.13 -2.13,3.26 -5.58,5.58 -9.61,6.22 -5.22,0.83 -10.38,-1.31 -13.49,-5.38 -3.52,4.21 -8.5,7.02 -14.03,7.84 -5.46,0.81 -10.97,-0.41 -15.54,-3.32 -1.78,5.68 -6.1,10.38 -11.91,12.54 -7.15,2.64 -15.09,0.91 -20.47,-4.27 -3.81,0.98 -7.87,0.68 -11.55,-0.92 -4.36,-1.9 -7.75,-5.43 -9.47,-9.78 -12.49,2.04 -25.04,-4.28 -30.74,-15.85 -2.92,-0.08 -5.71,-1.38 -7.65,-3.67 -2.5,-2.94 -3.17,-7.03 -1.73,-10.62 1.44,-3.59 4.74,-6.08 8.58,-6.49 2.1,-0.22 4.16,0.2 5.95,1.15 1.81,-2.76 4.74,-4.67 8.1,-5.17 4.1,-0.61 8.2,0.99 10.8,4.16 3.74,-5.05 9.5,-8.38 15.92,-9 5.41,-0.52 10.72,0.94 15.04,3.95 1.73,-3.23 4.83,-5.64 8.6,-6.4 3.41,-0.68 6.84,0.09 9.57,1.96 1.45,-2.62 3.69,-4.78 6.47,-6.13 2.52,-1.23 5.29,-1.69 7.99,-1.41 4.82,-12.07 16.99,-19.95 30.37,-18.99 12.56,0.9 22.94,9.38 26.67,20.86 4.04,-2.69 9.08,-3.68 13.98,-2.58 4.64,1.05 8.59,3.86 11.12,7.71 2.15,-2.53 4.94,-4.5 8.13,-5.69 3.36,-1.26 6.95,-1.57 10.4,-0.97 4.52,-9.05 14.3,-14.8 24.93,-13.72 10.35,1.05 18.61,8.27 21.44,17.68 6,-1.09 12.29,0.33 17.31,4.1 4.44,3.34 7.4,8.15 8.46,13.42 3.34,3.35 5.07,7.97 4.75,12.69 z"
   id="path2-5" />
		<path
   style="fill:#dce8ef"
   d="m 286.694,96.977 c 1.224,1.263 2.375,2.034 3.531,2.528 1.153,0.49 2.275,0.689 3.396,0.68 1.121,-0.021 2.236,-0.243 3.377,-0.759 1.144,-0.519 2.277,-1.312 3.478,-2.601 0.431,1.728 -0.227,3.678 -1.538,5.076 -1.306,1.411 -3.281,2.274 -5.274,2.282 -1.993,0.03 -3.984,-0.788 -5.32,-2.17 -1.338,-1.368 -2.038,-3.3 -1.65,-5.036 z"
   id="path3-3" />
		<path
   style="fill:#dce8ef"
   d="m 438.385,87.565 c 1.224,1.264 2.374,2.034 3.532,2.528 1.153,0.49 2.275,0.689 3.396,0.68 1.121,-0.021 2.236,-0.243 3.377,-0.759 1.144,-0.519 2.277,-1.312 3.478,-2.601 0.431,1.729 -0.227,3.678 -1.538,5.076 -1.306,1.412 -3.281,2.274 -5.274,2.282 -1.993,0.03 -3.984,-0.788 -5.32,-2.17 -1.338,-1.368 -2.038,-3.299 -1.651,-5.036 z"
   id="path4" />
		<path
   style="fill:#dce8ef"
   d="m 371.66,76.658 c 2.44,4.058 5.5,7.163 9.035,9.247 3.524,2.086 7.452,3.117 11.38,3.075 3.927,-0.052 7.828,-1.169 11.304,-3.331 3.486,-2.161 6.477,-5.328 8.835,-9.437 0.09,4.769 -2.188,9.671 -5.924,13.149 -3.723,3.507 -8.914,5.583 -14.149,5.616 -5.235,0.074 -10.467,-1.887 -14.265,-5.31 -3.808,-3.395 -6.194,-8.241 -6.216,-13.009 z"
   id="path5" />
		<path
   style="fill:#dce8ef"
   d="m 333.563,87.68 c 1.944,2.279 3.906,3.781 5.961,4.76 2.048,0.975 4.13,1.404 6.21,1.385 2.08,-0.035 4.149,-0.508 6.173,-1.527 2.031,-1.025 3.959,-2.565 5.86,-4.884 0.548,2.979 -0.669,6.255 -2.949,8.597 -2.272,2.364 -5.63,3.797 -9.019,3.813 -3.388,0.051 -6.773,-1.307 -9.096,-3.62 -2.326,-2.292 -3.614,-5.535 -3.14,-8.524 z"
   id="path6" />
		<path
   style="fill:#dce8ef"
   d="m 251.834,97.592 c -1.23,2.097 -3.319,3.668 -5.681,4.552 -2.371,0.882 -5.044,1.062 -7.561,0.513 -2.52,-0.54 -4.878,-1.813 -6.67,-3.6 -1.784,-1.784 -3.032,-4.084 -3.276,-6.504 1.744,1.673 3.424,3.006 5.22,4.031 1.785,1.027 3.648,1.74 5.575,2.165 1.929,0.419 3.921,0.543 5.972,0.349 2.061,-0.186 4.143,-0.703 6.421,-1.506 z"
   id="path7" />
	</g><g
     id="g13"
     transform="matrix(0.73708104,0,0,0.31260288,46.843872,270.75391)"
     style="opacity:0.301738">
		<path
   style="opacity:0.641871;fill:#dce8ef"
   d="m 476.25,206.76 c -1.59,1.73 -3.74,2.75 -5.99,2.93 -0.94,3.05 -2.93,5.75 -5.71,7.55 -3.48,2.26 -7.72,2.82 -11.58,1.65 -2.91,3.24 -6.96,5.38 -11.46,5.87 -5.1,0.54 -10.07,-1.12 -13.78,-4.39 -1.17,1.7 -2.65,3.19 -4.39,4.4 -1.92,1.33 -4.07,2.23 -6.29,2.7 -0.37,4.85 -2.32,9.57 -5.74,13.35 -5.55,6.14 -13.97,8.65 -21.85,6.77 -2.38,3.59 -6.2,6.09 -10.6,6.76 -5.5,0.84 -10.98,-1.31 -14.43,-5.55 -4.87,3.93 -11.26,5.59 -17.52,4.4 -7.41,-1.4 -13.53,-6.54 -16.19,-13.56 -6.57,4.06 -14.22,6.22 -22.09,6.11 -10.89,-0.16 -21.25,-4.66 -28.8,-12.47 -2.9,1.9 -6.38,2.88 -9.96,2.67 -4.2,-0.24 -8.06,-2.08 -10.88,-5.01 -2.56,0.47 -5.24,0.07 -7.61,-1.23 -3.93,-2.16 -6.27,-6.4 -5.98,-10.88 0.05,-0.82 0.19,-1.61 0.4,-2.38 0.8,2.93 2.74,5.49 5.46,7.04 3.28,1.86 7.2,2.02 10.56,0.5 2.42,3.2 6.26,5.05 10.31,4.91 3.5,-0.13 6.74,-1.72 8.97,-4.31 4,5.2 10.71,7.66 17.19,6.18 5.36,-1.22 9.7,-4.93 11.81,-9.81 2.14,3.5 5.93,5.79 10.18,5.93 3.72,0.13 7.2,-1.4 9.61,-4.02 4.68,5.07 12.31,6.62 18.75,3.4 5.41,-2.7 8.64,-8.09 8.78,-13.79 5.88,8.26 16.09,12.62 26.37,10.81 10.45,-1.84 18.65,-9.64 21.21,-19.64 2.68,3.5 7.02,5.45 11.54,5.01 4.42,-0.43 8.23,-3.07 10.23,-6.87 1.94,2.89 5.05,4.83 8.58,5.27 2.86,0.36 5.71,-0.3 8.08,-1.81 1.97,1.96 4.77,2.92 7.59,2.51 2.17,-0.31 4.11,-1.4 5.49,-3.01 2.18,1.45 4.89,1.93 7.46,1.26 1.94,-0.51 3.64,-1.63 4.86,-3.15 1.19,0.27 2.45,0.19 3.62,-0.23 1.74,-0.64 3.13,-1.99 3.8,-3.72 0.57,-1.45 0.58,-3.04 0.07,-4.49 0.57,0.63 1.06,1.35 1.44,2.15 1.63,3.38 1.03,7.42 -1.51,10.19 z"
   id="path8" />
		<path
   style="fill:#f9fbfc"
   d="m 476.25,198.91 c -0.67,1.73 -2.06,3.08 -3.8,3.72 -1.17,0.42 -2.43,0.5 -3.62,0.23 -1.22,1.52 -2.92,2.64 -4.86,3.15 -2.57,0.67 -5.28,0.19 -7.46,-1.26 -1.38,1.61 -3.32,2.7 -5.49,3.01 -2.82,0.41 -5.62,-0.55 -7.59,-2.51 -2.37,1.51 -5.22,2.17 -8.08,1.81 -3.53,-0.44 -6.64,-2.38 -8.58,-5.27 -2,3.8 -5.81,6.44 -10.23,6.87 -4.52,0.44 -8.86,-1.51 -11.54,-5.01 -2.56,10 -10.76,17.8 -21.21,19.64 -10.28,1.81 -20.49,-2.55 -26.37,-10.81 -0.14,5.7 -3.37,11.09 -8.78,13.79 -6.44,3.22 -14.07,1.67 -18.75,-3.4 -2.41,2.62 -5.89,4.15 -9.61,4.02 -4.25,-0.14 -8.04,-2.43 -10.18,-5.93 -2.11,4.88 -6.45,8.59 -11.81,9.81 -6.48,1.48 -13.19,-0.98 -17.19,-6.18 -2.23,2.59 -5.47,4.18 -8.97,4.31 -4.05,0.14 -7.89,-1.71 -10.31,-4.91 -3.36,1.52 -7.28,1.36 -10.56,-0.5 -2.72,-1.55 -4.66,-4.11 -5.46,-7.04 0.96,-3.45 3.5,-6.31 6.92,-7.65 3.71,-1.46 7.87,-0.9 11.03,1.41 1.09,-3.66 3.91,-6.69 7.72,-7.96 1.62,-0.54 3.28,-0.71 4.89,-0.55 0.34,-6.74 4.24,-13 10.54,-16.19 5.09,-2.57 10.87,-2.68 15.88,-0.67 0.7,-2.99 2.43,-5.69 4.98,-7.57 1.85,-1.37 3.99,-2.2 6.19,-2.47 1.37,-14.48 12.39,-26.56 27.18,-28.91 12.86,-2.03 25.28,3.82 32.09,14.17 5.78,-3.63 13.1,-4.27 19.55,-1.43 5.04,2.22 8.87,6.27 10.89,11.14 6.19,-2 12.95,-1.82 19.13,0.64 6.67,2.67 12.02,7.75 15.04,14.12 3.15,-0.82 6.55,-0.59 9.66,0.76 3.84,1.68 6.73,4.86 8.07,8.68 2.45,-0.66 5.03,-0.64 7.47,0.06 1.53,-1.52 3.58,-2.48 5.82,-2.64 2.87,-0.2 5.6,0.95 7.46,3.02 l 0.01,0.01 c 0.51,1.45 0.5,3.04 -0.07,4.49 z"
   id="path9" />
		<path
   style="fill:#dce8ef"
   d="m 304.05,217.264 c 1.023,1.323 2.116,2.239 3.297,2.842 1.176,0.602 2.406,0.878 3.637,0.866 1.23,-0.019 2.453,-0.322 3.614,-0.949 1.165,-0.629 2.239,-1.566 3.236,-2.91 0.226,1.673 -0.491,3.479 -1.78,4.766 -1.285,1.3 -3.153,2.082 -5.037,2.092 -1.884,0.028 -3.766,-0.713 -5.079,-1.984 -1.317,-1.259 -2.074,-3.046 -1.888,-4.723 z"
   id="path10-5" />
		<path
   style="fill:#dce8ef"
   d="m 398.298,199.744 c 1.022,1.323 2.116,2.239 3.297,2.842 1.176,0.602 2.406,0.878 3.637,0.866 1.23,-0.019 2.453,-0.322 3.614,-0.949 1.165,-0.629 2.239,-1.566 3.236,-2.91 0.227,1.673 -0.491,3.479 -1.78,4.767 -1.285,1.299 -3.153,2.082 -5.037,2.092 -1.884,0.028 -3.766,-0.713 -5.079,-1.984 -1.317,-1.261 -2.074,-3.047 -1.888,-4.724 z"
   id="path11" />
		<path
   style="fill:#dce8ef"
   d="m 436.451,201.162 c 1.022,1.323 2.116,2.239 3.297,2.842 1.176,0.602 2.407,0.878 3.637,0.866 1.23,-0.019 2.453,-0.322 3.614,-0.949 1.165,-0.629 2.239,-1.566 3.236,-2.91 0.226,1.673 -0.491,3.479 -1.78,4.767 -1.285,1.299 -3.153,2.082 -5.037,2.092 -1.884,0.028 -3.766,-0.713 -5.079,-1.984 -1.317,-1.26 -2.074,-3.047 -1.888,-4.724 z"
   id="path12-6" />
		<path
   style="fill:#dce8ef"
   d="m 342.063,203.308 c 2.132,2.952 4.509,5.061 7.124,6.458 2.606,1.396 5.387,2.052 8.166,2.024 2.779,-0.042 5.541,-0.758 8.115,-2.21 2.581,-1.455 4.912,-3.61 6.985,-6.607 0.375,3.656 -1.243,7.548 -4.074,10.319 -2.821,2.796 -6.873,4.473 -10.96,4.495 -4.086,0.059 -8.171,-1.526 -11.051,-4.259 -2.889,-2.708 -4.592,-6.558 -4.305,-10.22 z"
   id="path13" />
	</g><g
     id="g18"
     transform="matrix(2.1307609,0,0,0.53389287,3.9265935,141.8487)"
     style="opacity:0.736609">
		<path
   style="opacity:0.68623;fill:#dce8ef"
   d="m 257.02,178.06 c -2.01,4.1 -6.16,6.73 -10.73,6.78 -3.35,0.04 -6.51,-1.3 -8.78,-3.63 -2.01,2.51 -5.23,3.87 -8.54,3.45 -2.95,-0.37 -5.49,-2.09 -6.95,-4.54 -5.13,2.47 -11.14,2.69 -16.53,0.47 -0.41,-0.17 -0.81,-0.35 -1.2,-0.54 -3.84,2.55 -8.37,4.04 -13.15,4.17 -8.51,0.23 -16.49,-3.89 -21.25,-10.81 -2.48,2.34 -6.02,3.33 -9.43,2.46 -4.29,-1.09 -7.36,-4.85 -7.58,-9.27 -0.07,-1.47 0.18,-2.9 0.7,-4.2 0.57,2.4 2.26,4.43 4.63,5.4 2.66,1.09 5.66,0.62 7.84,-1.12 2.39,2.28 5.51,3.67 8.83,3.9 3.12,0.22 6.2,-0.59 8.78,-2.28 4.17,3.14 9.57,4.28 14.71,3.04 4.5,-1.09 8.34,-3.89 10.74,-7.73 1.66,3.1 4.85,5.14 8.43,5.29 2.54,0.11 4.96,-0.76 6.83,-2.33 0.57,2.31 2.35,4.22 4.76,4.85 1.98,0.52 4.03,0.09 5.59,-1.07 1.1,1.46 2.66,2.53 4.45,3.02 2.18,0.6 4.5,0.29 6.45,-0.86 1.95,-1.14 3.35,-3.02 3.88,-5.22 0.54,-2.19 0.17,-4.51 -1.03,-6.42 2.86,0.55 5.48,2.14 7.31,4.55 2.76,3.64 3.24,8.53 1.24,12.64 z"
   id="path14-2" />
		<path
   style="opacity:0.520705;fill:#f9fbfc"
   d="m 249.5,167.29 c -0.53,2.2 -1.93,4.08 -3.88,5.22 -1.95,1.15 -4.27,1.46 -6.45,0.86 -1.79,-0.49 -3.35,-1.56 -4.45,-3.02 -1.56,1.16 -3.61,1.59 -5.59,1.07 -2.41,-0.63 -4.19,-2.54 -4.76,-4.85 -1.87,1.57 -4.29,2.44 -6.83,2.33 -3.58,-0.15 -6.77,-2.19 -8.43,-5.29 -2.4,3.84 -6.24,6.64 -10.74,7.73 -5.14,1.24 -10.54,0.1 -14.71,-3.04 -2.58,1.69 -5.66,2.5 -8.78,2.28 -3.32,-0.23 -6.44,-1.62 -8.83,-3.9 -2.18,1.74 -5.18,2.21 -7.84,1.12 -2.37,-0.97 -4.06,-3 -4.63,-5.4 1.04,-2.63 3.16,-4.77 5.94,-5.77 1.87,-0.67 3.83,-0.76 5.67,-0.34 0.23,-0.82 0.58,-1.61 1.05,-2.33 1.25,-1.94 3.22,-3.31 5.49,-3.78 2.03,-0.42 4.14,-0.09 5.93,0.9 1.64,-4.32 4.92,-7.92 9.25,-9.93 4.78,-2.23 10.23,-2.22 14.93,-0.13 2.76,-4.18 7.76,-6.59 12.99,-5.83 5.54,0.8 9.83,4.94 11.03,10.15 5.19,-1.57 10.87,-0.67 15.35,2.56 4.26,3.06 6.88,7.84 7.26,12.97 1.2,1.91 1.57,4.23 1.03,6.42 z"
   id="path15" />
		<path
   style="opacity:0.479504;fill:#dce8ef"
   d="m 176.723,164.178 c 1.022,1.323 2.116,2.239 3.297,2.842 1.176,0.602 2.406,0.878 3.637,0.866 1.23,-0.019 2.453,-0.322 3.614,-0.949 1.165,-0.629 2.239,-1.566 3.236,-2.91 0.227,1.673 -0.491,3.479 -1.78,4.766 -1.285,1.299 -3.153,2.082 -5.037,2.092 -1.884,0.028 -3.766,-0.713 -5.079,-1.984 -1.317,-1.26 -2.073,-3.046 -1.888,-4.723 z"
   id="path16-9" />
		<path
   style="opacity:0.479504;fill:#dce8ef"
   d="m 230.578,166.163 c 1.023,1.323 2.116,2.239 3.297,2.842 1.176,0.602 2.406,0.878 3.637,0.866 1.23,-0.019 2.453,-0.322 3.614,-0.949 1.165,-0.629 2.239,-1.566 3.236,-2.91 0.226,1.673 -0.491,3.479 -1.78,4.766 -1.285,1.299 -3.153,2.082 -5.037,2.092 -1.884,0.028 -3.766,-0.713 -5.079,-1.984 -1.317,-1.26 -2.074,-3.047 -1.888,-4.723 z"
   id="path17" />
		<path
   style="opacity:0.479504;fill:#dce8ef"
   d="m 221.563,158.085 c -0.815,2.29 -2.572,4.226 -4.727,5.537 -2.163,1.312 -4.755,1.989 -7.331,1.922 -2.576,-0.057 -5.132,-0.866 -7.227,-2.285 -2.087,-1.418 -3.745,-3.442 -4.438,-5.774 2.027,1.316 3.927,2.31 5.883,2.98 1.946,0.674 3.909,1.025 5.882,1.081 1.974,0.05 3.954,-0.202 5.932,-0.777 1.991,-0.57 3.939,-1.469 6.026,-2.684 z"
   id="path18-1" />
	</g><g
     id="g32"
     transform="matrix(0.68686561,0,0,0.14696442,378.4935,332.50131)"
     style="opacity:0.577434">
		<path
   style="opacity:0.532657;fill:#dce8ef"
   d="m 174.01,108.65 c -2.8,4.25 -7.42,6.96 -12.49,7.34 -2.92,0.21 -5.81,-0.36 -8.37,-1.61 -0.82,1.36 -1.84,2.63 -3.06,3.75 -3.92,3.6 -9.12,5.03 -14.06,4.26 -0.18,0.79 -0.42,1.57 -0.71,2.34 -1.94,5.14 -6,9.21 -11.14,11.17 -5.14,1.96 -10.88,1.62 -15.75,-0.93 -4.19,-2.2 -7.41,-5.85 -9.06,-10.24 -14.03,2.53 -28.4,-4.43 -34.93,-17.52 -5.1,2.77 -11.12,3.64 -16.95,2.28 -7.52,-1.77 -13.67,-6.99 -16.65,-13.97 -1.43,-0.29 -2.8,-0.92 -3.98,-1.84 -2.29,-1.79 -3.64,-4.51 -3.69,-7.41 -0.05,-2.9 1.21,-5.67 3.43,-7.54 1.76,-1.47 3.98,-2.26 6.24,-2.25 -2.75,2.99 -2.79,7.57 -0.09,10.6 0.83,0.93 1.83,1.62 2.92,2.05 0.75,6.38 5.12,11.86 11.34,13.93 5.92,1.96 12.33,0.45 16.74,-3.71 3.36,3.52 7.85,5.82 12.74,6.48 4.43,0.6 8.9,-0.18 12.83,-2.19 0.55,4.82 3.82,8.99 8.52,10.6 4.45,1.53 9.31,0.46 12.7,-2.63 4.61,3.49 10.66,4.64 16.32,2.96 5.27,-1.56 9.48,-5.37 11.61,-10.28 4.04,2.41 9,2.88 13.47,1.18 2.66,-1 4.94,-2.7 6.65,-4.84 3.81,1.36 8.08,0.18 10.66,-2.97 2.67,-3.26 2.91,-7.86 0.61,-11.38 2.75,1.96 4.85,4.74 5.97,8.01 1.66,4.81 0.98,10.12 -1.82,14.36 z"
   id="path28" />
		<path
   style="opacity:0.317202;fill:#f9fbfc"
   d="m 169.25,97.66 c -2.58,3.15 -6.85,4.33 -10.66,2.97 -1.71,2.14 -3.99,3.84 -6.65,4.84 -4.47,1.7 -9.43,1.23 -13.47,-1.18 -2.13,4.91 -6.34,8.72 -11.61,10.28 -5.66,1.68 -11.71,0.53 -16.32,-2.96 -3.39,3.09 -8.25,4.16 -12.7,2.63 -4.7,-1.61 -7.97,-5.78 -8.52,-10.6 -3.93,2.01 -8.4,2.79 -12.83,2.19 -4.89,-0.66 -9.38,-2.96 -12.74,-6.48 -4.41,4.16 -10.82,5.67 -16.74,3.71 -6.22,-2.07 -10.59,-7.55 -11.34,-13.93 -1.09,-0.43 -2.09,-1.12 -2.92,-2.05 -2.7,-3.03 -2.66,-7.61 0.09,-10.6 1.76,-4.12 5.36,-7.29 9.85,-8.43 2.78,-0.7 5.64,-0.56 8.24,0.32 3.16,-6.7 9.2,-11.73 16.58,-13.56 3.52,-0.87 7.1,-0.95 10.54,-0.3 4.41,-12.36 16.43,-20.68 29.89,-20.11 11.65,0.48 21.67,7.51 26.34,17.63 4.06,-0.66 8.27,0.07 11.92,2.17 3.76,2.16 6.57,5.56 8.02,9.55 6.19,-0.19 12.1,3.17 15.03,8.86 2.25,4.36 2.37,9.35 0.61,13.67 2.3,3.52 2.06,8.12 -0.61,11.38 z"
   id="path29" />
		<path
   style="opacity:0.367895;fill:#dce8ef"
   d="m 151.089,95.285 c 1.225,1.263 2.375,2.034 3.532,2.528 1.153,0.491 2.275,0.689 3.396,0.68 1.121,-0.021 2.236,-0.243 3.377,-0.759 1.144,-0.519 2.277,-1.312 3.478,-2.601 0.431,1.729 -0.227,3.678 -1.538,5.076 -1.306,1.411 -3.281,2.274 -5.274,2.282 -1.993,0.03 -3.984,-0.788 -5.32,-2.17 -1.338,-1.368 -2.038,-3.3 -1.651,-5.036 z"
   id="path30" />
		<path
   style="opacity:0.367895;fill:#dce8ef"
   d="m 77.214,93.632 c -0.815,2.29 -2.572,4.226 -4.727,5.537 -2.163,1.312 -4.755,1.989 -7.33,1.922 -2.576,-0.057 -5.132,-0.866 -7.227,-2.285 -2.087,-1.418 -3.745,-3.442 -4.438,-5.774 2.027,1.316 3.927,2.31 5.883,2.98 1.946,0.674 3.909,1.025 5.882,1.081 1.974,0.05 3.954,-0.202 5.932,-0.777 1.99,-0.57 3.938,-1.468 6.025,-2.684 z"
   id="path31" />
		<path
   style="opacity:0.367895;fill:#dce8ef"
   d="m 98.382,102.793 c 1.879,3.121 4.28,5.176 6.89,6.275 2.599,1.101 5.348,1.266 7.865,0.578 2.516,-0.677 4.817,-2.189 6.505,-4.45 1.703,-2.257 2.761,-5.236 2.821,-8.88 2.365,2.827 2.895,7.274 1.354,11.077 -0.733,1.921 -1.997,3.657 -3.562,5.067 -1.587,1.387 -3.502,2.429 -5.56,2.977 -4.112,1.148 -8.715,0.18 -11.922,-2.389 -3.242,-2.519 -5.003,-6.627 -4.391,-10.255 z"
   id="path32" />
	</g><g
     id="g37"
     transform="matrix(1.2441077,0,0,0.36794125,313.24082,222.09549)"
     style="opacity:0.507547">
		<path
   style="fill:#dce8ef"
   d="m 253.39,450.92 c -0.32,2.59 -1.74,4.93 -3.9,6.4 -2.16,1.47 -4.86,1.93 -7.39,1.27 -2.1,-0.55 -3.92,-1.84 -5.14,-3.6 -1.04,1.25 -2.53,2.11 -4.23,2.37 -2.54,0.38 -5.02,-0.66 -6.52,-2.62 -1.91,2.99 -5.18,4.99 -8.9,5.22 -3.95,0.25 -7.64,-1.56 -9.89,-4.6 -2.93,3.19 -7.05,5.22 -11.59,5.47 -5.79,0.32 -11.21,-2.32 -14.55,-6.81 -1.62,2.22 -3.88,3.98 -6.58,5 -4.68,1.77 -9.84,0.97 -13.72,-1.91 -2.41,5.46 -7.14,9.76 -13.17,11.47 -8,2.28 -16.48,-0.52 -21.59,-6.84 -2.11,1.8 -4.68,3.05 -7.49,3.59 -3.96,0.76 -8.01,0.02 -11.41,-2.01 -3.31,2.61 -7.47,3.99 -11.74,3.84 -4.11,-0.14 -8.01,-1.68 -11.08,-4.32 -3.66,2.17 -7.98,3.03 -12.25,2.4 -3.43,-0.51 -6.61,-1.95 -9.22,-4.12 -2.43,1.61 -5.55,1.96 -8.33,0.83 -3.36,-1.37 -5.57,-4.64 -5.58,-8.28 0,-0.32 0.02,-0.64 0.06,-0.95 1.07,2.23 3.27,3.79 5.85,3.99 1.98,0.15 3.86,-0.54 5.26,-1.79 2.8,1.77 6.32,2.16 9.51,0.95 3.44,-1.31 5.94,-4.28 6.67,-7.82 2.76,1.77 6.3,2.12 9.45,0.75 3.83,-1.69 6.18,-5.55 5.98,-9.66 2.54,0.28 5.13,-0.24 7.39,-1.49 2.45,-1.36 4.37,-3.5 5.45,-6.05 2.26,6.55 8.72,10.92 15.84,10.34 5.19,-0.42 9.61,-3.38 12.08,-7.6 1.8,2.49 4.58,4.21 7.8,4.61 3.43,0.43 6.75,-0.71 9.16,-2.95 2.87,5.37 8.89,8.48 15.08,7.52 4.18,-0.65 7.72,-3.04 9.92,-6.36 2.64,3.36 6.67,5.45 11.07,5.61 3.77,0.13 7.38,-1.18 10.15,-3.56 2.66,5.33 7.76,9.11 13.73,10.05 5.25,0.82 10.53,-0.64 14.57,-3.9 4.34,3.48 10.29,4.04 15.17,1.56 1.25,1.75 3.22,2.93 5.45,3.12 3.25,0.28 6.31,-1.59 7.55,-4.61 0.93,1.65 1.32,3.57 1.08,5.49 z"
   id="path33" />
		<path
   style="opacity:0.592512;fill:#f9fbfc"
   d="m 252.31,445.43 c -1.24,3.02 -4.3,4.89 -7.55,4.61 -2.23,-0.19 -4.2,-1.37 -5.45,-3.12 -4.88,2.48 -10.83,1.92 -15.17,-1.56 -4.04,3.26 -9.32,4.72 -14.57,3.9 -5.97,-0.94 -11.07,-4.72 -13.73,-10.05 -2.77,2.38 -6.38,3.69 -10.15,3.56 -4.4,-0.16 -8.43,-2.25 -11.07,-5.61 -2.2,3.32 -5.74,5.71 -9.92,6.36 -6.19,0.96 -12.21,-2.15 -15.08,-7.52 -2.41,2.24 -5.73,3.38 -9.16,2.95 -3.22,-0.4 -6,-2.12 -7.8,-4.61 -2.47,4.22 -6.89,7.18 -12.08,7.6 -7.12,0.58 -13.58,-3.79 -15.84,-10.34 -1.08,2.55 -3,4.69 -5.45,6.05 -2.26,1.25 -4.85,1.77 -7.39,1.49 0.2,4.11 -2.15,7.97 -5.98,9.66 -3.15,1.37 -6.69,1.02 -9.45,-0.75 -0.73,3.54 -3.23,6.51 -6.67,7.82 -3.19,1.21 -6.71,0.82 -9.51,-0.95 -1.4,1.25 -3.28,1.94 -5.26,1.79 -2.58,-0.2 -4.78,-1.76 -5.85,-3.99 0.33,-3.24 2.42,-6.08 5.48,-7.35 1.57,-0.65 3.26,-0.83 4.87,-0.56 0.11,-1.15 0.52,-2.29 1.24,-3.28 1.83,-2.53 5.09,-3.44 7.91,-2.37 1,-1.65 2.39,-3.07 4.08,-4.11 2.62,-1.6 5.71,-2.14 8.66,-1.57 0.27,-1.99 1.25,-3.87 2.84,-5.26 0.93,-0.81 2.01,-1.39 3.14,-1.73 -0.21,-7.67 3.54,-15.05 10.12,-19.37 4.28,-2.81 9.26,-4.01 14.14,-3.61 0.05,-5.06 1.77,-10.01 4.97,-14.03 4.09,-5.15 10.2,-8.29 16.76,-8.63 6.57,-0.33 12.96,2.17 17.56,6.87 3.08,3.14 5.15,7.07 6.03,11.29 5.4,-1.06 11.08,-0.19 15.99,2.6 4.86,2.76 8.5,7.13 10.36,12.25 3.75,-1.71 8.12,-1.85 12.1,-0.21 4.02,1.66 7.02,4.9 8.45,8.8 5.99,-3.38 13.14,-4.37 19.96,-2.59 7.87,2.05 14.31,7.53 17.65,14.82 3.22,-1.21 6.97,-0.34 9.32,2.41 2.03,2.38 2.5,5.58 1.5,8.34 z"
   id="path34" />
		<path
   style="fill:#dce8ef"
   d="m 97.356,427.708 c 1.022,1.323 2.116,2.239 3.297,2.841 1.176,0.602 2.407,0.878 3.637,0.866 1.23,-0.019 2.453,-0.322 3.614,-0.949 1.165,-0.629 2.239,-1.566 3.236,-2.91 0.226,1.673 -0.491,3.478 -1.78,4.766 -1.285,1.299 -3.153,2.082 -5.037,2.092 -1.884,0.028 -3.766,-0.713 -5.079,-1.984 -1.317,-1.259 -2.074,-3.046 -1.888,-4.722 z"
   id="path35" />
		<path
   style="fill:#dce8ef"
   d="m 164.564,430.073 c -1.059,2.585 -3.127,4.759 -5.631,6.229 -2.512,1.47 -5.488,2.226 -8.446,2.149 -2.959,-0.067 -5.895,-0.973 -8.329,-2.568 -2.428,-1.594 -4.384,-3.872 -5.307,-6.51 2.256,1.623 4.456,2.871 6.752,3.717 2.286,0.85 4.629,1.299 6.985,1.364 2.356,0.06 4.721,-0.271 7.048,-1.004 2.337,-0.729 4.597,-1.867 6.928,-3.377 z"
   id="path36" />
		<path
   style="fill:#dce8ef"
   d="m 181.125,427.775 c 2.543,3.128 5.267,5.509 8.29,7.158 2.989,1.677 6.222,2.577 9.484,2.813 3.264,0.192 6.583,-0.287 9.771,-1.541 3.202,-1.248 6.228,-3.236 9.161,-6.002 -0.729,3.998 -3.344,7.681 -6.885,10.135 -3.543,2.473 -8.039,3.688 -12.444,3.394 -4.401,-0.302 -8.702,-2.084 -11.88,-5.015 -3.191,-2.889 -5.288,-6.891 -5.497,-10.942 z"
   id="path37" />
	</g><g
     id="g44"
     transform="matrix(0.7615652,0,0,0.20158259,44.184719,234.87289)"
     style="opacity:0.539038">
		<path
   style="fill:#dce8ef"
   d="m 473.17,328.72 c -0.36,6.52 -5.02,12 -11.4,13.42 -5.29,1.18 -10.7,-0.69 -14.15,-4.66 -1.88,1.78 -4.25,3.05 -6.9,3.57 -4.17,0.83 -8.42,-0.28 -11.62,-2.88 -3.47,4.01 -8.33,6.71 -13.74,7.47 -6.51,0.92 -13.01,-1.08 -17.84,-5.34 -1.83,1.94 -4.19,3.37 -6.87,4.07 -4.47,1.18 -9.19,0.14 -12.73,-2.69 -3.13,4.28 -7.91,7.22 -13.35,7.96 -4.23,0.57 -8.44,-0.24 -12.06,-2.19 -2.57,2.86 -5.99,4.93 -9.87,5.82 -5.05,1.17 -10.29,0.22 -14.56,-2.5 -3.29,6.04 -8.33,11.05 -14.58,14.29 -8.39,4.35 -18.14,5.09 -27.02,2.13 -4.4,6.77 -11.43,11.6 -19.61,13.14 -9.51,1.79 -19.18,-1.13 -26.08,-7.62 -9.28,7.29 -21.37,10.33 -33.21,8.06 -12.08,-2.32 -22.37,-9.9 -28.22,-20.47 -5.98,3.21 -12.86,4.63 -19.82,3.91 -8.42,-0.87 -16.09,-4.79 -21.7,-10.85 -2.63,2.8 -6.25,4.57 -10.2,4.84 -5.69,0.4 -11.14,-2.38 -14.16,-7.21 -2.34,-3.75 -2.93,-8.25 -1.75,-12.39 1.76,5.06 6.18,8.81 11.59,9.65 5.39,0.83 10.72,-1.42 13.92,-5.68 2.38,4.02 6.69,6.6 11.47,6.74 4.47,0.12 8.64,-1.92 11.3,-5.35 2.72,2.94 6.89,4.28 10.95,3.27 3.37,-0.84 6.04,-3.15 7.43,-6.12 7.93,10.96 21.9,16.18 35.33,12.71 11.6,-3 20.42,-11.87 23.65,-22.89 2.99,7.21 9.88,12.41 18.11,12.92 9.25,0.57 17.55,-4.95 20.82,-13.21 2.91,9.69 11.52,16.68 21.75,17.43 9.4,0.68 18.21,-4.06 22.9,-11.95 3.3,5.01 9.07,7.95 15.18,7.55 5.92,-0.4 11.11,-3.86 13.8,-8.97 3.49,3.24 8.33,4.71 13.11,3.87 4.38,-0.77 8.16,-3.37 10.43,-7.05 3.18,3.24 8.07,4.35 12.43,2.61 4.18,-1.66 6.91,-5.56 7.2,-9.88 9.95,7.94 24.03,8.24 34.3,0.79 3.14,4.7 8.5,7.53 14.24,7.42 4.84,-0.09 9.32,-2.26 12.38,-5.82 3.13,2.7 7.53,3.57 11.51,2.15 3.03,-1.08 5.41,-3.33 6.68,-6.14 0.74,1.89 1.08,3.95 0.96,6.07 z"
   id="path38" />
		<path
   style="fill:#f9fbfc"
   d="m 472.21,322.65 c -1.27,2.81 -3.65,5.06 -6.68,6.14 -3.98,1.42 -8.38,0.55 -11.51,-2.15 -3.06,3.56 -7.54,5.73 -12.38,5.82 -5.74,0.11 -11.1,-2.72 -14.24,-7.42 -10.27,7.45 -24.35,7.15 -34.3,-0.79 -0.29,4.32 -3.02,8.22 -7.2,9.88 -4.36,1.74 -9.25,0.63 -12.43,-2.61 -2.27,3.68 -6.05,6.28 -10.43,7.05 -4.78,0.84 -9.62,-0.63 -13.11,-3.87 -2.69,5.11 -7.88,8.57 -13.8,8.97 -6.11,0.4 -11.88,-2.54 -15.18,-7.55 -4.69,7.89 -13.5,12.63 -22.9,11.95 -10.23,-0.75 -18.84,-7.74 -21.75,-17.43 -3.27,8.26 -11.57,13.78 -20.82,13.21 -8.23,-0.51 -15.12,-5.71 -18.11,-12.92 -3.23,11.02 -12.05,19.89 -23.65,22.89 -13.43,3.47 -27.4,-1.75 -35.33,-12.71 -1.39,2.97 -4.06,5.28 -7.43,6.12 -4.06,1.01 -8.23,-0.33 -10.95,-3.27 -2.66,3.43 -6.83,5.47 -11.3,5.35 -4.78,-0.14 -9.09,-2.72 -11.47,-6.74 -3.2,4.26 -8.53,6.51 -13.92,5.68 -5.41,-0.84 -9.83,-4.59 -11.59,-9.65 0.33,-1.21 0.82,-2.38 1.47,-3.5 2.7,-4.67 7.62,-7.59 12.98,-7.71 0.02,-3.32 1.5,-6.56 4.25,-8.75 3.48,-2.77 8.16,-3.18 11.98,-1.29 1.27,-2.02 3.28,-3.46 5.61,-4 0.52,-0.12 1.05,-0.2 1.58,-0.23 -0.12,-0.95 -0.15,-1.91 -0.09,-2.88 0.26,-4.18 2.23,-8.07 5.44,-10.75 3.06,-2.55 7,-3.8 10.96,-3.48 -0.38,-4.52 1.21,-9.1 4.55,-12.44 2.47,-2.48 5.62,-4 8.93,-4.48 4.52,-15.84 18.63,-27.45 35.52,-28.44 15.87,-0.93 30.4,7.74 37.37,21.4 3.9,-2.39 8.75,-3.04 13.29,-1.55 5.82,1.9 9.97,6.93 10.84,12.87 7.8,-3.44 16.71,-3.76 24.82,-0.75 7.24,2.69 13.22,7.79 17.03,14.32 5.35,-4.39 12.57,-6.17 19.57,-4.5 6.48,1.56 11.78,5.84 14.74,11.51 3.84,-4.42 9.4,-7.13 15.43,-7.31 5.39,-0.16 10.53,1.73 14.47,5.13 3.26,-12.22 14.56,-20.9 27.57,-20.51 12.52,0.38 22.95,9.04 25.97,20.73 4.47,-0.29 8.97,0.82 12.86,3.25 3.27,2.04 5.88,4.9 7.64,8.22 2.25,-0.33 4.59,-0.13 6.85,0.64 4.17,1.44 7.34,4.63 8.85,8.55 z"
   id="path39" />
		<path
   style="fill:#dce8ef"
   d="m 266.808,324.702 c 1.43,2.003 3.036,3.44 4.809,4.392 1.766,0.952 3.656,1.401 5.545,1.382 1.888,-0.028 3.765,-0.518 5.509,-1.508 1.75,-0.992 3.324,-2.46 4.715,-4.493 0.241,2.472 -0.859,5.098 -2.774,6.968 -1.909,1.886 -4.646,3.017 -7.406,3.032 -2.76,0.04 -5.519,-1.029 -7.468,-2.872 -1.954,-1.828 -3.111,-4.426 -2.93,-6.901 z"
   id="path40" />
		<path
   style="fill:#dce8ef"
   d="m 228.296,326.753 c 1.266,1.412 2.508,2.317 3.788,2.903 1.276,0.583 2.552,0.832 3.828,0.821 1.275,-0.022 2.544,-0.299 3.806,-0.909 1.266,-0.614 2.487,-1.543 3.727,-2.981 0.393,1.878 -0.354,3.964 -1.786,5.456 -1.427,1.507 -3.555,2.424 -5.703,2.433 -2.147,0.032 -4.292,-0.836 -5.752,-2.311 -1.462,-1.462 -2.254,-3.527 -1.908,-5.412 z"
   id="path41" />
		<path
   style="fill:#dce8ef"
   d="m 165.262,331.156 c 2.543,3.128 5.267,5.509 8.29,7.158 2.989,1.676 6.223,2.577 9.484,2.813 3.264,0.192 6.583,-0.287 9.771,-1.541 3.202,-1.248 6.228,-3.236 9.161,-6.002 -0.729,3.998 -3.344,7.681 -6.885,10.135 -3.543,2.473 -8.039,3.688 -12.444,3.394 -4.401,-0.302 -8.702,-2.084 -11.88,-5.015 -3.191,-2.889 -5.289,-6.891 -5.497,-10.942 z"
   id="path42" />
		<path
   style="fill:#dce8ef"
   d="m 332.377,326.488 c 2.989,2.704 6.044,4.644 9.282,5.813 3.209,1.202 6.542,1.6 9.802,1.338 3.255,-0.307 6.462,-1.285 9.423,-3.01 2.975,-1.72 5.663,-4.146 8.141,-7.326 -0.112,4.063 -2.137,8.1 -5.263,11.064 -3.126,2.983 -7.385,4.867 -11.783,5.247 -4.395,0.371 -8.918,-0.736 -12.504,-3.15 -3.594,-2.367 -6.276,-6.003 -7.098,-9.976 z"
   id="path43" />
		<path
   style="fill:#dce8ef"
   d="m 414.112,318.608 c 2.089,1.973 4.271,3.407 6.604,4.276 2.312,0.893 4.733,1.197 7.101,1.006 2.364,-0.222 4.692,-0.947 6.82,-2.216 2.138,-1.265 4.05,-3.046 5.768,-5.351 -0.141,2.892 -1.61,5.748 -3.849,7.843 -2.238,2.108 -5.267,3.437 -8.393,3.708 -3.125,0.263 -6.339,-0.513 -8.902,-2.214 -2.571,-1.669 -4.504,-4.235 -5.149,-7.052 z"
   id="path44" />
	</g><g
     id="g50"
     transform="matrix(1.0426343,0,0,0.26326209,112.23125,207.32999)"
     style="opacity:1">
		<path
   style="opacity:0.509774;fill:#dce8ef"
   d="m 483.64,440.6 c -1.28,3.58 -4.42,6.18 -8.19,6.77 -2.25,0.35 -4.52,-0.05 -6.47,-1.09 -0.86,2.64 -3.1,4.72 -6.01,5.26 -3.62,0.65 -7.12,-1.3 -8.53,-4.54 -2.49,2.97 -6.04,4.97 -10,5.51 -4.78,0.66 -9.54,-0.9 -12.99,-4.11 -3.22,5.45 -8.59,9.5 -15.04,10.95 -7.82,1.77 -15.86,-0.6 -21.45,-6.01 -2.72,5.85 -8.18,10.19 -14.8,11.33 -7.8,1.34 -15.54,-2 -19.93,-8.34 -3.18,2.56 -7.39,3.72 -11.61,2.96 -5.14,-0.93 -9.27,-4.53 -11,-9.27 -1.77,1.21 -3.84,1.99 -6.06,2.23 -2.67,0.29 -5.31,-0.25 -7.6,-1.47 -4.64,5.04 -11.24,8.06 -18.31,8.1 -7.17,0.04 -13.89,-2.96 -18.6,-8.08 -2.7,1.33 -5.98,1.2 -8.62,-0.54 -2.72,-1.8 -4.14,-4.92 -3.86,-8.02 1.36,2.87 4.24,4.7 7.41,4.73 2.34,0.02 4.54,-0.95 6.09,-2.6 4.86,4.6 11.9,6.24 18.37,4.13 5.27,-1.72 9.37,-5.66 11.38,-10.61 1.8,3.02 4.94,5.14 8.58,5.58 4.07,0.5 8.02,-1.16 10.52,-4.23 3.31,6.3 10.69,9.51 17.69,7.42 6.26,-1.87 10.43,-7.46 10.76,-13.68 2.25,2.38 5.3,3.93 8.63,4.31 3.66,0.41 7.3,-0.62 10.17,-2.83 4.07,3.52 9.85,4.51 14.94,2.38 4.43,-1.85 7.54,-5.73 8.51,-10.23 2.62,4.63 7.43,7.73 12.9,8.09 5.34,0.34 10.39,-1.99 13.59,-6.06 1.07,3.11 3.77,5.41 7.06,5.93 2.5,0.4 5,-0.3 6.92,-1.82 2.03,2.73 5.43,4.15 8.85,3.62 1.81,-0.28 3.44,-1.09 4.74,-2.27 1.7,1.98 4.18,3.3 6.99,3.48 5.51,0.35 10.26,-3.81 10.65,-9.32 0.84,0.51 1.61,1.15 2.28,1.9 2.54,2.84 3.33,6.85 2.04,10.44 z"
   id="path45" />
		<path
   style="opacity:0.352873;fill:#f9fbfc"
   d="m 479.32,428.26 c -0.39,5.51 -5.14,9.67 -10.65,9.32 -2.81,-0.18 -5.29,-1.5 -6.99,-3.48 -1.3,1.18 -2.93,1.99 -4.74,2.27 -3.42,0.53 -6.82,-0.89 -8.85,-3.62 -1.92,1.52 -4.42,2.22 -6.92,1.82 -3.29,-0.52 -5.99,-2.82 -7.06,-5.93 -3.2,4.07 -8.25,6.4 -13.59,6.06 -5.47,-0.36 -10.28,-3.46 -12.9,-8.09 -0.97,4.5 -4.08,8.38 -8.51,10.23 -5.09,2.13 -10.87,1.14 -14.94,-2.38 -2.87,2.21 -6.51,3.24 -10.17,2.83 -3.33,-0.38 -6.38,-1.93 -8.63,-4.31 -0.33,6.22 -4.5,11.81 -10.76,13.68 -7,2.09 -14.38,-1.12 -17.69,-7.42 -2.5,3.07 -6.45,4.73 -10.52,4.23 -3.64,-0.44 -6.78,-2.56 -8.58,-5.58 -2.01,4.95 -6.11,8.89 -11.38,10.61 -6.47,2.11 -13.51,0.47 -18.37,-4.13 -1.55,1.65 -3.75,2.62 -6.09,2.6 -3.17,-0.03 -6.05,-1.86 -7.41,-4.73 -0.68,-0.25 -1.32,-0.62 -1.9,-1.09 -1.74,-1.43 -2.66,-3.64 -2.43,-5.89 0.23,-2.25 1.57,-4.23 3.57,-5.28 1.63,-0.86 3.53,-1 5.24,-0.44 0.76,-2.72 2.84,-5 5.7,-5.92 1.84,-0.6 3.75,-0.54 5.47,0.05 2.25,-5.75 6.97,-10.34 13.01,-12.34 5.33,-1.76 11.01,-1.31 15.87,1.05 0.91,-2 2.48,-3.7 4.54,-4.76 1.64,-0.84 3.43,-1.2 5.18,-1.09 1.09,-9.06 7.39,-16.89 16.43,-19.69 7.9,-2.44 16.25,-0.52 22.24,4.58 3.15,-9.5 11.29,-16.81 21.53,-18.63 9.92,-1.77 19.77,1.98 26.05,9.33 6.52,-3.93 14.91,-3.48 21.02,1.32 5.29,4.16 7.81,10.76 6.89,17.18 3.16,-0.95 6.66,-0.4 9.4,1.64 2.84,2.12 4.39,5.47 4.26,8.9 5.17,-1.76 11.03,-0.99 15.65,2.38 4.78,3.49 7.3,9.07 7.03,14.72 z"
   id="path46" />
		<path
   style="opacity:0.186021;fill:#dce8ef"
   d="m 306.406,433.734 c 2.037,1.459 3.901,2.412 5.786,2.966 1.866,0.572 3.709,0.724 5.514,0.581 1.802,-0.174 3.587,-0.649 5.329,-1.526 1.753,-0.876 3.433,-2.129 5.19,-3.917 0.215,2.524 -0.912,5.12 -2.791,7.032 -1.881,1.926 -4.542,3.156 -7.296,3.391 -2.752,0.234 -5.586,-0.51 -7.766,-2.091 -2.181,-1.553 -3.734,-3.92 -3.966,-6.436 z"
   id="path47" />
		<path
   style="opacity:0.186021;fill:#dce8ef"
   d="m 343.698,423.81 c 2.989,2.704 6.044,4.644 9.282,5.813 3.209,1.202 6.542,1.6 9.802,1.338 3.255,-0.307 6.462,-1.285 9.423,-3.01 2.975,-1.72 5.663,-4.146 8.141,-7.326 -0.112,4.063 -2.137,8.1 -5.263,11.064 -3.126,2.983 -7.385,4.867 -11.783,5.247 -4.395,0.371 -8.918,-0.736 -12.504,-3.15 -3.594,-2.367 -6.276,-6.004 -7.098,-9.976 z"
   id="path48" />
		<path
   style="opacity:0.186021;fill:#dce8ef"
   d="m 399.178,422.977 c 1.424,1.229 2.845,2.096 4.338,2.615 1.479,0.534 3,0.705 4.489,0.586 1.486,-0.141 2.952,-0.577 4.319,-1.352 1.375,-0.773 2.632,-1.867 3.823,-3.323 -0.009,1.897 -0.934,3.797 -2.384,5.192 -1.45,1.405 -3.442,2.294 -5.499,2.471 -2.056,0.174 -4.172,-0.352 -5.84,-1.492 -1.67,-1.119 -2.905,-2.834 -3.246,-4.697 z"
   id="path49" />
		<path
   style="opacity:0.186021;fill:#dce8ef"
   d="m 452.771,430.343 c 1.424,1.229 2.845,2.096 4.338,2.615 1.479,0.534 3,0.705 4.489,0.586 1.486,-0.141 2.952,-0.577 4.319,-1.352 1.375,-0.773 2.632,-1.866 3.823,-3.323 -0.009,1.897 -0.934,3.797 -2.384,5.192 -1.45,1.405 -3.442,2.294 -5.499,2.471 -2.056,0.174 -4.172,-0.352 -5.84,-1.492 -1.67,-1.119 -2.905,-2.834 -3.246,-4.697 z"
   id="path50" />
	</g><g
     id="g56"
     transform="matrix(1.1348458,0,0,0.2346216,93.17376,326.268)"
     style="opacity:0.51704">
		<path
   style="fill:#dce8ef"
   d="m 221.24,234.19 c -3.58,4.34 -9.4,6.12 -14.8,4.56 -3.61,-1.05 -6.58,-3.47 -8.35,-6.63 -2.65,3.73 -6.56,6.49 -11.13,7.68 -5.48,1.42 -11.21,0.42 -15.81,-2.59 -1.98,3.25 -5.18,5.74 -9.09,6.75 -4.8,1.24 -9.74,0.01 -13.35,-3 -3.38,7.78 -10.4,13.76 -19.22,15.54 -11.64,2.36 -23.22,-3.26 -28.73,-13.37 -3.47,3.96 -8.79,6.05 -14.26,5.25 -6.85,-1.01 -12.17,-6.3 -13.33,-12.96 -4.65,2.68 -10.25,3.62 -15.72,2.38 -7.6,-1.72 -13.6,-7.32 -15.94,-14.56 -3.3,1.39 -7.02,1.67 -10.58,0.69 -5.66,-1.55 -10.03,-6.04 -11.44,-11.74 -0.47,-1.93 -0.58,-3.88 -0.35,-5.79 1.83,5.36 6.07,9.66 11.55,11.35 5.39,1.67 11.24,0.6 15.78,-2.7 3.72,5.05 9.57,8.21 15.96,8.48 6.42,0.27 12.54,-2.41 16.68,-7.16 2.57,4.54 7.31,7.57 12.68,7.89 4.71,0.27 9.18,-1.59 12.3,-4.89 4.47,6.62 11.58,11.17 19.68,12.34 9.05,1.31 18.11,-1.77 24.46,-8.14 3.28,3.58 7.66,6.05 12.54,6.98 5.3,1.01 10.74,0.1 15.38,-2.49 3.77,2.58 8.37,3.73 12.97,3.17 4.1,-0.49 7.88,-2.3 10.81,-5.1 3.24,4.24 8.56,6.34 13.51,5.21 5.13,-1.16 9.18,-5.62 10.1,-11.22 1.82,4.73 0.98,10.11 -2.3,14.07 z"
   id="path51" />
		<path
   style="opacity:0.280961;fill:#f9fbfc"
   d="m 223.54,220.12 c -0.92,5.6 -4.97,10.06 -10.1,11.22 -4.95,1.13 -10.27,-0.97 -13.51,-5.21 -2.93,2.8 -6.71,4.61 -10.81,5.1 -4.6,0.56 -9.2,-0.59 -12.97,-3.17 -4.64,2.59 -10.08,3.5 -15.38,2.49 -4.88,-0.93 -9.26,-3.4 -12.54,-6.98 -6.35,6.37 -15.41,9.45 -24.46,8.14 -8.1,-1.17 -15.21,-5.72 -19.68,-12.34 -3.12,3.3 -7.59,5.16 -12.3,4.89 -5.37,-0.32 -10.11,-3.35 -12.68,-7.89 -4.14,4.75 -10.26,7.43 -16.68,7.16 -6.39,-0.27 -12.24,-3.43 -15.96,-8.48 -4.54,3.3 -10.39,4.37 -15.78,2.7 -5.48,-1.69 -9.72,-5.99 -11.55,-11.35 0.44,-3.74 2.18,-7.26 5.03,-9.91 3.8,-3.54 9.04,-5.02 14.07,-4.07 0.19,-2.01 0.94,-3.93 2.17,-5.56 1.78,-2.35 4.43,-3.89 7.36,-4.26 2.65,-0.34 5.31,0.29 7.51,1.78 2.26,-3.97 6.28,-6.78 11,-7.39 3.1,-0.4 6.14,0.18 8.77,1.55 5.08,-14.01 19.01,-23.17 34.23,-21.91 14.32,1.19 25.98,11.29 29.56,24.69 5.69,-0.81 11.56,0.83 16.06,4.69 4.03,3.46 6.46,8.29 6.97,13.39 4.98,-3.11 11.15,-4.02 16.98,-2.25 5.26,1.59 9.55,5.16 12.11,9.78 3.91,-3.17 9.18,-4.41 14.26,-3.07 4.51,1.19 8.15,4.22 10.2,8.16 3.2,1.22 5.92,3.6 7.54,6.78 0.22,0.43 0.41,0.87 0.58,1.32 z"
   id="path52" />
		<path
   style="fill:#dce8ef"
   d="m 142.602,219.944 c 1.023,1.323 2.116,2.239 3.297,2.842 1.176,0.602 2.406,0.878 3.637,0.866 1.23,-0.019 2.453,-0.322 3.614,-0.949 1.165,-0.629 2.239,-1.566 3.236,-2.91 0.226,1.673 -0.491,3.479 -1.78,4.766 -1.285,1.299 -3.153,2.082 -5.037,2.092 -1.884,0.028 -3.766,-0.713 -5.079,-1.984 -1.317,-1.26 -2.073,-3.046 -1.888,-4.723 z"
   id="path53" />
		<path
   style="fill:#dce8ef"
   d="m 59.296,210.571 c -0.815,2.29 -2.572,4.226 -4.727,5.537 -2.163,1.312 -4.755,1.989 -7.33,1.922 -2.576,-0.057 -5.132,-0.866 -7.226,-2.285 -2.087,-1.418 -3.745,-3.442 -4.438,-5.774 2.027,1.316 3.927,2.31 5.883,2.98 1.946,0.674 3.909,1.025 5.882,1.081 1.973,0.05 3.954,-0.202 5.932,-0.777 1.989,-0.57 3.937,-1.469 6.024,-2.684 z"
   id="path54" />
		<path
   style="fill:#dce8ef"
   d="m 87.392,209.462 c 2.543,3.128 5.267,5.509 8.29,7.158 2.989,1.677 6.222,2.576 9.484,2.813 3.264,0.192 6.583,-0.287 9.771,-1.541 3.202,-1.248 6.227,-3.236 9.161,-6.002 -0.729,3.998 -3.344,7.681 -6.885,10.135 -3.543,2.473 -8.039,3.688 -12.444,3.394 -4.401,-0.302 -8.702,-2.084 -11.879,-5.015 -3.192,-2.888 -5.29,-6.891 -5.498,-10.942 z"
   id="path55" />
		<path
   style="fill:#dce8ef"
   d="m 168.451,220.958 c 1.187,4.503 4.458,6.736 7.725,6.848 3.268,0.105 6.671,-1.897 8.174,-6.306 0.951,2.165 0.46,5.003 -1.193,7.058 -1.624,2.089 -4.371,3.367 -7.117,3.244 -2.747,-0.067 -5.396,-1.535 -6.876,-3.724 -1.509,-2.164 -1.799,-5.025 -0.713,-7.12 z"
   id="path56" />
	</g><g
     id="g162"
     transform="matrix(1.4384743,-0.00498538,0.00498538,1.4384743,481.61068,99.581342)"><g
       id="Layer_2"
       data-name="Layer 2"><path
         id="Layer_3"
         data-name="Layer 3"
         class="cls-1"
         d="M 0,0 H 150 V 150 H 0 Z" /></g><path
       class="cls-2"
       d="m 57.53,128.19 c -5.86,-5.34 -7.57,-16.57 -5.13,-24.7 4.23,5.13 10.1,6.75 16.17,7.67 10.41,1.56 21.21,0.76 30.3,-5.19 2.64,7.89 -1.02,16.49 -7.6,21.14 -8.36,5.63 -14.92,8.86 -10.92,20.26 -6.02,-2.64 -9.6,-8.59 -9.64,-15 -0.02,-1.6 -0.02,-3.21 -0.24,-4.79 -0.53,-3.84 -2.33,-5.56 -5.74,-5.66 -3.89,-0.16 -6.6,2.57 -7.21,6.27 v 0 z"
       id="path2"
       style="fill:url(#linear-gradient)" /><path
       d="m 24.1,102.13 c 0,0 17.35,-8.43 34.74,-8.43 L 71.96,53.21 c 0.49,-1.96 1.92,-3.29 3.54,-3.29 1.62,0 3.05,1.33 3.54,3.29 L 92.16,93.7 c 20.6,0 34.74,8.43 34.74,8.43 0,0 -29.47,-80.07 -29.52,-80.23 -0.85,-2.37 -2.27,-3.89 -4.2,-3.89 H 57.82 c -1.92,0 -3.29,1.52 -4.2,3.89 -0.06,0.16 -29.53,80.23 -29.53,80.23 z"
       id="path3"
       style="fill:#ffffff;fill-opacity:1" /></g><path
     style="opacity:1;fill:#ece600;fill-opacity:1"
     id="path60"
     d="m 79.195956,229.10259 -1.825091,-8.61501 -8.325487,-2.86977 7.629374,-4.39794 0.156592,-8.80482 6.540304,5.89693 8.422267,-2.57191 -3.587245,8.04244 5.048655,7.21529 -8.757342,-0.92642 z"
     transform="matrix(0.4557971,0,0,0.4557971,37.574694,124.67829)" /><path
     style="opacity:1;fill:#ece600;fill-opacity:1"
     id="path66"
     d="m 360,114 -3.5238,-2.84791 -4.25549,1.55518 1.61961,-4.23138 -2.79408,-3.56664 4.52477,0.23277 2.52865,-3.75948 1.17686,4.37525 4.35687,1.24314 -3.79744,2.47128 z" /><path
     style="opacity:1;fill:#ece600;fill-opacity:1"
     id="path67"
     d="m 559,94 6.26234,2.342631 5.23194,-4.163146 -0.29281,6.679757 5.57615,3.689378 -6.44331,1.78569 -1.78569,6.44331 -3.68938,-5.57615 -6.67975,0.29281 4.16314,-5.23193 z"
     transform="matrix(0.62361809,0,0,0.62361809,209.71228,34.694691)" /><path
     style="opacity:1;fill:#ece600;fill-opacity:1"
     id="path68"
     d="m 515,37 -3.91314,-0.444025 -2.39494,3.126358 -0.78694,-3.858832 -3.71342,-1.311626 3.42679,-1.940864 0.0999,-3.936988 2.90481,2.659313 3.77517,-1.121567 -1.63152,3.584409 z" /><path
     style="opacity:1;fill:#ece600;fill-opacity:1"
     id="path69"
     d="m 655,31 -5.75707,0.395913 -2.62396,5.13959 -2.15557,-5.352953 -5.69889,-0.907319 4.42485,-3.70422 -0.89814,-5.700344 4.89028,3.063619 5.14381,-2.615687 -1.4025,5.597641 z" /><path
     style="opacity:1;fill:#ece600;fill-opacity:1"
     id="path70"
     d="m 737,84 -11.17947,-0.102794 -5.84267,9.53176 -3.35689,-10.664076 -10.87072,-2.61123 9.1048,-6.487968 -0.87581,-11.145589 8.98397,6.654291 10.32944,-4.277122 -3.55241,10.600546 z"
     transform="matrix(0.38528958,0,0,0.38528958,433.83203,38.431759)" /><path
     style="opacity:1;fill:#ece600;fill-opacity:1"
     id="path71"
     d="m 261,20 -3.91314,-0.444025 -2.39494,3.126358 -0.78694,-3.858832 -3.71342,-1.311626 3.42679,-1.940864 0.0999,-3.936988 2.90481,2.659313 3.77517,-1.121567 -1.63152,3.584409 z" /><path
     style="opacity:1;fill:#ece600;fill-opacity:1"
     id="path72"
     d="M 80.000001,45.000001 69.319233,39.4748 59.084395,45.78786 61.038635,33.922466 51.871819,26.1394 l 11.888554,-1.808016 4.569434,-11.123261 5.39329,10.747979 11.990882,0.908514 -8.555317,8.450632 z"
     transform="matrix(0.26334582,0,0,0.26334582,38.211592,33.729819)" /><path
     style="opacity:1;fill:#ece600;fill-opacity:1"
     id="path73"
     d="m 159,90 -3.2985,-0.724005 -2.3186,2.455282 -0.33073,-3.360793 -3.05159,-1.446394 3.0941,-1.353079 0.43261,-3.349203 2.24298,2.524544 3.31897,-0.623527 -1.70787,2.913333 z" /><path
     style="opacity:1;fill:#ece600;fill-opacity:1"
     id="path74"
     d="m 153,142 -9.56085,-3.06664 -7.55053,6.61843 -0.0379,-10.04055 -8.62774,-5.13577 9.53741,-3.13877 2.2183,-9.79251 5.93236,8.10069 9.99872,-0.91633 -5.87101,8.14526 z"
     transform="matrix(0.2776339,0,0,0.2776339,91.901554,105.14168)" /><path
     style="opacity:1;fill:#ece600;fill-opacity:1"
     id="path76"
     d="m 749.28769,153.9948 0.19275,4.06386 -2.02863,-3.52659 -3.8054,1.43912 2.7271,-3.01911 -2.54462,-3.17444 3.71407,1.66067 2.23275,-3.40103 -0.43168,4.04546 3.92452,1.07249 z" /><path
     style="opacity:1;fill:#ece600;fill-opacity:1"
     id="path77"
     d="m 735.5,223.5 3.24875,3.58196 4.05501,-2.63472 -2.40273,4.19663 3.75884,3.04237 -4.73372,-0.9883 -1.73192,4.51501 -0.52287,-4.80744 -4.82922,-0.25193 4.41057,-1.98287 z" /><path
     style="opacity:1;fill:#ece600;fill-opacity:1"
     id="path78"
     d="m 340,48 2.13559,2.262933 2.57507,-1.746605 -1.49224,2.730354 2.45686,1.909307 -3.05785,-0.575481 -1.05664,2.926622 -0.39762,-3.086021 -3.1099,-0.100556 2.81211,-1.331784 z" /><path
     style="opacity:1;fill:#ece600;fill-opacity:1"
     id="path79"
     d="m 277,116.5 -1.26491,6.26193 5.97939,2.24914 -6.34632,0.73204 -0.29133,6.38177 -2.65734,-5.80951 -6.15944,1.69501 4.704,-4.32251 -3.51541,-5.3342 5.56457,3.13805 z"
     transform="matrix(0.74399798,0,0,0.74399798,70.141294,29.824235)" /><path
     style="opacity:1;fill:#ece600;fill-opacity:1"
     id="path80"
     d="m 892.36876,176.77669 -5.66519,13.72402 12.64258,7.78513 -14.80296,-1.14697 -3.49733,14.42955 -3.48353,-14.43288 -14.80405,1.13282 12.65001,-7.77305 -5.65208,-13.72942 11.30168,9.62887 z"
     transform="matrix(0.42532921,0,0,0.42532921,495.80198,101.58219)" /><path
     style="opacity:1;fill:#ece600;fill-opacity:1"
     id="path81"
     d="m 926.3099,8.4852829 -3.76529,7.6491321 6.94928,4.939038 -8.43829,-1.217292 -2.54986,8.135409 -1.44986,-8.40146 -8.52519,0.08892 7.54223,-3.975096 -2.71899,-8.080452 6.11122,5.944715 z" /><path
     style="opacity:1;fill:#ece600;fill-opacity:1"
     id="path82"
     d="m 707.10677,336.58282 -6.07488,-1.8999 -2.8461,5.69329 -0.0703,-6.36466 -6.29414,-0.94747 6.03142,-2.03367 -1.0439,-6.27887 3.79795,5.10778 5.64898,-2.93308 -3.68416,5.19046 z" /><path
     style="opacity:1;fill:#ece600;fill-opacity:1"
     id="path83"
     d="m 510.53109,175.36249 -3.91836,-6.91378 -7.45101,2.76339 5.36456,-5.86306 -4.93064,-6.23239 7.23385,3.29021 4.40371,-6.61523 -0.8938,7.89652 7.65228,2.14397 -7.78624,1.5901 z"
     transform="matrix(0.64232543,0,0,0.64232543,178.53745,55.722704)" /></svg>
