<?xml version="1.0" encoding="UTF-8" standalone="no"?>
<svg
   width="101"
   height="22"
   viewBox="0 0 101 22"
   fill="none"
   version="1.1"
   id="svg7"
   xmlns="http://www.w3.org/2000/svg"
   xmlns:svg="http://www.w3.org/2000/svg">
  <defs
     id="defs7" />
  <path
     d="M 10.0582,20.817 C 4.32115,20.817 0,16.2763 0,10.6704 0,5.04589 4.1005,0.467773 10.0582,0.467773 c 3.1627,0 5.3508,0.971677 7.0609,3.195337 l -2.7582,2.2984 C 13.2025,4.72822 11.805,4.11158 10.0582,4.11158 c -3.87987,0 -6.01287,2.9711 -6.01287,6.55882 0,3.5878 2.33526,6.5028 6.01287,6.5028 1.7284,0 3.1995,-0.6166 4.3579,-1.8499 l 2.7214,2.3918 c -1.6365,2.1302 -3.8798,3.1019 -7.0793,3.1019 z"
     fill="#292929"
     id="path1" />
  <path
     d="m 29.0161,5.88601 h 3.7143 V 20.4612 H 29.0161 V 18.331 c -0.7723,1.5136 -2.0595,2.5226 -4.5234,2.5226 -3.935,0 -7.0794,-3.4195 -7.0794,-7.6239 0,-4.20442 3.1444,-7.62399 7.0794,-7.62399 2.4456,0 3.7511,1.00906 4.5234,2.52264 z m 0.1103,7.34369 c 0,-2.2797 -1.563,-4.16704 -4.0269,-4.16704 -2.3721,0 -3.9167,1.90594 -3.9167,4.16704 0,2.2049 1.5446,4.167 3.9167,4.167 2.4456,0 4.0269,-1.906 4.0269,-4.167 z"
     fill="#292929"
     id="path2" />
  <path
     d="m 35.3599,0 h 3.7143 v 20.4427 h -3.7143 z"
     fill="#292929"
     id="path3" />
  <path
     d="m 40.7291,18.5182 c 0,-1.1959 0.9562,-2.205 2.2617,-2.205 1.3056,0 2.225,1.0091 2.225,2.205 0,1.2333 -0.9378,2.2423 -2.225,2.2423 -1.2871,0 -2.2617,-1.009 -2.2617,-2.2423 z"
     fill="#292929"
     id="path4" />
  <path
     d="m 59.4296,18.1068 c -1.3791,1.6817 -3.4753,2.7468 -5.9577,2.7468 -4.4315,0 -7.6861,-3.4195 -7.6861,-7.6239 0,-4.20442 3.2546,-7.62399 7.6861,-7.62399 2.3904,0 4.4683,1.00906 5.8474,2.59738 l -2.8685,2.41051 c -0.7172,-0.89693 -1.655,-1.56963 -2.9789,-1.56963 -2.372,0 -3.9166,1.90603 -3.9166,4.16703 0,2.261 1.5446,4.167 3.9166,4.167 1.4343,0 2.4272,-0.7474 3.1627,-1.7565 z"
     fill="#292929"
     id="path5" />
  <path
     d="m 59.7422,13.2297 c 0,-4.20442 3.2546,-7.62399 7.6861,-7.62399 4.4315,0 7.6861,3.41957 7.6861,7.62399 0,4.2044 -3.2546,7.6239 -7.6861,7.6239 -4.4315,-0.0187 -7.6861,-3.4195 -7.6861,-7.6239 z m 11.6027,0 c 0,-2.2797 -1.5446,-4.16704 -3.9166,-4.16704 -2.372,-0.01869 -3.9166,1.88734 -3.9166,4.16704 0,2.261 1.5446,4.167 3.9166,4.167 2.372,0 3.9166,-1.906 3.9166,-4.167 z"
     fill="#292929"
     id="path6" />
  <path
     d="m 100.232,11.5482 v 8.8946 h -3.714 v -7.979 c 0,-2.52261 -1.1768,-3.60641 -2.942,-3.60641 -1.655,0 -2.8318,0.82219 -2.8318,3.60641 v 7.979 h -3.7143 v -7.979 c 0,-2.52261 -1.1953,-3.60641 -2.9421,-3.60641 -1.6549,0 -3.1076,0.82219 -3.1076,3.60641 v 7.979 H 77.2659 V 5.8676 h 3.7143 v 2.01811 c 0.7723,-1.56964 2.1698,-2.35446 4.3212,-2.35446 2.0411,0 3.7511,1.00905 4.6889,2.70949 0.9378,-1.73781 2.3169,-2.70949 4.8176,-2.70949 3.0524,0.01869 5.4241,2.33577 5.4241,6.01695 z"
     fill="#292929"
     id="path7" />
</svg>
