<?xml version="1.0" encoding="UTF-8" standalone="no"?>
<!-- Created with Inkscape (http://www.inkscape.org/) -->

<svg
   width="399.99908"
   height="134.884"
   viewBox="0 0 105.8331 35.688059"
   version="1.1"
   id="svg1"
   xmlns="http://www.w3.org/2000/svg"
   xmlns:svg="http://www.w3.org/2000/svg">
  <defs
     id="defs1" />
  <g
     id="layer1"
     transform="translate(-26.9875,-78.845843)">
    <path
       fill="#ffffff"
       d="m 41.521033,104.45807 h 2.164039 v 5.9072 h 3.780863 v 1.89457 H 41.52195 v -7.80177 z m 8.186198,3.92342 v -0.0219 c 0,-2.24038 1.807199,-4.05769 4.215879,-4.05769 2.409598,0 4.193806,1.79432 4.193806,4.0347 v 0.0229 c 0,2.24037 -1.807199,4.05585 -4.215879,4.05585 -2.407759,0 -4.193806,-1.7934 -4.193806,-4.03378 z m 6.201497,0 v -0.0219 c 0,-1.12479 -0.813928,-2.10702 -2.007691,-2.10702 -1.181808,0 -1.974582,0.95832 -1.974582,2.08403 v 0.0229 c 0,1.12387 0.814846,2.1061 1.996655,2.1061 1.193762,0 1.985618,-0.95832 1.985618,-2.08403 z m 4.856908,0.45708 v -4.3805 h 2.197151 v 4.33544 c 0,1.12479 0.568369,1.66097 1.4384,1.66097 0.870032,0 1.438401,-0.51227 1.438401,-1.60487 v -4.39154 h 2.198069 v 4.32257 c 0,2.51996 -1.438401,3.62267 -3.658542,3.62267 -2.220142,0 -3.614401,-1.12479 -3.614401,-3.56657 m 10.584764,-4.37775 h 3.01108 c 2.78851,0 4.405335,1.60395 4.405335,3.85536 v 0.0229 c 0,2.25049 -1.638894,3.9225 -4.449481,3.9225 H 71.349478 V 104.458 Z m 3.044189,5.88329 c 1.294928,0 2.152084,-0.71277 2.152084,-1.97367 v -0.0219 c 0,-1.24802 -0.857156,-1.97274 -2.152084,-1.97274 h -0.881068 v 3.9694 l 0.881985,-9.2e-4 z m 7.51758,-5.88421 h 6.245643 v 1.89457 h -4.081601 v 1.3262 h 3.691652 v 1.79433 h -3.691652 v 2.78667 h -2.164042 z m 9.256723,0 h 2.164042 v 5.9072 h 3.780863 v 1.89457 H 91.16797 Z m 11.59918,-0.0561 h 2.08587 l 3.32377,7.85787 h -2.31946 l -0.57021,-1.39334 h -3.01016 l -0.55734,1.39334 h -2.275319 l 3.323779,-7.85787 z m 1.89641,4.78241 -0.87003,-2.21922 -0.88198,2.2183 h 1.75201 z m 6.30083,-4.72631 h 3.69165 c 1.19376,0 2.01873,0.3127 2.54296,0.84704 0.458,0.44605 0.69161,1.04845 0.69161,1.81731 v 0.0219 c 0,1.19193 -0.63735,1.98286 -1.60579,2.39581 l 1.86238,2.71953 h -2.49789 l -1.57268,-2.36361 h -0.94728 v 2.36361 h -2.16404 v -7.80176 z m 3.5914,3.745 c 0.73576,0 1.16066,-0.35685 1.16066,-0.92522 v -0.0219 c 0,-0.61343 -0.44697,-0.92521 -1.17261,-0.92521 h -1.41633 v 1.87434 z m 6.45718,-3.745 h 6.27875 v 1.83939 h -4.13678 v 1.18089 h 3.74775 v 1.70511 h -3.74775 v 1.23791 h 4.19288 v 1.83847 h -6.33485 z m -84.229283,4.83759 c -0.303491,0.68426 -0.940849,1.16985 -1.787886,1.16985 -1.182727,0 -1.996655,-0.98131 -1.996655,-2.1061 v -0.0229 c 0,-1.12478 0.790935,-2.08402 1.973661,-2.08402 0.892104,0 1.57084,0.54722 1.857785,1.29309 h 2.280839 c -0.366037,-1.8578 -1.998493,-3.24286 -4.11563,-3.24286 -2.409598,0 -4.215879,1.81824 -4.215879,4.05585 v 0.0219 c 0,2.24037 1.784208,4.03562 4.193806,4.03562 2.060117,0 3.6705,-1.33356 4.0954,-3.12053 z"
       id="path1"
       style="fill:#3d3d3d;fill-opacity:1;stroke-width:0.919693" />
    <path
       d="m 112.64375,100.41233 0.23637,-0.815766 c 0.28142,-0.971197 0.17658,-1.867897 -0.29522,-2.52732 -0.43409,-0.606998 -1.15789,-0.96476 -2.0362,-1.006145 L 93.905915,95.852487 a 0.32925055,0.32925055 0 0 1 -0.262126,-0.138866 0.3375278,0.3375278 0 0 1 -0.03678,-0.299806 0.44237296,0.44237296 0 0 1 0.386272,-0.295218 L 110.78966,94.90524 c 1.99206,-0.09104 4.14966,-1.706954 4.90473,-3.676937 l 0.9574,-2.500649 a 0.60607857,0.60607857 0 0 0 0.0257,-0.33109 c -1.08705,-4.888177 -5.45376,-8.543963 -10.67395,-8.543963 -4.81,0 -8.893445,3.10213 -10.358517,7.413659 a 4.9111677,4.9111677 0 0 0 -3.454372,-0.955563 4.9258827,4.9258827 0 0 0 -4.264623,6.110447 c -3.769827,0.110363 -6.792864,3.195938 -6.792864,6.989679 0,0.338459 0.02572,0.675977 0.07543,1.011657 a 0.32557179,0.32557179 0 0 0 0.320037,0.28052 l 30.725149,0.004 h 0.008 a 0.40466551,0.40466551 0 0 0 0.38167,-0.29431 z"
       fill="#f6821f"
       id="path2"
       style="stroke-width:0.919693" />
    <path
       d="m 118.18767,88.908796 c -0.15361,0 -0.30718,0.0038 -0.45985,0.01182 a 0.2575144,0.2575144 0 0 0 -0.0726,0.01564 0.26211288,0.26211288 0 0 0 -0.16737,0.176582 l -0.65482,2.25877 c -0.28051,0.97028 -0.17658,1.866979 0.29616,2.525481 0.43317,0.60792 1.15697,0.965678 2.03528,1.006145 l 3.54818,0.213358 a 0.32281271,0.32281271 0 0 1 0.25291,0.137024 0.33568844,0.33568844 0 0 1 0.0377,0.301648 0.44513204,0.44513204 0 0 1 -0.38627,0.294314 l -3.68614,0.213357 c -2.00129,0.09198 -4.15798,1.706947 -4.91305,3.676931 l -0.26671,0.695284 a 0.19497521,0.19497521 0 0 0 0.0874,0.24096 c 0.0275,0.0156 0.057,0.0247 0.0883,0.0257 h 12.69363 a 0.33660812,0.33660812 0 0 0 0.3274,-0.24374 9.0553103,9.0553103 0 0 0 0.33752,-2.462015 c -8.8e-4,-5.018778 -4.07329,-9.086586 -9.09666,-9.086586 z"
       fill="#fbad41"
       id="path3"
       style="stroke-width:0.919693" />
  </g>
</svg>
