<?xml version="1.0" encoding="UTF-8" standalone="no"?>
<!-- Generator: Adobe Illustrator 19.2.1, SVG Export Plug-In . SVG Version: 6.00 Build 0)  -->

<svg
   version="1.1"
   id="layer"
   x="0px"
   y="0px"
   viewBox="0 0 599.90002 137.8"
   xml:space="preserve"
   sodipodi:docname="dante-logo-horizontal.svg"
   width="599.90002"
   height="137.8"
   inkscape:version="1.3.2 (091e20ef0f, 2023-11-25, custom)"
   xmlns:inkscape="http://www.inkscape.org/namespaces/inkscape"
   xmlns:sodipodi="http://sodipodi.sourceforge.net/DTD/sodipodi-0.dtd"
   xmlns="http://www.w3.org/2000/svg"
   xmlns:svg="http://www.w3.org/2000/svg"><defs
   id="defs2" /><sodipodi:namedview
   id="namedview2"
   pagecolor="#ffffff"
   bordercolor="#000000"
   borderopacity="0.25"
   inkscape:showpageshadow="2"
   inkscape:pageopacity="0.0"
   inkscape:pagecheckerboard="0"
   inkscape:deskcolor="#d1d1d1"
   inkscape:zoom="1.3803681"
   inkscape:cx="304.99111"
   inkscape:cy="72.444444"
   inkscape:window-width="3832"
   inkscape:window-height="1104"
   inkscape:window-x="0"
   inkscape:window-y="0"
   inkscape:window-maximized="1"
   inkscape:current-layer="layer" />
<style
   type="text/css"
   id="style1">
	.st0{fill:#231815;}
	.st1{fill:#E50012;}
</style>
<g
   id="g2"
   transform="translate(-20.7,-253.4)">
	<path
   class="st0"
   d="m 572.1,358.2 c -5.5,9 -11.1,14.6 -22.2,14.6 -13.2,0 -20.8,-11 -21.9,-22.1 h 61.5 v -4.8 c 0,-27.9 -15.4,-45.3 -40.1,-45.3 -25.7,0 -41.7,17.6 -41.7,45.8 0,26.4 17.3,44.8 42,44.8 16.8,0 31.6,-8.7 39.5,-23.3 l 1.1,-2 -17.1,-9.7 z m -22.7,-39.4 c 9.8,0 16.9,5.7 19.4,15.5 h -39.5 c 2.6,-9.4 10.4,-15.5 20.1,-15.5 M 201.2,253.7 h -29.3 v 134.8 h 28.7 c 46.8,0 75.8,-26.1 75.8,-68.1 0.1,-40.5 -29.5,-66.7 -75.2,-66.7 M 196.1,369 h -3.4 v -95.8 h 3.4 c 27.1,0 59.4,8.3 59.4,47.9 0,39.6 -32.2,47.9 -59.4,47.9 m 150.4,-56.6 c -6.9,-7.7 -15.9,-11.8 -26,-11.8 -26.3,0 -40.5,23 -40.5,44.6 0,22.8 14.1,46 41,46 9.6,0 18.6,-4.1 25.4,-11.4 v 8.7 h 20.2 V 303 h -20.2 v 9.4 z m -23,60.4 c -15.2,0 -23.2,-13.6 -23.2,-27 0,-13.2 8,-26.7 23.2,-26.7 16.5,0 23.9,13.4 23.9,26.7 0,13.4 -7.4,27 -23.9,27 M 510.1,303 H 494.9 V 272.1 H 474.7 V 303 h -8.5 v 19.2 h 8.5 v 66.3 h 20.2 v -66.3 h 15.2 z m -85.3,-2.4 c -8.8,0 -16.8,3.4 -22.3,9.1 V 303 h -20.2 v 85.4 h 20.2 V 349 c 0,-17.5 1.3,-29.9 17.7,-29.9 13.2,0 15.4,6.4 15.4,20.8 v 48.6 h 20.2 V 338 c 0,-25.1 -10.2,-37.4 -31,-37.4 m 156.1,-10.8 h 5.9 v 16.5 h 3.1 v -16.5 h 6 v -2.5 h -15 z m 35,-2.5 -5.6,14.4 -5.7,-14.4 h -4.8 v 19 h 3.1 v -15.9 h 0.1 l 6.2,15.9 h 2 l 6.2,-15.9 h 0.1 v 15.9 h 3.1 v -19 z M 52.6,360.5 v 5.9 h 63.9 V 349.5 H 69.6 c 4.6,-24.8 25.9,-44.3 52.7,-48.3 v 48.3 0 16.9 h 16 v -81.1 h -5.9 c -44,-0.1 -79.8,33.7 -79.8,75.2 m -31.9,0 v 5.9 h 15.9 v -5.9 c 0,-50.3 42.9,-91.2 95.7,-91.2 h 5.9 v -15.9 h -5.9 c -61.5,0 -111.6,48 -111.6,107.1"
   id="path1" />
	<rect
   x="52.099998"
   y="376.70001"
   class="st1"
   width="85.900002"
   height="12.1"
   id="rect1" />
	<rect
   x="20.700001"
   y="377"
   class="st1"
   width="16.799999"
   height="11.7"
   id="rect2" />
</g>
</svg>
