<?xml version="1.0" encoding="UTF-8" standalone="no"?>
<!-- Created with Inkscape (http://www.inkscape.org/) -->

<svg
   version="1.1"
   id="svg1"
   width="800"
   height="300"
   viewBox="0 0 800.00012 300.00001"
   xmlns="http://www.w3.org/2000/svg"
   xmlns:svg="http://www.w3.org/2000/svg">
  <defs
     id="defs1" />
  <g
     id="g1"
     transform="translate(-288.0004,-498.50269)">
    <path
       id="path1"
       d="m 1086.8688,651.66998 v 51.33591 h -10.8637 l -3.3631,-11.15575 c -6.8236,8.31482 -15.5411,12.59392 -26.126,12.59392 -27.657,0 -39.211,-20.82023 -39.211,-48.23389 0,-28.34295 12.7576,-50.8226 41.7289,-50.8226 20.7849,0 31.2414,14.76223 37.0428,32.20166 l -19.9441,3.72595 c -4.6287,-10.41232 -8.7086,-17.3996 -17.2093,-17.3996 -14.01,0 -19.1697,18.62094 -19.1697,30.94935 0,12.93464 4.3322,30.52453 19.7582,30.52453 9.5893,0 15.8287,-7.7661 15.8287,-16.74911 h -18.7492 v -16.97037 h 40.2775"
       style="fill:#000000;fill-opacity:1;fill-rule:evenodd;stroke:none;stroke-width:0.442513" />
    <path
       id="path2"
       d="M 997.79977,626.85829 H 951.9997 v 18.44836 h 36.52943 v 18.72714 H 951.9997 v 20.99281 h 45.80007 v 18.73156 h -68.39478 v -95.91022 h 68.39478 v 19.01035"
       style="fill:#000000;fill-opacity:1;fill-rule:evenodd;stroke:none;stroke-width:0.442513" />
    <path
       id="path3"
       d="m 864.72733,650.44422 14.8109,0.25224 c 8.27499,0.1416 15.03658,-3.32328 15.03658,-12.47444 0,-9.25294 -6.73504,-12.58064 -15.11181,-12.72667 l -14.73567,-0.25223 z m 0.2124,17.65184 v 35.6621 l -23.32927,0.27879 v -95.91022 l 39.98545,-0.27879 c 19.28913,-0.13718 35.03374,8.97859 35.03374,29.4271 0,22.23627 -14.16041,30.82102 -32.16183,30.82102 h -19.52809"
       style="fill:#000000;fill-opacity:1;fill-rule:evenodd;stroke:none;stroke-width:0.442513" />
    <path
       id="path4"
       d="m 762.09091,703.75816 -23.47088,-72.95265 v 72.95265 h -18.96609 v -95.91022 h 34.01153 l 16.09419,54.88486 18.30675,-54.88486 h 35.31252 v 95.91022 H 800.95238 V 630.5577 l -23.15669,73.20046 h -15.70478"
       style="fill:#000000;fill-opacity:1;fill-rule:evenodd;stroke:none;stroke-width:0.442513" />
    <path
       id="path5"
       d="m 601.73313,603.6131 h -58.57099 v 27.89158 h 46.36649 v 23.40007 h -46.36649 v 48.85784 H 512.75266 V 578.90318 h 88.98047 v 24.70992"
       style="fill:#000000;fill-opacity:1;fill-rule:evenodd;stroke:none;stroke-width:0.442513" />
    <path
       id="path6"
       d="m 710.29037,603.6131 h -58.571 v 27.89158 h 46.36649 v 23.40007 h -46.36649 v 48.85784 H 621.31432 V 578.90318 h 88.97605 v 24.70992"
       style="fill:#000000;fill-opacity:1;fill-rule:evenodd;stroke:none;stroke-width:0.442513" />
    <path
       id="path7"
       d="m 303.0016,569.9954 c -15.22244,0 -16.32872,-24.96215 0.0266,-24.96215 l 56.42923,0.0929 c 12.43904,0 15.41715,16.2889 8.68653,21.91324 l -51.65894,51.22527 v 18.54571 l 93.61358,-93.29939 h 59.9472 c 13.58514,0 18.51031,16.78451 9.93441,24.18775 -48.22946,48.06574 -96.39255,96.06952 -144.6176,144.13084 h 20.39984 L 464.53204,603.42724 c 5.81905,-5.80134 20.50162,-0.61067 20.50162,11.50533 v 59.18166 l -39.06503,39.21106 h 25.88257 c 15.22244,0 16.32873,25.72327 -0.0265,25.72327 l -56.42923,-0.0929 c -12.43903,0 -15.42157,-16.54555 -8.68652,-22.16989 l 52.39794,-53.24756 v -17.53236 l -94.62251,93.29939 h -59.94721 c -13.58514,0 -18.51031,-16.7845 -9.93441,-24.18774 48.21619,-48.05689 96.40141,-96.07838 144.6176,-144.13084 H 418.82047 L 310.05083,679.38898 c -5.81904,5.79692 -19.49269,0.61067 -19.49269,-11.50533 v -59.94278 l 38.0738,-37.94547 H 303.0016"
       style="fill:#008700;fill-opacity:1;fill-rule:nonzero;stroke:none;stroke-width:0.442513" />
  </g>
</svg>
