<?xml version="1.0" encoding="UTF-8" standalone="no"?>
<!-- Created with Inkscape (http://www.inkscape.org/) -->

<svg
   width="370.01633mm"
   height="112.15332mm"
   viewBox="0 0 370.01633 112.15332"
   version="1.1"
   class="fill:#ffffff; color:#ffffff;"
   id="svg1"
   xml:space="preserve"
   sodipodi:docname="onetentv-logo-horizontal-white.svg"
   inkscape:version="1.4 (e7c3feb100, 2024-10-09)"
   xmlns:inkscape="http://www.inkscape.org/namespaces/inkscape"
   xmlns:sodipodi="http://sodipodi.sourceforge.net/DTD/sodipodi-0.dtd"
   xmlns="http://www.w3.org/2000/svg"
   xmlns:svg="http://www.w3.org/2000/svg"
   xmlns:rdf="http://www.w3.org/1999/02/22-rdf-syntax-ns#"
   xmlns:cc="http://creativecommons.org/ns#"
   xmlns:dc="http://purl.org/dc/elements/1.1/"><sodipodi:namedview
     id="namedview1"
     pagecolor="#ffffff"
     bordercolor="#000000"
     borderopacity="0.25"
     inkscape:showpageshadow="2"
     inkscape:pageopacity="0.0"
     inkscape:pagecheckerboard="0"
     inkscape:deskcolor="#d1d1d1"
     inkscape:document-units="mm"
     inkscape:zoom="0.52785348"
     inkscape:cx="586.33695"
     inkscape:cy="177.13249"
     inkscape:window-width="3832"
     inkscape:window-height="1104"
     inkscape:window-x="0"
     inkscape:window-y="864"
     inkscape:window-maximized="1"
     inkscape:current-layer="svg1" /><defs
     id="defs1" /><g
     id="layer1"
     transform="translate(-13.020695,-49.857285)"><g
       id="g1"
       transform="matrix(2.4858414,0,0,2.4858414,-27.494267,-71.311069)"><path
         style="font-size:24.379px;font-family:'Arial Greek';-inkscape-font-specification:'Arial Greek, Normal';letter-spacing:1.93862px;stroke-width:6.33456;stroke-miterlimit:4.5;stroke-dasharray:76.015, 76.015;paint-order:markers fill stroke;fill:#ffffff;fill-opacity:1"
         d="m 148.19359,131.215 v -17.4867 h 1.95222 v 1.64273 q 0.65471,-0.96421 1.5594,-1.44036 0.91659,-0.48806 2.08317,-0.48806 2.5117,0 3.94016,1.82128 1.44036,1.82129 1.44036,4.53536 0,3.16641 -1.5475,5.0115 -1.54749,1.84509 -3.97587,1.84509 -1.01182,0 -1.84509,-0.39283 -0.82136,-0.40473 -1.46417,-1.20228 v 6.15427 z m 1.94032,-11.09435 q 0,2.1903 0.86897,3.48781 0.88089,1.28562 2.4998,1.28562 1.44036,0 2.45219,-1.21419 1.02373,-1.21419 1.02373,-3.78541 0,-2.22602 -0.94041,-3.49972 -0.9404,-1.27371 -2.42837,-1.27371 -1.52369,0 -2.4998,1.39274 -0.97611,1.39275 -0.97611,3.60686 z m 13.48531,6.2495 V 113.7283 h 1.92842 v 1.91652 q 0.57138,-1.10706 1.2499,-1.65463 0.69042,-0.54758 1.48797,-0.54758 1.10706,0 2.20221,0.69042 l -0.73804,1.98794 q -0.78565,-0.46425 -1.5713,-0.46425 -1.20229,0 -1.80938,1.02373 -0.60709,1.02373 -0.60709,3.07118 v 6.61852 z m 9.34279,-6.32092 q 0,-3.40449 1.73795,-4.9996 1.73796,-1.60702 4.19015,-1.60702 2.71406,0 4.30917,1.76177 1.60702,1.76176 1.60702,4.66629 0,3.41639 -1.65463,5.10673 -1.64273,1.67844 -4.26156,1.67844 -2.52361,0 -4.22586,-1.63082 -1.70224,-1.64273 -1.70224,-4.97579 z m 2.2022,0 q 0,2.39266 1.04754,3.61875 1.05944,1.2261 2.67836,1.2261 1.61891,0 2.66645,-1.2261 1.04753,-1.22609 1.04753,-3.69018 0,-2.24982 -1.02372,-3.49972 -1.02373,-1.2618 -2.69026,-1.2618 -1.63083,0 -2.67836,1.22609 -1.04754,1.22609 -1.04754,3.60686 z m 22.29414,6.32092 v -1.59511 q -0.59519,0.9404 -1.47608,1.41655 -0.88088,0.46425 -2.04745,0.46425 -2.41647,0 -3.94016,-1.857 -1.51178,-1.85699 -1.51178,-4.72581 0,-3.05928 1.46416,-4.84485 1.46417,-1.78557 3.88065,-1.78557 1.11895,0 1.98793,0.44044 0.86898,0.42854 1.49988,1.29752 v -6.26141 h 2.13078 v 17.45099 z m -6.77327,-6.30902 q 0,2.23792 0.9404,3.53543 0.9404,1.29752 2.4998,1.29752 1.34513,0 2.35695,-1.11896 1.01183,-1.11896 1.01183,-3.57115 0,-2.23791 -0.89279,-3.60685 -0.89278,-1.38084 -2.57122,-1.38084 -1.5713,0 -2.46409,1.27371 -0.88088,1.2737 -0.88088,3.57114 z m 22.35365,6.30902 v -1.857 q -0.73803,1.07135 -1.74986,1.60702 -0.99992,0.53567 -2.27362,0.53567 -1.49988,0 -2.55932,-0.66661 -1.04754,-0.66662 -1.40465,-1.65463 -0.34521,-0.99992 -0.34521,-2.77359 v -7.83271 h 2.14268 v 7.01135 q 0,1.65463 0.15475,2.36885 0.15475,0.70233 0.80946,1.20229 0.65471,0.49996 1.64273,0.49996 1.5713,0 2.46408,-0.98802 0.89279,-0.98801 0.89279,-3.32116 v -6.77327 h 2.14269 v 12.64185 z m 15.41373,-4.63058 2.10697,0.27378 q -0.30949,2.1903 -1.78557,3.4164 -1.47607,1.22609 -3.40449,1.22609 -2.8212,0 -4.32108,-1.78557 -1.49988,-1.78557 -1.49988,-4.77343 0,-3.26164 1.5713,-4.95198 1.58321,-1.70225 4.19015,-1.70225 1.86889,0 3.27354,0.97611 1.41656,0.97612 1.77367,3.02357 l -2.08317,0.3214 q -0.59519,-2.55931 -2.86881,-2.55931 -1.70225,0 -2.67836,1.21418 -0.97611,1.21419 -0.97611,3.55924 0,2.45219 0.88088,3.69018 0.88088,1.2261 2.64264,1.2261 2.72598,0 3.17832,-3.15451 z m 10.52127,2.71406 0.3095,1.89271 q -0.86898,0.19046 -1.60702,0.19046 -1.2499,0 -1.94032,-0.42854 -0.67852,-0.42853 -0.86898,-1.11895 -0.17855,-0.70233 -0.17855,-2.32125 v -7.27322 h -1.57131 v -1.66654 h 1.57131 v -3.1307 l 2.13078,-1.28561 v 4.41631 h 2.15459 v 1.66654 h -2.15459 v 7.39226 q 0,1.01183 0.22617,1.38084 0.22617,0.36902 0.98802,0.36902 0.38092,0 0.9404,-0.0833 z m 4.11701,-13.07038 v -2.46409 h 2.14269 v 2.46409 z m 0,14.9869 V 113.7283 h 2.14269 v 12.64185 z m 6.58112,-6.32092 q 0,-3.40449 1.73795,-4.9996 1.73796,-1.60702 4.19014,-1.60702 2.71407,0 4.30918,1.76177 1.60701,1.76176 1.60701,4.66629 0,3.41639 -1.65462,5.10673 -1.64273,1.67844 -4.26157,1.67844 -2.52361,0 -4.22585,-1.63082 -1.70224,-1.64273 -1.70224,-4.97579 z m 2.2022,0 q 0,2.39266 1.04754,3.61875 1.05943,1.2261 2.67835,1.2261 1.61892,0 2.66646,-1.2261 1.04753,-1.22609 1.04753,-3.69018 0,-2.24982 -1.02373,-3.49972 -1.02372,-1.2618 -2.69026,-1.2618 -1.63082,0 -2.67835,1.22609 -1.04754,1.22609 -1.04754,3.60686 z m 14.09241,6.32092 V 113.7283 h 1.92841 v 1.79748 q 0.70233,-1.04754 1.70225,-1.5594 1.01182,-0.52377 2.32124,-0.52377 1.54749,0 2.59503,0.66661 1.04754,0.66662 1.38084,1.65463 0.34521,0.97612 0.34521,2.83311 v 7.77319 h -2.14268 v -7.68986 q 0,-1.76177 -0.619,-2.57123 -0.619,-0.80945 -2.03555,-0.80945 -1.39275,0 -2.36886,0.89278 -0.96421,0.89279 -0.96421,3.27355 v 6.90421 z m 14.59237,-3.77351 2.11888,-0.33331 q 0.36901,2.63075 3.27354,2.63075 1.42846,0 2.1665,-0.58329 0.73803,-0.59519 0.73803,-1.42846 0,-0.72613 -0.53567,-1.08324 -0.53567,-0.34522 -2.28553,-0.78566 -2.09507,-0.53567 -3.05928,-0.92849 -0.9523,-0.40473 -1.51178,-1.17848 -0.54758,-0.77375 -0.54758,-1.82128 0,-1.66654 1.28561,-2.65455 1.29752,-0.98802 3.32117,-0.98802 2.01174,0 3.39258,0.77375 1.38084,0.76184 1.66654,2.77359 l -2.09507,0.28569 q -0.2976,-2.07126 -2.76169,-2.07126 -1.27371,0 -2.01174,0.42853 -0.72613,0.41664 -0.72613,1.20229 0,0.70232 0.52376,1.02372 0.51187,0.32141 2.45219,0.84518 2.1903,0.58328 3.15451,0.98801 0.96421,0.39283 1.45226,1.16657 0.48806,0.76185 0.48806,1.79748 0,1.70224 -1.38084,2.85691 -1.36894,1.14277 -3.71399,1.14277 -4.6901,0 -5.40433,-4.0592 z m 23.69707,3.77351 v -17.45099 h 2.14268 v 17.45099 z m 7.37867,-14.9869 v -2.46409 h 2.14268 v 2.46409 z m 0,14.9869 V 113.7283 h 2.14268 v 12.64185 z m 7.31914,0 V 113.7283 h 1.91652 v 1.77367 q 0.67851,-1.03563 1.64272,-1.54749 0.96421,-0.51187 2.21411,-0.51187 1.38084,0 2.26172,0.55948 0.89279,0.54758 1.28561,1.65463 0.72614,-1.10705 1.70225,-1.65463 0.97611,-0.55948 2.1903,-0.55948 1.96413,0 2.94024,1.05944 0.97611,1.05944 0.97611,3.19022 v 8.67788 h -2.13078 v -7.96365 q 0,-1.67844 -0.52377,-2.39267 -0.51186,-0.71422 -1.71414,-0.71422 -1.38085,0 -2.24982,0.90469 -0.85708,0.90468 -0.85708,2.8212 v 7.34465 h -2.14268 v -8.21363 q 0,-1.42846 -0.57139,-2.14269 -0.55948,-0.71422 -1.69034,-0.71422 -1.15467,0 -2.13078,0.83326 -0.97611,0.82137 -0.97611,3.67828 v 6.559 z m 22.28222,-14.9869 v -2.46409 h 2.14269 v 2.46409 z m 0,14.9869 V 113.7283 h 2.14269 v 12.64185 z m 11.97354,-1.91652 0.30949,1.89271 q -0.86897,0.19046 -1.60701,0.19046 -1.2499,0 -1.94032,-0.42854 -0.67852,-0.42853 -0.86898,-1.11895 -0.17856,-0.70233 -0.17856,-2.32125 v -7.27322 h -1.5713 v -1.66654 h 1.5713 v -3.1307 l 2.13079,-1.28561 v 4.41631 h 2.15459 v 1.66654 h -2.15459 v 7.39226 q 0,1.01183 0.22617,1.38084 0.22617,0.36902 0.98801,0.36902 0.38093,0 0.94041,-0.0833 z m 12.7949,-2.15458 2.21411,0.27378 q -0.47616,1.84509 -1.89271,2.96405 -1.41655,1.11896 -3.66637,1.11896 -2.83311,0 -4.42822,-1.73796 -1.59511,-1.73795 -1.59511,-4.76152 0,-3.03547 1.58321,-4.86866 1.5832,-1.84509 4.32108,-1.84509 2.57122,0 4.15443,1.76177 1.59511,1.76176 1.59511,4.84485 0,0.16665 -0.0119,0.54757 h -9.42781 q 0.0952,1.97603 1.13086,3.14261 1.03563,1.15467 2.69026,1.15467 2.45219,0 3.33307,-2.59503 z m -7.03515,-3.46401 h 7.05895 q -0.11903,-1.8808 -1.14276,-2.74978 -1.02373,-0.88088 -2.32124,-0.88088 -1.59511,0 -2.55932,1.07134 -0.95231,1.07134 -1.03563,2.55932 z m 22.07986,7.53511 v -1.59511 q -0.59519,0.9404 -1.47608,1.41655 -0.88088,0.46425 -2.04745,0.46425 -2.41647,0 -3.94016,-1.857 -1.51178,-1.85699 -1.51178,-4.72581 0,-3.05928 1.46416,-4.84485 1.46417,-1.78557 3.88065,-1.78557 1.11895,0 1.98793,0.44044 0.86898,0.42854 1.49988,1.29752 v -6.26141 h 2.13078 v 17.45099 z m -6.77327,-6.30902 q 0,2.23792 0.9404,3.53543 0.9404,1.29752 2.4998,1.29752 1.34513,0 2.35695,-1.11896 1.01183,-1.11896 1.01183,-3.57115 0,-2.23791 -0.89279,-3.60685 -0.89278,-1.38084 -2.57122,-1.38084 -1.5713,0 -2.46409,1.27371 -0.88088,1.2737 -0.88088,3.57114 z"
         id="text1"
         aria-label="productions limited"
         transform="matrix(0.40227828,0,0,0.40227828,11.060346,28.686894)" /><path
         id="text3"
         style="font-size:31.7891px;font-family:'ITC Kabel Std';-inkscape-font-specification:'ITC Kabel Std, Normal';stroke-width:12.755;stroke-miterlimit:4.5;stroke-dasharray:153.059, 153.059;paint-order:markers fill stroke;fill:#ffffff;fill-opacity:1"
         d="m 89.530711,48.743397 -1.843923,1.017172 v 3.910072 h -1.684684 l -0.445078,1.843923 h 2.129762 v 9.918101 c 0,1.292757 0.381457,2.363045 1.144396,3.210754 0.784131,0.847711 1.992186,1.250398 3.624026,1.208008 0.23312,0 0.466197,-0.02122 0.699318,-0.06361 0.23312,-0.02119 0.476812,-0.05303 0.731125,-0.09542 v -1.716699 c -0.23312,0.02119 -0.444971,0.04242 -0.635706,0.06361 h -0.50869 c -0.487433,0 -0.932363,-0.02122 -1.335025,-0.06361 -0.402662,-0.06358 -0.741875,-0.19073 -1.01738,-0.381465 -0.275506,-0.190735 -0.487357,-0.466059 -0.635706,-0.826335 -0.148354,-0.360277 -0.222435,-0.858482 -0.222435,-1.494264 v -9.75907 h 4.323344 v -1.843923 h -4.323344 z m -42.429557,4.421465 -1.843923,0.381465 V 69.758711 L 47.101154,69.50447 V 59.045874 c 0,-0.593397 0.127152,-1.144461 0.381465,-1.653087 0.275506,-0.529818 0.635738,-0.98557 1.080785,-1.367039 0.445047,-0.381469 0.953657,-0.67802 1.525861,-0.889947 0.572203,-0.211927 1.176127,-0.318061 1.811909,-0.318061 1.292757,0 2.278346,0.317985 2.956513,0.953767 0.678167,0.614589 1.017172,1.451591 1.017172,2.511228 v 8.293079 l -39.57657,25.327225 1.025903,1.603194 40.225373,-25.742575 0.169009,-0.02328 v -0.08482 l 2.941129,-1.882382 c 0.343489,0.648193 0.755017,1.237513 1.246259,1.757652 0.741745,0.762939 1.610587,1.366861 2.606646,1.811908 1.017251,0.445047 2.151012,0.667513 3.401383,0.667513 0.508625,0 1.038462,-0.05286 1.589473,-0.158823 0.551011,-0.105964 1.091461,-0.254342 1.62128,-0.445077 0.529819,-0.211927 1.027816,-0.45562 1.494056,-0.731125 0.46624,-0.275506 0.868924,-0.582878 1.208008,-0.921961 v -2.225181 c -0.890095,0.720553 -1.83323,1.345702 -2.829288,1.875521 -0.974866,0.508625 -2.044945,0.762931 -3.210546,0.762931 -0.614589,0 -1.208108,-0.09531 -1.780311,-0.286047 C 65.434459,67.689752 64.894008,67.424833 64.385383,67.08575 63.89795,66.746667 63.45302,66.354596 63.050358,65.909549 62.742084,65.532769 62.495286,65.13843 62.283894,64.73397 l 11.901305,-7.61642 -0.02557,-0.04012 0.112257,-0.06881 c -0.296698,-0.551011 -0.667542,-1.049009 -1.11259,-1.494056 -0.445047,-0.46624 -0.943045,-0.858311 -1.494056,-1.176202 -0.551011,-0.339083 -1.144528,-0.593389 -1.78031,-0.762931 -0.635782,-0.190732 -1.271545,-0.286255 -1.907327,-0.286255 -1.186793,0 -2.288714,0.201446 -3.305965,0.604108 -1.017251,0.402662 -1.896913,0.964131 -2.638659,1.684684 -0.741745,0.699361 -1.324442,1.557797 -1.748297,2.575048 -0.423855,0.996059 -0.635706,2.097978 -0.635706,3.305964 0,0.880464 0.103972,1.714805 0.306627,2.505199 l -2.237029,1.431691 v -6.731462 c 0,-1.716611 -0.476771,-3.062432 -1.430444,-4.037297 -0.953673,-0.974866 -2.426645,-1.462249 -4.418762,-1.462249 -1.038444,0 -1.981372,0.264918 -2.829081,0.794737 -0.826516,0.508625 -1.451874,1.123162 -1.875729,1.843715 h -0.0634 z m 56.194116,0.124314 c -1.18679,0 -2.28872,0.201446 -3.305962,0.604108 -1.017248,0.402662 -1.896707,0.964131 -2.638452,1.684684 -0.741746,0.699361 -1.32465,1.557797 -1.748505,2.575048 -0.423855,0.996059 -0.635706,2.097978 -0.635706,3.305964 0,1.207986 0.190625,2.331341 0.572094,3.369785 0.402662,1.038444 0.964339,1.939126 1.684892,2.702064 0.741746,0.762939 1.610585,1.366861 2.606646,1.811908 1.017243,0.445047 2.151013,0.667513 3.401383,0.667513 0.50863,0 1.03846,-0.05286 1.58947,-0.158823 0.55101,-0.105964 1.09146,-0.254342 1.62128,-0.445077 0.52982,-0.211927 1.02782,-0.45562 1.49406,-0.731125 0.46624,-0.275506 0.86892,-0.582878 1.20801,-0.921961 v -2.225181 c -0.8901,0.720553 -1.83324,1.345702 -2.82929,1.875521 -0.97487,0.508625 -2.04495,0.762931 -3.21055,0.762931 -0.61459,0 -1.20811,-0.09531 -1.78031,-0.286047 -0.57221,-0.190735 -1.11265,-0.455654 -1.621277,-0.794737 -0.487432,-0.339084 -0.932363,-0.731155 -1.335025,-1.176202 -0.381469,-0.46624 -0.688842,-0.953624 -0.921962,-1.46225 L 109.58956,57.00862 c -0.29669,-0.551011 -0.66754,-1.049009 -1.11259,-1.494056 -0.44505,-0.46624 -0.94305,-0.858311 -1.49406,-1.176202 -0.55101,-0.339083 -1.14453,-0.593389 -1.78031,-0.762931 -0.63579,-0.190732 -1.27155,-0.286255 -1.90733,-0.286255 z m 10.39519,0 -1.84392,0.381465 v 16.212592 l 1.84392,-0.254448 V 59.170188 c 0,-0.593397 0.12716,-1.14446 0.38147,-1.653086 0.27551,-0.529818 0.63573,-0.985363 1.08078,-1.366832 0.44505,-0.381469 0.95366,-0.678228 1.52587,-0.890155 0.5722,-0.211927 1.17611,-0.317853 1.8119,-0.317853 1.29275,0 2.27835,0.317985 2.95652,0.953767 0.67817,0.614589 1.01717,1.451591 1.01717,2.511228 v 11.475976 l 1.84371,-0.254448 V 58.788722 c 0,-1.716611 -0.47677,-3.062224 -1.43044,-4.037089 -0.95367,-0.974866 -2.42665,-1.462457 -4.41876,-1.462457 -1.03845,0 -1.98137,0.264918 -2.82908,0.794737 -0.82652,0.508625 -1.45188,1.123162 -1.87573,1.843715 h -0.0636 z m -45.744663,1.843923 c 0.784131,0 1.462348,0.137558 2.034551,0.413063 0.572204,0.254313 1.03836,0.582912 1.398637,0.985574 l -9.75907,6.262477 c -0.04239,-0.211927 -0.07423,-0.445006 -0.09542,-0.699319 -0.02119,-0.254313 -0.03181,-0.455759 -0.03181,-0.604108 0,-0.911287 0.169605,-1.758902 0.508689,-2.543033 0.339084,-0.784131 0.794629,-1.451735 1.366832,-2.002746 0.593397,-0.572204 1.282226,-1.017342 2.066357,-1.335233 0.784131,-0.317891 1.621133,-0.476675 2.511228,-0.476675 z m 35.317673,0 c 0.78413,0 1.46235,0.137558 2.03455,0.413063 0.57221,0.254313 1.03836,0.582912 1.39863,0.985574 l -9.759066,6.262477 c -0.04239,-0.211927 -0.07423,-0.445006 -0.09542,-0.699319 -0.02119,-0.254313 -0.03181,-0.455759 -0.03181,-0.604108 0,-0.911287 0.169606,-1.758902 0.50869,-2.543033 0.339083,-0.784131 0.794627,-1.451735 1.366831,-2.002746 0.593397,-0.572204 1.282232,-1.017342 2.066355,-1.335233 0.78413,-0.317891 1.62114,-0.476675 2.51123,-0.476675 z m -27.211481,5.658369 v 1.716698 h 8.106192 v -1.716698 z" /><path
         d="m 43.769039,61.535226 c 0,1.226617 -0.233057,2.428702 -0.699172,3.606254 -0.466116,1.15302 -1.128489,2.18338 -1.98712,3.091076 -0.8341,0.883164 -1.82766,1.606868 -2.980681,2.171112 -1.15302,0.539712 -2.404169,0.809567 -3.753448,0.809567 -1.324747,0 -2.56363,-0.257589 -3.716649,-0.772769 -1.153021,-0.515178 -2.158847,-1.21435 -3.017479,-2.097515 -0.858633,-0.883164 -1.533271,-1.913522 -2.023917,-3.091075 -0.490649,-1.177552 -0.735972,-2.416436 -0.735972,-3.71665 0,-1.275682 0.233057,-2.490034 0.699173,-3.643053 0.490646,-1.177552 1.153019,-2.207912 1.987118,-3.091077 0.858633,-0.907696 1.864459,-1.619134 3.017479,-2.134313 1.15302,-0.539712 2.404168,-0.809567 3.753449,-0.809567 1.300214,0 2.526831,0.25759 3.679851,0.772769 1.15302,0.515178 2.158847,1.214351 3.017478,2.097516 0.858634,0.883165 1.533272,1.913521 2.023919,3.091075 0.490648,1.177551 0.735971,2.416436 0.735971,3.71665 z m -9.457219,7.543695 c 1.005826,0 1.950321,-0.196258 2.833485,-0.588775 0.883165,-0.417051 1.655933,-0.969028 2.318306,-1.655933 0.662374,-0.686907 1.189821,-1.484208 1.582336,-2.391905 0.392519,-0.907697 0.588778,-1.876723 0.588778,-2.907082 0,-0.981293 -0.183994,-1.925789 -0.551978,-2.833485 C 40.714762,57.794043 40.199582,56.996743 39.537209,56.309836 38.874835,55.598398 38.0898,55.034155 37.182104,54.617105 36.29894,54.200054 35.329911,53.99153 34.275022,53.99153 c -1.005827,0 -1.950322,0.208524 -2.833486,0.625575 -0.883166,0.392517 -1.655935,0.932228 -2.318308,1.619133 -0.662373,0.686907 -1.189817,1.496474 -1.582336,2.428704 -0.367984,0.907697 -0.551977,1.864457 -0.551977,2.870284 0,1.005826 0.183993,1.962586 0.551977,2.870284 0.367985,0.907696 0.870898,1.704997 1.508741,2.391903 0.662373,0.686907 1.43514,1.238884 2.318306,1.655933 0.907696,0.417051 1.888989,0.625575 2.943881,0.625575 z"
         style="font-size:31.7891px;font-family:'ITC Kabel Std';-inkscape-font-specification:'ITC Kabel Std, Normal';fill:#ffffff;fill-opacity:1;stroke-width:14.765;stroke-miterlimit:4.5;stroke-dasharray:177.179, 177.179;paint-order:markers fill stroke"
         id="path1" /><path
         d="m 65.892001,84.182233 c 0,1.226617 -0.233057,2.428702 -0.699172,3.606254 -0.466116,1.15302 -1.128489,2.18338 -1.98712,3.091076 -0.8341,0.883164 -1.82766,1.606868 -2.980681,2.171112 -1.15302,0.539712 -2.404169,0.809567 -3.753448,0.809567 -1.324747,0 -2.56363,-0.257589 -3.716649,-0.772769 -1.153021,-0.515178 -2.158847,-1.21435 -3.017479,-2.097515 -0.858633,-0.883164 -1.533271,-1.913522 -2.023917,-3.091075 -0.490649,-1.177552 -0.735972,-2.416436 -0.735972,-3.71665 0,-1.275682 0.233057,-2.490034 0.699173,-3.643053 0.490646,-1.177552 1.153019,-2.207912 1.987118,-3.091077 0.858633,-0.907696 1.864459,-1.619134 3.017479,-2.134313 1.15302,-0.539712 2.404168,-0.809567 3.753449,-0.809567 1.300214,0 2.526831,0.25759 3.679851,0.772769 1.15302,0.515178 2.158847,1.214351 3.017478,2.097516 0.858634,0.883165 1.533272,1.913521 2.023919,3.091075 0.490648,1.177551 0.735971,2.416436 0.735971,3.71665 z m -9.457219,7.543695 c 1.005826,0 1.950321,-0.196258 2.833485,-0.588775 0.883165,-0.417051 1.655933,-0.969028 2.318306,-1.655933 0.662374,-0.686907 1.189821,-1.484208 1.582336,-2.391905 0.392519,-0.907697 0.588778,-1.876723 0.588778,-2.907082 0,-0.981293 -0.183994,-1.925789 -0.551978,-2.833485 -0.367985,-0.907698 -0.883165,-1.704998 -1.545538,-2.391905 -0.662374,-0.711438 -1.447409,-1.275681 -2.355105,-1.692731 -0.883164,-0.417051 -1.852193,-0.625575 -2.907082,-0.625575 -1.005827,0 -1.950322,0.208524 -2.833486,0.625575 -0.883166,0.392517 -1.655935,0.932228 -2.318308,1.619133 -0.662373,0.686907 -1.189817,1.496474 -1.582336,2.428704 -0.367984,0.907697 -0.551977,1.864457 -0.551977,2.870284 0,1.005826 0.183993,1.962586 0.551977,2.870284 0.367985,0.907696 0.870898,1.704997 1.508741,2.391903 0.662373,0.686907 1.43514,1.238884 2.318306,1.655933 0.907696,0.417051 1.888989,0.625575 2.943881,0.625575 z"
         style="font-size:31.7891px;font-family:'ITC Kabel Std';-inkscape-font-specification:'ITC Kabel Std, Normal';fill:#ffffff;fill-opacity:1;stroke-width:14.765;stroke-miterlimit:4.5;stroke-dasharray:177.179, 177.179;paint-order:markers fill stroke"
         id="path1-5" /></g></g><metadata
     id="metadata1"><rdf:RDF><cc:Work
         rdf:about=""><dc:contributor><cc:Agent><dc:title>Simon Greer</dc:title></cc:Agent></dc:contributor><dc:creator><cc:Agent><dc:title>Simon Greer</dc:title></cc:Agent></dc:creator><dc:date>01/01/2025</dc:date></cc:Work></rdf:RDF></metadata></svg>
