<?xml version="1.0" encoding="UTF-8" standalone="no"?>
<svg
   version="1.1"
   viewBox="0 0 276.79999 77.499998"
   id="svg9"
   sodipodi:docname="pfsense-logo-horizontal.svg"
   inkscape:version="1.3.2 (091e20ef0f, 2023-11-25, custom)"
   width="276.79999"
   height="77.5"
   xmlns:inkscape="http://www.inkscape.org/namespaces/inkscape"
   xmlns:sodipodi="http://sodipodi.sourceforge.net/DTD/sodipodi-0.dtd"
   xmlns="http://www.w3.org/2000/svg"
   xmlns:svg="http://www.w3.org/2000/svg"
   xmlns:rdf="http://www.w3.org/1999/02/22-rdf-syntax-ns#"
   xmlns:cc="http://creativecommons.org/ns#"
   xmlns:dc="http://purl.org/dc/elements/1.1/">
  <defs
     id="defs9" />
  <sodipodi:namedview
     id="namedview9"
     pagecolor="#ffffff"
     bordercolor="#000000"
     borderopacity="0.25"
     inkscape:showpageshadow="2"
     inkscape:pageopacity="0.0"
     inkscape:pagecheckerboard="0"
     inkscape:deskcolor="#d1d1d1"
     inkscape:zoom="2.0270566"
     inkscape:cx="107.5451"
     inkscape:cy="40.452744"
     inkscape:window-width="1444"
     inkscape:window-height="1200"
     inkscape:window-x="0"
     inkscape:window-y="0"
     inkscape:window-maximized="0"
     inkscape:current-layer="svg9" />
  <metadata
     id="metadata1">
    <rdf:RDF>
      <cc:Work
         rdf:about="">
        <dc:format>image/svg+xml</dc:format>
        <dc:type
           rdf:resource="http://purl.org/dc/dcmitype/StillImage" />
        <dc:title>pfSense Logo Horizontal Colour</dc:title>
        <cc:license
           rdf:resource="https://simongreer.co.uk" />
        <dc:date>23/10/2024</dc:date>
        <dc:creator>
          <cc:Agent>
            <dc:title>Simon Greer</dc:title>
          </cc:Agent>
        </dc:creator>
      </cc:Work>
    </rdf:RDF>
  </metadata>
  <title
     id="cvfa">pfSense Logo Horizontal Colour</title>
  <path
     class="pf0"
     d="m 22.4,54.7 c 2.9,0 5.4,-0.9 7.5,-2.6 2.1,-1.7 3.6,-4 4.4,-6.8 0.8,-2.8 0.6,-5.1 -0.5,-6.8 -1.1,-1.7 -3.2,-2.6 -6.1,-2.6 -2.9,0 -5.4,0.9 -7.5,2.6 -2.1,1.7 -3.5,4 -4.3,6.8 -0.8,2.8 -0.7,5.1 0.5,6.8 1,1.8 3,2.6 6,2.6"
     style="fill:#263eb5;fill-opacity:1"
     id="path1" />
  <path
     class="pf0"
     d="m 109.7,43.6 c -1.5,-0.8 -3,-1.4 -4.7,-1.8 -1.7,-0.4 -3.2,-0.7 -4.7,-1.1 -1.5,-0.3 -2.7,-0.7 -3.6,-1.1 -0.9,-0.4 -1.4,-1.1 -1.4,-2 0,-1.1 0.5,-1.9 1.4,-2.4 0.9,-0.5 1.9,-0.7 2.8,-0.7 2.8,0 5,1 6.7,3.1 l 7,-7 c -1.7,-1.8 -3.9,-3.1 -6.4,-3.8 -2.5,-0.7 -5,-1.1 -7.4,-1.1 -1.9,0 -3.9,0.2 -5.7,0.7 -1.9,0.5 -3.6,1.2 -5,2.3 -1.5,1 -2.6,2.3 -3.5,3.9 -0.9,1.6 -1.3,3.5 -1.3,5.7 0,2.3 0.5,4.2 1.4,5.6 0.9,1.4 2.1,2.5 3.6,3.3 1.5,0.8 3,1.3 4.7,1.7 1.7,0.4 3.2,0.7 4.7,1.1 1.5,0.3 2.7,0.7 3.6,1.2 0.9,0.5 1.4,1.2 1.4,2.2 0,1 -0.5,1.7 -1.6,2.1 -1.1,0.4 -2.3,0.6 -3.6,0.6 -1.7,0 -3.3,-0.3 -4.6,-1 -1.3,-0.7 -2.5,-1.7 -3.6,-3 l -7,7.7 c 1.8,1.9 4.1,3.2 6.7,3.9 2.7,0.7 5.3,1.1 7.9,1.1 2,0 4,-0.2 6.1,-0.6 2,-0.4 3.9,-1 5.5,-2 1.6,-0.9 3,-2.2 4,-3.8 1,-1.6 1.6,-3.5 1.6,-5.9 0,-2.3 -0.5,-4.2 -1.4,-5.6 -1,-1.3 -2.2,-2.5 -3.6,-3.3"
     style="fill:#263eb5;fill-opacity:1"
     id="path2" />
  <path
     class="pf0"
     d="m 150.9,31.1 c -1.5,-1.7 -3.3,-3 -5.5,-3.9 -2.2,-0.9 -4.6,-1.4 -7.2,-1.4 -2.9,0 -5.6,0.5 -8.1,1.4 -2.5,0.9 -4.7,2.2 -6.6,3.9 -1.9,1.7 -3.3,3.8 -4.4,6.2 -1.1,2.4 -1.6,5.1 -1.6,8 0,3 0.5,5.6 1.6,8 1.1,2.4 2.5,4.5 4.4,6.2 1.9,1.7 4.1,3 6.6,3.9 2.5,0.9 5.2,1.4 8.1,1.4 3,0 5.9,-0.6 8.7,-1.9 2.8,-1.3 5.1,-3.1 7,-5.4 l -8,-5.9 c -1,1.3 -2.1,2.4 -3.4,3.3 -1.3,0.8 -2.9,1.3 -4.8,1.3 -2.2,0 -4.1,-0.7 -5.7,-2 -1.5,-1.3 -2.5,-3.1 -3,-5.2 h 26.6 v -3.6 c 0,-3 -0.4,-5.6 -1.2,-8 -0.8,-2.5 -2,-4.6 -3.5,-6.3 m -22,10 c 0.1,-0.9 0.3,-1.8 0.7,-2.6 0.4,-0.8 0.9,-1.6 1.6,-2.2 0.7,-0.6 1.5,-1.2 2.5,-1.6 1,-0.4 2.1,-0.6 3.4,-0.6 2.1,0 3.8,0.7 5.1,2.1 1.3,1.4 2,3 1.9,5 h -15.2 z"
     style="fill:#263eb5;fill-opacity:1"
     id="path3" />
  <path
     class="pf0"
     d="m 192.9,30.8 c -1,-1.6 -2.4,-2.8 -4.2,-3.7 -1.8,-0.9 -4.1,-1.3 -7,-1.3 -1.4,0 -2.7,0.2 -3.8,0.5 -1.2,0.4 -2.2,0.8 -3.1,1.4 -0.9,0.6 -1.7,1.2 -2.4,1.9 -0.7,0.7 -1.2,1.4 -1.5,2.1 h -0.3 v -5.1 h -11 v 37.2 h 11.5 V 45.4 c 0,-1.2 0.1,-2.4 0.2,-3.5 0.2,-1.1 0.5,-2.1 1,-3 0.5,-0.9 1.2,-1.6 2.1,-2.1 0.9,-0.5 2.1,-0.8 3.6,-0.8 1.5,0 2.6,0.3 3.4,0.9 0.8,0.6 1.4,1.4 1.8,2.4 0.4,1 0.6,2 0.7,3.2 0.1,1.1 0.1,2.3 0.1,3.3 V 64 h 11.5 V 43.4 c 0,-2.5 -0.2,-4.8 -0.5,-7 -0.5,-2.1 -1.1,-4 -2.1,-5.6"
     style="fill:#263eb5;fill-opacity:1"
     id="path4" />
  <path
     class="pf0"
     d="m 226.1,43.6 c -1.5,-0.8 -3,-1.4 -4.7,-1.8 -1.7,-0.4 -3.2,-0.7 -4.7,-1.1 -1.5,-0.3 -2.7,-0.7 -3.6,-1.1 -0.9,-0.4 -1.4,-1.1 -1.4,-2 0,-1.1 0.5,-1.9 1.4,-2.4 0.9,-0.5 1.9,-0.7 2.8,-0.7 2.8,0 5,1 6.7,3.1 l 7,-7 c -1.7,-1.8 -3.9,-3.1 -6.4,-3.8 -2.5,-0.7 -5,-1.1 -7.4,-1.1 -1.9,0 -3.9,0.2 -5.7,0.7 -1.9,0.5 -3.6,1.2 -5,2.3 -1.5,1 -2.6,2.3 -3.5,3.9 -0.9,1.6 -1.3,3.5 -1.3,5.7 0,2.3 0.5,4.2 1.4,5.6 0.9,1.4 2.1,2.5 3.6,3.3 1.5,0.8 3,1.3 4.7,1.7 1.7,0.4 3.2,0.7 4.7,1.1 1.5,0.3 2.7,0.7 3.6,1.2 0.9,0.5 1.4,1.2 1.4,2.2 0,1 -0.5,1.7 -1.6,2.1 -1.1,0.4 -2.3,0.6 -3.6,0.6 -1.7,0 -3.3,-0.3 -4.6,-1 -1.3,-0.7 -2.5,-1.7 -3.6,-3 l -7,7.7 c 1.8,1.9 4.1,3.2 6.7,3.9 2.7,0.7 5.3,1.1 7.9,1.1 2,0 4,-0.2 6.1,-0.6 2,-0.4 3.9,-1 5.5,-2 1.6,-0.9 3,-2.2 4,-3.8 1,-1.6 1.6,-3.5 1.6,-5.9 0,-2.3 -0.5,-4.2 -1.4,-5.6 -1,-1.3 -2.2,-2.5 -3.6,-3.3"
     style="fill:#263eb5;fill-opacity:1"
     id="path5" />
  <path
     class="pf0"
     d="m 272,48.9 v -4.2 c -0.1,-2.7 -0.5,-5.2 -1.2,-7.4 -0.8,-2.4 -2,-4.5 -3.5,-6.2 -1.5,-1.7 -3.3,-3 -5.5,-3.9 -2.2,-0.9 -4.6,-1.4 -7.2,-1.4 -2.9,0 -5.6,0.5 -8.1,1.4 -2.5,0.9 -4.7,2.2 -6.6,3.9 -1.9,1.7 -3.3,3.8 -4.4,6.2 -1.1,2.4 -1.6,5.1 -1.6,8 0,3 0.5,5.6 1.6,8 1.1,2.4 2.5,4.5 4.4,6.2 1.9,1.7 4.1,3 6.6,3.9 2.5,0.9 5.2,1.4 8.1,1.4 3,0 5.9,-0.6 8.7,-1.9 2.8,-1.3 5.1,-3.1 7,-5.4 l -8,-5.9 c -1,1.3 -2.1,2.4 -3.4,3.3 -1.3,0.8 -2.9,1.3 -4.8,1.3 -2.2,0 -4.1,-0.7 -5.7,-2 -1.5,-1.3 -2.5,-3.1 -3,-5.2 H 272 Z m -26.7,-7.8 c 0.1,-0.9 0.3,-1.8 0.7,-2.6 0.4,-0.8 0.9,-1.6 1.6,-2.2 0.7,-0.6 1.5,-1.2 2.5,-1.6 1,-0.4 2.1,-0.6 3.4,-0.6 2.1,0 3.8,0.7 5.1,2.1 1.3,1.4 2,3 1.9,5 h -15.2 z"
     style="fill:#263eb5;fill-opacity:1"
     id="path6" />
  <path
     class="pf1"
     d="m 47.2,35.9 2.6,-9.2 h 4.6 l 1.8,-6.6 c 0.6,-2 1.3,-4 2.2,-5.8 0.8,-1.8 2,-3.4 3.4,-4.8 C 63.2,8.1 65,7 67.1,6.2 69.2,5.4 71.9,5 75,5 75.8,5 76.5,5 77.3,5.1 76.6,2.2 74,0.1 71,0 H 6.5 C 2.9,0 0,3 0,6.6 V 64 L 10.5,26.7 h 10.6 l -1.4,4.9 h 0.2 c 0.6,-0.7 1.4,-1.3 2.4,-2 1,-0.7 2,-1.3 3.1,-1.9 1.1,-0.6 2.3,-1 3.6,-1.4 1.3,-0.4 2.6,-0.5 3.9,-0.5 2.8,0 5.1,0.5 7.1,1.4 2,0.9 3.5,2.3 4.7,4 1,1.5 1.6,3.3 1.9,5.4 L 47.4,36 h -0.2 z"
     style="fill:#0b75cf;fill-opacity:1"
     id="path7" />
  <path
     class="pf2"
     d="m 76.7,14.9 c -0.5,-0.1 -1.1,-0.2 -1.8,-0.2 -1.8,0 -3.3,0.4 -4.5,1.2 -1.1,0.8 -2.1,2.4 -2.8,4.9 l -1.7,5.9 h 6.5 l 1.6,5.1 -4.2,4.1 h -6.5 l -7.9,28 H 44 l 7.9,-28 h -4.4 l -0.9,0.6 c 0,0.2 0.1,0.5 0.1,0.7 0.2,2.3 -0.1,4.9 -0.9,7.7 -0.7,2.6 -1.8,5.1 -3.3,7.5 -1.5,2.4 -3.2,4.5 -5.1,6.3 -2,1.8 -4.2,3.3 -6.6,4.4 -2.4,1.1 -4.9,1.6 -7.6,1.6 -2.4,0 -4.5,-0.4 -6.4,-1.1 -1.9,-0.7 -3.2,-2 -4,-3.8 h -0.2 l -5,17.7 h 63.3 c 3.6,0 6.6,-2.9 6.6,-6.6 V 15.2 C 77.2,15.1 76.9,15 76.7,14.9"
     style="fill:#140975;fill-opacity:1"
     id="path8" />
  <path
     class="pf0"
     d="m 272.2,65.5 h 0.8 c 0.4,0 0.6,-0.1 0.7,-0.2 0.1,-0.1 0.2,-0.2 0.2,-0.4 0,-0.1 0,-0.2 -0.1,-0.3 -0.1,-0.1 -0.1,-0.2 -0.3,-0.2 -0.1,0 -0.3,-0.1 -0.6,-0.1 h -0.7 z m -0.6,2.1 v -3.8 h 1.3 c 0.5,0 0.8,0 1,0.1 0.2,0.1 0.4,0.2 0.5,0.4 0.1,0.2 0.2,0.4 0.2,0.6 0,0.3 -0.1,0.5 -0.3,0.7 -0.2,0.2 -0.5,0.3 -0.8,0.3 0.1,0.1 0.2,0.1 0.3,0.2 0.2,0.2 0.3,0.4 0.6,0.8 l 0.5,0.7 h -0.8 L 273.8,67 c -0.3,-0.5 -0.5,-0.8 -0.6,-0.9 C 273.1,66 272.9,66 272.7,66 h -0.4 v 1.6 z m 1.6,-4.9 c -0.5,0 -1,0.1 -1.5,0.4 -0.5,0.3 -0.8,0.6 -1.1,1.1 -0.3,0.5 -0.4,1 -0.4,1.5 0,0.5 0.1,1 0.4,1.5 0.3,0.5 0.6,0.8 1.1,1.1 0.5,0.3 1,0.4 1.5,0.4 0.5,0 1,-0.1 1.5,-0.4 0.5,-0.3 0.8,-0.6 1.1,-1.1 0.3,-0.5 0.4,-1 0.4,-1.5 0,-0.5 -0.1,-1 -0.4,-1.5 -0.3,-0.5 -0.6,-0.8 -1.1,-1.1 -0.5,-0.3 -1,-0.4 -1.5,-0.4 z m 0,-0.6 c 0.6,0 1.2,0.2 1.8,0.5 0.6,0.3 1,0.7 1.3,1.3 0.3,0.6 0.5,1.2 0.5,1.8 0,0.6 -0.2,1.2 -0.5,1.8 -0.3,0.6 -0.8,1 -1.3,1.3 -0.6,0.3 -1.2,0.5 -1.8,0.5 -0.6,0 -1.2,-0.2 -1.8,-0.5 -0.6,-0.3 -1,-0.8 -1.3,-1.3 -0.3,-0.6 -0.5,-1.2 -0.5,-1.8 0,-0.6 0.2,-1.2 0.5,-1.8 0.3,-0.6 0.8,-1 1.3,-1.3 0.6,-0.4 1.2,-0.5 1.8,-0.5 z"
     style="fill:#263eb5;fill-opacity:1"
     id="path9" />
</svg>
