<?xml version="1.0" encoding="UTF-8"?>
<!-- Created with Inkscape by Vulphere (http://www.inkscape.org/) -->
<svg width="26.001mm" height="5.971mm" version="1.1" viewBox="0 0 26.001 5.971" xmlns="http://www.w3.org/2000/svg">
<title>PipeWire wordmark</title>
 <g transform="translate(1.5772 -69.361)">
  <g fill="#201a26" stroke-width=".073385">
   <path d="m-1.5771 75.332v-4.5428h1.1787v0.57645h0.025811q0.096792-0.25166 0.32909-0.43449 0.2323-0.18498 0.60011-0.18498 0.32694 0 0.62162 0.17422 0.29683 0.17422 0.48181 0.54849 0.18713 0.37426 0.18713 0.97222 0 0.57215-0.17853 0.94856-0.17638 0.37641-0.4732 0.56139-0.29468 0.18498-0.64743 0.18498-0.34845 0-0.5829-0.16562-0.23445-0.16777-0.33769-0.41943h-0.017207v1.781zm1.1615-2.8908q0 0.36136 0.13981 0.57215 0.13981 0.21079 0.38502 0.21079 0.24521 0 0.38071-0.20649 0.13551-0.20864 0.13551-0.57645t-0.13551-0.5743q-0.13551-0.20864-0.38071-0.20864-0.24521 0-0.38502 0.20864-0.13981 0.20649-0.13981 0.5743z"/>
   <path d="m2.3462 74.093v-3.3038h1.1873v3.3038zm0.59365-3.648q-0.2409 0-0.41298-0.15917-0.17207-0.15917-0.17207-0.38286t0.17207-0.38286q0.17207-0.15917 0.41298-0.15917 0.24305 0 0.41298 0.15917 0.17207 0.15917 0.17207 0.38286t-0.17207 0.38286q-0.16992 0.15917-0.41298 0.15917z"/>
   <path d="m4.1358 75.332v-4.5428h1.1787v0.57645h0.025811q0.096792-0.25166 0.32909-0.43449 0.2323-0.18498 0.60011-0.18498 0.32694 0 0.62162 0.17422 0.29683 0.17422 0.48181 0.54849 0.18713 0.37426 0.18713 0.97222 0 0.57215-0.17853 0.94856-0.17638 0.37641-0.4732 0.56139-0.29468 0.18498-0.64743 0.18498-0.34845 0-0.5829-0.16562-0.23445-0.16777-0.33769-0.41943h-0.017207v1.781zm1.1615-2.8908q0 0.36136 0.13981 0.57215 0.13981 0.21079 0.38502 0.21079 0.24521 0 0.38071-0.20649 0.13551-0.20864 0.13551-0.57645t-0.13551-0.5743q-0.13551-0.20864-0.38071-0.20864-0.24521 0-0.38502 0.20864-0.13981 0.20649-0.13981 0.5743z"/>
   <path d="m9.6421 74.153q-0.79369 0-1.2497-0.44954-0.45384-0.45169-0.45384-1.254 0-0.51192 0.20649-0.89478 0.20649-0.38286 0.5829-0.5958 0.37641-0.21294 0.88833-0.21294 0.49901 0 0.86682 0.20434 0.36996 0.20434 0.57215 0.58505 0.20434 0.37856 0.20434 0.90554v0.27532h-2.1509v0.05162q0 0.23875 0.14626 0.39577 0.14841 0.15487 0.41298 0.15487 0.18283 0 0.31834-0.07528 0.13766-0.07743 0.18928-0.21724h1.0841q-0.08389 0.51622-0.50762 0.82165-0.42158 0.30543-1.1099 0.30543zm-0.53343-2.0907h1.0583q-0.0043-0.21294-0.15487-0.3463-0.14841-0.13551-0.36996-0.13551-0.21724 0-0.37426 0.13336-0.15487 0.13336-0.15917 0.34845z"/>
   <path d="m12.283 74.093-0.82595-3.3038h1.1873l0.37856 2.0133h0.02581l0.42158-2.0133h1.1529l0.43879 1.9961h0.02581l0.36136-1.9961h1.1873l-0.82596 3.3038h-1.282l-0.4646-1.7724h-0.03441l-0.4646 1.7724z"/>
   <path d="m16.998 74.093v-3.3038h1.1873v3.3038zm0.59366-3.648q-0.2409 0-0.41298-0.15917-0.17207-0.15917-0.17207-0.38286t0.17207-0.38286 0.41298-0.15917q0.24305 0 0.41298 0.15917 0.17207 0.15917 0.17207 0.38286t-0.17207 0.38286q-0.16992 0.15917-0.41298 0.15917z"/>
   <path d="m18.788 74.093v-3.3038h1.1529v0.62807h0.03441q0.09034-0.34845 0.28607-0.50977 0.19788-0.16132 0.46245-0.16132 0.14841 0 0.30113 0.04517v1.0131q-0.08819-0.03011-0.21724-0.04517-0.12906-0.01506-0.22154-0.01506-0.26241 0-0.43664 0.17207-0.17422 0.17207-0.17422 0.456v1.7207z"/>
   <path d="m22.806 74.153q-0.79369 0-1.2497-0.44954-0.45384-0.45169-0.45384-1.254 0-0.51192 0.20649-0.89478 0.20649-0.38286 0.5829-0.5958 0.37641-0.21294 0.88833-0.21294 0.49901 0 0.86682 0.20434 0.36996 0.20434 0.57214 0.58505 0.20434 0.37856 0.20434 0.90554v0.27532h-2.1509v0.05162q0 0.23875 0.14626 0.39577 0.14841 0.15487 0.41298 0.15487 0.18283 0 0.31834-0.07528 0.13766-0.07743 0.18928-0.21724h1.0841q-0.08389 0.51622-0.50762 0.82165-0.42158 0.30543-1.1099 0.30543zm-0.53343-2.0907h1.0583q-0.0043-0.21294-0.15487-0.3463-0.14841-0.13551-0.36996-0.13551-0.21724 0-0.37426 0.13336-0.15487 0.13336-0.15917 0.34845z"/>
  </g>
 </g>
</svg>