<?xml version="1.0" encoding="UTF-8" standalone="no"?>
<!-- Created with Inkscape (http://www.inkscape.org/) -->

<svg
   width="553.13739"
   height="140.32391"
   viewBox="0 0 146.35093 37.127369"
   version="1.1"
   id="svg5"
   xmlns="http://www.w3.org/2000/svg"
   xmlns:svg="http://www.w3.org/2000/svg"
   xmlns:rdf="http://www.w3.org/1999/02/22-rdf-syntax-ns#"
   xmlns:cc="http://creativecommons.org/ns#"
   xmlns:dc="http://purl.org/dc/elements/1.1/">
  <title
     id="title1">TrueNAS Corporate Logo Blue Horitzontal</title>
  <defs
     id="defs2" />
  <g
     id="layer1"
     transform="matrix(0.54539039,0,0,0.54539039,-14.740293,-16.830038)">
    <g
       id="g974"
       transform="translate(-29.384275,16.227434)">
      <path
         id="rect4"
         style="fill:#afadae;fill-rule:evenodd;stroke-width:0.894453;stroke-linecap:square;stroke-miterlimit:0;paint-order:markers stroke fill"
         d="m 89.107325,-1.0842574 5.58e-4,9.823488 9.82256,-3.699e-4 3.7e-4,-9.8225598 z m 29.295835,-1.7320664 5.5e-4,9.8234879 9.82256,-3.699e-4 3.7e-4,-9.8225598 z m -29.958618,32.0971808 5.58e-4,9.823488 9.82256,-3.7e-4 3.7e-4,-9.82256 z m 29.539528,-1.25919 5.5e-4,9.823488 9.82256,-3.7e-4 9.2e-4,-9.823111 z"
         transform="matrix(0.85993447,0.51040446,-0.85993447,0.51040446,29.384275,-16.227434)" />
      <path
         id="path1"
         style="display:inline;fill:#0094d4;stroke-width:0.47502"
         d="m 79.523043,30.971453 -0.01137,9.628624 11.110534,6.367286 8.579728,-4.921381 z m -25.951425,15.267272 -0.01042,9.628625 11.110534,6.367285 8.579728,-4.921381 z m 52.548102,0.17908 -0.0104,9.628624 11.11054,6.367286 8.57972,-4.921381 z m -79.094566,14.761301 0.0019,10.195236 22.013563,12.819847 0.03032,-10.408427 z m 52.751823,0.337314 -0.01042,9.628624 11.110534,6.367286 8.579727,-4.921381 z m -26.148508,14.818151 0.0028,9.986784 21.560652,12.557386 0.03032,-10.195237 z"
         transform="translate(29.384275,-16.227434)" />
      <path
         id="path1-9-8"
         style="display:inline;fill:#30beec;fill-opacity:1;stroke-width:0.484959"
         d="M 75.571915,31.343826 55.892076,42.418354 64.471804,47.339735 75.582338,40.97245 Z M 49.738929,46.382747 30.05909,57.457276 l 8.579728,4.921381 11.110534,-6.367286 z m 52.029821,0.606408 -19.679842,11.074529 8.579727,4.921381 11.110535,-6.367285 z m 26.62226,13.947387 -22.04578,12.606657 0.0313,10.408427 22.01262,-12.819847 z m -52.697813,0.72769 -19.679839,11.074529 8.579728,4.921381 11.110533,-6.367286 z M 102.0729,76.096746 80.02712,88.703402 80.058388,99.111829 102.071,86.291982 Z"
         transform="translate(29.384275,-16.227434)" />
    </g>
    <path
       style="display:inline;fill:#0094d4;stroke-width:0.218251"
       d="m 179.44082,76.502607 c -1.64715,-0.35811 -2.05344,-0.56891 -3.28567,-1.70474 -2.10792,-1.94301 -2.22963,-2.61842 -2.24924,-12.4817 l -0.0161,-8.075311 1.64785,-0.0638 1.64784,-0.0638 0.002,7.702551 c 6.6e-4,4.48655 0.0928,8.03221 0.22054,8.49211 0.60452,2.1763 2.32823,3.34952 4.9052,3.33865 1.79473,-0.007 3.13107,-0.52244 4.19319,-1.6156 1.48563,-1.52903 1.47646,-1.46931 1.54817,-10.09685 l 0.0648,-7.802501 h 1.6266 1.62661 v 11.130841 11.13084 h -1.6369 -1.63688 v -0.98214 c 0,-0.54017 -0.074,-0.98213 -0.1644,-0.98213 -0.0904,0 -0.44578,0.29812 -0.78968,0.66249 -0.85152,0.90218 -1.57793,1.24278 -3.21814,1.50892 -1.77942,0.28873 -2.81004,0.26622 -4.48508,-0.0979 z m 23.49842,0.0947 c -2.86435,-0.49574 -5.61324,-2.66749 -6.55191,-5.17631 -1.10882,-2.96359 -1.15874,-8.92976 -0.10407,-12.436611 0.99761,-3.31711 4.94912,-5.607 8.97296,-5.19981 2.97732,0.30128 4.79767,1.24348 6.18261,3.20005 1.16359,1.64388 1.5601,3.1044 1.69925,6.259121 l 0.11792,2.67358 h -7.10747 -7.10747 l -0.0725,0.49107 c -0.23996,1.62463 0.65066,4.53438 1.74532,5.70215 2.04105,2.17737 6.66339,2.24562 8.77939,0.12963 l 0.8554,-0.8554 1.19764,0.81287 c 0.65869,0.44707 1.20138,0.90181 1.20595,1.01052 0.0158,0.37575 -1.03733,1.56652 -1.93676,2.18982 -0.4965,0.34408 -1.41599,0.75963 -2.04329,0.92343 -1.52493,0.3982 -4.35333,0.53198 -5.83295,0.27589 z m 6.7114,-14.78585 c -0.28391,-3.130981 -2.31409,-5.076561 -5.27077,-5.051121 -2.94709,0.0253 -4.98234,1.98007 -5.30371,5.093841 l -0.12652,1.22588 h 5.40802 5.40801 z m 71.53185,14.68809 c -2.36627,-0.43523 -4.94306,-1.74519 -6.53025,-3.31978 -0.67418,-0.66882 -1.1994,-1.23876 -1.16717,-1.26653 0.0323,-0.0277 0.92406,-0.65325 1.98186,-1.38998 l 1.92326,-1.33951 0.93125,0.93125 c 0.51219,0.51218 1.51278,1.22589 2.22353,1.58601 1.2388,0.62765 1.40969,0.65475 4.12954,0.65475 2.69864,0 2.88691,-0.0292 3.85301,-0.59711 2.30817,-1.35688 2.64077,-4.87232 0.62167,-6.57126 -1.15234,-0.96965 -2.17623,-1.3918 -5.34649,-2.2044 -5.61535,-1.43931 -8.05671,-3.177211 -9.07944,-6.463251 -0.72534,-2.33049 -0.43984,-5.4939 0.65578,-7.266687 0.56663,-0.916814 2.1357,-2.383367 3.06305,-2.862924 1.44969,-0.749667 3.95942,-1.224572 6.27758,-1.187881 4.08216,0.06459 6.84679,1.073172 9.03568,3.296304 0.70735,0.718428 1.28612,1.372771 1.28612,1.454089 0,0.168351 -3.38194,2.651329 -3.61126,2.651329 -0.0824,0 -0.71414,-0.52247 -1.40388,-1.16105 -1.66217,-1.538874 -2.97375,-1.964392 -5.73592,-1.860902 -2.42663,0.09092 -3.46265,0.542628 -4.39015,1.914142 -1.06879,1.58043 -0.81801,3.64048 0.61802,5.07649 0.86853,0.86854 2.24393,1.42892 5.79558,2.36127 3.69254,0.96935 4.41537,1.24215 5.78125,2.181901 1.40374,0.9658 2.03778,1.68421 2.69663,3.0555 0.52043,1.08316 0.57676,1.4455 0.57693,3.71028 1.6e-4,2.26191 -0.0573,2.63227 -0.58046,3.74851 -1.08286,2.30992 -3.1002,3.96482 -5.71597,4.68903 -1.69007,0.46791 -5.81395,0.56222 -7.88975,0.18041 z m -138.75191,-13.91056 -0.0562,-13.804417 -4.63784,-0.0589 -4.63785,-0.0589 v -1.523421 -1.52342 l 11.29452,-4.37e-4 11.29453,-4.38e-4 -0.0698,1.582829 -0.0698,1.582838 h -4.62263 -4.62262 l -0.0562,13.804426 -0.0562,13.80441 h -1.85189 -1.85189 l -0.0562,-13.80441 z m 13.58454,2.67359 V 54.131736 h 1.63689 1.63688 v 0.98213 c 0,1.09911 0.21972,1.23638 0.73071,0.45651 0.47507,-0.72505 2.40794,-1.61872 3.86231,-1.78574 2.28429,-0.26233 5.05387,0.6489 6.47541,2.13048 l 0.70147,0.7311 -1.49018,1.02555 -1.49018,1.02556 -0.5208,-0.55752 c -0.86553,-0.92655 -1.712,-1.25047 -3.28164,-1.25576 -2.07914,-0.007 -3.3007,0.76773 -4.27609,2.71204 l -0.70763,1.410581 -0.002,7.69338 -0.002,7.69337 h -1.63688 -1.63689 z m 63.293,-4.26354 V 45.604631 l 2.21668,0.0622 2.21668,0.0622 6.31977,10.528315 c 3.47586,5.790571 6.40689,10.474451 6.51338,10.408641 0.10831,-0.0669 0.19363,-4.7301 0.19363,-10.582881 V 45.6199 h 2.36581 2.36582 l -0.002,15.393757 -0.002,15.39375 -2.28219,-0.0615 -2.28211,-0.0615 -6.2471,-10.41564 c -3.4359,-5.728611 -6.32075,-10.418291 -6.41078,-10.421521 -0.09,-0.003 -0.16369,4.70836 -0.16369,10.470201 v 10.47609 h -2.40077 -2.40077 z m 28.19355,9.22877 c 1.18373,-3.39109 3.5919,-10.315131 5.35148,-15.386761 l 3.19926,-9.221128 h 2.46245 2.46242 l 0.323,1.036695 c 0.17763,0.57018 0.87774,2.608108 1.5558,4.528723 2.91715,8.263 4.83984,13.763971 8.29584,23.734881 l 0.51062,1.4732 -2.66059,-0.002 -2.66058,-0.002 -0.96531,-3.0588 c -0.53094,-1.68234 -1.08323,-3.15665 -1.22734,-3.27625 -0.16308,-0.13534 -2.35198,-0.19541 -5.79615,-0.15909 l -5.53413,0.0584 -1.0746,3.21922 -1.07459,3.21921 h -2.65991 -2.65991 l 2.15224,-6.16561 z m 15.22123,-4.80154 c -0.0456,-0.71859 -4.04815,-12.205641 -4.23859,-12.164451 -0.17854,0.0386 -4.22625,11.730641 -4.24904,12.273571 -0.004,0.09 1.90828,0.16369 4.24904,0.16369 3.26844,0 4.25189,-0.0633 4.23859,-0.27281 z"
       id="path305" />
  </g>
  <metadata
     id="metadata1">
    <rdf:RDF>
      <cc:Work
         rdf:about="">
        <cc:license
           rdf:resource="https://simongreer.co.uk" />
        <dc:title>TrueNAS Corporate Logo Blue Horitzontal</dc:title>
        <dc:date>23/10/2024</dc:date>
        <dc:creator>
          <cc:Agent>
            <dc:title>Simon Greer</dc:title>
          </cc:Agent>
        </dc:creator>
      </cc:Work>
    </rdf:RDF>
  </metadata>
</svg>
