<?xml version="1.0" encoding="UTF-8" standalone="no"?>
<!-- Created with Inkscape (http://www.inkscape.org/) -->

<svg
   id="svg2236"
   width="256"
   height="256"
   version="1.0"
   xmlns="http://www.w3.org/2000/svg"
   xmlns:svg="http://www.w3.org/2000/svg"
   xmlns:rdf="http://www.w3.org/1999/02/22-rdf-syntax-ns#"
   xmlns:cc="http://creativecommons.org/ns#"
   xmlns:dc="http://purl.org/dc/elements/1.1/">
  <metadata
     id="metadata2241">
    <rdf:RDF>
      <cc:Work
         rdf:about="">
        <dc:format>image/svg+xml</dc:format>
        <dc:type
           rdf:resource="http://purl.org/dc/dcmitype/StillImage" />
      </cc:Work>
    </rdf:RDF>
  </metadata>
  <defs
     id="defs2239" />
  <path
     style="font-weight:bold;fill:#f68f1e;fill-opacity:1"
     d="m 115.54723,164.03658 0.40942,-19.03462 -16.230053,10.09231 c -8.926525,5.55076 -16.361165,9.95384 -16.521415,9.78461 -0.83499,-0.88176 -13.48788,-22.4024 -13.48917,-22.94302 -8.3e-4,-0.34943 7.42108,-4.84943 16.49314,-10 9.072055,-5.15057 16.494648,-9.58967 16.494648,-9.86467 0,-0.275 -7.422593,-4.7141 -16.494648,-9.86467 -9.07206,-5.15057 -16.49397,-9.65057 -16.49314,-10 10e-4,-0.53614 12.64897,-22.054651 13.47897,-22.932821 0.15464,-0.16362 6.93483,4.04179 15.067065,9.34537 8.132253,5.30357 15.441523,9.89444 16.242833,10.20193 1.2533,0.48093 1.39934,-2.11802 1.04493,-18.59537 l -0.41199,-19.15444 h 13.93694 13.93694 l -0.70992,19.53275 -0.70992,19.532751 6.81132,-4.379921 c 3.74623,-2.40895 10.63632,-6.84052 15.31132,-9.84794 4.675,-3.00741 9.03327,-5.78468 9.68505,-6.1717 0.77345,-0.45928 3.62652,3.36734 8.21443,11.01743 3.86616,6.44661 6.93289,11.795011 6.81495,11.885341 -0.11794,0.0903 -6.73943,3.87381 -14.71443,8.40774 -7.975,4.53393 -15.56793,8.91571 -16.87317,9.73729 l -2.37317,1.49378 15.87317,8.97221 c 8.73024,4.93473 16.4253,9.28762 17.10013,9.67311 0.86388,0.49347 -0.85443,4.1715 -5.80657,12.42893 -5.95251,9.92548 -7.29924,11.58585 -8.76224,10.80287 -0.95079,-0.50885 -7.78783,-4.69486 -15.19343,-9.30225 -7.40559,-4.60739 -14.05949,-8.73977 -14.78642,-9.18307 -1.08719,-0.66297 -1.19442,2.58368 -0.60436,18.29735 l 0.71734,19.10333 H 129.0718 115.13782 Z"
     id="path2299" />
  <path
     id="path2329"
     style="fill:#f68f1e;fill-opacity:1;fill-rule:evenodd;stroke:#f68f1e;stroke-width:1px;stroke-linecap:butt;stroke-linejoin:miter;stroke-opacity:1"
     d="m 157.30673,23.371066 c -16.00562,-0.05759 -27.49966,1.596583 -40.40625,5.8125 -4.34442,1.419089 -11.29166,4.147001 -15.4375,6.0625 -4.145853,1.915508 -11.834031,6.336256 -17.093755,9.84375 C 79.1095,48.597303 71.11,54.69978 66.587975,58.621066 c -4.522016,3.921276 -11.422524,10.821738 -15.34375,15.34375 -3.921237,4.522016 -9.440503,11.698574 -12.25,15.9375 -2.809488,4.238916 -5.268631,7.543873 -5.46875,7.34375 -0.82779,-0.827789 6.861005,-15.65711 12.21875,-23.5625 l 5.75,-8.5 -6.1875,6 c -3.398967,3.299997 -9.447295,10.346891 -13.46875,15.65625 -4.021476,5.309355 -9.375433,13.409364 -11.875,18.000004 -2.499578,4.59063 -6.034402,12.61875 -7.84375,17.84375 l -3.2812501,9.5 v 1.6582 c -1.526714,4.91578 -2.165713,8.47451 -2.158204,14.1582 0.031649,6.24417 0.634747,11.09078 2.158204,16.58008 v 1.60352 l 2.7187501,8 c 1.487098,4.39999 4.392182,10.91701 6.46875,14.46875 2.076577,3.55173 6.894143,9.72773 10.6875,13.75 3.793366,4.02226 9.868383,9.30702 13.5,11.71875 10.834859,7.19533 21.806173,11.50624 35.59375,13.96875 4.399995,0.78585 13.570605,1.45066 20.375002,1.5 6.804413,0.0494 17.095823,-0.61061 22.875003,-1.46875 5.77919,-0.85813 15.77844,-3.08379 22.21875,-4.9375 6.44031,-1.85372 16.34929,-5.40562 22.03125,-7.90625 l 10.34375,-4.53125 6.5625,1.96875 c 7.46138,2.25834 41.43387,9.96272 41.90625,9.5 0.17001,-0.16653 -3.69497,-8.33461 -8.59375,-18.15625 l -8.90625,-17.875 7.90625,-9.5 c 4.36296,-5.225 10.44892,-13.28711 13.5,-17.90625 3.05107,-4.61915 7.69871,-12.94416 10.34375,-18.5 2.64502,-5.55585 5.73605,-13.46876 6.875,-17.59375 1.13894,-4.125 2.5403,-11.4575 3.09375,-16.3125 0.69455,-6.09278 0.67911,-11.513906 -0.0625,-17.500004 -0.59096,-4.769985 -2.13762,-11.756557 -3.4375,-15.5 -1.29987,-3.743436 -4.3369,-10.268793 -6.71875,-14.5 -5.45424,-9.68912 -17.0597,-21.500064 -25.46875,-25.9375 -3.37699,-1.782018 -6.4276,-3.25 -6.8125,-3.25 -0.3849,0 1.57034,1.814312 4.375,4.03125 5.62776,4.448496 12.57018,12.817388 16,19.28125 l 2.25,4.1875 -2.25,-3 c -1.2308,-1.649998 -5.64071,-6.424403 -9.8125,-10.59375 -5.78463,-5.781234 -9.61139,-8.575875 -16.09375,-11.78125 -5.52761,-2.733267 -11.99695,-4.917571 -18.5,-6.28125 -7.38845,-1.549358 -13.78675,-2.11771 -24.5,-2.15625 z m -0.5,11.0625 c 10.95721,0.01723 15.67969,0.498081 21.78125,2.125 4.28774,1.143279 10.81274,3.498953 14.5,5.25 4.74752,2.254588 8.93449,5.402516 14.3125,10.78125 5.83169,5.832504 8.5451,9.566635 11.75,16.09375 2.29549,4.674995 4.85071,11.650002 5.65625,15.5 0.80554,3.849996 1.45921,10.442139 1.46875,14.65625 0.03,13.253174 -3.66642,28.188514 -10.5,42.343754 -1.85864,3.84999 -5.30322,9.92499 -7.65625,13.5 -2.35303,3.57499 -7.78975,10.1352 -12.0625,14.59375 -4.27276,4.45853 -7.75,8.39474 -7.75,8.71875 0,0.324 3.6,6.08474 8,12.8125 4.39999,6.72775 8,12.6103 8,13.0625 0,0.45219 -0.2337,0.81249 -0.53125,0.8125 -0.29754,0 -6.98623,-2.47501 -14.84375,-5.5 -7.85752,-3.025 -15.44225,-5.50001 -16.84375,-5.5 -1.40149,0 -4.95031,1.06995 -7.90625,2.375 -9.75745,4.3079 -27.95269,9.67939 -37.75,11.15625 -5.30383,0.7995 -13.22501,1.40757 -17.625,1.34375 -15.884103,-0.23041 -27.826339,-2.9805 -41.500005,-9.5625 -8.010282,-3.85586 -10.845638,-5.9216 -18.09375,-13.1875 -6.554814,-6.57089 -9.475253,-10.40601 -12.25,-16.125 -2.001378,-4.125 -4.322991,-10.19071 -5.15625,-13.46875 -2.147698,-8.44899 -1.944038,-22.51902 0.46875,-32.125 1.092738,-4.35047 4.259562,-12.50222 7.03125,-18.125 2.771677,-5.6228 7.704723,-13.762056 10.96875,-18.093754 3.264036,-4.331696 9.993844,-11.732979 14.9375,-16.4375 9.60236,-9.137881 21.2452,-17.367415 32.593752,-23.03125 9.821973,-4.901965 22.876493,-9.341053 34.812503,-11.84375 7.65549,-1.605178 13.66801,-2.141551 24.1875,-2.125 z" />
</svg>
