<?xml version="1.0" encoding="UTF-8" standalone="no"?>
<!-- Uploaded to: SVG Repo, www.svgrepo.com, Generator: SVG Repo Mixer Tools -->

<svg
   width="800"
   height="800"
   viewBox="0 0 32 32"
   version="1.1"
   id="svg1"
   xml:space="preserve"
   xmlns="http://www.w3.org/2000/svg"
   xmlns:svg="http://www.w3.org/2000/svg"
   xmlns:rdf="http://www.w3.org/1999/02/22-rdf-syntax-ns#"
   xmlns:cc="http://creativecommons.org/ns#"
   xmlns:dc="http://purl.org/dc/elements/1.1/"><title
     id="title1">Astro Logo Icon</title><defs
     id="defs1" /><g
     style="fill:none"
     id="g1"
     transform="matrix(0.240421,0,0,0.22586732,5.9926106,3.9160984)"><path
       d="m 23.42477,103.23048 c -5.949052,-5.438061 -7.685684,-16.864196 -5.20719,-25.142214 4.297584,5.219128 10.252297,6.872442 16.420166,7.805678 9.52188,1.440158 18.873184,0.901483 27.718552,-3.450621 1.011876,-0.498307 1.946957,-1.160789 3.052613,-1.831887 0.82998,2.407975 1.045967,4.838843 0.756139,7.31303 -0.704943,6.0256 -3.703651,10.680208 -8.473083,14.208604 -1.907206,1.41136 -3.925298,2.67294 -5.895024,4.00357 -6.051322,4.0901 -7.688515,8.88573 -5.414685,15.86131 0.05403,0.17106 0.102389,0.3409 0.224602,0.75565 -3.089656,-1.38331 -5.346504,-3.39672 -7.066029,-6.04394 -1.816258,-2.79331 -2.680329,-5.88383 -2.725864,-9.22787 -0.02277,-1.62735 -0.02277,-3.26922 -0.241586,-4.87355 -0.534367,-3.911386 -2.370563,-5.662667 -5.829674,-5.763464 -3.550059,-0.103574 -6.358258,2.091078 -7.10295,5.547474 -0.05685,0.26497 -0.139315,0.52711 -0.221771,0.83528 z"
       fill="url(#paint0_linear_1_59)"
       id="path2"
       style="display:inline;fill:#ffffff;fill-opacity:1;stroke-width:1.2307" /><path
       d="m -10.711344,74.772495 c 0,0 17.6160267,-8.942453 35.281292,-8.942453 L 37.888885,22.87631 c 0.498715,-2.077199 1.954585,-3.488926 3.5983,-3.488926 1.64372,0 3.099629,1.411727 3.598304,3.488926 l 13.319065,42.953732 c 20.921799,0 35.281165,8.942453 35.281165,8.942453 0,0 -29.922228,-84.942645 -29.980686,-85.113071 C 62.84625,-12.85193 61.39637,-14.46937 59.441785,-14.46937 H 23.535668 c -1.954586,0 -3.345887,1.61744 -4.263123,4.128794 -0.0651,0.16721 -29.983889,85.113071 -29.983889,85.113071 z"
       fill="#17191e"
       id="path2-7"
       style="display:inline;fill:#ffffff;fill-opacity:1;stroke-width:1.25631" /></g><metadata
     id="metadata1"><rdf:RDF><cc:Work
         rdf:about=""><cc:license
           rdf:resource="https://simongreer.co.uk" /><dc:date>23/10/2024</dc:date><dc:creator><cc:Agent><dc:title>Simon Greer</dc:title></cc:Agent></dc:creator><dc:title>Astro Logo Icon</dc:title></cc:Work></rdf:RDF></metadata></svg>
