<?xml version="1.0" encoding="UTF-8" standalone="no"?>
<!-- Uploaded to: SVG Repo, www.svgrepo.com, Generator: SVG Repo Mixer Tools -->

<svg
   width="800"
   height="800"
   viewBox="0 0 32 32"
   version="1.1"
   id="svg1"
   xml:space="preserve"
   xmlns="http://www.w3.org/2000/svg"
   xmlns:svg="http://www.w3.org/2000/svg"
   xmlns:rdf="http://www.w3.org/1999/02/22-rdf-syntax-ns#"
   xmlns:cc="http://creativecommons.org/ns#"
   xmlns:dc="http://purl.org/dc/elements/1.1/"><title
     id="title1">Astro Logo Icon</title><defs
     id="defs1"><linearGradient
       id="paint0_linear_1_59"
       x1="22.4702"
       y1="107"
       x2="69.145103"
       y2="84.9468"
       gradientUnits="userSpaceOnUse"
       gradientTransform="matrix(1.230694,0,0,1.230694,-10.529338,-8.9306591)"><stop
         stop-color="#D83333"
         id="stop3" /><stop
         offset="1"
         stop-color="#F041FF"
         id="stop4" /></linearGradient></defs><path
     d="m 5.9,18.847 a 7.507,7.507 0 0 0 -0.572,2.624 3.265,3.265 0 0 0 0.551,1.553 7.427,7.427 0 0 0 2.093,1.681 l 5.128,3.414 a 7.332,7.332 0 0 0 2.1,1.168 3.239,3.239 0 0 0 1.5,0 7.381,7.381 0 0 0 2.117,-1.16 L 24,24.711 a 7.512,7.512 0 0 0 2.117,-1.688 3.241,3.241 0 0 0 0.55,-1.563 7.515,7.515 0 0 0 -0.587,-2.643 L 21.547,4.551 a 3.973,3.973 0 0 0 -0.54,-1.3 1.733,1.733 0 0 0 -0.7,-0.51 3.972,3.972 0 0 0 -1.4,-0.122 h -5.902 a 3.932,3.932 0 0 0 -1.4,0.125 1.713,1.713 0 0 0 -0.7,0.512 3.94,3.94 0 0 0 -0.535,1.3 L 5.9,18.848 Z m 13.24,-13.2 a 3.329,3.329 0 0 1 0.441,1.093 l 3.892,12.784 A 16.168,16.168 0 0 0 18.82,17.951 L 16.291,9.391 A 0.331,0.331 0 0 0 15.778,9.222 0.323,0.323 0 0 0 15.659,9.391 l -2.5,8.557 A 16.14,16.14 0 0 0 8.485,19.527 L 12.393,6.743 a 3.281,3.281 0 0 1 0.442,-1.094 1.458,1.458 0 0 1 0.582,-0.43 3.31,3.31 0 0 1 1.175,-0.1 h 2.793 a 3.314,3.314 0 0 1 1.176,0.1 1.454,1.454 0 0 1 0.583,0.432 z M 16.127,21.06 a 5.551,5.551 0 0 0 3.4,-0.923 2.8,2.8 0 0 1 -0.207,2.182 3.938,3.938 0 0 1 -1.547,1.481 c -0.674,0.428 -1.254,0.8 -1.254,1.787 a 2.079,2.079 0 0 0 0.209,0.914 2.49,2.49 0 0 1 -1.535,-2.3 V 24.14 c 0,-0.683 0,-1.524 -0.962,-1.524 a 1.028,1.028 0 0 0 -0.391,0.077 1.021,1.021 0 0 0 -0.552,0.551 1.03,1.03 0 0 0 -0.079,0.391 3.769,3.769 0 0 1 -0.988,-2.644 4.206,4.206 0 0 1 0.175,-1.248 c 0.4,0.757 1.92,1.32 3.731,1.32 z"
     style="display:none;fill:#ff5d01;fill-rule:evenodd"
     id="path1" /><g
     style="fill:none"
     id="g1"
     transform="matrix(0.240421,0,0,0.22586732,5.9926106,3.9160984)"><path
       d="m 23.42477,103.23048 c -5.949052,-5.438061 -7.685684,-16.864196 -5.20719,-25.142214 4.297584,5.219128 10.252297,6.872442 16.420166,7.805678 9.52188,1.440158 18.873184,0.901483 27.718552,-3.450621 1.011876,-0.498307 1.946957,-1.160789 3.052613,-1.831887 0.82998,2.407975 1.045967,4.838843 0.756139,7.31303 -0.704943,6.0256 -3.703651,10.680208 -8.473083,14.208604 -1.907206,1.41136 -3.925298,2.67294 -5.895024,4.00357 -6.051322,4.0901 -7.688515,8.88573 -5.414685,15.86131 0.05403,0.17106 0.102389,0.3409 0.224602,0.75565 -3.089656,-1.38331 -5.346504,-3.39672 -7.066029,-6.04394 -1.816258,-2.79331 -2.680329,-5.88383 -2.725864,-9.22787 -0.02277,-1.62735 -0.02277,-3.26922 -0.241586,-4.87355 -0.534367,-3.911386 -2.370563,-5.662667 -5.829674,-5.763464 -3.550059,-0.103574 -6.358258,2.091078 -7.10295,5.547474 -0.05685,0.26497 -0.139315,0.52711 -0.221771,0.83528 z"
       fill="#ffffff"
       id="path1-3"
       style="display:none;stroke-width:1.2307" /><path
       d="m 23.42477,103.23048 c -5.949052,-5.438061 -7.685684,-16.864196 -5.20719,-25.142214 4.297584,5.219128 10.252297,6.872442 16.420166,7.805678 9.52188,1.440158 18.873184,0.901483 27.718552,-3.450621 1.011876,-0.498307 1.946957,-1.160789 3.052613,-1.831887 0.82998,2.407975 1.045967,4.838843 0.756139,7.31303 -0.704943,6.0256 -3.703651,10.680208 -8.473083,14.208604 -1.907206,1.41136 -3.925298,2.67294 -5.895024,4.00357 -6.051322,4.0901 -7.688515,8.88573 -5.414685,15.86131 0.05403,0.17106 0.102389,0.3409 0.224602,0.75565 -3.089656,-1.38331 -5.346504,-3.39672 -7.066029,-6.04394 -1.816258,-2.79331 -2.680329,-5.88383 -2.725864,-9.22787 -0.02277,-1.62735 -0.02277,-3.26922 -0.241586,-4.87355 -0.534367,-3.911386 -2.370563,-5.662667 -5.829674,-5.763464 -3.550059,-0.103574 -6.358258,2.091078 -7.10295,5.547474 -0.05685,0.26497 -0.139315,0.52711 -0.221771,0.83528 z"
       fill="url(#paint0_linear_1_59)"
       id="path2"
       style="display:inline;fill:url(#paint0_linear_1_59);stroke-width:1.2307" /><path
       d="m -10.711344,77.677817 c 0,0 17.616029,-8.581506 35.281288,-8.581506 l 13.31894,-41.220003 c 0.498677,-1.993356 1.954588,-3.348103 3.598303,-3.348103 1.643715,0 3.099626,1.354747 3.598303,3.348103 l 13.319062,41.220003 c 20.921798,0 35.281167,8.581506 35.281167,8.581506 0,0 -29.922232,-81.5141171 -29.980691,-81.6776636 C 62.84625,-6.409841 61.396369,-7.9619923 59.441782,-7.9619923 H 23.535669 c -1.954589,0 -3.345888,1.5521513 -4.263124,3.9621457 -0.06474,0.1604695 -29.983889,81.6776636 -29.983889,81.6776636 z"
       fill="#ffffff"
       id="path3"
       style="display:none;stroke-width:1.2307" /><path
       d="m 27.441409,90.469273 c -4.833797,-4.604557 -6.244996,-14.279357 -4.230995,-21.288567 3.491995,4.419169 8.330496,5.819069 13.3422,6.609263 7.736898,1.219421 15.335296,0.763312 22.522598,-2.921727 0.822198,-0.421956 1.582102,-0.982872 2.480501,-1.551108 0.6744,2.038894 0.849901,4.097175 0.6143,6.192134 -0.572682,5.10203 -3.0093,9.043209 -6.884702,12.030799 -1.549699,1.195033 -3.189497,2.263251 -4.789998,3.389921 -4.917,3.463184 -6.247305,7.523792 -4.399705,13.430182 0.04388,0.14488 0.08319,0.28862 0.18248,0.63983 -2.5105,-1.17128 -4.3443,-2.87609 -5.741601,-5.11757 -1.475801,-2.365156 -2.177898,-4.981984 -2.214803,-7.81347 -0.01862,-1.377923 -0.01862,-2.768122 -0.196303,-4.126562 -0.4342,-3.311869 -1.926199,-4.794723 -4.736901,-4.880067 -2.884599,-0.08773 -5.166401,1.770558 -5.771498,4.69719 -0.04628,0.224365 -0.113177,0.446314 -0.180195,0.707244 z"
       fill="#17191e"
       id="path1-36"
       style="display:none;stroke-width:1.02081" /><path
       d="m -10.711344,74.772495 c 0,0 17.6160267,-8.942453 35.281292,-8.942453 L 37.888885,22.87631 c 0.498715,-2.077199 1.954585,-3.488926 3.5983,-3.488926 1.64372,0 3.099629,1.411727 3.598304,3.488926 l 13.319065,42.953732 c 20.921799,0 35.281165,8.942453 35.281165,8.942453 0,0 -29.922228,-84.942645 -29.980686,-85.113071 C 62.84625,-12.85193 61.39637,-14.46937 59.441785,-14.46937 H 23.535668 c -1.954586,0 -3.345887,1.61744 -4.263123,4.128794 -0.0651,0.16721 -29.983889,85.113071 -29.983889,85.113071 z"
       fill="#17191e"
       id="path2-7"
       style="display:inline;stroke-width:1.25631" /></g><metadata
     id="metadata1"><rdf:RDF><cc:Work
         rdf:about=""><cc:license
           rdf:resource="https://simongreer.co.uk" /><dc:date>23/10/2024</dc:date><dc:creator><cc:Agent><dc:title>Simon Greer</dc:title></cc:Agent></dc:creator><dc:title>Astro Logo Icon</dc:title></cc:Work></rdf:RDF></metadata></svg>
