<?xml version="1.0" encoding="UTF-8" standalone="no"?>
<!-- Uploaded to: SVG Repo, www.svgrepo.com, Generator: SVG Repo Mixer Tools -->

<svg
   width="800"
   height="800"
   viewBox="0 0 32 32"
   version="1.1"
   id="svg1"
   xml:space="preserve"
   xmlns="http://www.w3.org/2000/svg"
   xmlns:svg="http://www.w3.org/2000/svg"
   xmlns:rdf="http://www.w3.org/1999/02/22-rdf-syntax-ns#"
   xmlns:cc="http://creativecommons.org/ns#"
   xmlns:dc="http://purl.org/dc/elements/1.1/"><title
     id="title1">Astro Logo Icon</title><defs
     id="defs1"><linearGradient
       id="paint0_linear_1_59"
       x1="22.4702"
       y1="107"
       x2="69.145103"
       y2="84.9468"
       gradientUnits="userSpaceOnUse"><stop
         stop-color="#D83333"
         id="stop3" /><stop
         offset="1"
         stop-color="#F041FF"
         id="stop4" /></linearGradient></defs><path
     d="m 5.9,18.847 a 7.507,7.507 0 0 0 -0.572,2.624 3.265,3.265 0 0 0 0.551,1.553 7.427,7.427 0 0 0 2.093,1.681 l 5.128,3.414 a 7.332,7.332 0 0 0 2.1,1.168 3.239,3.239 0 0 0 1.5,0 7.381,7.381 0 0 0 2.117,-1.16 L 24,24.711 a 7.512,7.512 0 0 0 2.117,-1.688 3.241,3.241 0 0 0 0.55,-1.563 7.515,7.515 0 0 0 -0.587,-2.643 L 21.547,4.551 a 3.973,3.973 0 0 0 -0.54,-1.3 1.733,1.733 0 0 0 -0.7,-0.51 3.972,3.972 0 0 0 -1.4,-0.122 h -5.902 a 3.932,3.932 0 0 0 -1.4,0.125 1.713,1.713 0 0 0 -0.7,0.512 3.94,3.94 0 0 0 -0.535,1.3 L 5.9,18.848 Z m 13.24,-13.2 a 3.329,3.329 0 0 1 0.441,1.093 l 3.892,12.784 A 16.168,16.168 0 0 0 18.82,17.951 L 16.291,9.391 A 0.331,0.331 0 0 0 15.778,9.222 0.323,0.323 0 0 0 15.659,9.391 l -2.5,8.557 A 16.14,16.14 0 0 0 8.485,19.527 L 12.393,6.743 a 3.281,3.281 0 0 1 0.442,-1.094 1.458,1.458 0 0 1 0.582,-0.43 3.31,3.31 0 0 1 1.175,-0.1 h 2.793 a 3.314,3.314 0 0 1 1.176,0.1 1.454,1.454 0 0 1 0.583,0.432 z M 16.127,21.06 a 5.551,5.551 0 0 0 3.4,-0.923 2.8,2.8 0 0 1 -0.207,2.182 3.938,3.938 0 0 1 -1.547,1.481 c -0.674,0.428 -1.254,0.8 -1.254,1.787 a 2.079,2.079 0 0 0 0.209,0.914 2.49,2.49 0 0 1 -1.535,-2.3 V 24.14 c 0,-0.683 0,-1.524 -0.962,-1.524 a 1.028,1.028 0 0 0 -0.391,0.077 1.021,1.021 0 0 0 -0.552,0.551 1.03,1.03 0 0 0 -0.079,0.391 3.769,3.769 0 0 1 -0.988,-2.644 4.206,4.206 0 0 1 0.175,-1.248 c 0.4,0.757 1.92,1.32 3.731,1.32 z"
     style="display:none;fill:#ff5d01;fill-rule:evenodd"
     id="path1" /><g
     style="fill:none"
     id="g1"
     transform="matrix(0.240421,0,0,0.22586732,5.9926106,3.9160984)"><path
       d="m 27.5894,91.1365 c -4.8339,-4.4187 -6.245,-13.703 -4.2311,-20.4293 3.492,4.2408 8.3305,5.5842 13.3422,6.3425 7.737,1.1702 15.3354,0.7325 22.5227,-2.8038 0.8222,-0.4049 1.582,-0.9432 2.4804,-1.4885 0.6744,1.9566 0.8499,3.9318 0.6144,5.9422 -0.5728,4.8961 -3.0094,8.6782 -6.8848,11.5452 -1.5497,1.1468 -3.1895,2.1719 -4.79,3.2531 -4.917,3.3234 -6.2473,7.2201 -4.3997,12.8881 0.0439,0.139 0.0832,0.277 0.1825,0.614 -2.5105,-1.124 -4.3443,-2.76 -5.7415,-4.911 -1.4758,-2.2697 -2.1779,-4.7809 -2.2149,-7.4981 -0.0185,-1.3223 -0.0185,-2.6564 -0.1963,-3.96 -0.4342,-3.1782 -1.9262,-4.6012 -4.7369,-4.6831 -2.8846,-0.0842 -5.1664,1.6991 -5.7715,4.5076 -0.0462,0.2153 -0.1132,0.4283 -0.1802,0.6787 z"
       fill="#ffffff"
       id="path1-3" /><path
       d="m 27.5894,91.1365 c -4.8339,-4.4187 -6.245,-13.703 -4.2311,-20.4293 3.492,4.2408 8.3305,5.5842 13.3422,6.3425 7.737,1.1702 15.3354,0.7325 22.5227,-2.8038 0.8222,-0.4049 1.582,-0.9432 2.4804,-1.4885 0.6744,1.9566 0.8499,3.9318 0.6144,5.9422 -0.5728,4.8961 -3.0094,8.6782 -6.8848,11.5452 -1.5497,1.1468 -3.1895,2.1719 -4.79,3.2531 -4.917,3.3234 -6.2473,7.2201 -4.3997,12.8881 0.0439,0.139 0.0832,0.277 0.1825,0.614 -2.5105,-1.124 -4.3443,-2.76 -5.7415,-4.911 -1.4758,-2.2697 -2.1779,-4.7809 -2.2149,-7.4981 -0.0185,-1.3223 -0.0185,-2.6564 -0.1963,-3.96 -0.4342,-3.1782 -1.9262,-4.6012 -4.7369,-4.6831 -2.8846,-0.0842 -5.1664,1.6991 -5.7715,4.5076 -0.0462,0.2153 -0.1132,0.4283 -0.1802,0.6787 z"
       fill="url(#paint0_linear_1_59)"
       id="path2"
       style="fill:url(#paint0_linear_1_59)" /><path
       d="m 0,69.5866 c 0,0 14.3139,-6.9729 28.6678,-6.9729 L 39.4901,29.1204 c 0.4052,-1.6197 1.5882,-2.7205 2.9238,-2.7205 1.3356,0 2.5186,1.1008 2.9238,2.7205 l 10.8224,33.4933 c 17,0 28.6677,6.9729 28.6677,6.9729 0,0 -24.3133,-66.23427 -24.3608,-66.36716 C 59.7692,1.2612 58.5911,0 57.0029,0 H 27.8274 C 26.2392,0 25.1087,1.2612 24.3634,3.21944 24.3108,3.34983 0,69.5866 0,69.5866 Z"
       fill="#ffffff"
       id="path3" /></g><metadata
     id="metadata1"><rdf:RDF><cc:Work
         rdf:about=""><cc:license
           rdf:resource="https://simongreer.co.uk" /><dc:date>23/10/2024</dc:date><dc:creator><cc:Agent><dc:title>Simon Greer</dc:title></cc:Agent></dc:creator><dc:title>Astro Logo Icon</dc:title></cc:Work></rdf:RDF></metadata></svg>
