<?xml version="1.0" encoding="UTF-8" standalone="no"?>
<svg
   viewBox="0 0 256 256"
   shape-rendering="geometricPrecision"
   text-rendering="geometricPrecision"
   image-rendering="optimizeQuality"
   fill-rule="evenodd"
   clip-rule="evenodd"
   version="1.1"
   id="svg3"
   sodipodi:docname="aws-icon.svg"
   width="256"
   height="256"
   xmlns:inkscape="http://www.inkscape.org/namespaces/inkscape"
   xmlns:sodipodi="http://sodipodi.sourceforge.net/DTD/sodipodi-0.dtd"
   xmlns="http://www.w3.org/2000/svg"
   xmlns:svg="http://www.w3.org/2000/svg">
  <sodipodi:namedview
     id="namedview3"
     pagecolor="#ffffff"
     bordercolor="#000000"
     borderopacity="0.25"
     inkscape:showpageshadow="2"
     inkscape:pageopacity="0.0"
     inkscape:pagecheckerboard="true"
     inkscape:deskcolor="#d1d1d1" />
  <defs
     id="defs1">
    <style
       id="style1">.fil1{fill:#f90}</style>
  </defs>
  <g
     id="Layer_x0020_1"
     transform="matrix(7.6800009e-4,0,0,7.6800009e-4,-2.3727261e-4,54.983145)">
    <g
       id="amazon-web-services-2.svg">
      <path
         d="m 93937,72393 c 0,4102 443,7428 1219,9867 887,2439 1996,5100 3548,7982 554,887 776,1774 776,2550 0,1109 -665,2217 -2106,3326 l -6985,4656 c -998,665 -1995,998 -2882,998 -1109,0 -2217,-554 -3326,-1552 -1552,-1663 -2882,-3437 -3991,-5211 -1109,-1885 -2217,-3991 -3437,-6541 -8648,10200 -19512,15299 -32594,15299 -9312,0 -16740,-2661 -22172,-7982 -5432,-5322 -8204,-12417 -8204,-21286 0,-9424 3326,-17073 10089,-22838 6763,-5765 15743,-8647 27161,-8647 3769,0 7650,332 11752,887 4102,554 8315,1441 12749,2439 v -8093 c 0,-8426 -1774,-14301 -5211,-17738 -3548,-3437 -9534,-5100 -18071,-5100 -3880,0 -7871,443 -11973,1441 -4102,998 -8093,2217 -11973,3769 -1774,776 -3104,1219 -3880,1441 -776,222 -1330,332 -1774,332 -1552,0 -2328,-1109 -2328,-3437 v -5432 c 0,-1774 222,-3104 776,-3880 554,-776 1552,-1552 3104,-2328 C 28084,5319 32741,3656 38173,2326 43606,885 49370,220 55468,220 c 13193,0 22838,2993 29046,8980 6098,5987 9202,15077 9202,27272 v 35920 h 222 z M 48926,89244 c 3659,0 7428,-665 11419,-1995 3991,-1330 7539,-3769 10532,-7095 1774,-2106 3104,-4435 3770,-7095 665,-2661 1108,-5876 1108,-9645 v -4656 c -3215,-776 -6652,-1441 -10199,-1885 -3548,-443 -6984,-665 -10421,-665 -7428,0 -12860,1441 -16519,4435 -3659,2993 -5432,7206 -5432,12749 0,5211 1330,9091 4102,11751 2661,2772 6541,4102 11641,4102 z m 89023,11973 c -1996,0 -3326,-332 -4213,-1109 -887,-665 -1663,-2217 -2328,-4324 L 105355,10087 c -665,-2217 -998,-3658 -998,-4434 0,-1774 887,-2772 2661,-2772 h 10865 c 2106,0 3548,333 4324,1109 887,665 1552,2217 2217,4324 l 18625,73391 17295,-73391 c 554,-2217 1219,-3659 2106,-4324 887,-665 2439,-1109 4435,-1109 h 8869 c 2106,0 3548,333 4435,1109 887,665 1663,2217 2106,4324 l 17516,74278 19180,-74278 c 665,-2217 1441,-3659 2217,-4324 887,-665 2328,-1109 4324,-1109 h 10310 c 1774,0 2772,887 2772,2772 0,554 -111,1109 -222,1774 -111,665 -333,1552 -776,2772 l -26718,85697 c -665,2217 -1441,3658 -2328,4324 -887,665 -2328,1109 -4213,1109 h -9534 c -2107,0 -3548,-333 -4435,-1109 -887,-776 -1663,-2217 -2106,-4435 L 171098,24278 154025,95674 c -554,2217 -1220,3658 -2107,4434 -887,776 -2439,1109 -4434,1109 h -9534 z m 142459,2993 c -5765,0 -11530,-665 -17073,-1995 -5543,-1330 -9867,-2772 -12749,-4435 -1774,-998 -2993,-2106 -3437,-3104 -443,-998 -665,-2106 -665,-3104 v -5654 c 0,-2328 887,-3437 2550,-3437 665,0 1330,111 1995,333 665,222 1663,665 2772,1109 3769,1663 7871,2993 12195,3880 4435,887 8758,1330 13193,1330 6984,0 12417,-1220 16186,-3659 3769,-2439 5765,-5987 5765,-10532 0,-3104 -998,-5654 -2993,-7760 -1996,-2107 -5765,-3991 -11197,-5765 l -16075,-4989 c -8093,-2550 -14080,-6319 -17738,-11308 -3658,-4878 -5543,-10310 -5543,-16075 0,-4656 998,-8758 2993,-12306 1995,-3548 4656,-6652 7982,-9091 3326,-2550 7095,-4434 11530,-5765 4435,-1331 9091,-1885 13969,-1885 2439,0 4989,111 7428,443 2550,333 4878,776 7206,1219 2217,554 4324,1109 6319,1774 1995,665 3548,1330 4656,1996 1552,887 2661,1774 3326,2771 665,887 998,2107 998,3659 v 5211 c 0,2328 -887,3548 -2550,3548 -887,0 -2328,-444 -4213,-1331 -6319,-2882 -13415,-4324 -21286,-4324 -6319,0 -11308,998 -14745,3104 -3437,2106 -5211,5321 -5211,9867 0,3104 1109,5765 3326,7871 2217,2106 6319,4213 12195,6097 l 15743,4989 c 7982,2550 13747,6098 17184,10643 3437,4545 5100,9756 5100,15521 0,4767 -998,9091 -2882,12860 -1996,3770 -4656,7095 -8093,9756 -3437,2771 -7539,4767 -12306,6208 -4989,1552 -10199,2328 -15854,2328 z"
         fill="#252f3e"
         id="path1" />
      <path
         class="fil1"
         d="m 301362,158091 c -36474,26940 -89467,41241 -135031,41241 -63858,0 -121395,-23614 -164854,-62859 -3437,-3104 -332,-7317 3770,-4878 47006,27272 104988,43791 164964,43791 40465,0 84921,-8426 125830,-25721 6097,-2772 11308,3991 5321,8426 z"
         id="path2" />
      <path
         class="fil1"
         d="m 316550,140796 c -4656,-5987 -30820,-2883 -42682,-1441 -3548,443 -4102,-2661 -887,-4989 20842,-14634 55099,-10421 59090,-5543 3991,4989 -1109,39246 -20620,55653 -2993,2550 -5876,1220 -4545,-2106 4435,-10976 14301,-35698 9645,-41574 z"
         id="path3" />
    </g>
  </g>
</svg>
