<?xml version="1.0" encoding="UTF-8" standalone="no"?>
<svg
   width="218"
   height="218"
   viewBox="0 0 218 218"
   fill="none"
   version="1.1"
   id="svg1"
   xmlns="http://www.w3.org/2000/svg"
   xmlns:svg="http://www.w3.org/2000/svg"
   xmlns:rdf="http://www.w3.org/1999/02/22-rdf-syntax-ns#"
   xmlns:cc="http://creativecommons.org/ns#"
   xmlns:dc="http://purl.org/dc/elements/1.1/">
  <defs
     id="defs1" />
  <path
     d="m 177.35748,25.794614 c -1.41349,-1.41063 -3.08839,-2.105094 -5.00201,-2.105094 H 44.133885 c -1.935499,0 -3.588292,0.694464 -5.001863,2.105094 -1.413574,1.410629 -2.109486,3.081681 -2.109486,4.991454 v 85.310352 c 0,6.35916 1.239593,12.6737 3.718786,18.94597 2.479185,6.25037 5.567299,11.80572 9.242615,16.66685 3.675238,4.84 8.046422,9.57121 13.135309,14.17172 5.088888,4.6005 9.786286,8.39877 14.070515,11.43708 4.30591,3.0383 8.785884,5.90286 13.461524,8.61557 4.675639,2.71272 8.002989,4.53555 9.960195,5.4904 1.95728,0.95485 3.54484,1.71482 4.71915,2.21338 0.89169,0.43437 1.84858,0.67309 2.89242,0.67309 1.04384,0 2.00072,-0.2168 2.89242,-0.67309 1.19606,-0.52048 2.76186,-1.25853 4.74099,-2.21338 1.95744,-0.95485 5.28455,-2.79959 9.96019,-5.4904 4.67564,-2.71271 9.15561,-5.57727 13.46184,-8.61557 4.30544,-3.03831 9.00299,-6.85771 14.09188,-11.43708 5.08889,-4.60051 9.46007,-9.31059 13.13546,-14.17172 3.6754,-4.86113 6.74188,-10.39535 9.24249,-16.66685 2.47949,-6.25036 3.71844,-12.56568 3.71844,-18.94597 V 30.807771 c 0.0219,-1.931476 -0.69578,-3.602528 -2.10928,-5.013157 z m -16.52753,91.104826 c 0,30.88239 -52.58514,57.4883 -52.58514,57.4883 V 41.962554 h 52.58514 c 0,0 0,44.055035 0,74.936886 z"
     fill="#175ddc"
     id="path1"
     style="stroke-width:0.782665" />
  <metadata
     id="metadata1">
    <rdf:RDF>
      <cc:Work
         rdf:about="">
        <dc:date>23/10/2024</dc:date>
        <dc:creator>
          <cc:Agent>
            <dc:title>Simon Greer</dc:title>
          </cc:Agent>
        </dc:creator>
      </cc:Work>
    </rdf:RDF>
  </metadata>
</svg>
