<?xml version="1.0" encoding="UTF-8" standalone="no"?>
<svg
   role="img"
   viewBox="0 0 256 256"
   version="1.1"
   id="svg1"
   width="256"
   height="256"
   xmlns="http://www.w3.org/2000/svg"
   xmlns:svg="http://www.w3.org/2000/svg"
   xmlns:rdf="http://www.w3.org/1999/02/22-rdf-syntax-ns#"
   xmlns:cc="http://creativecommons.org/ns#"
   xmlns:dc="http://purl.org/dc/elements/1.1/">
  <defs
     id="defs1" />
  <title
     id="title1">Bun</title>
  <path
     d="m 128.26739,234.25898 c 68.7038,0 124.39244,-44.97089 124.39244,-100.43084 0,-34.388277 -21.32115,-64.763901 -54.09813,-82.779286 -13.33741,-7.411985 -23.81607,-14.065099 -32.53789,-19.5955 -16.42487,-10.437073 -26.56047,-16.871882 -37.75642,-16.871882 -11.37266,0 -24.1903,8.139669 -41.114168,18.878211 A 517.48753,517.48753 0 0 1 57.962683,51.048854 C 25.196097,69.064239 3.8749452,99.439863 3.8749452,133.82814 c 0,55.45995 55.6886438,100.42045 124.3924448,100.42045 z M 113.74489,48.907382 a 61.177463,61.177463 0 0 0 5.16656,-24.980364 c 0,-1.49695 2.08949,-1.933561 2.38057,-0.291074 6.81944,28.847487 -9.35594,43.141287 -21.321158,47.923213 -1.289041,0.498983 -2.068703,-1.247459 -1.070736,-2.162262 A 59.753281,59.753281 0 0 0 113.74489,48.907382 Z m 21.33155,-1.06034 a 60.241869,60.241869 0 0 0 -8.10848,-23.909628 v -0.155933 c -0.7069,-1.278645 0.89401,-2.734014 1.92316,-1.788024 20.33358,21.882508 13.54533,42.153715 5.7591,52.362087 -0.85243,1.06034 -2.38056,-0.03119 -1.95435,-1.309832 a 60.67848,60.67848 0 0 0 2.38057,-25.19867 z m 18.41041,-5.811079 A 59.337461,59.337461 0 0 0 136.7813,23.313684 v -0.145537 c -1.1643,-0.883616 -0.24949,-2.848364 1.17469,-2.266217 26.90353,11.268712 28.75393,32.964102 25.48974,45.688182 a 1.2058769,1.2058769 0 0 1 -0.49898,0.73808 1.143504,1.143504 0 0 1 -1.59051,-0.270283 1.2266679,1.2266679 0 0 1 -0.2287,-0.862825 60.959158,60.959158 0 0 0 -7.64069,-24.159121 z m -52.72593,5.811079 c -6.403623,5.655147 -13.295834,7.879782 -21.393921,10.364305 -1.205877,0 -2.016725,-0.810849 -1.611301,-1.871189 18.160922,-9.42871 24.626922,-17.100582 31.082522,-28.805905 0,0 1.6113,-1.216272 1.95435,0.883617 0,3.149834 -3.61763,13.774025 -10.03165,19.429172 z m 51.26017,116.481468 a 30.656302,30.656302 0 0 1 -9.71979,16.10262 22.45426,22.45426 0 0 1 -13.32701,6.42441 22.527028,22.527028 0 0 1 -13.75324,-6.42441 30.666698,30.666698 0 0 1 -9.59504,-16.10262 2.5261043,2.5261043 0 0 1 0.66531,-2.04791 2.3909629,2.3909629 0 0 1 1.99594,-0.71729 h 41.10377 a 2.3493809,2.3493809 0 0 1 1.97514,0.72769 2.4845223,2.4845223 0 0 1 0.65492,2.03751 z M 95.438428,141.7703 a 19.231658,19.231658 0 0 1 -24.710082,-2.5365 20.468721,20.468721 0 0 1 -2.422149,-25.365 c 2.151866,-3.30576 5.218536,-5.87345 8.794585,-7.39119 a 19.127703,19.127703 0 0 1 11.320689,-1.1435 c 3.794355,0.77966 7.287239,2.70282 10.021253,5.50961 2.744406,2.80678 4.605206,6.40362 5.353676,10.29153 a 20.583072,20.583072 0 0 1 -1.12271,11.62216 19.990529,19.990529 0 0 1 -7.235262,9.00249 z m 88.060202,0.052 a 19.221262,19.221262 0 0 1 -24.67889,-2.61967 20.33358,20.33358 0 0 1 -5.67594,-14.15866 c 0,-3.98147 1.14351,-7.87978 3.31616,-11.18554 2.15187,-3.30577 5.21854,-5.88385 8.80498,-7.39119 a 19.127703,19.127703 0 0 1 11.33109,-1.12272 c 3.80475,0.79006 7.29763,2.71323 10.03165,5.5408 2.73401,2.82757 4.57401,6.41401 5.32249,10.32272 a 20.583072,20.583072 0 0 1 -1.17469,11.62216 19.980133,19.980133 0 0 1 -7.27685,8.9921 z"
     id="path1"
     style="fill:#ffffff;fill-opacity:1;stroke-width:10.3955" />
  <metadata
     id="metadata1">
    <rdf:RDF>
      <cc:Work
         rdf:about="">
        <dc:title>Bun</dc:title>
      </cc:Work>
    </rdf:RDF>
  </metadata>
</svg>
