<?xml version="1.0" encoding="UTF-8" standalone="no"?>
<svg
   width="256"
   height="256"
   viewBox="0 0 256 256"
   fill="none"
   version="1.1"
   id="svg7"
   xmlns="http://www.w3.org/2000/svg"
   xmlns:svg="http://www.w3.org/2000/svg">
  <defs
     id="defs7" />
  <path
     d="m 68.950306,187.43691 c -35.739489,0 -62.658496,-28.2867 -62.658496,-63.20918 0,-35.038413 25.544448,-63.558221 62.658496,-63.558221 19.702336,0 33.333304,6.053152 43.986544,19.905651 L 95.754378,94.893257 C 88.538017,87.210362 79.83216,83.368945 68.950306,83.368945 c -24.170012,0 -37.457735,18.508745 -37.457735,40.858785 0,22.35054 14.54772,40.5098 37.457735,40.5098 10.76723,0 19.931584,-3.84118 27.147945,-11.52413 l 16.953209,14.89994 c -10.19472,13.27028 -24.16957,19.32357 -44.101154,19.32357 z"
     fill="#292929"
     id="path1"
     style="stroke-width:6.2296" />
  <path
     d="m 187.05032,94.422923 h 23.13857 v 90.797507 h -23.13857 v -13.27029 c -4.81112,9.42912 -12.82985,15.71478 -28.17895,15.71478 -24.51344,0 -44.10178,-21.30209 -44.10178,-47.49379 0,-26.19183 19.58834,-47.494363 44.10178,-47.494363 15.2351,0 23.36783,6.286034 28.17895,15.715023 z m 0.68712,45.748207 c 0,-14.20161 -9.73686,-25.95897 -25.08595,-25.95897 -14.77722,0 -24.39945,11.87323 -24.39945,25.95897 0,13.73563 9.62223,25.95871 24.39945,25.95871 15.23509,0 25.08595,-11.8736 25.08595,-25.95871 z"
     fill="#292929"
     id="path2"
     style="stroke-width:6.2296" />
  <path
     d="m 226.56961,57.755474 h 23.13858 V 185.10518 h -23.13858 z"
     fill="#292929"
     id="path3"
     style="stroke-width:6.2296" />
</svg>
