<?xml version="1.0" encoding="UTF-8" standalone="no"?>
<!-- Generator: Adobe Illustrator 19.2.1, SVG Export Plug-In . SVG Version: 6.00 Build 0)  -->

<svg
   version="1.1"
   id="layer"
   x="0px"
   y="0px"
   viewBox="0 0 256 255.99999"
   xml:space="preserve"
   sodipodi:docname="dante-icon-white.svg"
   width="256"
   height="256"
   inkscape:version="1.3.2 (091e20ef0f, 2023-11-25, custom)"
   xmlns:inkscape="http://www.inkscape.org/namespaces/inkscape"
   xmlns:sodipodi="http://sodipodi.sourceforge.net/DTD/sodipodi-0.dtd"
   xmlns="http://www.w3.org/2000/svg"
   xmlns:svg="http://www.w3.org/2000/svg"><defs
   id="defs2" /><sodipodi:namedview
   id="namedview2"
   pagecolor="#ffffff"
   bordercolor="#000000"
   borderopacity="0.25"
   inkscape:showpageshadow="2"
   inkscape:pageopacity="0.0"
   inkscape:pagecheckerboard="true"
   inkscape:deskcolor="#d1d1d1"
   inkscape:zoom="1.3803681"
   inkscape:cx="304.99111"
   inkscape:cy="72.444444"
   inkscape:window-width="3832"
   inkscape:window-height="1104"
   inkscape:window-x="0"
   inkscape:window-y="0"
   inkscape:window-maximized="1"
   inkscape:current-layer="layer" />
<style
   type="text/css"
   id="style1">
	.st0{fill:#231815;}
	.st1{fill:#E50012;}
</style>
<g
   id="g2"
   transform="matrix(1.7767069,0,0,1.7767069,-14.071028,-443.45417)">
	<path
   class="st0"
   d="m 52.6,360.5 v 5.9 h 63.9 V 349.5 H 69.6 c 4.6,-24.8 25.9,-44.3 52.7,-48.3 v 48.3 0 16.9 h 16 v -81.1 h -5.9 c -44,-0.1 -79.8,33.7 -79.8,75.2 m -31.9,0 v 5.9 h 15.9 v -5.9 c 0,-50.3 42.9,-91.2 95.7,-91.2 h 5.9 v -15.9 h -5.9 c -61.5,0 -111.6,48 -111.6,107.1"
   id="path1"
   sodipodi:nodetypes="ccccccccccccccccssccsc"
   style="fill:#ffffff;fill-opacity:1" />
	<path
   id="rect1"
   class="st1"
   style="fill:#ffffff;fill-opacity:1"
   d="M 52.099998,376.70001 H 138 v 12.1 H 52.099998 Z" />
	<path
   id="rect2"
   class="st1"
   style="fill:#ffffff;fill-opacity:1"
   d="M 20.700001,377 H 37.5 v 11.7 H 20.700001 Z" />
</g>
</svg>
