<svg
   fill="#000000"
   width="800"
   height="800"
   viewBox="0 0 24 24"
   role="img"
   version="1.1"
   id="svg1"
   xmlns="http://www.w3.org/2000/svg"
   xmlns:svg="http://www.w3.org/2000/svg">
  <defs
     id="defs1" />
  <title
     id="title1">Directus icon</title>
  <path
     d="m 19.187,13.909 a 1.74,1.74 0 0 1 -0.286,-0.092 0.657,0.657 0 0 1 -0.203,-0.139 c 0.056,-0.488 0,-0.912 0.047,-1.392 0.184,-1.862 1.355,-1.272 2.406,-1.577 0.655,-0.184 1.31,-0.562 1.475,-1.336 A 13.528,13.528 0 0 0 20.229,7.169 C 17.379,5.141 13.655,4.329 10.271,4.892 a 5.113,5.113 0 0 0 2.238,2.074 c 0,0 -0.917,0 -1.703,-0.587 -0.23,0.092 -0.692,0.274 -0.913,0.384 a 5.094,5.094 0 0 0 6.63,0.37 c -0.01,0.017 -0.185,0.285 -0.397,1.4 -0.47,2.38 -1.826,2.195 -3.504,1.596 C 9.137,8.865 7.219,10.036 5.477,7.639 4.97,7.925 4.657,8.459 4.657,9.041 c 0,0.599 0.331,1.106 0.81,1.383 0.262,-0.348 0.38,-0.446 0.836,-0.446 -0.706,0.4 -0.79,0.75 -1.094,1.718 -0.368,1.171 -0.212,2.37 -1.936,2.683 C 2.36,14.425 2.379,15.043 2.047,15.965 1.632,17.164 1.079,17.643 0,18.777 c 0.443,0.535 0.904,0.6 1.374,0.406 0.968,-0.406 1.715,-1.66 2.415,-2.471 0.784,-0.904 2.665,-0.517 4.085,-1.402 0.977,-0.599 1.457,-1.41 0.811,-2.784 a 2.72,2.72 0 0 1 0.701,1.66 c 1.641,-0.213 3.836,1.788 5.836,2.12 a 3.574,3.574 0 0 1 -0.488,-0.82 c -0.23,-0.554 -0.304,-1.06 -0.258,-1.503 0.184,1.097 1.29,2.507 3.07,2.637 0.452,0.036 0.95,-0.019 1.466,-0.176 0.618,-0.184 1.19,-0.424 1.872,-0.295 0.507,0.093 0.977,0.35 1.272,0.784 0.443,0.645 1.41,0.784 1.844,-0.009 -0.977,-2.554 -3.67,-2.72 -4.813,-3.015 z"
     id="path1" />
</svg>
