<?xml version="1.0" encoding="UTF-8" standalone="no"?>
<svg
   width="64"
   height="64"
   fill="none"
   version="1.1"
   id="svg1"
   sodipodi:docname="directus.svg"
   inkscape:version="1.3.2 (091e20ef0f, 2023-11-25, custom)"
   inkscape:export-filename="../../../NextcloudSideways/Dev/sigreer/simongreer.co.uk/src/images/vendor-icons/directus-icon.svg"
   inkscape:export-xdpi="96"
   inkscape:export-ydpi="96"
   xmlns:inkscape="http://www.inkscape.org/namespaces/inkscape"
   xmlns:sodipodi="http://sodipodi.sourceforge.net/DTD/sodipodi-0.dtd"
   xmlns="http://www.w3.org/2000/svg"
   xmlns:svg="http://www.w3.org/2000/svg"
   xmlns:rdf="http://www.w3.org/1999/02/22-rdf-syntax-ns#"
   xmlns:cc="http://creativecommons.org/ns#"
   xmlns:dc="http://purl.org/dc/elements/1.1/">
  <title
     id="title1">Directus Logo Icon</title>
  <defs
     id="defs1" />
  <sodipodi:namedview
     id="namedview1"
     pagecolor="#ffffff"
     bordercolor="#000000"
     borderopacity="0.25"
     inkscape:showpageshadow="2"
     inkscape:pageopacity="0.0"
     inkscape:pagecheckerboard="true"
     inkscape:deskcolor="#d1d1d1"
     inkscape:export-bgcolor="#ffffff00"
     inkscape:zoom="5.7692308"
     inkscape:cx="19.586667"
     inkscape:cy="13.866667"
     inkscape:window-width="3832"
     inkscape:window-height="1104"
     inkscape:window-x="0"
     inkscape:window-y="0"
     inkscape:window-maximized="1"
     inkscape:current-layer="svg1" />
  <path
     fill="#FFFFFF"
     fill-rule="evenodd"
     clip-rule="evenodd"
     d="M 48.620912,36.424322 C 48.360946,36.363663 48.144308,36.294339 47.953666,36.207683 47.815018,36.147025 47.6937,36.069035 47.589714,35.98238 a 0.26863145,0.26863145 0 0 1 -0.08666,-0.23397 c 0.09532,-1.074525 -0.01733,-2.019068 0.08666,-3.084929 0.433277,-4.332765 3.154253,-2.954945 5.597933,-3.665519 1.403816,-0.389949 2.807632,-1.169847 3.318898,-2.686314 0.08666,-0.259966 0.0087,-0.528598 -0.164645,-0.727905 A 31.369221,31.369221 0 0 0 51.038595,20.783039 31.828494,31.828494 0 0 0 28.482219,15.41041 0.3986144,0.3986144 0 0 0 28.196257,16.016997 11.871777,11.871777 0 0 0 31.9311,19.691182 c 0.268632,0.164645 0.164645,0.519932 -0.147314,0.450608 a 7.105735,7.105735 0 0 1 -2.530335,-1.091857 0.30329357,0.30329357 0 0 0 -0.285962,-0.03466 l -1.421147,0.58059 a 0.38994887,0.38994887 0 0 0 -0.103986,0.649915 11.871777,11.871777 0 0 0 13.916842,1.178512 c 0.259965,-0.164645 0.693242,0.173311 0.606587,0.476605 a 23.396932,23.396932 0 0 0 -0.467939,2.05373 c -1.091857,5.519943 -4.24611,5.086667 -8.145599,3.700182 C 25.55327,24.829844 21.116518,27.238861 17.182367,22.47282 16.913736,22.143529 16.428466,22.030878 16.107842,22.308175 a 3.6828505,3.6828505 0 0 0 0.372617,5.89256 c 0.121318,0.08666 0.285963,0.04333 0.381284,-0.06932 0.242635,-0.303294 0.433276,-0.511266 0.693242,-0.641249 0.259966,-0.138649 0.398615,0.2513 0.173311,0.450607 -0.840557,0.73657 -1.083192,1.620455 -1.62912,3.353561 -0.857887,2.712311 -0.493935,5.493946 -4.506076,6.221851 -2.1230547,0.103986 -2.0797271,1.542464 -2.8509593,3.68285 -0.8925496,2.582328 -2.0710618,3.726178 -4.2461099,5.979216 -0.294628,0.311959 -0.3119591,0.805894 0.00867,1.083191 0.8665531,0.736571 1.7677682,0.779898 2.6776489,0.398615 2.253038,-0.935877 3.9861433,-3.847496 5.6152633,-5.727916 1.819761,-2.097058 6.195854,-1.204509 9.506087,-3.258239 1.776434,-1.083192 2.850959,-2.478342 2.513004,-4.566735 -0.06066,-0.32929 0.320624,-0.537263 0.459273,-0.225304 0.268631,0.589256 0.441942,1.213175 0.519932,1.871755 0.01733,0.173311 0.17331,0.294628 0.337955,0.285962 3.570199,-0.199307 8.197592,3.726179 12.513027,4.792039 0.259965,0.06932 0.450607,-0.23397 0.303293,-0.459273 a 7.9462915,7.9462915 0 0 1 -1.126519,-2.616991 c -0.08666,-0.337955 0.40728,-0.433276 0.571925,-0.121317 a 7.9722881,7.9722881 0 0 0 6.412493,4.081465 c 1.039863,0.08666 2.201044,-0.04333 3.405553,-0.40728 1.438478,-0.433277 2.764304,-0.987871 4.350097,-0.684577 1.178512,0.216638 2.279034,0.81456 2.963611,1.819761 0.953208,1.403816 2.989608,1.767769 4.072799,0.303294 a 0.70190797,0.70190797 0 0 0 0.06932,-0.693242 C 57.277777,37.481516 51.220571,37.091568 48.620912,36.424322 Z"
     id="path1"
     style="fill:#ffffff;fill-opacity:1;stroke-width:0.866553"
     inkscape:label="path1" />
  <metadata
     id="metadata1">
    <rdf:RDF>
      <cc:Work
         rdf:about="">
        <dc:date>23/10/2024</dc:date>
        <dc:creator>
          <cc:Agent>
            <dc:title>Simon Greer</dc:title>
          </cc:Agent>
        </dc:creator>
        <dc:title>Directus Logo Icon</dc:title>
        <cc:license
           rdf:resource="https://simongreer.co.uk" />
      </cc:Work>
    </rdf:RDF>
  </metadata>
</svg>
