<?xml version="1.0" encoding="UTF-8" standalone="no"?>
<svg
   version="1.1"
   viewBox="0 0 420.1538 420.15382"
   id="svg4"
   width="420.15381"
   height="420.15381"
   sodipodi:docname="duckdb-icon.svg"
   inkscape:export-filename="duckdb-icon.svg"
   inkscape:export-xdpi="1"
   inkscape:export-ydpi="1"
   xmlns:inkscape="http://www.inkscape.org/namespaces/inkscape"
   xmlns:sodipodi="http://sodipodi.sourceforge.net/DTD/sodipodi-0.dtd"
   xmlns="http://www.w3.org/2000/svg"
   xmlns:svg="http://www.w3.org/2000/svg">
  <sodipodi:namedview
     id="namedview1"
     pagecolor="#ffffff"
     bordercolor="#000000"
     borderopacity="0.25"
     inkscape:showpageshadow="2"
     inkscape:pageopacity="0.0"
     inkscape:pagecheckerboard="true"
     inkscape:deskcolor="#d1d1d1" />
  <defs
     id="defs1">
    <style
       id="style1">
      .cls-1 {
        fill: #fff100;
      }
    </style>
  </defs>
  <!-- Generator: Adobe Illustrator 28.7.1, SVG Export Plug-In . SVG Version: 1.2.0 Build 142)  -->
  <path
     d="m 210.0769,420.1538 v 0 C 93.834355,420.1538 9.1892498e-7,326.31945 9.1892498e-7,210.0769 v 0 C 9.1892498e-7,93.834355 93.834355,6.2849934e-7 210.0769,6.2849934e-7 v 0 C 326.31945,6.2849934e-7 420.1538,93.834355 420.1538,210.0769 v 0 c 0,116.05582 -93.83435,210.0769 -210.0769,210.0769 z"
     id="path1"
     style="stroke-width:0.933675" />
  <path
     class="cls-1"
     d="m 323.4964,178.39864 h -41.57772 v 62.79084 h 41.57772 c 17.34762,0 31.58398,-14.33064 31.58398,-31.58398 0,-17.25334 -14.23636,-31.20686 -31.58398,-31.20686"
     id="path2"
     style="fill:#facc15;fill-opacity:1;stroke-width:0.942805" />
  <path
     class="cls-1"
     d="m 77.989856,209.98262 c 0,48.4602 39.503544,87.96375 87.963744,87.96375 48.46021,0 87.96376,-39.50355 87.96376,-87.96375 0,-48.4602 -39.50355,-87.96375 -87.96376,-87.96375 -48.4602,0 -87.963744,39.50355 -87.963744,87.96375 v 0"
     id="path3"
     style="fill:#facc15;fill-opacity:1;stroke-width:0.942805" />
</svg>
