<?xml version="1.0" encoding="UTF-8" standalone="no"?>
<svg
   viewBox="0 0 48 48"
   width="240px"
   height="240px"
   version="1.1"
   id="svg1"
   sodipodi:docname="ffmpeg-icon.svg"
   inkscape:version="1.3.2 (091e20ef0f, 2023-11-25, custom)"
   xmlns:inkscape="http://www.inkscape.org/namespaces/inkscape"
   xmlns:sodipodi="http://sodipodi.sourceforge.net/DTD/sodipodi-0.dtd"
   xmlns="http://www.w3.org/2000/svg"
   xmlns:svg="http://www.w3.org/2000/svg">
  <defs
     id="defs1" />
  <sodipodi:namedview
     id="namedview1"
     pagecolor="#ffffff"
     bordercolor="#000000"
     borderopacity="0.25"
     inkscape:showpageshadow="2"
     inkscape:pageopacity="0.0"
     inkscape:pagecheckerboard="0"
     inkscape:deskcolor="#d1d1d1"
     inkscape:zoom="3.75"
     inkscape:cx="120"
     inkscape:cy="120"
     inkscape:window-width="3832"
     inkscape:window-height="1104"
     inkscape:window-x="0"
     inkscape:window-y="0"
     inkscape:window-maximized="1"
     inkscape:current-layer="svg1" />
  <path
     fill="#388e3c"
     d="M 43.908351,47.119375 H 32.348663 c -1.28441,0 -2.440378,-0.770646 -2.954142,-1.926615 -0.513764,-1.155968 -0.256882,-2.568819 0.642205,-3.467906 l 10.6606,-10.660601 V 26.055056 L 20.532094,46.220288 c -0.642205,0.642205 -1.412851,0.899087 -2.311938,0.899087 H 4.0916493 c -1.2844097,0 -2.4403785,-0.770646 -2.9541424,-1.926615 C 0.62374306,44.036792 0.880625,42.623941 1.7797118,41.724854 L 36.201892,7.3026736 H 31.192694 L 6.4035868,32.091781 C 5.5045,32.990868 4.0916493,33.24775 2.9356806,32.733986 1.6512708,32.220222 0.880625,31.064253 0.880625,29.779844 V 15.651337 c 0,-0.899087 0.3853229,-1.669733 0.8990868,-2.311938 L 7.8164375,7.3026736 H 3.9632083 c -1.6697326,0 -3.0825833,-1.4128507 -3.0825833,-3.2110243 0,-1.7981736 1.4128507,-3.2110243 3.2110243,-3.2110243 H 15.651337 c 1.28441,0 2.440378,0.7706458 2.954142,1.9266146 0.513764,1.1559687 0.256882,2.5688194 -0.642205,3.4679062 L 7.3026736,16.935747 v 5.009197 L 27.467906,1.7797118 C 28.110111,1.2659479 28.880757,0.880625 29.779844,0.880625 h 14.128507 c 1.284409,0 2.440378,0.7706458 2.954142,1.9266146 0.513764,1.1559687 0.256882,2.5688194 -0.642205,3.4679062 L 11.798108,40.697326 h 5.009198 L 41.596413,15.908219 c 0.899087,-0.899087 2.311938,-1.155969 3.467906,-0.642205 1.155969,0.513764 1.926615,1.669733 1.926615,2.954142 v 14.128507 c 0,0.899087 -0.385323,1.669733 -0.899087,2.311938 l -6.036725,6.036725 h 3.853229 c 1.798173,0 3.211024,1.412851 3.211024,3.211025 0,1.798173 -1.412851,3.211024 -3.211024,3.211024 z"
     id="path1"
     style="stroke-width:1.28441" />
</svg>
