<?xml version="1.0" encoding="UTF-8" standalone="no"?>
<svg
   viewBox="0 0 48 48"
   width="48"
   height="48"
   version="1.1"
   id="svg7"
   xmlns="http://www.w3.org/2000/svg"
   xmlns:svg="http://www.w3.org/2000/svg">
  <defs
     id="defs7" />
  <path
     fill="#1976d2"
     d="M 41.278164,17.396258 C 40.33957,14.044833 38.455078,11.093922 35.925379,8.8381314 l -5.597478,5.5974776 c 2.041533,1.661713 3.418381,4.107414 3.66916,6.875718 v 1.835798 c 0.03165,0 0.06087,-0.0097 0.09252,-0.0097 2.826739,0 5.127572,2.300833 5.127572,5.127572 0,2.826738 -2.300833,5.128789 -5.127572,5.128789 -0.03165,0 -0.06087,-0.0085 -0.09252,-0.0097 v 0.0097 H 25.882057 24 v 7.91292 h 9.997061 v -0.0049 c 0.03165,0 0.06087,0.0049 0.09252,0.0049 7.191018,0 13.040492,-5.850691 13.040492,-13.040492 0,-4.534712 -2.330051,-8.532562 -5.851909,-10.869917 z"
     id="path1"
     style="stroke-width:1.21737" />
  <path
     fill="#ffe082"
     d="m 18.594867,26.199077 5.745997,-5.745997 c -0.0049,-0.0061 -0.0097,-0.01096 -0.01339,-0.01583 l -5.742345,5.742345 c 0.0024,0.0061 0.0061,0.01217 0.0097,0.01948 z"
     opacity="0.5"
     id="path2"
     style="stroke-width:1.21737" />
  <path
     fill="#90caf9"
     d="m 18.594867,26.199077 5.745997,-5.745997 c -0.0049,-0.0061 -0.0097,-0.01096 -0.01339,-0.01583 l -5.742345,5.742345 c 0.0024,0.0061 0.0061,0.01217 0.0097,0.01948 z"
     opacity="0.5"
     id="path3"
     style="stroke-width:1.21737" />
  <path
     fill="#ff3d00"
     d="m 24,4.2693333 c -9.900889,0 -17.9562407,8.0553527 -17.9562407,17.9562407 0,0.283648 0.029217,0.559991 0.042608,0.839987 h 7.9129197 c -0.02313,-0.277561 -0.04261,-0.556339 -0.04261,-0.839987 0,-5.537826 4.505495,-10.043321 10.043321,-10.043321 2.397006,0 4.599232,0.847291 6.327901,2.253356 l 5.59748,-5.5974776 C 32.750472,6.0065235 28.578537,4.2693333 24,4.2693333 Z"
     id="path4"
     style="stroke-width:1.21737" />
  <path
     fill="#90caf9"
     d="m 13.910419,33.393747 v 0 c -0.0012,0 -0.0012,0 -0.0024,0 -0.743814,0 -1.446238,-0.16678 -2.084141,-0.45408 L 6.0900195,38.67349 c 2.1827484,1.64467 4.8853145,2.633177 7.8179645,2.633177 0.0012,0 0.0012,0 0.0024,0 v 0 H 24 v -7.91292 z"
     opacity="0.5"
     id="path5"
     style="stroke-width:1.21737" />
  <path
     fill="#4caf50"
     d="m 13.910419,33.393747 v 0 c -0.0012,0 -0.0012,0 -0.0024,0 -0.743814,0 -1.446238,-0.16678 -2.084141,-0.45408 L 6.0900195,38.67349 c 2.1827484,1.64467 4.8853145,2.633177 7.8179645,2.633177 0.0012,0 0.0012,0 0.0024,0 v 0 H 24 v -7.91292 z"
     id="path6"
     style="stroke-width:1.21737" />
  <path
     fill="#ffc107"
     d="m 8.7828469,28.26861 c 0,-2.824304 2.3008331,-5.125137 5.1251371,-5.125137 2.073185,0 3.868809,1.245372 4.675927,3.036126 l 5.742345,-5.742345 c -2.387267,-3.167602 -6.165991,-5.206701 -10.419489,-5.206701 -7.1812792,0 -13.03683975,5.843387 -13.03683975,13.038057 0,4.249846 2.05857645,8.022483 5.22009225,10.40488 L 11.823843,32.939667 C 10.03674,32.138636 8.7828469,30.349099 8.7828469,28.26861 Z"
     id="path7"
     style="stroke-width:1.21737" />
</svg>
