<?xml version="1.0" encoding="UTF-8" standalone="no"?>
<!-- Created with Inkscape (http://www.inkscape.org/) -->

<svg
   width="127.69605mm"
   height="127.8862mm"
   viewBox="0 0 127.69605 127.8862"
   version="1.1"
   id="svg1"
   sodipodi:docname="hetzner-cloud-icon.svg"
   inkscape:version="1.3.2 (091e20ef0f, 2023-11-25, custom)"
   xmlns:inkscape="http://www.inkscape.org/namespaces/inkscape"
   xmlns:sodipodi="http://sodipodi.sourceforge.net/DTD/sodipodi-0.dtd"
   xmlns="http://www.w3.org/2000/svg"
   xmlns:svg="http://www.w3.org/2000/svg">
  <sodipodi:namedview
     id="namedview1"
     pagecolor="#ffffff"
     bordercolor="#000000"
     borderopacity="0.25"
     inkscape:showpageshadow="2"
     inkscape:pageopacity="0.0"
     inkscape:pagecheckerboard="0"
     inkscape:deskcolor="#d1d1d1"
     inkscape:document-units="mm"
     inkscape:zoom="0.9310035"
     inkscape:cx="838.87977"
     inkscape:cy="348.01158"
     inkscape:window-width="3832"
     inkscape:window-height="1104"
     inkscape:window-x="0"
     inkscape:window-y="0"
     inkscape:window-maximized="1"
     inkscape:current-layer="svg1" />
  <defs
     id="defs1" />
  <g
     id="layer1"
     transform="matrix(1.3369726,0,0,1.3369726,-116.20472,-107.29986)">
    <g
       id="g26"
       transform="matrix(0.9325537,0,0,0.9325537,-7.972242,-223.79514)" />
  </g>
  <path
     id="rect1"
     style="fill:#ffffff;stroke-width:0;stroke-linecap:round;stroke-miterlimit:1.8;stroke-dashoffset:6.42104;paint-order:fill markers stroke"
     d="m 21.330419,3.2817044 c -2.98473,0 -4.196602,1.2189422 -4.196602,4.2022872 V 92.564816 c 0,2.983322 1.211859,4.202282 4.196602,4.202282 h 13.132644 c 2.932082,0 4.190349,-1.17793 4.190349,-4.202282 V 58.951063 h 52.022981 v 33.613753 c 0,2.942292 1.211276,4.202282 4.196034,4.202282 h 13.050793 c 2.93793,0 4.19603,-1.21895 4.19603,-4.202282 V 7.4839916 c -0.0819,-2.85439 -1.31071,-4.2022872 -4.23696,-4.2022872 H 94.837184 c -2.937936,0 -4.196033,1.2189422 -4.196033,4.2022872 V 40.540693 H 38.653412 V 7.4839916 c 0,-2.942298 -1.211448,-4.2022872 -4.190349,-4.2022872 z" />
  <text
     xml:space="preserve"
     style="font-weight:bold;font-size:30.8624px;font-family:Carlito;-inkscape-font-specification:'Carlito, Bold';text-align:center;text-anchor:middle;fill:#ffffff;stroke-width:0;stroke-linecap:round;stroke-miterlimit:1.8;stroke-dashoffset:6.42104;paint-order:fill markers stroke"
     x="63.56348"
     y="125.45865"
     id="text1"><tspan
       sodipodi:role="line"
       id="tspan1"
       style="font-size:30.8624px;stroke-width:0"
       x="63.56348"
       y="125.45865">CLOUD</tspan></text>
</svg>
