<?xml version="1.0" encoding="UTF-8" standalone="no"?>
<!-- Created with Inkscape (http://www.inkscape.org/) -->

<svg
   width="131.66469mm"
   height="131.86076mm"
   viewBox="0 0 131.66469 131.86076"
   version="1.1"
   id="svg1"
   inkscape:version="1.3.2 (091e20ef0f, 2023-11-25, custom)"
   sodipodi:docname="hetzner-icon.svg"
   xmlns:inkscape="http://www.inkscape.org/namespaces/inkscape"
   xmlns:sodipodi="http://sodipodi.sourceforge.net/DTD/sodipodi-0.dtd"
   xmlns="http://www.w3.org/2000/svg"
   xmlns:svg="http://www.w3.org/2000/svg">
  <sodipodi:namedview
     id="namedview1"
     pagecolor="#ffffff"
     bordercolor="#000000"
     borderopacity="0.25"
     inkscape:showpageshadow="2"
     inkscape:pageopacity="0.0"
     inkscape:pagecheckerboard="0"
     inkscape:deskcolor="#d1d1d1"
     inkscape:document-units="mm"
     inkscape:zoom="0.80176768"
     inkscape:cx="135.94961"
     inkscape:cy="326.77795"
     inkscape:window-width="3832"
     inkscape:window-height="1104"
     inkscape:window-x="0"
     inkscape:window-y="0"
     inkscape:window-maximized="1"
     inkscape:current-layer="layer1" />
  <defs
     id="defs1" />
  <g
     inkscape:label="Layer 1"
     inkscape:groupmode="layer"
     id="layer1"
     transform="translate(-68.839635,-62.152245)">
    <g
       id="g26"
       inkscape:label="g26"
       transform="matrix(1.2855478,0,0,1.2855478,-61.966525,-356.98938)">
      <path
         id="rect26"
         style="fill:#f9f9f9;stroke-width:0;stroke-miterlimit:1.8;stroke-dashoffset:6.42104;stroke-opacity:0.816742;paint-order:stroke markers fill"
         d="m 111.42344,334.44761 h 83.07486 v 85.75895 h -83.07486 z" />
      <path
         d="M 101.7513,326.04126 V 428.61291 H 204.17043 V 326.04126 Z m 19.63887,17.20212 h 9.57618 c 2.17214,0 3.05552,0.91887 3.05552,3.06432 v 24.10434 h 37.90787 V 346.3077 c 0,-2.17538 0.91751,-3.06432 3.05978,-3.06432 h 9.51216 c 2.13374,0 3.02991,0.98297 3.08966,3.06432 v 62.03877 c 0,2.17538 -0.91751,3.06432 -3.05978,3.06432 h -9.51644 c -2.17641,0 -3.05976,-0.91887 -3.05976,-3.06432 v -24.51036 h -37.93348 v 24.51036 c 0,2.20529 -0.91752,3.06432 -3.05552,3.06432 h -9.57618 c -2.1764,0 -3.05978,-0.88895 -3.05978,-3.06432 V 346.3077 c 0,-2.17538 0.88338,-3.06432 3.05977,-3.06432 z"
         id="path1-8"
         style="fill:#aa0000;fill-opacity:1;stroke-width:4.27064" />
    </g>
  </g>
</svg>
