<?xml version="1.0" encoding="utf-8"?>
<!-- Generator: Adobe Illustrator 21.1.0, SVG Export Plug-In . SVG Version: 6.00 Build 0)  -->
<svg version="1.1" id="Ebene_1" xmlns="http://www.w3.org/2000/svg" xmlns:xlink="http://www.w3.org/1999/xlink" x="0px" y="0px"
	 viewBox="0 0 141.7 141.7" style="enable-background:new 0 0 141.7 141.7;" xml:space="preserve">
<style type="text/css">
	.st0{fill:#D50F2E;}
	.st1{fill:#EDEDED;}
	.st2{fill:#FFFFFF;}
</style>
<g>
	<g>
		<g>
			<g>
				<ellipse class="st0" cx="70.8" cy="70.9" rx="66.9" ry="66.9"/>
				<path class="st1" d="M70.8,141.7c-39,0-70.8-31.8-70.8-70.8S31.8,0,70.8,0s70.9,31.8,70.9,70.9S109.8,141.7,70.8,141.7z M70.8,8
					C36.2,8,8,36.2,8,70.9s28.2,62.8,62.8,62.8s62.8-28.2,62.8-62.8S105.4,8,70.8,8z"/>
			</g>
		</g>
	</g>
	<path class="st2" d="M92.4,84.3l0.8-1.2h6.4v20.4h-6.4l-0.8-1.2H49.3l-0.8,1.2h-6.4V83h6.4l0.8,1.2h43.2L92.4,84.3L92.4,84.3z
		 M66.4,89.6V92l2,1.2l2-1.2v-2.4l-2-1.2L66.4,89.6z M72.5,89.6V92l2,1.2l2-1.2v-2.4l-2-1.2L72.5,89.6z M78.7,89.6V92l2,1.2l2-1.2
		v-2.4l-2-1.2L78.7,89.6z M84.9,89.6V92l2,1.2l2-1.2v-2.4l-2-1.2L84.9,89.6z M69.5,94.6V97l2,1.2l2-1.2v-2.4l-2-1.2L69.5,94.6z
		 M75.6,94.6V97l2,1.2l2-1.2v-2.4l-2-1.2L75.6,94.6z M81.8,94.6V97l2,1.2l2-1.2v-2.4l-2-1.2L81.8,94.6z M88,94.6V97l2,1.2l2-1.2
		v-2.4l-2-1.2L88,94.6z M53.9,88.9c-2.4,0-4.3,1.9-4.3,4.3s1.9,4.3,4.3,4.3c2.4,0,4.3-1.9,4.3-4.3S56.3,88.9,53.9,88.9z M53.9,95.6
		c-1.3,0-2.4-1.1-2.4-2.4s1.1-2.4,2.4-2.4s2.4,1.1,2.4,2.4C56.3,94.5,55.2,95.6,53.9,95.6z M92.4,61.9l0.8-1.2h6.4v20.4h-6.4
		l-0.8-1.2H49.3l-0.8,1.2h-6.4V60.7h6.4l0.8,1.2H92.4z M66.4,67.2v2.4l2,1.2l2-1.2v-2.4l-2-1.2L66.4,67.2z M72.5,67.2v2.4l2,1.2
		l2-1.2v-2.4l-2-1.2L72.5,67.2z M78.7,67.2v2.4l2,1.2l2-1.2v-2.4l-2-1.2L78.7,67.2z M84.9,67.2v2.4l2,1.2l2-1.2v-2.4l-2-1.2
		L84.9,67.2z M69.5,72.2v2.4l2,1.2l2-1.2v-2.4l-2-1.2L69.5,72.2z M75.6,72.2v2.4l2,1.2l2-1.2v-2.4l-2-1.2L75.6,72.2z M81.8,72.2v2.4
		l2,1.2l2-1.2v-2.4l-2-1.2L81.8,72.2z M88,72.2v2.4l2,1.2l2-1.2v-2.4L90,71L88,72.2z M53.9,66.5c-2.4,0-4.3,1.9-4.3,4.3
		s1.9,4.3,4.3,4.3c2.4,0,4.3-1.9,4.3-4.3S56.3,66.5,53.9,66.5z M53.9,73.2c-1.3,0-2.4-1.1-2.4-2.4s1.1-2.4,2.4-2.4s2.4,1.1,2.4,2.4
		C56.3,72.2,55.2,73.2,53.9,73.2z M92.4,39.5l0.8-1.2h6.4v20.4h-6.4l-0.8-1.2H49.3l-0.8,1.2h-6.4V38.3h6.4l0.8,1.2H92.4z M66.4,44.8
		v2.4l2,1.2l2-1.2v-2.4l-2-1.2L66.4,44.8z M72.5,44.8v2.4l2,1.2l2-1.2v-2.4l-2-1.2L72.5,44.8z M78.7,44.8v2.4l2,1.2l2-1.2v-2.4
		l-2-1.2L78.7,44.8z M84.9,44.8v2.4l2,1.2l2-1.2v-2.4l-2-1.2L84.9,44.8z M69.5,49.8v2.4l2,1.2l2-1.2v-2.4l-2-1.2L69.5,49.8z
		 M75.6,49.8v2.4l2,1.2l2-1.2v-2.4l-2-1.2L75.6,49.8z M81.8,49.8v2.4l2,1.2l2-1.2v-2.4l-2-1.2L81.8,49.8z M88,49.8v2.4l2,1.2l2-1.2
		v-2.4l-2-1.2L88,49.8z M53.9,44.1c-2.4,0-4.3,1.9-4.3,4.3c0,2.4,1.9,4.3,4.3,4.3c2.4,0,4.3-1.9,4.3-4.3
		C58.2,46.1,56.3,44.1,53.9,44.1z M53.9,50.9c-1.3,0-2.4-1.1-2.4-2.4c0-1.3,1.1-2.4,2.4-2.4s2.4,1.1,2.4,2.4
		C56.3,49.8,55.2,50.9,53.9,50.9z"/>
</g>
</svg>
