<?xml version="1.0" encoding="UTF-8" standalone="no"?>
<!-- Created with Inkscape (http://www.inkscape.org/) -->

<svg
   width="77.942513mm"
   height="89.464836mm"
   viewBox="0 0 77.942513 89.464836"
   version="1.1"
   id="svg1"
   xml:space="preserve"
   xmlns:xlink="http://www.w3.org/1999/xlink"
   xmlns="http://www.w3.org/2000/svg"
   xmlns:svg="http://www.w3.org/2000/svg"><defs
     id="defs1"><linearGradient
       id="linearGradient29"><stop
         style="stop-color:#000000;stop-opacity:0.42916667;"
         offset="0"
         id="stop28" /><stop
         style="stop-color:#7c29a0;stop-opacity:0;"
         offset="1"
         id="stop29" /></linearGradient><linearGradient
       id="linearGradient26"><stop
         style="stop-color:#000000;stop-opacity:1;"
         offset="0"
         id="stop26" /><stop
         style="stop-color:#7c29a0;stop-opacity:0;"
         offset="1"
         id="stop27" /></linearGradient><linearGradient
       xlink:href="#linearGradient26"
       id="linearGradient27"
       x1="142.89418"
       y1="57.5"
       x2="86.602539"
       y2="85"
       gradientUnits="userSpaceOnUse" /><linearGradient
       xlink:href="#linearGradient29"
       id="linearGradient28"
       gradientUnits="userSpaceOnUse"
       x1="77.942284"
       y1="95"
       x2="78.355431"
       y2="95" /><linearGradient
       xlink:href="#linearGradient29"
       id="linearGradient28-6"
       gradientUnits="userSpaceOnUse"
       x1="79.674332"
       y1="79"
       x2="79.869926"
       y2="79.337067" /><linearGradient
       xlink:href="#linearGradient29"
       id="linearGradient28-6-7"
       gradientUnits="userSpaceOnUse"
       x1="79.674332"
       y1="79"
       x2="79.869926"
       y2="79.337067" /></defs><g
     id="layer1"
     transform="translate(-77.942283,-57.767786)"><path
       id="path1-7"
       style="display:inline;fill:#7c29a0;fill-opacity:1;stroke-width:0;stroke-linejoin:round;stroke-opacity:0.433444;paint-order:stroke fill markers"
       d="M 116.0473,57.999827 78.808307,79.499994 a 1.7320593,1.7320593 119.99987 0 0 -0.866023,1.500004 V 124 a 1.7320479,1.7320479 60 0 0 0.866024,1.5 l 15.588457,9 a 1.7320536,1.7320536 0 0 0 1.732054,0 l 15.588451,-9 a 0.57734737,0.57734737 89.999818 0 0 0,-1 L 96.129141,115.50033 A 1.7324247,1.7324247 59.999818 0 1 95.262919,114 l 0,-23.999809 38.105161,-22.000383 a 0.57739899,0.57739899 89.999402 0 0 -1e-5,-1.000086 l -15.5888,-8.999911 a 1.7319795,1.7319795 179.99947 0 0 -1.73197,1.6e-5 z" /><path
       id="path1"
       style="display:inline;fill:#ab33c8;fill-opacity:1;stroke-width:0;stroke-linejoin:round;stroke-opacity:0.433444;paint-order:stroke fill markers"
       d="m 142.54185,75.345063 a 2.0760089,2.050798 89.531989 0 0 -0.66352,0.241328 l -19.61896,11.326958 a 0.67529475,0.66709402 89.531989 0 0 5.1e-4,1.173055 l 15.28796,8.826851 a 2.0759924,2.0507817 89.531989 0 0 2.03192,0 l 3.31452,-1.913578 v 25.000543 l -38.10516,21.99969 a 0.57734891,0.57734891 0 0 0 0,0.99994 l 15.58819,8.99997 a 1.7320486,1.7320486 0 0 0 1.7322,0 l 20.78477,-11.99979 16.4543,-9.50019 v -0.99994 l 0.86609,-0.49971 V 86.000226 a 1.7320507,1.7320507 0 0 0 -0.10335,-0.579293 1.7362726,1.7151874 89.531989 0 0 -0.005,-0.01499 1.7320507,1.7320507 0 0 0 -0.29094,-0.507462 1.7362726,1.7151874 89.531989 0 0 -0.0186,-0.0217 1.7320507,1.7320507 0 0 0 -0.44803,-0.376721 l -15.43834,-8.913668 a 2.0760089,2.050798 89.531989 0 0 -0.001,-5.16e-4 l -0.14883,-0.08578 a 0.57735028,0.57735028 0 0 0 -0.17001,-0.02997 2.0760089,2.050798 89.531989 0 0 -1.04852,-0.125056 z"
       transform="translate(-4.3301317,-5.0000023)" /><g
       id="g22"
       style="display:inline;fill:#ab33c8;fill-opacity:1"><path
         id="path20-4-6"
         style="display:inline;fill:#ab33c8;fill-opacity:1;stroke-width:2.15707;stroke-linejoin:round"
         d="m 155.88454,124.00018 -0.9524,0.16485 -0.005,0.21497 0.0913,1.12041 c 0.50124,-0.27378 0.86553,-0.91947 0.86553,-1.15687 l 8.3e-4,-0.34336 z" /></g><path
       id="rect21-0"
       style="fill:#7c29a0;fill-opacity:1;stroke-width:0;stroke-linejoin:round"
       d="m 96.119072,89.50597 c -0.0951,0.05859 -0.85628,0.556466 -0.85628,1.493966 v -0.999939 z" /><path
       id="rect21-0-2"
       style="fill:#7c29a0;fill-opacity:1;stroke-width:0;stroke-linejoin:round"
       d="m 95.262792,89.999997 v 0.999939 c 0,-0.347312 0.104445,-0.634273 0.240813,-0.860929 z" /><path
       id="path1-7-1"
       style="display:inline;fill:url(#linearGradient27);fill-opacity:1;stroke-width:0;stroke-linejoin:round;stroke-opacity:0.433444;paint-order:stroke fill markers"
       d="M 116.0473,57.999827 78.808307,79.499994 a 1.7320593,1.7320593 119.99987 0 0 -0.866023,1.500004 V 124 a 1.7320479,1.7320479 60 0 0 0.866024,1.5 l 15.588457,9 a 1.7320536,1.7320536 0 0 0 1.732054,0 l 15.588451,-9 a 0.57734737,0.57734737 89.999818 0 0 0,-1 L 96.129141,115.50033 A 1.7324247,1.7324247 59.999818 0 1 95.262919,114 l 0,-23.999809 38.105161,-22.000383 a 0.57739899,0.57739899 89.999402 0 0 -1e-5,-1.000086 l -15.5888,-8.999911 a 1.7319795,1.7319795 179.99947 0 0 -1.73197,1.6e-5 z" /><path
       id="path1-7-1-0"
       style="display:inline;fill:url(#linearGradient28);fill-opacity:1;stroke-width:0;stroke-linejoin:round;stroke-opacity:0.433444;paint-order:stroke fill markers"
       d="M 116.0473,57.999827 78.808307,79.499994 a 1.7320593,1.7320593 119.99987 0 0 -0.866023,1.500004 V 124 a 1.7320479,1.7320479 60 0 0 0.866024,1.5 l 15.588457,9 a 1.7320536,1.7320536 0 0 0 1.732054,0 l 15.588451,-9 a 0.57734737,0.57734737 89.999818 0 0 0,-1 L 96.129141,115.50033 A 1.7324247,1.7324247 59.999818 0 1 95.262919,114 l 0,-23.999809 38.105161,-22.000383 a 0.57739899,0.57739899 89.999402 0 0 -1e-5,-1.000086 l -15.5888,-8.999911 a 1.7319795,1.7319795 179.99947 0 0 -1.73197,1.6e-5 z" /><path
       id="path1-7-1-0-2"
       style="display:inline;fill:url(#linearGradient28-6);fill-opacity:1;stroke-width:0;stroke-linejoin:round;stroke-opacity:0.433444;paint-order:stroke fill markers"
       d="M 116.0473,57.999827 78.808307,79.499994 a 1.7320593,1.7320593 119.99987 0 0 -0.866023,1.500004 V 124 a 1.7320479,1.7320479 60 0 0 0.866024,1.5 l 15.588457,9 a 1.7320536,1.7320536 0 0 0 1.732054,0 l 15.588451,-9 a 0.57734737,0.57734737 89.999818 0 0 0,-1 L 96.129141,115.50033 A 1.7324247,1.7324247 59.999818 0 1 95.262919,114 l 0,-23.999809 38.105161,-22.000383 a 0.57739899,0.57739899 89.999402 0 0 -1e-5,-1.000086 l -15.5888,-8.999911 a 1.7319795,1.7319795 179.99947 0 0 -1.73197,1.6e-5 z" /><path
       id="path1-7-1-0-2-9"
       style="display:inline;fill:url(#linearGradient28-6-7);fill-opacity:1;stroke-width:0;stroke-linejoin:round;stroke-opacity:0.433444;paint-order:stroke fill markers"
       d="M 116.0473,57.999827 78.808307,79.499994 a 1.7320593,1.7320593 119.99987 0 0 -0.866023,1.500004 V 124 a 1.7320479,1.7320479 60 0 0 0.866024,1.5 l 15.588457,9 a 1.7320536,1.7320536 0 0 0 1.732054,0 l 15.588451,-9 a 0.57734737,0.57734737 89.999818 0 0 0,-1 L 96.129141,115.50033 A 1.7324247,1.7324247 59.999818 0 1 95.262919,114 l 0,-23.999809 38.105161,-22.000383 a 0.57739899,0.57739899 89.999402 0 0 -1e-5,-1.000086 l -15.5888,-8.999911 a 1.7319795,1.7319795 179.99947 0 0 -1.73197,1.6e-5 z"
       transform="rotate(180,116.91353,102.5002)" /></g></svg>
