<?xml version="1.0" encoding="UTF-8" standalone="no"?>
<svg
   width="600"
   height="601"
   viewBox="0 0 600 601"
   fill="none"
   version="1.1"
   id="svg8"
   xmlns="http://www.w3.org/2000/svg"
   xmlns:svg="http://www.w3.org/2000/svg">
  <g
     clip-path="url(#clip0_380_149)"
     id="g8"
     transform="matrix(1.3614782,0,0,1.3614782,-108.44338,-108.65593)">
    <path
       d="m 285.264,252.767 c 8.137,-8.137 21.33,-8.137 29.467,0 l 33.448,33.448 c 8.138,8.137 8.138,21.33 0,29.467 l -33.448,33.448 c -8.137,8.138 -21.33,8.138 -29.467,0 l -33.448,-33.448 c -8.137,-8.137 -8.137,-21.33 0,-29.467 z"
       fill="#a950ff"
       id="path2" />
    <path
       d="m 439.322,252.5 c 7.991,-7.991 20.948,-7.991 28.939,0 l 33.976,33.976 c 7.991,7.991 7.991,20.948 0,28.939 l -33.976,33.976 c -7.991,7.991 -20.948,7.992 -28.939,0 l -33.976,-33.976 c -7.991,-7.991 -7.991,-20.948 0,-28.939 z"
       fill="#a950ff"
       id="path3" />
    <path
       d="m 285.528,98.7109 c 7.991,-7.9915 20.948,-7.9915 28.94,0 l 33.975,33.9751 c 7.992,7.992 7.992,20.949 0,28.94 l -33.975,33.976 c -7.992,7.991 -20.949,7.991 -28.94,0 l -33.976,-33.976 c -7.991,-7.991 -7.991,-20.948 0,-28.94 z"
       fill="#e9c1ff"
       id="path4" />
    <path
       d="m 271.29,209.32 c 8.137,8.137 8.137,21.33 0,29.467 l -33.448,33.448 c -8.137,8.137 -21.33,8.137 -29.467,0 l -33.448,-33.448 c -8.138,-8.137 -8.138,-21.33 0,-29.467 l 33.448,-33.449 c 8.137,-8.137 21.33,-8.137 29.467,0 z"
       fill="#cd88ff"
       id="path5" />
    <path
       d="m 194.654,286.476 c 7.991,7.991 7.991,20.948 0,28.939 l -33.976,33.976 c -7.991,7.991 -20.948,7.991 -28.94,0 L 97.7629,315.415 c -7.9915,-7.991 -7.9915,-20.948 0,-28.939 L 131.738,252.5 c 7.992,-7.991 20.949,-7.991 28.94,0 z"
       fill="#a950ff"
       id="path6" />
    <path
       d="m 425.078,209.32 c 8.137,8.137 8.137,21.33 0,29.467 l -33.448,33.448 c -8.138,8.137 -21.33,8.137 -29.467,0 l -33.449,-33.448 c -8.137,-8.137 -8.137,-21.33 0,-29.467 l 33.449,-33.449 c 8.137,-8.137 21.329,-8.137 29.467,0 z"
       fill="#cd88ff"
       id="path7" />
    <path
       d="m 332.916,428.992 c 18.179,18.179 18.179,47.653 0,65.832 -18.179,18.179 -47.653,18.179 -65.832,0 -18.179,-18.179 -18.179,-47.653 0,-65.832 18.179,-18.179 47.653,-18.179 65.832,0 z"
       fill="#f62e76"
       id="path8" />
  </g>
  <defs
     id="defs8">
    <clipPath
       id="clip0_380_149">
      <rect
         width="600"
         height="600"
         fill="#ffffff"
         transform="translate(0,0.947876)"
         id="rect8"
         x="0"
         y="0" />
    </clipPath>
  </defs>
</svg>
