<?xml version="1.0" encoding="UTF-8" standalone="no"?>
<svg
   height="112.88914mm"
   viewBox="0 0 400.00147 400.00088"
   width="112.88931mm"
   version="1.1"
   id="svg5"
   xmlns="http://www.w3.org/2000/svg"
   xmlns:svg="http://www.w3.org/2000/svg">
  <defs
     id="defs5" />
  <linearGradient
     id="a"
     gradientUnits="userSpaceOnUse"
     x1="226.35854"
     x2="571.82001"
     y1="722.36224"
     y2="322.36221"
     gradientTransform="translate(-189.99853,-322.36133)">
    <stop
       offset="0"
       stop-color="#4e505d"
       id="stop1" />
    <stop
       offset="1"
       stop-color="#7a859c"
       id="stop2" />
  </linearGradient>
  <path
     d="m 1e-5,8.8e-4 h 400 v 400 h -400 z"
     fill="none"
     id="path2" />
  <path
     d="M 199.99952,0 C 99.58188,8e-5 18.17778,28.48871 18.1792,63.63086 c 0.002,35.14139 81.40484,63.62882 181.82032,63.6289 34.45526,1.1e-4 66.67078,-3.35382 94.1289,-9.17968 4.99101,-5.84759 10.56134,-11.57886 16.81836,-17.06641 -0.19211,0.14617 0.96447,-1.02435 1.36719,-2.27344 0.64826,-2.01066 1.00781,-3.81445 1.00781,-3.81445 a 18.0018,18.0018 0 0 1 18.37696,-14.60352 18.0018,18.0018 0 0 1 15.65234,10.45118 c 0,0 1.87813,3.84562 4.03711,8.10546 19.22191,-10.09061 30.43297,-22.21102 30.43359,-35.24804 -0.072,-1.29529 -0.25692,-2.58952 -0.55469,-3.88086 -0.28656,-1.63918 -0.75436,-3.27387 -1.40234,-4.90039 C 367.35728,23.43256 290.63983,0.03771 199.99952,0 Z m 113.28125,98.99609 c -1.40426,1.18549 -2.01133,1.73843 -2.22852,1.92578 0.73596,-0.64434 1.47352,-1.2884 2.22852,-1.92578 z M 18.1792,99.80469 v 54.91992 c 0.30614,35.06319 81.60832,63.43185 181.80079,63.43554 16.74905,5e-5 32.94989,-0.80726 48.35156,-2.29101 1.6768,-11.91883 4.68546,-23.74859 9.39062,-35.04492 5.12393,-12.3017 11.56891,-26.80318 20.85352,-41.53711 -24.09876,3.87195 -50.61487,5.97461 -78.57617,5.97461 -51.9106,0 -98.91434,-7.19078 -134.51172,-19.64844 -17.79869,-6.22883 -32.81199,-13.67991 -44.49414,-23.3457 -0.95934,-0.79376 -1.89316,-1.62157 -2.81446,-2.46289 z m 363.64258,0 c -0.9213,0.84132 -1.8551,1.66913 -2.81445,2.46289 -5.37129,4.44419 -11.45497,8.41526 -18.18164,12.01953 5.60902,6.61762 13.50003,13.93361 20.99609,23.95117 z m -52.1289,32.99023 c -19.58366,19.1147 -30.28545,41.57725 -38.73829,61.87109 -2.04956,4.92068 -3.63546,10.2817 -4.82812,15.91016 9.22601,-1.74049 17.94746,-3.76386 26.12891,-6.01562 l 0.34179,-13.7754 a 18.0018,18.0018 0 0 1 35.95508,-0.75195 l 0.0762,1.14649 c 6.42332,-3.18495 12.02893,-6.58504 16.7168,-10.16407 -2.94144,-6.25409 -6.1923,-12.19825 -9.88086,-17.73437 -5.53737,-8.31097 -16.06906,-17.14907 -25.77148,-30.48633 z M 18.1792,190.72265 v 55.08008 c 0.30613,35.06319 81.60831,63.43186 181.80079,63.43555 20.13617,6e-5 39.48573,-1.16045 57.58984,-3.27539 -0.097,-0.28085 -0.2024,-0.55796 -0.29688,-0.83984 -6.70671,-20.01187 -11.36129,-45.18051 -10.50976,-70.98829 -14.99098,1.33146 -30.64938,2.02735 -46.7832,2.02735 -51.9106,0 -98.91433,-7.19078 -134.51172,-19.64844 -17.79869,-6.22883 -32.81198,-13.67991 -44.49414,-23.3457 -0.95261,-0.78819 -1.87992,-1.6101 -2.79493,-2.44532 z m 354.24024,7.40821 c -6.65914,4.61502 -14.18648,8.68469 -22.50586,12.34375 l 4.57617,68.68359 c 17.30609,-9.74039 27.31191,-21.23503 27.3125,-33.54883 v 9.58203 c 0.006,-0.10924 0.0141,-0.21891 0.0195,-0.32812 v -12.69141 c -0.67738,-13.45364 -3.32356,-26.64341 -7.83008,-39.64453 -0.51267,-1.47905 -1.03997,-2.93983 -1.57226,-4.39648 z m -60.62891,25.20117 c -8.91137,2.2943 -18.32472,4.30654 -28.17187,6.01562 -1.47779,22.84664 2.03739,47.17963 7.78711,64.33594 0.67476,2.0134 1.62105,4.1468 2.77929,6.35938 5.46784,-1.16139 10.72875,-2.42877 15.79883,-3.7793 z M 18.1792,281.80078 v 54.39258 c -0.007,0.0456 -0.0131,0.0911 -0.0195,0.13672 0.002,35.14138 81.40487,63.62882 181.82032,63.6289 41.89035,-3e-5 80.44214,-4.97049 111.18554,-13.30078 -0.0232,-0.47085 -0.0352,-0.89304 -0.0625,-1.37695 -0.2036,-3.6151 -0.7237,-7.34152 -1.14258,-10.15235 -8.70716,-7.1491 -30.64324,-26.32842 -44.68359,-51.92773 -20.43947,2.63559 -42.38787,4.03906 -65.29687,4.03906 -51.9106,0 -98.91433,-7.19077 -134.51172,-19.64844 -17.79869,-6.22883 -32.81198,-13.67991 -44.49414,-23.3457 -0.95261,-0.78818 -1.87992,-1.61008 -2.79493,-2.44531 z m 358.90235,3.97266 c -6.23378,4.88478 -13.35196,9.19164 -21.28125,13.05468 l 1.65234,24.81055 c 4.4807,-5.85073 8.72288,-11.88302 11.23047,-17.07031 3.68914,-7.63144 6.72128,-14.44977 8.39844,-20.79492 z m -67.5625,29.20507 c -1.52648,0.38124 -3.04871,0.76412 -4.60352,1.12891 1.44169,1.85164 2.91882,3.69947 4.43946,5.52148 z"
     fill="url(#a)"
     id="path3"
     style="fill:url(#a)" />
  <path
     d="m 1e-5,8.7e-4 h 400.00146 v 1e-5 399.99997 H 1e-5 c -1e-5,0 -1e-5,0 -1e-5,0 V 8.8e-4 c 0,-1e-5 0,-1e-5 1e-5,-1e-5 z"
     fill="none"
     id="path4" />
  <path
     d="m 331.00273,98.30558 c 0,0 -2.11598,11.07175 -6.1105,14.44396 -27.45557,23.17812 -40.90085,51.82163 -50.55312,74.99514 -14.65832,35.19221 -10.13259,81.42401 0,111.65819 10.43055,31.12322 50.4724,64.64714 51.9408,65.86916 l 4.31182,-174.04194 11.57726,173.75615 -15.77713,0.43015 c 3.06273,8.35029 3.06704,31.44231 3.06704,31.44231 l 8.24801,3.14217 c 0.17226,-15.0982 0.18125,-28.07615 4.69926,-35.35197 l 1.37295,-1.36116 c 0,0 16.18867,-13.89672 23.88666,-23.33278 6.26647,-7.68131 12.90779,-16.62771 17.22226,-25.55277 4.00128,-8.27714 7.84981,-16.61519 9.99808,-25.55424 3.62869,-15.09915 5.63206,-30.59103 4.99978,-46.10723 -0.64197,-15.75374 -3.70155,-31.14788 -8.88734,-46.1087 -5.2622,-15.18118 -11.64558,-29.95912 -20.55447,-43.33039 -8.16362,-12.25267 -20.1346,-21.6555 -28.33108,-33.88622 -4.42669,-6.60549 -11.11028,-21.10983 -11.11028,-21.10983 z"
     fill="#99b000"
     id="path5" />
</svg>
