<?xml version="1.0" encoding="UTF-8" standalone="no"?>
<svg
   viewBox="0 0 256 256"
   version="1.1"
   id="svg3"
   sodipodi:docname="mysql-icon-white.svg"
   inkscape:export-filename="mysql-icon-white.svg"
   inkscape:export-xdpi="96"
   inkscape:export-ydpi="96"
   width="256"
   height="256"
   inkscape:version="1.3.2 (091e20ef0f, 2023-11-25, custom)"
   xmlns:inkscape="http://www.inkscape.org/namespaces/inkscape"
   xmlns:sodipodi="http://sodipodi.sourceforge.net/DTD/sodipodi-0.dtd"
   xmlns="http://www.w3.org/2000/svg"
   xmlns:svg="http://www.w3.org/2000/svg">
  <defs
     id="defs3" />
  <sodipodi:namedview
     id="namedview3"
     pagecolor="#ffffff"
     bordercolor="#000000"
     borderopacity="0.25"
     inkscape:showpageshadow="2"
     inkscape:pageopacity="0.0"
     inkscape:pagecheckerboard="true"
     inkscape:deskcolor="#d1d1d1"
     showborder="true"
     inkscape:zoom="1.0507813"
     inkscape:cx="193.18959"
     inkscape:cy="120.86245"
     inkscape:window-width="1912"
     inkscape:window-height="1104"
     inkscape:window-x="0"
     inkscape:window-y="0"
     inkscape:window-maximized="0"
     inkscape:current-layer="svg3" />
  <path
     d="M 4.2547944,175.40105 H 12.49669 v -32.54826 l 12.760093,28.37515 c 1.504728,3.43479 3.565202,4.64861 7.607904,4.64861 4.042702,0 6.02493,-1.21382 7.529658,-4.64861 l 12.760093,-28.37515 v 32.54826 h 8.241896 v -32.49409 c 0,-3.16996 -1.267984,-4.70478 -3.884204,-5.49527 -6.261675,-1.95414 -10.462875,-0.26282 -12.364851,3.96446 l -12.521342,28.00399 -12.124094,-28.006 c -1.82373,-4.22527 -6.103177,-5.91659 -12.3648507,-3.96445 -2.6162202,0.79249 -3.8842042,2.3253 -3.8842042,5.49526 v 32.4961 z M 68.251874,148.90581 h 8.23989 v 17.93234 c -0.07624,0.97306 0.312983,3.26024 4.827167,3.33247 2.303237,0.0361 17.779864,0 17.924318,0 v -21.35309 h 8.259951 c 0.0381,0 -0.008,29.11949 -0.008,29.23987 0.0441,7.18257 -8.909998,8.74147 -13.038972,8.86184 H 68.430435 v -5.54542 c 0.04414,0 26.007717,0.006 26.071918,-0.002 5.306674,-0.55975 4.678701,-3.19604 4.676695,-4.08282 v -2.1628 H 81.662009 c -8.149606,-0.0742 -13.341921,-3.63141 -13.408129,-7.72427 -0.004,-0.37518 0.178561,-18.31555 -0.002,-18.49611 z"
     fill="#00618a"
     id="path1"
     style="fill:#ffffff;fill-opacity:1;stroke-width:2.0063" />
  <path
     d="m 113.85717,175.40105 h 23.69846 c 2.77472,0 5.47119,-0.57982 7.60991,-1.58297 3.5652,-1.63714 5.30868,-3.85612 5.30868,-6.76526 v -6.02292 c 0,-2.37747 -1.98022,-4.59845 -5.86443,-6.07509 -2.06047,-0.79449 -4.59844,-1.21381 -7.05617,-1.21381 h -9.98738 c -3.32846,0 -4.91344,-1.00315 -5.30868,-3.22213 -0.0782,-0.26483 -0.0782,-0.47549 -0.0782,-0.74032 v -3.75179 c 0,-0.21066 0,-0.42333 0.0782,-0.68616 0.39524,-1.69131 1.26799,-2.1668 4.2012,-2.43164 l 0.79249,-0.0522 h 23.53997 V 137.3635 H 127.6485 c -3.32846,0 -5.07194,0.21066 -6.65692,0.68616 -4.91343,1.53281 -7.05617,3.96245 -7.05617,8.18973 v 4.8071 c 0,3.69963 4.20321,6.86959 11.25537,7.60991 0.7945,0.0502 1.58498,0.10634 2.37747,0.10634 h 8.5609 c 0.31699,0 0.63399,0 0.87274,0.0502 2.61622,0.21067 3.7237,0.68817 4.5182,1.63715 0.47549,0.47549 0.63198,0.95299 0.63198,1.47864 v 4.80911 c 0,0.57983 -0.39524,1.32015 -1.18773,1.95414 -0.71224,0.634 -1.90198,1.05733 -3.48696,1.16366 l -0.87274,0.0522 h -22.74747 z m 88.03862,-9.56204 c 0,5.65176 4.2012,8.82172 12.67984,9.45772 0.79249,0.0522 1.58498,0.10432 2.37747,0.10432 h 21.47949 v -5.49326 h -21.63598 c -4.8352,0 -6.65692,-1.21582 -6.65692,-4.12295 v -28.42531 h -8.2419 v 28.47948 z m -46.16104,0.2849 v -19.59156 c 0,-4.97563 3.49498,-7.99512 10.40469,-8.94812 0.71424,-0.10633 1.51075,-0.15849 2.22298,-0.15849 h 15.64717 c 0.79449,0 1.50874,0.0522 2.30123,0.15849 6.90971,0.953 10.4067,3.97048 10.4067,8.94812 v 19.59156 c 0,4.04069 -1.48467,6.19947 -4.90542,7.6079 l 8.12152,7.32903 h -9.57207 l -6.56864,-5.93064 -6.61278,0.41932 h -8.81771 c -1.50874,0 -3.09572,-0.21066 -4.84321,-0.68816 -5.24247,-1.42849 -7.78446,-4.18314 -7.78446,-8.73745 z m 8.89595,-0.4755 c 0,0.26483 0.0782,0.53167 0.1585,0.84867 0.47549,2.27715 2.62224,3.54714 5.87646,3.54714 h 7.48753 l -6.87761,-6.20951 h 9.57207 l 5.99685,5.41702 c 1.10748,-0.59186 1.83376,-1.49068 2.08856,-2.64832 0.0782,-0.26483 0.0782,-0.52966 0.0782,-0.79449 v -18.79506 c 0,-0.21066 0,-0.4775 -0.0782,-0.74233 -0.4775,-2.11866 -2.62224,-3.33448 -5.79822,-3.33448 h -12.47118 c -3.65148,0 -6.03497,1.58899 -6.03497,4.07681 v 18.63455 z"
     fill="#e48e00"
     id="path2"
     style="stroke-width:2.0063" />
  <path
     d="m 245.68337,128.24088 c -5.06592,-0.13844 -8.93608,0.33304 -12.24648,1.72742 -0.94096,0.39725 -2.43967,0.40728 -2.59215,1.58498 0.51562,0.54371 0.59588,1.35225 1.00717,2.01835 0.79048,1.27801 2.12468,2.99139 3.31441,3.88821 1.29808,0.98109 2.63829,2.03239 4.03468,2.88306 2.47779,1.51275 5.24648,2.37546 7.63599,3.88822 1.40642,0.89481 2.80281,2.01834 4.17713,3.02751 0.68013,0.49556 1.13356,1.272 2.01834,1.58297 v -0.14244 c -0.46346,-0.58986 -0.58384,-1.4004 -1.00917,-2.01834 l -1.87389,-1.87389 c -1.83176,-2.43164 -4.15505,-4.56434 -6.62883,-6.33792 -1.97019,-1.41444 -6.38004,-3.32645 -7.20263,-5.61965 l -0.14445,-0.14245 c 1.39639,-0.1585 3.03353,-0.66409 4.32158,-1.00917 2.1668,-0.58183 4.10289,-0.43136 6.33992,-1.00917 l 3.0255,-0.86673 v -0.5738 c -1.12955,-1.15964 -1.93809,-2.69647 -3.16996,-3.74577 -3.22413,-2.74663 -6.7472,-5.49125 -10.37259,-7.78245 -2.01031,-1.26798 -4.49613,-2.09257 -6.62883,-3.16795 -0.71424,-0.36314 -1.9742,-0.54973 -2.44969,-1.15363 -1.12153,-1.42648 -1.72944,-3.23416 -2.59415,-4.89739 -1.80568,-3.48093 -3.58326,-7.28488 -5.1863,-10.950405 -1.09143,-2.497849 -1.80567,-4.96159 -3.16795,-7.202631 -6.54256,-10.755795 -13.58469,-17.248194 -24.49296,-23.62824 -2.32129,-1.358268 -5.11608,-1.891945 -8.06735,-2.592145 l -4.75494,-0.288908 c -0.96503,-0.403267 -1.97219,-1.586986 -2.88105,-2.160789 -3.61536,-2.283174 -12.88448,-7.248776 -15.56089,-0.718257 -1.68931,4.120949 2.52794,8.141581 4.03467,10.230144 1.05733,1.464602 2.41359,3.105758 3.16996,4.752933 0.49757,1.083405 0.58183,2.168815 1.00917,3.314414 1.04529,2.820864 1.95816,5.892515 3.31241,8.498703 0.68415,1.320148 1.44053,2.710517 2.30525,3.890224 0.52966,0.722269 1.44052,1.043278 1.58297,2.160789 -0.88879,1.243908 -0.94096,3.177985 -1.44053,4.752935 -2.25107,7.100313 -1.4024,15.926043 1.87389,21.180553 1.00516,1.61507 3.3726,5.07394 6.62682,3.74577 2.84695,-1.15965 2.21296,-4.75294 3.02752,-7.9249 0.18458,-0.71625 0.0702,-1.24592 0.43135,-1.72743 v 0.14445 l 2.59415,5.1863 c 1.92003,3.09171 5.32473,6.31986 8.2118,8.50071 1.49671,1.12955 2.67641,3.08569 4.61049,3.74577 v -0.14646 h -0.14245 c -0.37718,-0.58384 -0.96102,-0.82459 -1.44253,-1.29608 -1.12754,-1.10547 -2.38148,-2.47778 -3.31241,-3.74577 -2.62625,-3.56319 -4.94554,-7.46545 -7.06018,-11.52621 -1.00917,-1.93809 -1.88593,-4.07681 -2.7366,-6.05101 -0.32903,-0.76039 -0.32502,-1.91201 -1.00716,-2.30324 -0.93494,1.44454 -2.30525,2.61422 -3.02752,4.32158 -1.15162,2.72857 -1.30008,6.05703 -1.72742,9.50787 l -0.28891,0.14245 c -2.00831,-0.48352 -2.71253,-2.55001 -3.45887,-4.32158 -1.88593,-4.48007 -2.23703,-11.69675 -0.57581,-16.854963 0.42935,-1.336194 2.36945,-5.539401 1.58297,-6.773278 -0.37517,-1.229864 -1.61306,-1.940095 -2.30323,-2.883058 -0.85669,-1.16165 -1.71339,-2.690454 -2.30525,-4.034677 -1.54485,-3.492975 -2.26511,-7.415299 -3.88821,-10.9484 -0.77845,-1.689308 -2.09057,-3.396673 -3.16996,-4.897388 -1.19375,-1.665232 -2.53196,-2.889077 -3.45887,-4.899394 -0.32903,-0.714244 -0.77644,-1.859844 -0.28891,-2.594151 0.15449,-0.495557 0.37719,-0.702206 0.86673,-0.864717 0.83462,-0.644023 3.16193,0.214675 4.03267,0.57581 2.31126,0.961019 4.23932,1.873887 6.19747,3.16996 0.93895,0.62396 1.88793,1.827742 3.0255,2.160789 h 1.29608 c 2.02837,0.465462 4.30151,0.142447 6.19546,0.718257 3.35053,1.019202 6.35196,2.602176 9.07652,4.323584 8.30409,5.244479 15.09142,12.707929 19.73802,21.611905 0.74634,1.434507 1.07136,2.8008 1.72743,4.321579 1.32817,3.065632 3.00143,6.221552 4.32157,9.220972 1.31815,2.9914 2.60419,6.01089 4.46804,8.50071 0.97908,1.30811 4.76297,2.01032 6.48237,2.7366 1.20579,0.5096 3.17999,1.04127 4.32158,1.72743 2.18085,1.31613 4.2955,2.88306 6.33992,4.32358 1.02121,0.72629 4.16509,2.30525 4.32158,3.60734 z M 181.28302,73.350408 c -1.05531,-0.02006 -1.80367,0.116366 -2.59415,0.288908 v 0.142447 h 0.14445 c 0.50359,1.037259 1.39238,1.703352 2.01634,2.594151 l 1.44253,3.025506 0.14245,-0.142447 c 0.8928,-0.627973 1.30008,-1.633132 1.29607,-3.16996 -0.35913,-0.377185 -0.41129,-0.848667 -0.72026,-1.296073 -0.40929,-0.601891 -1.2078,-0.93895 -1.72743,-1.442532 z"
     fill="#00618a"
     id="path3"
     style="fill:#ffffff;fill-opacity:1;stroke-width:2.0063" />
</svg>
