<?xml version="1.0" encoding="UTF-8" standalone="no"?>
<!-- Created with Inkscape (http://www.inkscape.org/) -->

<svg
   width="256"
   height="256"
   viewBox="0 0 256 256"
   version="1.1"
   id="svg1"
   xml:space="preserve"
   inkscape:version="1.3.2 (091e20ef0f, 2023-11-25, custom)"
   sodipodi:docname="n8n-icon-white.svg"
   xmlns:inkscape="http://www.inkscape.org/namespaces/inkscape"
   xmlns:sodipodi="http://sodipodi.sourceforge.net/DTD/sodipodi-0.dtd"
   xmlns="http://www.w3.org/2000/svg"
   xmlns:svg="http://www.w3.org/2000/svg"><sodipodi:namedview
     id="namedview1"
     pagecolor="#ffffff"
     bordercolor="#000000"
     borderopacity="0.25"
     inkscape:showpageshadow="2"
     inkscape:pageopacity="0.0"
     inkscape:pagecheckerboard="0"
     inkscape:deskcolor="#d1d1d1"
     inkscape:document-units="mm"
     inkscape:zoom="2.2677414"
     inkscape:cx="125.23474"
     inkscape:cy="165.80373"
     inkscape:window-width="1912"
     inkscape:window-height="1104"
     inkscape:window-x="0"
     inkscape:window-y="864"
     inkscape:window-maximized="0"
     inkscape:current-layer="layer1" /><defs
     id="defs1" /><g
     inkscape:label="Layer 1"
     inkscape:groupmode="layer"
     id="layer1"><path
       style="fill:#ffffff;stroke:none;stroke-width:1.96377;fill-opacity:1"
       d="m 198.10631,82.281111 c -14.1875,0 -37.56664,-4.551478 -49.18633,5.077118 -9.49644,7.869182 -6.46006,26.965481 -18.7054,30.504991 -2.79829,0.80883 -9.02012,1.33634 -11.58471,-0.26996 -4.39589,-2.75329 -5.6251,-10.3688 -10.58402,-13.79823 -13.400991,-9.267742 -34.844577,-2.60337 -37.409728,14.51025 H 56.780668 C 52.585015,90.313617 9.7744072,95.917909 9.0686202,123.1547 c -0.681112,26.28453 42.1377148,34.67061 47.0192748,7.62049 h 15.241001 c 2.781402,15.59371 23.803316,21.12191 36.024184,13.08785 4.70171,-3.09093 6.31292,-9.73077 10.58189,-12.37583 3.00308,-1.8607 10.56783,-1.1077 13.66463,0.2352 9.56712,4.14867 6.84145,15.7155 11.41683,23.29984 7.15299,11.85706 18.62183,11.77713 30.84284,11.77713 4.56332,26.41727 46.44393,22.20779 47.09839,-4.15664 0.19108,-7.69641 -2.01095,-15.42997 -8.31327,-20.41648 -13.07968,-10.34889 -35.64989,-4.79239 -38.78512,12.79599 -7.89519,0 -16.81433,0.86107 -20.83877,-7.6205 -2.03724,-4.29347 -1.83271,-9.39193 -3.47296,-13.85547 -1.02482,-2.78878 -4.75781,-6.11776 -4.7671,-9.00604 -0.0118,-3.37483 4.45663,-7.64384 5.49461,-11.08436 1.56875,-5.19977 1.06114,-10.93577 5.02742,-15.168296 4.11799,-4.394454 9.54773,-4.229341 15.09293,-4.229341 h 27.71091 c 4.56332,26.417237 46.44393,22.207827 47.09839,-4.156623 0.19108,-7.696428 -2.01093,-15.429972 -8.31327,-20.416482 -13.07969,-10.348914 -35.64985,-4.792392 -38.78512,12.795973 m 20.78317,-6.006707 c 15.39264,-2.754474 20.35698,21.015505 4.84943,23.790546 -15.39265,2.75447 -20.35693,-21.01551 -4.84943,-23.790546 M 31.148077,111.6058 c 15.164234,-2.68841 20.272033,21.01188 4.84941,23.79056 -15.672465,2.8237 -20.449173,-21.02492 -4.84941,-23.79056 m 60.271229,0.007 c 15.118534,-2.896 20.639204,20.45758 5.542184,23.74082 -15.557897,3.38349 -21.207679,-20.74006 -5.542184,-23.74082 m 103.223134,37.40223 c 15.39264,-2.75446 20.35694,21.01551 4.84943,23.79056 -15.39265,2.75448 -20.35695,-21.01553 -4.84943,-23.79056 z"
       id="path1" /></g></svg>
