<?xml version="1.0" encoding="utf-8"?>
<!-- Generator: Adobe Illustrator 27.0.1, SVG Export Plug-In . SVG Version: 6.00 Build 0)  -->
<svg version="1.1" id="Layer_1" xmlns="http://www.w3.org/2000/svg" xmlns:xlink="http://www.w3.org/1999/xlink" x="0px" y="0px"
	 viewBox="0 0 450 230" style="enable-background:new 0 0 450 230;" xml:space="preserve">
<style type="text/css">
	.st0{clip-path:url(#SVGID_00000119101271147216209460000007651303627470130593_);fill:#231F20;}
</style>
<g>
	<defs>
		<rect id="SVGID_1_" x="-54.64" y="-191" width="559" height="627.28"/>
	</defs>
	<clipPath id="SVGID_00000174560637313106222790000008334595248242506673_">
		<use xlink:href="#SVGID_1_"  style="overflow:visible;"/>
	</clipPath>
	<polygon style="clip-path:url(#SVGID_00000174560637313106222790000008334595248242506673_);fill:#231F20;" points="38.48,27.85 
		71.48,27.85 152.85,159.27 153.41,159.27 153.41,27.85 183.05,27.85 183.05,206.25 150.06,206.25 68.96,75.1 68.12,75.1 
		68.12,206.25 38.48,206.25 	"/>
	<path style="clip-path:url(#SVGID_00000174560637313106222790000008334595248242506673_);fill:#231F20;" d="M235.63,180.81h30.76
		c12.02,0,22.09-1.68,29.92-4.75c7.83-3.36,13.7-7.83,18.18-13.42c4.47-5.87,7.27-12.58,8.95-20.13c1.68-7.83,2.24-16.22,2.24-25.17
		c0-8.95-0.84-17.34-2.24-25.17c-1.68-7.83-4.47-14.54-8.95-20.13c-4.47-5.87-10.63-10.35-18.18-13.42
		c-7.83-3.36-17.62-4.75-29.92-4.75h-30.76V180.81z M204.59,27.85h73.82c13.7,0,25.45,2.24,35.51,6.99
		c10.07,4.75,18.18,10.91,24.61,19.02c6.43,8.11,10.91,17.62,13.98,28.24c3.08,10.91,4.75,22.37,4.75,34.68
		c0,12.3-1.68,23.77-4.75,34.68c-3.08,10.91-7.83,20.41-13.98,28.24c-6.43,8.11-14.54,14.54-24.61,19.02
		c-10.07,4.75-21.81,6.99-35.51,6.99h-73.82V27.85z"/>
	<polygon style="clip-path:url(#SVGID_00000174560637313106222790000008334595248242506673_);fill:#231F20;" points="372.93,27.85 
		403.97,27.85 403.97,206.25 372.65,206.25 372.65,27.85 	"/>
	<path style="clip-path:url(#SVGID_00000174560637313106222790000008334595248242506673_);fill:#231F20;" d="M421.59,39.59
		c0.56,0,1.12,0,1.4,0c0.56,0,0.84,0,1.12-0.28c0.28-0.28,0.56-0.28,0.84-0.84c0.28-0.28,0.28-0.84,0.28-1.4
		c0-0.56,0-0.84-0.28-1.12c-0.28-0.28-0.56-0.56-0.84-0.56c-0.28-0.28-0.56-0.28-1.12-0.28c-0.28,0-0.84,0-1.12,0h-3.08v4.75h2.8
		V39.59z M422.42,33.16c1.68,0,3.08,0.28,3.91,1.12c0.84,0.56,1.12,1.68,1.12,3.08s-0.28,2.24-1.12,2.8
		c-0.84,0.56-1.68,1.12-2.8,1.12l4.19,6.43h-2.52l-3.91-6.43h-2.52v6.43h-2.24V33.16H422.42z M412.08,44.62
		c0.56,1.4,1.12,2.52,2.24,3.36c0.84,0.84,1.96,1.68,3.36,2.24c1.4,0.56,2.52,0.84,4.19,0.84c1.4,0,2.8-0.28,4.19-0.84
		c1.12-0.56,2.24-1.4,3.36-2.24c0.84-0.84,1.68-2.24,2.24-3.36c0.56-1.4,0.84-2.8,0.84-4.19s-0.28-2.8-0.84-4.19
		s-1.12-2.52-2.24-3.36c-0.84-0.84-1.96-1.68-3.36-2.24c-1.12-0.56-2.52-0.84-4.19-0.84c-1.4,0-2.8,0.28-4.19,0.84
		c-1.4,0.56-2.24,1.4-3.36,2.24c-0.84,0.84-1.68,1.96-2.24,3.36c-0.56,1.4-0.84,2.8-0.84,4.19
		C411.52,41.83,411.8,43.23,412.08,44.62z M410.12,35.4c0.56-1.4,1.68-2.8,2.8-3.91c1.12-1.12,2.52-1.96,3.91-2.52
		c1.4-0.56,3.08-0.84,4.75-0.84c1.68,0,3.36,0.28,4.75,0.84c1.4,0.56,2.8,1.4,3.92,2.52c1.12,1.12,1.96,2.52,2.8,3.91
		c0.56,1.4,1.12,3.08,1.12,5.03c0,1.68-0.28,3.36-1.12,5.03c-0.56,1.4-1.68,2.8-2.8,3.91c-1.12,1.12-2.52,1.96-3.92,2.52
		c-1.4,0.56-3.08,0.84-4.75,0.84c-1.68,0-3.36-0.28-4.75-0.84c-1.4-0.56-2.8-1.4-3.91-2.52c-1.12-1.12-1.96-2.52-2.8-3.91
		c-0.56-1.4-1.12-3.08-1.12-5.03C409,38.47,409.56,36.79,410.12,35.4z"/>
</g>
</svg>
