<?xml version="1.0" encoding="UTF-8" standalone="no"?>
<svg
   enable-background="new 0 0 24 24"
   viewBox="0 0 24 24"
   id="nextcloud"
   version="1.1"
   sodipodi:docname="nextcloud-icon.svg"
   inkscape:version="1.3.2 (091e20ef0f, 2023-11-25, custom)"
   xmlns:inkscape="http://www.inkscape.org/namespaces/inkscape"
   xmlns:sodipodi="http://sodipodi.sourceforge.net/DTD/sodipodi-0.dtd"
   xmlns="http://www.w3.org/2000/svg"
   xmlns:svg="http://www.w3.org/2000/svg">
  <defs
     id="defs3" />
  <sodipodi:namedview
     id="namedview3"
     pagecolor="#ffffff"
     bordercolor="#000000"
     borderopacity="0.25"
     inkscape:showpageshadow="2"
     inkscape:pageopacity="0.0"
     inkscape:pagecheckerboard="0"
     inkscape:deskcolor="#d1d1d1"
     inkscape:zoom="26.516504"
     inkscape:cx="10.484037"
     inkscape:cy="10.446324"
     inkscape:window-width="3832"
     inkscape:window-height="1104"
     inkscape:window-x="0"
     inkscape:window-y="0"
     inkscape:window-maximized="1"
     inkscape:current-layer="nextcloud" />
  <path
     fill="#197EC3"
     d="M24,12.001L24,12.001c-0.009-1.974-1.594-3.569-3.552-3.578h-0.001c-1.416,0-2.63,0.864-3.199,2.081c-0.654-2.3-2.743-4.005-5.23-4.004c-2.5,0-4.6,1.724-5.241,4.042c-0.56-1.24-1.793-2.119-3.225-2.119C1.594,8.432,0.009,10.028,0,11.999V12c0.009,1.971,1.595,3.567,3.551,3.577h0.001c1.432,0,2.664-0.88,3.224-2.12c0.641,2.32,2.742,4.043,5.242,4.043c2.487,0,4.576-1.704,5.231-4.004c0.569,1.218,1.783,2.081,3.198,2.081C22.406,15.569,23.992,13.973,24,12.001L24,12.001z M3.552,13.477H3.537c-0.802,0-1.452-0.654-1.452-1.462V12c0-0.828,0.644-1.476,1.467-1.476v-0.001c0.822,0,1.467,0.649,1.467,1.478C5.019,12.828,4.375,13.477,3.552,13.477L3.552,13.477z M12.018,15.401h-0.015c-1.857,0-3.362-1.516-3.362-3.386V12c0-1.891,1.5-3.401,3.377-3.401c1.878,0,3.378,1.511,3.378,3.401C15.396,13.891,13.896,15.401,12.018,15.401L12.018,15.401z M20.447,13.477h-0.015c-0.802,0-1.452-0.654-1.452-1.462V12c0-0.828,0.644-1.476,1.467-1.476v-0.001c0.823,0,1.468,0.649,1.468,1.478C21.915,12.828,21.27,13.477,20.447,13.477L20.447,13.477z"
     id="path1" />
  <path
     fill="#DEDEDE"
     d="M5.019 12H2.085l0 0v.015c0 .808.65 1.462 1.452 1.462h.015C4.375 13.477 5.019 12.828 5.019 12L5.019 12 5.019 12zM15.396 12H8.641l0 0v.015c0 1.87 1.505 3.386 3.362 3.386h.015C13.896 15.401 15.396 13.891 15.396 12L15.396 12 15.396 12zM21.915 12H18.98l0 0v.015c0 .808.65 1.462 1.452 1.462h.015C21.27 13.477 21.915 12.828 21.915 12L21.915 12 21.915 12z"
     id="path2"
     style="fill:#dedede;fill-opacity:0.17765006" />
  <path
     fill="#166EAA"
     d="M24,12h-2.085l0,0c0,0.828-0.645,1.477-1.468,1.477h-0.015c-0.802,0-1.452-0.654-1.452-1.462V12l0,0h-3.584l0,0c0,1.891-1.5,3.401-3.378,3.401h-0.015c-1.857,0-3.362-1.516-3.362-3.386V12l0,0H5.019l0,0c0,0.828-0.644,1.476-1.467,1.477H3.537c-0.802,0-1.452-0.654-1.452-1.462V12l0,0H0c0.009,1.971,1.595,3.567,3.551,3.577h0.001c1.432,0,2.664-0.88,3.224-2.12c0.641,2.32,2.742,4.043,5.242,4.043c2.487,0,4.576-1.704,5.231-4.004c0.569,1.218,1.783,2.081,3.198,2.081C22.406,15.569,23.992,13.973,24,12L24,12L24,12L24,12z"
     id="path3" />
</svg>
