<?xml version="1.0" encoding="UTF-8" standalone="no"?>
<svg
   enable-background="new 0 0 24 24"
   viewBox="0 0 256 256"
   id="nextcloud"
   version="1.1"
   width="256"
   height="256"
   xmlns="http://www.w3.org/2000/svg"
   xmlns:svg="http://www.w3.org/2000/svg">
  <defs
     id="defs3" />
  <path
     fill="#197ec3"
     d="m 254.16444,122.8502 v 0 c -0.0942,-20.65891 -16.68202,-37.351406 -37.17349,-37.445596 h -0.0105 c -14.81916,0 -27.52429,9.042202 -33.47916,21.778726 -6.84441,-24.070666 -28.70685,-41.914362 -54.73457,-41.903896 -26.16377,0 -48.14134,18.04254 -54.849731,42.301586 C 68.056305,94.603786 55.152333,85.404604 40.165725,85.404604 19.67426,85.498794 3.0864298,102.20175 2.9922402,122.82927 v 0.0105 c 0.09419,20.62752 16.6924858,37.33048 37.1630198,37.43513 h 0.01046 c 14.986608,0 27.880114,-9.20965 33.740799,-22.18688 6.708391,24.27998 28.696421,42.31205 54.860201,42.31205 26.02771,0 47.89015,-17.83322 54.74506,-41.9039 5.95488,12.74699 18.66,21.77873 33.4687,21.77873 20.50194,-0.0837 37.10023,-16.78668 37.18396,-37.42466 z M 40.165725,138.29729 h -0.156982 c -8.393338,0 -15.195918,-6.84444 -15.195918,-15.30057 v -0.15699 c 0,-8.66544 6.739787,-15.44709 15.3529,-15.44709 v -0.0105 c 8.602648,0 15.352901,6.79212 15.352901,15.46803 0,8.65497 -6.739787,15.44709 -15.352901,15.44709 z m 88.600995,20.13564 h -0.15698 c -19.43445,0 -35.185043,-15.86571 -35.185043,-35.43621 v -0.15699 c 0,-19.79027 15.698263,-35.593196 35.342023,-35.593196 19.65422,0 35.35248,15.813386 35.35248,35.593196 0,19.79028 -15.69826,35.5932 -35.35248,35.5932 z m 88.21377,-20.13564 h -0.15699 c -8.39333,0 -15.19591,-6.84444 -15.19591,-15.30057 v -0.15699 c 0,-8.66544 6.73978,-15.44709 15.3529,-15.44709 v -0.0105 c 8.61311,0 15.36336,6.79212 15.36336,15.46803 0,8.65497 -6.75025,15.44709 -15.36336,15.44709 z"
     id="path1"
     style="display:inline;fill:#ffffff;fill-opacity:1;stroke-width:10.4655" />
  <path
     fill="#DEDEDE"
     d="M 5.019,12 H 2.085 v 0 0.015 c 0,0.808 0.65,1.462 1.452,1.462 h 0.015 c 0.823,0 1.467,-0.649 1.467,-1.477 z m 10.377,0 H 8.641 v 0 0.015 c 0,1.87 1.505,3.386 3.362,3.386 h 0.015 c 1.878,0 3.378,-1.51 3.378,-3.401 z m 6.519,0 H 18.98 v 0 0.015 c 0,0.808 0.65,1.462 1.452,1.462 h 0.015 c 0.823,0 1.468,-0.649 1.468,-1.477 z"
     id="path2"
     style="display:none;fill:#dedede;fill-opacity:0.17765" />
  <path
     fill="#166eaa"
     d="m 254.16444,122.83973 h -21.82059 v 0 c 0,8.66545 -6.75025,15.45756 -15.36336,15.45756 h -0.15699 c -8.39333,0 -15.19591,-6.84444 -15.19591,-15.30057 v -0.15699 0 H 164.1192 v 0 c 0,19.79028 -15.69826,35.5932 -35.35248,35.5932 h -0.15698 c -19.43445,0 -35.185043,-15.86571 -35.185043,-35.43621 v -0.15699 0 H 55.518626 v 0 c 0,8.66545 -6.739787,15.4471 -15.352901,15.45756 h -0.156982 c -8.393338,0 -15.195918,-6.84444 -15.195918,-15.30057 v -0.15699 0 H 2.9922402 c 0.09419,20.62752 16.6924858,37.33048 37.1630198,37.43513 h 0.01046 c 14.986608,0 27.880114,-9.20965 33.740799,-22.18688 6.708391,24.27998 28.696421,42.31205 54.860201,42.31205 26.02771,0 47.89015,-17.83322 54.74506,-41.90389 5.95488,12.74698 18.66,21.77872 33.4687,21.77872 20.50194,-0.0837 37.10023,-16.78668 37.18396,-37.43513 z"
     id="path3"
     style="display:inline;fill:#000000;fill-opacity:0.0432498;stroke-width:10.4655" />
</svg>
