<?xml version="1.0" encoding="UTF-8" standalone="no"?>
<svg
   enable-background="new 0 0 24 24"
   viewBox="0 0 576 576"
   id="nginx"
   version="1.1"
   width="576"
   height="576"
   xmlns="http://www.w3.org/2000/svg"
   xmlns:svg="http://www.w3.org/2000/svg">
  <defs
     id="defs3" />
  <path
     fill="#209237"
     d="M 539.7975,426.59786 V 146.52357 L 294.7325,6.486429 49.6675,146.52357 V 426.59786 L 294.7325,566.635 Z M 216.21835,393.66578 c 0,16.85115 -13.44357,30.10799 -30.01463,30.10799 h -1.79715 c -16.99116,0 -30.4114,-14.00371 -30.4114,-30.10799 V 179.4323 c 0,-16.45436 14.84394,-30.10799 35.35937,-30.10799 15.21737,0 32.53531,5.95159 43.15479,18.90502 L 373.24665,334.89686 V 179.4323 c 0,-16.8278 14.14376,-30.10799 30.41141,-30.10799 h 1.7738 c 16.96783,0 30.4114,14.00372 30.4114,30.10799 v 214.25683 h 0.35009 c 0,16.45436 -15.21736,30.10798 -36.03622,30.10798 -14.86727,0 -31.85845,-5.95158 -42.4546,-18.88167 L 216.21835,238.22456 Z"
     id="path1"
     style="stroke-width:23.3396" />
  <path
     fill="#DEDEDE"
     d="m 189.35454,149.32431 c -20.51543,0 -35.35937,13.65363 -35.35937,30.10799 v 214.23348 c 0,16.10428 13.42024,30.10799 30.4114,30.10799 h 1.79715 c 16.59439,0 30.01463,-13.25685 30.01463,-30.10799 V 238.22456 l 78.51415,92.49453 V 241.9122 L 232.50933,168.22933 C 221.88985,155.2759 204.57191,149.32431 189.35454,149.32431 Z"
     id="path2"
     style="fill:#dedede;fill-opacity:0.313125;stroke-width:23.3396" />
  <path
     fill="#1c7f30"
     d="M 294.7325,6.486429 49.6675,146.52357 V 426.59786 L 294.7325,566.635 V 330.71909 l -78.51415,-92.49453 v 155.44122 c 0,16.85115 -13.44357,30.10799 -30.01463,30.10799 h -1.79715 c -16.99116,0 -30.4114,-14.00371 -30.4114,-30.10799 V 179.4323 c 0,-16.45436 14.84394,-30.10799 35.35937,-30.10799 15.21737,0 32.53531,5.95159 43.15479,18.90502 l 62.22317,73.68287 z"
     id="path3"
     style="stroke-width:23.3396" />
</svg>
