<?xml version="1.0" encoding="UTF-8" standalone="no"?>
<!-- Created with Inkscape (http://www.inkscape.org/) -->

<svg
   width="20.505207mm"
   height="20.505278mm"
   viewBox="0 0 20.505207 20.505278"
   version="1.1"
   id="svg1"
   xmlns="http://www.w3.org/2000/svg"
   xmlns:svg="http://www.w3.org/2000/svg">
  <defs
     id="defs1" />
  <g
     id="layer1"
     transform="translate(-54.76875,-131.23328)">
    <path
       class="pf0"
       d="m 61.288989,145.12697 c 0.66201,0 1.232708,-0.20545 1.712095,-0.59353 0.479386,-0.38806 0.821804,-0.91311 1.004428,-1.5523 0.182624,-0.63917 0.136967,-1.16422 -0.114138,-1.55228 -0.251108,-0.38808 -0.730494,-0.59353 -1.392505,-0.59353 -0.662009,0 -1.232709,0.20545 -1.712095,0.59353 -0.479387,0.38806 -0.798976,0.91311 -0.9816,1.55228 -0.182625,0.63919 -0.159795,1.16424 0.114137,1.5523 0.228279,0.41091 0.684839,0.59353 1.369677,0.59353"
       style="fill:#263eb5;fill-opacity:1;stroke-width:0.228279"
       id="path1" />
    <path
       class="pf1"
       d="m 66.950315,140.83533 0.593527,-2.10018 h 1.050084 l 0.410902,-1.50664 c 0.136969,-0.45656 0.296764,-0.91312 0.502215,-1.32403 0.182623,-0.41089 0.456559,-0.77615 0.77615,-1.09573 0.31959,-0.3196 0.730494,-0.5707 1.209881,-0.75332 0.479386,-0.18262 1.09574,-0.27394 1.803407,-0.27394 0.182623,0 0.342419,0 0.525041,0.0228 -0.159795,-0.66201 -0.753322,-1.14138 -1.438159,-1.16422 H 57.659347 c -0.821806,0 -1.483815,0.68485 -1.483815,1.50665 v 13.10322 l 2.396932,-8.51478 h 2.41976 l -0.319591,1.11856 h 0.04566 c 0.136969,-0.15979 0.319591,-0.29675 0.547871,-0.45655 0.22828,-0.15979 0.456559,-0.29677 0.707667,-0.43373 0.251106,-0.13697 0.525041,-0.22828 0.821805,-0.3196 0.296763,-0.0913 0.593525,-0.11408 0.89029,-0.11408 0.639182,0 1.164224,0.11408 1.620781,0.3196 0.45656,0.20545 0.798979,0.52504 1.072914,0.91311 0.228279,0.34241 0.365247,0.75332 0.43373,1.23271 l 0.18262,-0.13693 h -0.04565 z"
       style="fill:#0b75cf;fill-opacity:1;stroke-width:0.228279"
       id="path7" />
    <path
       class="pf2"
       d="m 73.684555,136.04146 c -0.114138,-0.0229 -0.251107,-0.0456 -0.410903,-0.0456 -0.410903,0 -0.753322,0.0914 -1.027256,0.27394 -0.251108,0.18262 -0.479387,0.54786 -0.639184,1.11857 l -0.388073,1.34685 h 1.483815 l 0.365246,1.16422 -0.958773,0.93594 h -1.483814 l -1.803407,6.39182 h -2.602384 l 1.803406,-6.39182 h -1.00443 l -0.205451,0.13698 c 0,0.0456 0.02283,0.11408 0.02283,0.15979 0.04565,0.52503 -0.02283,1.11857 -0.205451,1.75774 -0.159796,0.59354 -0.410904,1.16424 -0.753322,1.71211 -0.34242,0.54786 -0.730495,1.02725 -1.164224,1.43815 -0.45656,0.4109 -0.958773,0.75333 -1.506644,1.00444 -0.547871,0.25111 -1.118569,0.36524 -1.734924,0.36524 -0.54787,0 -1.027256,-0.0913 -1.460987,-0.25111 -0.43373,-0.15979 -0.730494,-0.45656 -0.913117,-0.86746 h -0.04566 l -1.141397,4.04055 h 14.450082 c 0.821805,0 1.506642,-0.66201 1.506642,-1.50665 v -12.71517 c -0.06848,-0.0229 -0.136966,-0.0456 -0.182622,-0.0684"
       style="fill:#140975;fill-opacity:1;stroke-width:0.228279"
       id="path8" />
  </g>
</svg>
