<?xml version="1.0" encoding="UTF-8" standalone="no"?>
<!-- Created with Inkscape (http://www.inkscape.org/) -->

<svg
   width="20.505207mm"
   height="20.505276mm"
   viewBox="0 0 20.505207 20.505276"
   version="1.1"
   id="svg1"
   sodipodi:docname="pfsense2-icon.svg"
   inkscape:version="1.4 (e7c3feb100, 2024-10-09)"
   xmlns:inkscape="http://www.inkscape.org/namespaces/inkscape"
   xmlns:sodipodi="http://sodipodi.sourceforge.net/DTD/sodipodi-0.dtd"
   xmlns="http://www.w3.org/2000/svg"
   xmlns:svg="http://www.w3.org/2000/svg">
  <sodipodi:namedview
     id="namedview1"
     pagecolor="#ffffff"
     bordercolor="#000000"
     borderopacity="0.25"
     inkscape:showpageshadow="2"
     inkscape:pageopacity="0.0"
     inkscape:pagecheckerboard="0"
     inkscape:deskcolor="#d1d1d1"
     inkscape:document-units="mm"
     inkscape:zoom="2.9064421"
     inkscape:cx="31.825854"
     inkscape:cy="73.457511"
     inkscape:window-width="1239"
     inkscape:window-height="1200"
     inkscape:window-x="0"
     inkscape:window-y="0"
     inkscape:window-maximized="0"
     inkscape:current-layer="layer1" />
  <defs
     id="defs1" />
  <g
     id="layer1"
     transform="translate(-54.76875,-131.23328)">
    <g
       id="layer2"
       transform="translate(54.76875,131.23328)"
       style="display:inline;fill:#070000;fill-opacity:1" />
    <path
       id="rect4"
       style="display:inline;fill:#ffffff;fill-opacity:1;stroke-width:10.5338;stroke-linecap:round;stroke-miterlimit:1.8;stroke-dashoffset:6.42104;paint-order:stroke fill markers"
       d="m 58.594205,132.06895 13.49883,-0.0988 c 0.64861,-0.005 1.268659,-0.0597 1.54767,0.47454 0.02216,0.0424 1.175176,0.057 1.193441,0.10161 0.08069,0.19692 0.149422,0.42246 0.149422,0.66408 v 2.17136 l -1.364258,13.95893 1.083138,0.27518 -1.542811,1.40234 -0.110465,-0.90345 -15.494029,-0.60963 -0.463021,1.94303 h -0.333464 c -0.941749,0 -1.700115,-0.7582 -1.699908,-1.7 l 3.9e-4,-1.7744 c 2.07e-4,-0.9418 2.593341,-15.89793 3.535065,-15.90482 z" />
    <path
       id="rect1"
       style="stroke-width:0.214432"
       d="m 73.400443,133.37072 c 0.01439,0.0421 0.03151,0.0828 0.0421,0.12673 -0.178217,-0.0223 -0.334497,-0.0224 -0.512715,-0.0224 -0.690598,0 -1.291977,0.0891 -1.759801,0.26733 -0.467823,0.17822 -0.868931,0.42337 -1.180812,0.73526 -0.311882,0.31187 -0.578989,0.66834 -0.757207,1.06932 -0.200495,0.401 -0.356661,0.84676 -0.490326,1.29231 l -0.400769,1.47009 h -1.024982 l -0.578989,2.04951 v 0.0224 h 0.03314 l 0.03359,-0.0224 h 0.980205 l -1.7598,6.23766 h 2.539396 l 1.760248,-6.23766 h 1.447693 l 0.935874,-0.91348 -0.356438,-1.13603 h -1.448146 l 0.378826,-1.31426 c 0.155944,-0.55694 0.378716,-0.91349 0.623767,-1.09171 0.267326,-0.17813 0.601603,-0.26732 1.002594,-0.26732 0.155942,0 0.289384,0.0224 0.400769,0.0448 0.04456,0.0222 0.111393,0.0444 0.178219,0.0667 l 0.03493,-2.37686 z m -9.84906,4.73893 c -0.289607,0 -0.579549,0.0219 -0.869153,0.11105 -0.289606,0.0891 -0.556936,0.17843 -0.801985,0.3121 -0.245051,0.13365 -0.467713,0.26722 -0.690487,0.42316 -0.222773,0.15594 -0.400992,0.28961 -0.534657,0.44554 h -0.04433 l 0.311659,-1.0917 h -2.361178 l -3.42671,11.30759 1.092401,0.005 h 1.689498 l 1.1123,-3.93918 h 0.04478 c 0.178218,0.40099 0.467827,0.69083 0.891095,0.84676 0.423269,0.15596 0.891096,0.24494 1.425751,0.24494 0.601488,0 1.158424,-0.11138 1.69308,-0.35643 0.534656,-0.24505 1.024536,-0.57923 1.470083,-0.98021 0.423267,-0.40099 0.802321,-0.86871 1.136481,-1.40336 0.334159,-0.53465 0.578877,-1.09147 0.734818,-1.67068 0.178217,-0.62376 0.245156,-1.20312 0.200608,-1.71548 0,-0.0388 -0.01537,-0.0925 -0.0197,-0.13568 l -0.0027,0.003 c -0.06683,-0.46782 -0.200385,-0.86905 -0.423157,-1.2032 -0.267328,-0.37871 -0.601377,-0.69059 -1.046925,-0.89109 -0.445544,-0.20056 -0.957818,-0.31166 -1.581582,-0.31166 z m -1.158423,2.24967 c 0.646044,0 1.113533,0.20072 1.358584,0.57944 0.245048,0.3787 0.289718,0.89111 0.111499,1.51486 -0.178219,0.62377 -0.512382,1.13616 -0.980204,1.51486 -0.467825,0.37872 -1.02465,0.57899 -1.670691,0.57899 -0.66832,0 -1.11387,-0.17799 -1.336642,-0.57899 -0.267325,-0.3787 -0.289719,-0.89109 -0.1115,-1.51486 0.178219,-0.62375 0.489992,-1.13616 0.957815,-1.51486 0.467824,-0.37872 1.025099,-0.57944 1.671139,-0.57944 z"
       sodipodi:nodetypes="ccsscccccccccccccccccccsccccsccsccccccccccsscsccccccsscccscccsc" />
  </g>
</svg>
