<?xml version="1.0" encoding="UTF-8" standalone="no"?>
<!-- Created with Inkscape (http://www.inkscape.org/) -->

<svg
   width="273.18277mm"
   height="221.64848mm"
   viewBox="0 0 273.18277 221.64848"
   version="1.1"
   id="svg1"
   xml:space="preserve"
   xmlns="http://www.w3.org/2000/svg"
   xmlns:svg="http://www.w3.org/2000/svg"><defs
     id="defs1" /><path
     id="path4-4"
     style="fill:#009bda;stroke:#000000;stroke-width:0;stroke-linecap:round;stroke-miterlimit:1.8;stroke-dashoffset:6.42104;paint-order:fill markers stroke"
     d="M 21.00027,0 C 9.4021116,-7.124557e-5 -7.124557e-5,9.4021116 0,21.00027 0.00970841,28.003724 3.5100678,34.541436 9.33328,38.43228 v 144.81338 c -5.7999641,3.89397 -9.28384374,10.41719 -9.29452,17.40307 2.1594e-4,11.59795 9.4023086,20.99982 21.00026,20.99975 11.597955,7e-5 21.000054,-9.40179 21.00027,-20.99975 -0.0013,-8.17877 -4.750911,-15.61274 -12.17186,-19.05103 v -36.5988 c 0,0 69.271154,-40.44993 69.21231,-40.35878 V 42.00002 L 83.39129,28.01172 c 0.815842,-2.248407 1.241579,-4.619665 1.25884,-7.01145 C 84.650201,9.4021116 75.248018,-7.124557e-5 63.64986,0 52.051702,-7.124557e-5 42.649519,9.4021116 42.64959,21.00027 c 2.16e-4,11.597955 9.402315,20.999821 21.00027,20.99975 1.075163,-0.0049 2.148365,-0.09228 3.21014,-0.26149 L 78.54559,52.13738 V 93.271309 L 29.86743,121.28097 V 40.02391 C 37.264281,36.578493 41.99561,29.160189 42.00054,21.00027 42.000611,9.4021116 32.598428,-7.124557e-5 21.00027,0 Z m 103.50634,0 c -11.59816,-7.124557e-5 -21.00034,9.4021116 -21.00027,21.00027 0.0172,8.476331 5.12858,16.111258 12.9589,19.35695 l -0.23099,106.17543 62.31662,-34.98701 -0.076,34.98701 82.90399,-47.041051 -0.1385,-59.571559 C 268.52898,36.435562 273.17257,29.078978 273.18279,21.00027 273.18286,9.4021116 263.78068,-7.124557e-5 252.18252,0 c -11.59816,-7.124557e-5 -21.00034,9.4021116 -21.00027,21.00027 0.005,7.086968 3.58319,13.693617 9.51673,17.56895 v 49.451239 l -41.56904,24.092071 c 0,0 0.007,-73.00196 -0.13229,-73.18881 6.26945,-3.79919 10.10398,-10.592713 10.1167,-17.92345 C 209.11442,9.4021116 199.71224,-7.124557e-5 188.11408,0 c -11.59816,-7.124557e-5 -21.00034,9.4021116 -21.00027,21.00027 0.0207,7.827662 4.3933,14.99413 11.34453,18.59318 v 48.427009 l -42.24497,24.308081 0.185,-74.06473 c 5.68851,-3.908152 9.0936,-10.3619 9.10849,-17.26354 C 145.50693,9.4021077 136.10474,-7.6768492e-5 124.50658,0 Z M 20.96151,13.23381 c 4.297151,6.6e-5 7.780591,3.477265 7.7804,7.76646 -1.02e-4,4.288988 -3.483457,7.765864 -7.7804,7.76593 -4.297146,2.21e-4 -7.780818,-3.476739 -7.78092,-7.76593 -1.91e-4,-4.289398 3.483566,-7.766681 7.78092,-7.76646 z m 42.64959,0 c 4.297155,6e-5 7.780601,3.477261 7.78041,7.76646 -1.02e-4,4.288992 -3.483463,7.76587 -7.78041,7.76593 -4.297146,2.21e-4 -7.780818,-3.476739 -7.78092,-7.76593 -1.91e-4,-4.289398 3.483566,-7.766681 7.78092,-7.76646 z m 60.85675,0 c 4.29716,5.5e-5 7.78061,3.477257 7.78042,7.76646 -1e-4,4.288996 -3.48347,7.765875 -7.78042,7.76593 -4.29715,2.21e-4 -7.78082,-3.476739 -7.78092,-7.76593 -1.9e-4,-4.289398 3.48357,-7.766681 7.78092,-7.76646 z m 63.6075,0 c 4.29715,6.6e-5 7.78059,3.477265 7.7804,7.76646 -1e-4,4.288988 -3.48346,7.765864 -7.7804,7.76593 -4.29715,2.21e-4 -7.78082,-3.476739 -7.78092,-7.76593 -1.9e-4,-4.289398 3.48357,-7.766681 7.78092,-7.76646 z m 64.06844,0 c 4.29715,6e-5 7.7806,3.477261 7.78041,7.76646 -10e-5,4.288992 -3.48346,7.76587 -7.78041,7.76593 -4.29715,2.21e-4 -7.78082,-3.476739 -7.78092,-7.76593 -1.9e-4,-4.289398 3.48357,-7.766681 7.78092,-7.76646 z M 21.00027,192.88228 c 4.297147,7e-5 7.780586,3.47726 7.7804,7.76645 -9.7e-5,4.28899 -3.483453,7.76587 -7.7804,7.76594 -4.29715,2.2e-4 -7.780823,-3.47675 -7.78092,-7.76594 -1.86e-4,-4.28939 3.48357,-7.76667 7.78092,-7.76645 z" /></svg>
