<?xml version="1.0" encoding="UTF-8" standalone="no"?>
<svg
   fill="none"
   viewBox="-11 -10.13 484 410.87292"
   version="1.1"
   id="svg3"
   width="484"
   height="410.87292"
   sodipodi:docname="react-icon-white.svg"
   inkscape:export-filename="react-icon-white.png"
   inkscape:export-xdpi="96"
   inkscape:export-ydpi="96"
   xmlns:inkscape="http://www.inkscape.org/namespaces/inkscape"
   xmlns:sodipodi="http://sodipodi.sourceforge.net/DTD/sodipodi-0.dtd"
   xmlns="http://www.w3.org/2000/svg"
   xmlns:svg="http://www.w3.org/2000/svg">
  <sodipodi:namedview
     id="namedview1"
     pagecolor="#ffffff"
     bordercolor="#000000"
     borderopacity="0.25"
     inkscape:showpageshadow="2"
     inkscape:pageopacity="0.0"
     inkscape:pagecheckerboard="true"
     inkscape:deskcolor="#d1d1d1" />
  <defs
     id="defs3" />
  <path
     id="circle1"
     style="fill:#ffffff;fill-opacity:1;stroke-width:20.9283"
     d="m 278.34426,186.93844 a 41.856557,41.856557 0 0 1 -41.85655,41.85655 41.856557,41.856557 0 0 1 -41.85656,-41.85655 41.856557,41.856557 0 0 1 41.85656,-41.85656 41.856557,41.856557 0 0 1 41.85655,41.85656 z" />
  <path
     style="color:#000000;fill:#ffffff;fill-opacity:1;stroke-width:0;stroke-dasharray:none"
     d="M 323.76637,141.28001 C 294.23426,90.128893 258.27421,49.104595 222.96238,23.66289 205.30647,10.942036 187.77023,2.0665558 170.86544,-1.9065607 153.96063,-5.8796837 137.25274,-4.7781947 123.2708,3.2942819 109.28886,11.366756 99.980995,25.285472 94.969419,41.912022 89.957839,58.538567 88.876111,78.163133 91.064738,99.814029 95.44199,143.11582 112.99005,194.77029 142.52216,245.9214 c 29.53211,51.15111 65.49216,92.17541 100.80398,117.61712 17.65592,12.72085 35.19215,21.59633 52.09695,25.56945 16.9048,3.97312 33.6127,2.87163 47.59464,-5.20085 13.98193,-8.07247 23.2898,-21.99119 28.30138,-38.61774 5.01158,-16.62654 6.0933,-36.25111 3.90468,-57.902 -4.37726,-43.30179 -21.92531,-94.95626 -51.45742,-146.10737 z m -18.12442,10.46414 c 28.25968,48.9472 44.78185,98.41546 48.75845,137.75382 1.9883,19.66918 0.78378,36.77759 -3.12972,49.76115 -3.91351,12.98355 -10.17691,21.59291 -18.71709,26.52358 -8.54019,4.93068 -19.12781,6.05026 -32.32865,2.94768 -13.20083,-3.10258 -28.61941,-10.61364 -44.65927,-22.17015 -32.07972,-23.11301 -66.65941,-62.15577 -94.91909,-111.10297 -28.25968,-48.9472 -44.78186,-98.41547 -48.75846,-137.753827 -1.98829,-19.669181 -0.78378,-36.777592 3.12973,-49.761145 3.91351,-12.983552 10.17691,-21.592908 18.71709,-26.523585 8.54018,-4.930678 19.1278,-6.050261 32.32865,-2.947682 13.20083,3.10258 28.61941,10.613643 44.65927,22.170153 32.07972,23.113015 66.65941,62.155766 94.91909,111.102976 z"
     id="ellipse2" />
  <path
     style="color:#000000;fill:#ffffff;fill-opacity:1;stroke-width:0;stroke-dasharray:none"
     d="m 226.02357,79.576363 c 59.06421,0 112.57232,10.63017 152.2614,28.490257 19.84454,8.93004 36.29905,19.67913 48.19227,32.33256 11.89322,12.65342 19.29325,27.67363 19.29325,43.81858 0,16.14495 -7.40003,31.16516 -19.29325,43.81858 -11.89322,12.65343 -28.34773,23.40252 -48.19227,32.33256 -39.68908,17.86008 -93.19719,28.49025 -152.2614,28.49025 -59.06422,0 -112.57233,-10.63017 -152.26141,-28.49025 C 53.917621,251.43886 37.463111,240.68977 25.569893,228.03634 13.676666,215.38292 6.2766358,200.36271 6.2766358,184.21776 c 0,-16.14495 7.4000302,-31.16516 19.2932572,-43.81858 11.893218,-12.65343 28.347728,-23.40252 48.192267,-32.33256 39.68908,-17.860087 93.19719,-28.490257 152.26141,-28.490257 z m 0,20.928277 c -56.51936,0 -107.62122,10.42552 -143.677547,26.65086 -18.028159,8.11267 -32.242221,17.71002 -41.529553,27.59099 -9.287331,9.88098 -13.611555,19.60991 -13.611555,29.47127 0,9.86135 4.324224,19.59029 13.611555,29.47127 9.287332,9.88097 23.501394,19.47832 41.529553,27.59099 36.056327,16.22534 87.158187,26.65085 143.677547,26.65085 56.51936,0 107.62122,-10.42551 143.67753,-26.65085 18.02816,-8.11267 32.24223,-17.71002 41.52956,-27.59099 9.28733,-9.88098 13.61155,-19.60992 13.61155,-29.47127 0,-9.86136 -4.32422,-19.59029 -13.61155,-29.47127 -9.28733,-9.88097 -23.5014,-19.47832 -41.52956,-27.59099 -36.05631,-16.22534 -87.15817,-26.65086 -143.67753,-26.65086 z"
     id="ellipse1" />
  <path
     style="color:#000000;fill:#ffffff;fill-opacity:1;stroke-width:0;stroke-dasharray:none"
     d="m 323.76637,245.9214 c 29.53211,-51.15111 47.08016,-102.80558 51.45742,-146.107371 2.18862,-21.650896 1.1069,-41.275462 -3.90468,-57.902007 C 366.30753,25.285472 356.99966,11.366756 343.01773,3.2942819 329.03579,-4.7781947 312.3279,-5.8796837 295.42309,-1.9065607 278.51829,2.0665558 260.98206,10.942036 243.32614,23.66289 208.01432,49.104595 172.05427,90.128893 142.52216,141.28001 112.99005,192.43112 95.44199,244.08559 91.064738,287.38738 c -2.188627,21.65089 -1.106897,41.27546 3.904681,57.902 5.011578,16.62655 14.319441,30.54527 28.301381,38.61774 13.98194,8.07248 30.68983,9.17397 47.59464,5.20085 16.90479,-3.97312 34.44103,-12.8486 52.09694,-25.56945 35.31183,-25.44171 71.27188,-66.46601 100.80399,-117.61712 z m -18.12442,-10.46414 c -28.25968,48.9472 -62.83937,87.98996 -94.91909,111.10297 -16.03986,11.55651 -31.45844,19.06757 -44.65927,22.17015 -13.20085,3.10258 -23.78847,1.983 -32.32865,-2.94768 -8.54018,-4.93067 -14.80358,-13.54003 -18.71709,-26.52358 -3.91351,-12.98356 -5.11803,-30.09197 -3.12973,-49.76115 3.9766,-39.33836 20.49878,-88.80662 48.75846,-137.75382 28.25968,-48.94721 62.83937,-87.989961 94.91909,-111.102976 16.03986,-11.55651 31.45844,-19.067573 44.65927,-22.170153 13.20084,-3.102579 23.78846,-1.982996 32.32865,2.947682 8.54018,4.930677 14.80358,13.540035 18.71709,26.523585 3.9135,12.983553 5.11802,30.091964 3.12972,49.761145 -3.9766,39.338357 -20.49877,88.806627 -48.75845,137.753827 z"
     id="ellipse3" />
</svg>
