<?xml version="1.0" encoding="UTF-8" standalone="no"?>
<svg
   fill="none"
   viewBox="0 0 256 256"
   version="1.1"
   id="svg2"
   width="256"
   height="256"
   xmlns="http://www.w3.org/2000/svg"
   xmlns:svg="http://www.w3.org/2000/svg">
  <defs
     id="defs2" />
  <path
     fill="#38bdf8"
     fill-rule="evenodd"
     d="m 127.42533,48.429583 c -33.452977,0 -54.361088,16.726489 -62.724332,50.179465 12.544866,-16.726488 27.180544,-22.998921 43.907032,-18.817299 9.54339,2.383525 16.36408,9.311078 23.91423,16.972739 12.29862,12.484462 26.53472,26.934292 57.6274,26.934292 33.45298,0 54.36109,-16.72649 62.72434,-50.179464 C 240.32913,90.245804 225.69345,96.518237 208.96696,92.336615 199.42357,89.953091 192.60288,83.025537 185.05273,75.363876 172.75411,62.879411 158.51801,48.429583 127.42533,48.429583 Z M 64.700998,123.69878 c -33.452977,0 -54.361092,16.72649 -62.7243316,50.17946 12.5448696,-16.72648 27.1805436,-22.99891 43.9070316,-18.81729 9.543391,2.38817 16.364081,9.31107 23.914233,16.97273 12.298615,12.48447 26.534715,26.9343 57.627399,26.9343 33.45298,0 54.36109,-16.72649 62.72433,-50.17947 -12.54486,16.72649 -27.18054,22.99892 -43.90703,18.8173 -9.54339,-2.38352 -16.36408,-9.31107 -23.91423,-16.97274 -12.29862,-12.48446 -26.534719,-26.93429 -57.627402,-26.93429 z"
     clip-rule="evenodd"
     id="path1"
     style="fill:#ffffff;fill-opacity:1;stroke-width:0;stroke-dasharray:none" />
</svg>
