<?xml version="1.0" encoding="UTF-8" standalone="no"?>
<svg
   viewBox="0 0 256 256"
   version="1.1"
   id="svg2"
   width="256"
   height="256"
   sodipodi:docname="twenty-icon.svg"
   inkscape:export-filename="twenty-icon.svg"
   inkscape:export-xdpi="96"
   inkscape:export-ydpi="96"
   xmlns:inkscape="http://www.inkscape.org/namespaces/inkscape"
   xmlns:sodipodi="http://sodipodi.sourceforge.net/DTD/sodipodi-0.dtd"
   xmlns="http://www.w3.org/2000/svg"
   xmlns:svg="http://www.w3.org/2000/svg">
  <sodipodi:namedview
     id="namedview1"
     pagecolor="#ffffff"
     bordercolor="#000000"
     borderopacity="0.25"
     inkscape:showpageshadow="2"
     inkscape:pageopacity="0.0"
     inkscape:pagecheckerboard="0"
     inkscape:deskcolor="#d1d1d1" />
  <defs
     id="defs2" />
  <path
     id="rect2"
     style="fill:#ffffff;fill-opacity:0.999951;stroke-width:0;stroke-linecap:round;stroke-miterlimit:1.8;stroke-dashoffset:6.42104;paint-order:fill markers stroke"
     d="m 50.816902,40.292864 c -21.156303,0 -38.32605,17.175657 -38.32605,38.331958 h 0.02953 v 29.194188 c 0,3.72777 3.011027,6.74848 6.748481,6.74848 h 13.499913 c 3.72777,0 6.74848,-3.02071 6.74848,-6.74848 V 78.828605 c 0,-6.351732 5.14874,-11.512286 11.500474,-11.512286 h 48.52999 c 4.1538,0 8.11288,-1.761067 10.93048,-4.811062 l 16.18158,-17.563768 c 0.73588,-0.832693 0.93941,-1.994476 0.48435,-2.991777 -0.45509,-0.997299 -1.45249,-1.656848 -2.53695,-1.656848 z m 116.818098,0 c -11.76426,0 -22.94646,4.89986 -30.92487,13.556028 L 16.250508,184.70739 c -2.449676,2.65303 -3.786236,6.08899 -3.786236,9.68118 v 7.14718 c 0,7.89128 6.400167,14.3003 14.29142,14.3003 h 86.997798 c 3.73746,-2e-5 6.74848,-3.02071 6.74848,-6.7485 v -13.49696 c 0,-3.73743 -3.01102,-6.75734 -6.74848,-6.75734 H 49.198449 L 156.64548,72.080126 c 2.8176,-3.020945 6.74961,-4.763807 10.87434,-4.763807 h 36.02832 c 6.35174,0 11.50344,5.160554 11.50344,11.512286 v 98.501225 c 0,6.35174 -5.1517,11.50342 -11.50344,11.50342 h -30.98393 c -6.35174,0 -11.50343,-5.15168 -11.50343,-11.50342 V 94.543549 c 0,-1.132829 -0.71663,-2.128658 -1.77203,-2.554671 -1.07475,-0.406688 -2.2741,-0.11716 -3.03903,0.705863 l -18.29031,19.849679 c -2.52713,2.75952 -3.92209,6.35214 -3.92209,10.07991 v 54.87976 c 0,21.1563 17.1668,38.33196 38.3231,38.33196 h 31.36198 c 21.15628,0 38.3231,-17.17566 38.3231,-38.33196 H 242.016 V 78.624822 c 0,-21.156301 -17.16681,-38.331958 -38.32309,-38.331958 z" />
</svg>
