<?xml version="1.0" encoding="UTF-8" standalone="no"?>
<svg
   viewBox="0 0 256 256"
   version="1.1"
   id="svg2"
   width="256"
   height="256"
   xmlns="http://www.w3.org/2000/svg"
   xmlns:svg="http://www.w3.org/2000/svg">
  <defs
     id="defs2" />
  <path
     id="rect2"
     style="fill:#ffffff;fill-opacity:0.999951;stroke-width:0;stroke-linecap:round;stroke-miterlimit:1.8;stroke-dashoffset:6.42104;paint-order:fill markers stroke"
     d="M 47.711634,55.163734 H 213.93974 V 223.92654 H 47.711634 Z" />
  <path
     d="M 218.3604,7.2674863 H 37.768751 c -16.839113,0 -30.5012647,13.6621517 -30.5012647,30.5012647 V 218.3604 c 0,16.83912 13.6621517,30.50126 30.5012647,30.50126 H 218.3604 c 16.83912,0 30.50126,-13.66214 30.50126,-30.50126 V 37.768751 c 0,-16.839113 -13.66214,-30.5012647 -30.50126,-30.5012647 z M 55.713159,97.225079 c 0,-13.197082 10.708661,-23.911784 23.905744,-23.911784 h 46.029727 c 0.67647,0 1.29857,0.41071 1.58245,1.032815 0.28387,0.622105 0.15703,1.346888 -0.302,1.866315 l -10.0926,10.956296 c -1.7576,1.902555 -4.22789,3.001807 -6.81899,3.001807 H 79.74574 c -3.962145,0 -7.175347,3.219243 -7.175347,7.181387 v 18.083325 c 0,2.32535 -1.884435,4.20977 -4.209779,4.20977 h -8.419557 c -2.331384,0 -4.209778,-1.88442 -4.209778,-4.20977 V 97.225079 Z M 198.90603,158.90407 c 0,13.19709 -10.70866,23.91178 -23.90574,23.91178 H 155.4372 c -13.19709,0 -23.90575,-10.71469 -23.90575,-23.91178 v -34.23389 c 0,-2.32534 0.86974,-4.56613 2.44615,-6.28749 l 11.40928,-12.3817 c 0.47715,-0.51339 1.22609,-0.69459 1.89651,-0.44091 0.65835,0.26575 1.1053,0.88786 1.1053,1.59452 v 51.64075 c 0,3.96215 3.2132,7.17535 7.17535,7.17535 h 19.32753 c 3.96215,0 7.17534,-3.2132 7.17534,-7.17535 V 97.351915 c 0,-3.962144 -3.21319,-7.181387 -7.17534,-7.181387 h -22.47431 c -2.57297,0 -5.02515,1.087175 -6.78275,2.971609 L 78.610247,165.9707 h 40.267703 c 2.33139,0 4.20979,1.88444 4.20979,4.21582 v 8.41955 c 0,2.32535 -1.8784,4.20978 -4.20979,4.20978 H 64.609865 c -4.922481,0 -8.914826,-3.99837 -8.914826,-8.92085 v -4.45742 c 0,-2.24078 0.8335,-4.38493 2.361584,-6.03986 L 133.19845,81.769091 c 4.97684,-5.399629 11.95287,-8.455796 19.29129,-8.455796 h 22.49243 c 13.19708,0 23.90574,10.714702 23.90574,23.911784 v 61.678991 z"
     fill="#000000"
     id="path2"
     style="display:inline;stroke-width:6.03986" />
</svg>
