<?xml version="1.0" encoding="UTF-8" standalone="no"?>
<svg
   height="256"
   preserveAspectRatio="xMidYMid"
   viewBox="0 0 256 256"
   width="256"
   version="1.1"
   id="svg5"
   xmlns="http://www.w3.org/2000/svg"
   xmlns:svg="http://www.w3.org/2000/svg">
  <defs
     id="defs5" />
  <g
     fill="#cf272d"
     id="g5">
    <path
       d="m 127.85978,222.3036 c -52.005174,0 -94.163382,-42.15821 -94.163382,-94.16232 0,-52.00518 42.158208,-94.163388 94.163382,-94.163388 52.00412,0 94.16233,42.158208 94.16233,94.163388 0,52.00411 -42.15821,94.16232 -94.16233,94.16232 z m 0,-222.02210622 C 57.245212,0.28149378 0,57.526705 0,128.14128 0,198.75585 57.245212,256 127.85978,256 c 70.61458,0 127.85873,-57.24415 127.85873,-127.85872 0,-70.614575 -57.24415,-127.85978622 -127.85873,-127.85978622 z"
       id="path1"
       style="fill:#ffffff;fill-opacity:1" />
    <path
       d="m 133.11575,96.297427 c 0,-14.68229 11.90347,-26.585759 26.58576,-26.585759 14.68335,0 26.58576,11.903469 26.58576,26.585759 0,14.683353 -11.90241,26.585763 -26.58576,26.585763 -14.68229,0 -26.58576,-11.90241 -26.58576,-26.585763"
       id="path2"
       style="fill:#ffffff;fill-opacity:1" />
    <path
       d="m 133.11575,159.983 c 0,-14.68229 11.90347,-26.58576 26.58576,-26.58576 14.68335,0 26.58576,11.90347 26.58576,26.58576 0,14.68336 -11.90241,26.58576 -26.58576,26.58576 -14.68229,0 -26.58576,-11.9024 -26.58576,-26.58576"
       id="path3"
       style="fill:#ffffff;fill-opacity:1" />
    <path
       d="m 69.431236,159.983 c 0,-14.68229 11.903469,-26.58576 26.58576,-26.58576 14.683354,0 26.585764,11.90347 26.585764,26.58576 0,14.68336 -11.90241,26.58576 -26.585764,26.58576 -14.682291,0 -26.58576,-11.9024 -26.58576,-26.58576"
       id="path4"
       style="fill:#ffffff;fill-opacity:1" />
    <path
       d="m 69.431236,96.29849 c 0,-14.683353 11.903469,-26.58576 26.58576,-26.58576 14.683354,0 26.585764,11.902407 26.585764,26.58576 0,14.68335 -11.90241,26.58576 -26.585764,26.58576 -14.682291,0 -26.58576,-11.90241 -26.58576,-26.58576"
       id="path5"
       style="fill:#ffffff;fill-opacity:1" />
  </g>
</svg>
