<?xml version="1.0" encoding="UTF-8" standalone="no"?>
<!-- Uploaded to: SVG Repo, www.svgrepo.com, Generator: SVG Repo Mixer Tools -->

<svg
   fill="#000000"
   width="800"
   height="800"
   viewBox="0 0 32 32"
   version="1.1"
   id="svg1"
   xmlns="http://www.w3.org/2000/svg"
   xmlns:svg="http://www.w3.org/2000/svg">
  <defs
     id="defs1" />
  <path
     id="rect1"
     style="fill:#ffffff;fill-opacity:0.999951;stroke-width:0;stroke-linecap:round;stroke-miterlimit:1.8;stroke-dashoffset:6.42104;paint-order:fill markers stroke"
     d="M 24.577656,14.597109 C 24.110282,14.583484 23.6415,14.6005 23.36,14.655 c -1.733998,0.328 -2.942016,1.437017 -3.281016,3.036016 -0.094,0.452999 -0.06297,1.588953 0.05703,2.041953 0.171999,0.588999 0.474,1.135063 0.88,1.599062 0.644999,0.703 1.359001,1.139985 3.01,1.853985 1.442998,0.624999 1.947969,0.927016 2.197968,1.281015 0.193,0.277 0.24,0.442969 0.24,0.812969 0.021,0.364 -0.135953,0.723969 -0.416953,0.957969 -0.692999,0.619999 -2.094001,0.698015 -3.115,0.156015 -0.354999,-0.186999 -0.943063,-0.750016 -1.214062,-1.161015 L 21.525,24.947031 20.602969,25.482969 c -0.506,0.291999 -1.041969,0.604047 -1.187969,0.688047 -0.146,0.084 -0.276031,0.166968 -0.292031,0.187968 -0.037,0.057 0.536047,0.905985 0.833047,1.228985 0.749999,0.832999 1.969001,1.469047 3.255,1.698047 0.588999,0.109 1.890969,0.125015 2.437968,0.02602 1.770999,-0.296999 3.032032,-1.203017 3.542032,-2.531015 0.457999,-1.228999 0.306999,-2.875017 -0.375,-3.906016 -0.609,-0.921999 -1.588003,-1.573032 -3.88,-2.557031 -1.238999,-0.537 -1.639985,-0.802001 -1.853985,-1.245 -0.093,-0.182 -0.14,-0.390985 -0.135,-0.598985 -0.005,-0.848999 0.619986,-1.354953 1.588985,-1.291953 0.660999,0.047 1.094,0.306938 1.505,0.905938 0.135999,0.204 0.260953,0.334047 0.291953,0.313047 0.843999,-0.521 2.234062,-1.453 2.224062,-1.495 -0.037,-0.141 -0.474016,-0.714016 -0.766015,-1.026016 -0.573,-0.587999 -1.192001,-0.953016 -2.005,-1.156016 l 0.001,-10e-4 c -0.275999,-0.068 -0.742,-0.112235 -1.209375,-0.12586 z M 12.666016,14.74 c -3.0729973,-0.005 -5.6040004,0.005 -5.6200004,0.02602 -0.02,0.016 -0.036016,0.608969 -0.036016,1.322968 V 17.37 h 4.1610164 v 11.838984 h 2.947968 V 17.37 h 4.167032 l -0.01,-1.307031 L 18.26,14.756016 Z" />
</svg>
