<?xml version="1.0" encoding="UTF-8" standalone="no"?>
<svg
   width="56.975796mm"
   height="57.234245mm"
   version="1.1"
   viewBox="0 0 201.95381 202.5881"
   id="svg3"
   xmlns="http://www.w3.org/2000/svg"
   xmlns:svg="http://www.w3.org/2000/svg"
   xmlns:rdf="http://www.w3.org/1999/02/22-rdf-syntax-ns#"
   xmlns:cc="http://creativecommons.org/ns#"
   xmlns:dc="http://purl.org/dc/elements/1.1/">
  <defs
     id="defs3" />
  <title
     id="title1">OpenZFS logo</title>
  <metadata
     id="metadata1">
    <rdf:RDF>
      <cc:Work
         rdf:about="">
        <dc:format>image/svg+xml</dc:format>
        <dc:type
           rdf:resource="http://purl.org/dc/dcmitype/StillImage" />
        <dc:title />
      </cc:Work>
    </rdf:RDF>
  </metadata>
  <g
     transform="matrix(0.989,0,0,0.993,467.49831,-257.4187)"
     id="g3">
    <g
       transform="matrix(1.25,0,0,-1.25,-388,570)"
       id="g1">
      <path
         d="m 0,0 v 35.1 h 3.68 c 0.877,0 1.43,-0.507 1.66,-1.52 l 0.484,-4.52 c 1.53,1.81 3.23,3.28 5.11,4.39 1.88,1.11 4.06,1.68 6.53,1.68 1.92,0 3.61,-0.314 5.08,-0.94 1.47,-0.625 2.69,-1.51 3.67,-2.66 0.98,-1.15 1.73,-2.53 2.24,-4.15 0.51,-1.62 0.762,-3.4 0.762,-5.36 v -22 h -6.17 v 22 c 0,2.61 -0.606,4.64 -1.82,6.08 -1.214,1.44 -3.07,2.16 -5.56,2.16 -1.83,0 -3.53,-0.465 -5.11,-1.4 -1.58,-0.93 -3.04,-2.19 -4.38,-3.78 v -25 z m -21.1,30.6 c -2.98,0 -5.33,-0.774 -7.04,-2.32 -1.71,-1.55 -2.77,-3.7 -3.19,-6.44 h 19.1 c 0,1.29 -0.197,2.47 -0.589,3.54 -0.391,1.07 -0.971,2 -1.73,2.78 -0.759,0.78 -1.69,1.38 -2.79,1.81 -1.1,0.427 -2.35,0.64 -3.76,0.64 m -0.138,4.54 c 2.1,0 4.04,-0.333 5.82,-1 1.78,-0.667 3.32,-1.63 4.61,-2.89 1.29,-1.26 2.3,-2.81 3.03,-4.66 0.728,-1.85 1.09,-3.95 1.09,-6.32 0,-0.918 -0.104,-1.53 -0.312,-1.84 -0.208,-0.307 -0.602,-0.459 -1.18,-0.459 h -23.4 c 0.047,-2.22 0.346,-4.15 0.901,-5.79 0.555,-1.64 1.32,-3.01 2.29,-4.11 0.97,-1.1 2.13,-1.92 3.47,-2.46 1.34,-0.54 2.84,-0.814 4.51,-0.814 1.55,0 2.88,0.179 4,0.537 1.12,0.358 2.08,0.745 2.89,1.16 0.809,0.415 1.49,0.802 2.03,1.16 0.543,0.357 1.01,0.537 1.4,0.537 0.508,0 0.902,-0.197 1.18,-0.59 l 1.73,-2.25 c -0.762,-0.924 -1.68,-1.73 -2.74,-2.41 -1.06,-0.682 -2.2,-1.24 -3.41,-1.68 -1.21,-0.439 -2.47,-0.769 -3.76,-0.989 -1.29,-0.219 -2.58,-0.329 -3.85,-0.329 -2.43,0 -4.66,0.399 -6.71,1.2 -2.04,0.798 -3.81,1.97 -5.3,3.51 -1.49,1.54 -2.65,3.45 -3.48,5.72 -0.833,2.27 -1.25,4.88 -1.25,7.82 0,2.38 0.375,4.61 1.12,6.68 0.752,2.07 1.83,3.86 3.24,5.38 1.41,1.52 3.13,2.71 5.16,3.58 2.03,0.866 4.32,1.3 6.86,1.3 m -36.4,-4.99 c -2.01,0 -3.77,-0.459 -5.28,-1.37 -1.51,-0.916 -2.91,-2.21 -4.18,-3.88 v -16.2 c 1.13,-1.45 2.37,-2.48 3.72,-3.07 1.35,-0.59 2.86,-0.892 4.52,-0.892 3.26,0 5.77,1.12 7.52,3.36 1.76,2.24 2.63,5.44 2.63,9.59 0,2.2 -0.203,4.08 -0.605,5.66 -0.406,1.58 -0.989,2.87 -1.75,3.88 -0.763,1.01 -1.7,1.75 -2.81,2.21 -1.11,0.467 -2.37,0.7 -3.78,0.7 m -15.6,-42 v 47 h 3.68 c 0.877,0 1.43,-0.486 1.66,-1.46 l 0.521,-4.72 c 1.5,1.87 3.22,3.38 5.15,4.51 1.93,1.14 4.15,1.7 6.67,1.7 2.01,0 3.84,-0.376 5.48,-1.13 1.64,-0.752 3.04,-1.86 4.2,-3.33 1.15,-1.47 2.04,-3.29 2.67,-5.47 0.624,-2.18 0.936,-4.68 0.936,-7.51 0,-2.51 -0.346,-4.85 -1.04,-7.02 -0.694,-2.17 -1.69,-4.04 -2.98,-5.62 -1.29,-1.58 -2.88,-2.83 -4.77,-3.74 -1.89,-0.91 -4,-1.36 -6.36,-1.36 -2.17,0 -4.03,0.358 -5.56,1.08 -1.54,0.715 -2.89,1.73 -4.07,3.05 v -16 z m -13.3,36.7 c 0,2.97 -0.416,5.64 -1.25,8 -0.832,2.36 -2.01,4.36 -3.54,6 -1.53,1.64 -3.38,2.89 -5.55,3.76 -2.17,0.878 -4.6,1.32 -7.28,1.32 -2.66,0 -5.07,-0.439 -7.24,-1.32 -2.17,-0.878 -4.03,-2.13 -5.56,-3.76 -1.53,-1.63 -2.72,-3.63 -3.55,-6 -0.832,-2.36 -1.25,-5.03 -1.25,-8 0,-2.97 0.416,-5.63 1.25,-7.99 0.832,-2.35 2.02,-4.35 3.55,-5.98 1.53,-1.63 3.39,-2.88 5.56,-3.75 2.17,-0.867 4.59,-1.3 7.24,-1.3 2.68,0 5.11,0.433 7.28,1.3 2.17,0.867 4.02,2.12 5.55,3.75 1.53,1.63 2.7,3.62 3.54,5.98 0.831,2.35 1.25,5.01 1.25,7.99 m 6.9,0 c 0,-3.65 -0.59,-6.99 -1.77,-10 -1.18,-3.05 -2.84,-5.67 -4.99,-7.86 -2.15,-2.2 -4.73,-3.9 -7.75,-5.11 -3.02,-1.21 -6.35,-1.82 -10,-1.82 -3.65,0 -6.98,0.606 -9.98,1.82 -3,1.21 -5.58,2.92 -7.73,5.11 -2.15,2.2 -3.81,4.82 -4.99,7.86 -1.18,3.05 -1.77,6.39 -1.77,10 0,3.65 0.588,6.99 1.77,10 1.18,3.05 2.84,5.67 4.99,7.88 2.15,2.21 4.72,3.92 7.73,5.15 3,1.22 6.33,1.84 9.98,1.84 3.65,0 6.98,-0.613 10,-1.84 3.02,-1.22 5.6,-2.94 7.75,-5.15 2.15,-2.21 3.81,-4.84 4.99,-7.88 1.18,-3.04 1.77,-6.39 1.77,-10"
         fill="#2e4349"
         id="path1" />
    </g>
    <g
       transform="matrix(1.25,0,0,-1.25,-211,518)"
       id="g2">
      <path
         d="m 0,0 c -2.2,-0.006 -3.83,-0.456 -4.9,-1.37 -1.08,-0.913 -1.61,-2.15 -1.61,-3.7 0,-0.993 0.324,-1.82 0.971,-2.47 0.646,-0.654 1.5,-1.22 2.55,-1.69 1.05,-0.474 2.25,-0.908 3.6,-1.3 1.35,-0.395 2.73,-0.834 4.14,-1.32 1.41,-0.484 2.79,-1.05 4.14,-1.71 1.35,-0.66 2.55,-1.49 3.6,-2.5 1.05,-1.01 1.9,-2.25 2.55,-3.7 0.646,-1.45 0.971,-3.21 0.971,-5.26 0,-2.28 -0.405,-4.41 -1.21,-6.39 -0.808,-1.98 -1.98,-3.71 -3.52,-5.19 -1.54,-1.48 -3.43,-2.64 -5.69,-3.48 -2.25,-0.846 -4.81,-1.27 -7.68,-1.27 -1.57,0 -3.17,0.162 -4.8,0.485 -1.63,0.324 -3.21,0.78 -4.73,1.37 -1.53,0.59 -2.96,1.29 -4.3,2.1 -1.34,0.81 -2.51,1.71 -3.5,2.7 l 3.46,5.37 c 0.255,0.407 0.613,0.736 1.07,0.985 0.462,0.249 0.96,0.375 1.49,0.375 0.693,0 1.39,-0.213 2.1,-0.638 0.706,-0.425 1.5,-0.896 2.39,-1.41 0.891,-0.516 1.91,-0.986 3.07,-1.41 1.16,-0.425 2.52,-0.637 4.09,-0.637 2.12,0 3.78,0.456 4.96,1.37 1.18,0.912 1.77,2.36 1.77,4.34 0,1.15 -0.325,2.08 -0.971,2.81 -0.648,0.721 -1.5,1.32 -2.55,1.79 -1.05,0.474 -2.25,0.891 -3.59,1.25 -1.34,0.361 -2.71,0.76 -4.12,1.2 -1.41,0.44 -2.79,0.98 -4.12,1.62 -1.34,0.643 -2.54,1.49 -3.59,2.54 -1.05,1.05 -1.9,2.36 -2.55,3.92 -0.646,1.57 -0.97,3.5 -0.97,5.8 0,1.85 0.381,3.65 1.14,5.41 0.763,1.76 1.88,3.32 3.36,4.7 1.48,1.37 3.29,2.47 5.44,3.3 2.15,0.822 4.61,1.23 7.38,1.23 1.55,0 3.06,-0.121 4.52,-0.364 1.47,-0.242 2.86,-0.601 4.18,-1.08 1.32,-0.473 2.55,-1.04 3.69,-1.7 1.14,-0.658 2.17,-1.4 3.07,-2.24 0,0 -1.38,-2.64 -2.85,-5.39 -0.624,-1.17 -2,-2.18 -3.66,-1.4 -1.67,0.779 -4.83,2.96 -8.81,2.95 m -21.8,9.18 v -9.01 h -20.7 v -12.8 h 17.3 v -9.05 h -17.3 v -19.7 h -11.8 v 50.5 z m -40.1,0 v -4.23 c 0,-0.601 -0.098,-1.19 -0.293,-1.77 -0.197,-0.578 -0.467,-1.12 -0.814,-1.63 l -23.7,-33.9 h 24.1 v -9.01 h -39 v 4.51 c 0,0.531 0.091,1.06 0.275,1.58 0.186,0.519 0.44,0.999 0.762,1.44 l 23.8,34 h -22.9 v 9.01 z"
         fill="#2a667f"
         id="path2" />
    </g>
    <path
       d="m -308,288 c -2.12,2.13 -5.56,2.13 -7.68,0 -2.12,-2.12 -2.12,-5.57 0,-7.69 2.12,-2.13 5.56,-2.13 7.68,0 2.13,2.12 2.13,5.57 -0.002,7.69 m -1.19,152 c -3.71,3.71 -9.72,3.71 -13.4,0 -3.71,-3.71 -3.71,-9.72 0,-13.4 3.71,-3.71 9.73,-3.71 13.4,0 3.71,3.71 3.71,9.72 0,13.4 m -31.7,-18.3 c -3.71,-3.71 -3.71,-9.73 0,-13.4 3.71,-3.71 9.73,-3.71 13.4,0 3.72,3.71 3.71,9.73 0.002,13.4 -3.71,3.71 -9.73,3.71 -13.4,0 m -4.87,18.3 c -3.71,3.71 -9.73,3.71 -13.4,0 -3.72,-3.71 -3.72,-9.72 0,-13.4 3.71,-3.71 9.72,-3.71 13.4,0 3.71,3.71 3.71,9.72 0,13.4 m -31.7,-18.3 c -3.71,-3.71 -3.71,-9.73 0,-13.4 3.71,-3.71 9.73,-3.71 13.4,0.002 3.71,3.71 3.71,9.73 0,13.4 -3.71,3.71 -9.73,3.71 -13.4,0 m -4.87,18.3 c -3.71,3.71 -9.73,3.71 -13.4,-0.004 -3.71,-3.72 -3.71,-9.72 0,-13.4 3.71,-3.71 9.73,-3.71 13.4,0 3.71,3.71 3.72,9.72 -0.001,13.4 m -31.7,-18.3 c -3.71,-3.71 -3.71,-9.72 -10e-4,-13.4 3.72,-3.71 9.73,-3.71 13.4,0 3.71,3.71 3.71,9.73 0,13.4 -3.7,3.7 -9.72,3.71 -13.4,-0.007 m -4.87,18.3 c -3.71,3.71 -9.73,3.71 -13.4,0 -3.71,-3.72 -3.71,-9.73 0,-13.4 3.71,-3.71 9.72,-3.71 13.4,0 3.71,3.71 3.71,9.73 0,13.4 m -14.6,-159 c 2.13,-2.13 5.56,-2.13 7.69,0 2.12,2.12 2.12,5.57 0,7.69 -2.13,2.13 -5.57,2.13 -7.69,0 -2.12,-2.12 -2.13,-5.57 -0.002,-7.69 m 11.8,11.8 c 2.12,-2.12 5.56,-2.12 7.69,0.002 2.12,2.13 2.12,5.57 0,7.7 -2.13,2.12 -5.57,2.12 -7.69,0 -2.12,-2.13 -2.13,-5.57 0.002,-7.7 m 11.8,11.8 c 2.12,-2.13 5.57,-2.13 7.69,0 2.13,2.12 2.12,5.57 -0.001,7.69 -2.12,2.13 -5.56,2.13 -7.68,0 -2.13,-2.12 -2.13,-5.57 -0.005,-7.69 m 0.005,-23.6 c 2.12,-2.13 5.56,-2.13 7.68,0.002 2.13,2.12 2.12,5.57 0,7.69 -2.12,2.13 -5.56,2.12 -7.68,0 -2.13,-2.12 -2.13,-5.57 0,-7.69 m 11.8,35.4 c 2.13,-2.12 5.57,-2.13 7.69,0.002 2.13,2.12 2.13,5.57 0,7.7 -2.12,2.12 -5.56,2.12 -7.69,0 -2.12,-2.13 -2.12,-5.58 0,-7.7 m 0.005,-23.6 c 2.12,-2.12 5.56,-2.12 7.68,0.002 2.12,2.13 2.13,5.57 0,7.7 -2.12,2.12 -5.56,2.12 -7.69,0 -2.12,-2.13 -2.12,-5.58 0.005,-7.7 m 11.8,-11.8 c 2.12,-2.13 5.56,-2.13 7.69,0 2.12,2.12 2.12,5.57 0,7.69 -2.13,2.13 -5.57,2.12 -7.69,0 -2.12,-2.12 -2.12,-5.57 0,-7.69 m 11.8,35.4 c 2.12,-2.13 5.56,-2.12 7.69,-0.002 2.12,2.13 2.12,5.58 0,7.7 -2.12,2.12 -5.56,2.12 -7.69,0 -2.12,-2.13 -2.13,-5.57 0,-7.7 m 0,-23.6 c 2.12,-2.12 5.56,-2.12 7.69,0 2.13,2.12 2.12,5.57 -0.002,7.7 -2.12,2.12 -5.57,2.12 -7.69,0 -2.12,-2.13 -2.12,-5.58 0,-7.7 m 11.8,-11.8 c 2.13,-2.13 5.57,-2.13 7.69,0 2.12,2.12 2.12,5.57 0.002,7.69 -2.12,2.12 -5.56,2.13 -7.69,0 -2.12,-2.12 -2.12,-5.57 0,-7.69 m 3.64,109 c 3.71,-3.71 9.73,-3.71 13.4,0 3.71,3.71 3.71,9.73 0,13.4 -3.71,3.71 -9.73,3.71 -13.4,0 -3.72,-3.71 -3.72,-9.73 0,-13.4 m 4.05,-54.4 c -2.12,2.13 -5.56,2.12 -7.69,0 -2.12,-2.13 -2.12,-5.57 -0.002,-7.7 2.12,-2.12 5.57,-2.12 7.69,0.01 2.12,2.12 2.12,5.57 0,7.69 m 0,-23.6 c -2.12,2.13 -5.56,2.13 -7.69,0.003 -2.12,-2.12 -2.12,-5.57 0,-7.69 2.12,-2.13 5.57,-2.13 7.69,0 2.12,2.12 2.12,5.57 0.002,7.69 m -19.5,27.7 c 2.12,-2.12 5.56,-2.12 7.69,0 2.12,2.12 2.12,5.58 -0.001,7.7 -2.12,2.12 -5.56,2.12 -7.69,-10e-4 -2.12,-2.13 -2.12,-5.57 0.007,-7.7 m -2.88,32 c 3.71,-3.71 9.73,-3.71 13.4,0.002 3.71,3.71 3.71,9.72 0,13.4 -3.71,3.71 -9.73,3.71 -13.4,0.002 -3.71,-3.71 -3.71,-9.72 0,-13.4 m -4.87,18.3 c 3.71,3.71 3.71,9.73 0,13.4 -3.71,3.71 -9.73,3.71 -13.4,-0.002 -3.72,-3.71 -3.71,-9.72 0,-13.4 3.7,-3.71 9.73,-3.71 13.4,0 m -4.05,-85.7 c 2.12,-2.13 5.56,-2.13 7.69,0 2.12,2.12 2.12,5.57 0,7.69 -2.13,2.13 -5.56,2.13 -7.69,0.003 -2.12,-2.12 -2.12,-5.57 -10e-4,-7.69 m 0,23.6 c 2.12,-2.13 5.56,-2.13 7.69,-0.007 2.12,2.13 2.12,5.58 0,7.71 -2.13,2.12 -5.57,2.13 -7.69,-0.007 -2.12,-2.13 -2.12,-5.57 0,-7.69 m 35.4,-11.8 c 2.12,-2.12 5.56,-2.13 7.69,0 2.12,2.13 2.12,5.58 -0.002,7.7 -2.12,2.12 -5.56,2.12 -7.69,10e-4 -2.12,-2.13 -2.12,-5.58 0,-7.7 m 0,-23.6 c 2.12,-2.12 5.56,-2.12 7.69,0 2.12,2.13 2.12,5.57 0,7.7 -2.12,2.12 -5.56,2.12 -7.69,-0.006 -2.12,-2.12 -2.12,-5.57 0,-7.7 m 11.8,11.8 c 2.13,-2.13 5.58,-2.13 7.69,0 2.12,2.12 2.12,5.57 0,7.69 -2.12,2.13 -5.56,2.13 -7.69,0 -2.12,-2.12 -2.12,-5.57 0,-7.69 m 0.002,-23.6 c 2.12,-2.13 5.57,-2.13 7.69,0 2.12,2.12 2.12,5.56 0,7.69 -2.12,2.13 -5.56,2.13 -7.69,0 -2.12,-2.12 -2.12,-5.57 0,-7.69 m 11.8,11.8 c 2.12,-2.12 5.57,-2.12 7.69,0 2.12,2.13 2.12,5.57 0,7.7 -2.12,2.13 -5.57,2.13 -7.69,0 -2.12,-2.12 -2.12,-5.56 0,-7.7 m 58.8,-17.9 c 0,-8.58 -6.96,-15.6 -15.6,-15.6 h -173 c -8.59,0 -15.6,6.96 -15.6,15.6 v 59.4 h 23.2 l -23.2,54.3 v 59.4 c 0,8.59 6.96,15.6 15.6,15.6 h 173 c 8.59,0 15.6,-6.96 15.6,-15.6 v -59.4 h -23.2 l 23.2,-54.3 z"
       fill="#2a667f"
       id="path3" />
  </g>
</svg>
