<?xml version="1.0" encoding="UTF-8" standalone="no"?>
<svg
   enable-background="new 0 0 24 24"
   viewBox="0 0 24 24"
   id="nextcloud"
   version="1.1"
   width="24"
   height="24"
   sodipodi:docname="_ICONTEMPLATE.svg"
   inkscape:version="1.4 (e7c3feb100, 2024-10-09)"
   inkscape:export-filename="TailscaleIcon.svg"
   inkscape:export-xdpi="96"
   inkscape:export-ydpi="96"
   xmlns:inkscape="http://www.inkscape.org/namespaces/inkscape"
   xmlns:sodipodi="http://sodipodi.sourceforge.net/DTD/sodipodi-0.dtd"
   xmlns:xlink="http://www.w3.org/1999/xlink"
   xmlns="http://www.w3.org/2000/svg"
   xmlns:svg="http://www.w3.org/2000/svg">
  <sodipodi:namedview
     id="namedview1"
     pagecolor="#ffffff"
     bordercolor="#000000"
     borderopacity="0.25"
     inkscape:showpageshadow="2"
     inkscape:pageopacity="0.0"
     inkscape:pagecheckerboard="true"
     inkscape:deskcolor="#d1d1d1"
     inkscape:zoom="5.12"
     inkscape:cx="10.351562"
     inkscape:cy="17.675781"
     inkscape:window-width="2305"
     inkscape:window-height="1110"
     inkscape:window-x="0"
     inkscape:window-y="0"
     inkscape:window-maximized="0"
     inkscape:current-layer="nextcloud">
    <inkscape:page
       x="0"
       y="0"
       width="24"
       height="24"
       id="page2"
       margin="0"
       bleed="0" />
  </sodipodi:namedview>
  <defs
     id="defs3">
    <clipPath
       id="cvfb">
			<use
   width="100%"
   height="100%"
   xlink:href="#cvfu"
   id="use2" />

		</clipPath>
    <linearGradient
       id="cvfj"
       x1="-2420"
       x2="-2400"
       y1="800.09998"
       y2="800.09998"
       gradientTransform="matrix(0.1869,0.3575,-0.6751,0.353,1133,856.1)"
       gradientUnits="userSpaceOnUse">
			<stop
   style="stop-color:#737373"
   offset="0"
   id="stop2" />

			<stop
   style="stop-color:#333"
   offset="1"
   id="stop3" />

		</linearGradient>
    <clipPath
       id="clipPath1">
			<use
   width="100%"
   height="100%"
   xlink:href="#cvfu"
   id="use1" />

		</clipPath>
    <linearGradient
       id="cvfi"
       x1="-2368"
       x2="-2347"
       y1="2163"
       y2="2163"
       gradientTransform="matrix(-0.1861,0.3579,-0.5495,-0.2858,785,1739)"
       gradientUnits="userSpaceOnUse">
			<stop
   style="stop-color:#737373"
   offset="0"
   id="stop4" />

			<stop
   style="stop-color:#333"
   offset="1"
   id="stop5" />

		</linearGradient>
    <clipPath
       id="clipPath3">
			<use
   width="100%"
   height="100%"
   xlink:href="#cvfu"
   id="use3" />

		</clipPath>
    <clipPath
       id="cvfa">
			<use
   width="100%"
   height="100%"
   xlink:href="#cvft"
   id="use6" />

		</clipPath>
    <linearGradient
       id="cvfh"
       x1="1480"
       x2="1501"
       y1="2101"
       y2="2101"
       gradientTransform="matrix(-0.1869,-0.3575,0.6751,-0.353,-1106,1649)"
       gradientUnits="userSpaceOnUse">
			<stop
   style="stop-color:#737373"
   offset="0"
   id="stop7" />

			<stop
   style="stop-color:#333"
   offset="1"
   id="stop8" />

		</linearGradient>
    <clipPath
       id="clipPath4">
			<use
   width="100%"
   height="100%"
   xlink:href="#cvft"
   id="use4" />

		</clipPath>
    <linearGradient
       id="cvfg"
       x1="1880"
       x2="1900"
       y1="995.70001"
       y2="995.70001"
       gradientTransform="matrix(0.1861,-0.3579,0.5495,0.2858,-757.7,765.5)"
       gradientUnits="userSpaceOnUse">
			<stop
   style="stop-color:#737373"
   offset="0"
   id="stop9" />

			<stop
   style="stop-color:#333"
   offset="1"
   id="stop10" />

		</linearGradient>
    <clipPath
       id="clipPath5">
			<use
   width="100%"
   height="100%"
   xlink:href="#cvft"
   id="use5" />

		</clipPath>
    <clipPath
       id="cvff">
			<use
   width="100%"
   height="100%"
   xlink:href="#cvfs"
   id="use10" />

		</clipPath>
    <linearGradient
       id="cvfr"
       x1="2724"
       x2="2762"
       y1="2480"
       y2="2480"
       gradientTransform="matrix(-1.521,-1.021,3.14,1.519,-3559,-659.4)"
       gradientUnits="userSpaceOnUse">
			<stop
   style="stop-color:#58595B"
   offset=".107"
   id="stop11" />

			<stop
   offset="1"
   id="stop12" />

		</linearGradient>
    <clipPath
       id="clipPath7">
			<use
   width="100%"
   height="100%"
   xlink:href="#cvfs"
   id="use7" />

		</clipPath>
    <clipPath
       id="cvfe">
			<use
   width="100%"
   height="100%"
   xlink:href="#cvfx"
   id="use12" />

		</clipPath>
    <linearGradient
       id="cvfq"
       x1="2370"
       x2="2408"
       y1="2242"
       y2="2242"
       gradientTransform="matrix(1.521,-1.021,-3.14,1.519,3527,-659.4)"
       gradientUnits="userSpaceOnUse">
			<stop
   style="stop-color:#58595B"
   offset=".107"
   id="stop13" />

			<stop
   offset="1"
   id="stop14" />

		</linearGradient>
    <clipPath
       id="clipPath8">
			<use
   width="100%"
   height="100%"
   xlink:href="#cvfx"
   id="use8" />

		</clipPath>
    <clipPath
       id="cvfd">
			<use
   width="100%"
   height="100%"
   xlink:href="#cvfw"
   id="use14" />

		</clipPath>
    <linearGradient
       id="cvfp"
       x1="-2721"
       x2="-2683"
       y1="-204.89999"
       y2="-204.89999"
       gradientTransform="matrix(1.521,1.021,-3.14,-1.519,3587,2791)"
       gradientUnits="userSpaceOnUse">
			<stop
   style="stop-color:#58595B"
   offset=".107"
   id="stop15" />

			<stop
   offset="1"
   id="stop16" />

		</linearGradient>
    <clipPath
       id="clipPath9">
			<use
   width="100%"
   height="100%"
   xlink:href="#cvfw"
   id="use9" />

		</clipPath>
    <clipPath
       id="cvfc">
			<use
   width="100%"
   height="100%"
   xlink:href="#cvfv"
   id="use16" />

		</clipPath>
    <linearGradient
       id="cvfo"
       x1="-2569"
       x2="-2530"
       y1="-102.7"
       y2="-102.7"
       gradientTransform="matrix(-1.521,1.021,3.14,-1.519,-3500,2791)"
       gradientUnits="userSpaceOnUse">
			<stop
   style="stop-color:#58595B"
   offset=".107"
   id="stop17" />

			<stop
   offset="1"
   id="stop18" />

		</linearGradient>
    <clipPath
       id="clipPath11">
			<use
   width="100%"
   height="100%"
   xlink:href="#cvfv"
   id="use11" />

		</clipPath>
    <linearGradient
       id="cvfn"
       x1="29.84"
       x2="73.400002"
       y1="295.5"
       y2="295.5"
       gradientUnits="userSpaceOnUse">
		<stop
   style="stop-color:#A6A8AB"
   offset=".2373"
   id="stop19" />

		<stop
   style="stop-color:#404040"
   offset="1"
   id="stop20" />

	</linearGradient>
    <linearGradient
       id="cvfm"
       x1="-287.89999"
       x2="-244.3"
       y1="295.5"
       y2="295.5"
       gradientTransform="matrix(-1,0,0,1,-141.2,0)"
       gradientUnits="userSpaceOnUse">
		<stop
   style="stop-color:#A6A8AB"
   offset=".2373"
   id="stop21" />

		<stop
   style="stop-color:#404040"
   offset="1"
   id="stop22" />

	</linearGradient>
    <linearGradient
       id="cvfl"
       x1="-119.4"
       x2="-75.839996"
       y1="1846"
       y2="1846"
       gradientTransform="rotate(180,13.64,1101)"
       gradientUnits="userSpaceOnUse">
		<stop
   style="stop-color:#A6A8AB"
   offset=".2373"
   id="stop23" />

		<stop
   style="stop-color:#404040"
   offset="1"
   id="stop24" />

	</linearGradient>
    <linearGradient
       id="cvfk"
       x1="-138.60001"
       x2="-95.07"
       y1="1846"
       y2="1846"
       gradientTransform="matrix(1,0,0,-1,168.5,2202)"
       gradientUnits="userSpaceOnUse">
		<stop
   style="stop-color:#A6A8AB"
   offset=".2373"
   id="stop25" />

		<stop
   style="stop-color:#404040"
   offset="1"
   id="stop26" />

	</linearGradient>
    <path
       id="cvfu"
       d="m 38.8,284.1 v -4.8 c 0,-0.4 0.1,-1.1 0.1,-1.1 l 0.2,-0.5 v -0.2 l 0.2,-0.4 0.1,-0.1 0.1,-0.2 0.1,-0.1 v -0.1 l 0.2,-0.2 v -0.1 l 0.7,-0.7 0.2,-0.1 h 0.1 l 0.3,-0.2 h 0.3 L 42,275 c 0.4,-0.1 0.7,-0.1 1.1,-0.1 h 94.6 v 9.2 h 9 V 265.7 H 43.1 c -7.3,0 -13.3,6.1 -13.3,13.6 v 4.8 z" />
    <path
       id="cvft"
       d="m 137.7,367.2 v 4.8 c 0,0.4 -0.1,1.1 -0.1,1.1 l -0.2,0.5 v 0.2 l -0.2,0.4 -0.1,0.1 -0.1,0.2 -0.1,0.1 v 0.1 l -0.2,0.2 v 0.1 l -0.5,0.5 h -0.1 l -0.1,0.1 -0.2,0.1 -0.1,0.1 -0.3,0.2 h -0.3 l -0.5,0.2 c -0.4,0.1 -0.7,0.1 -1.1,0.1 H 38.8 v -9.2 h -9 v 18.4 h 103.6 c 7.3,0 13.3,-6.1 13.3,-13.6 v -4.8 h -9 z" />
    <rect
       id="cvfs"
       x="38.799999"
       y="302.60001"
       width="34.599998"
       height="9.1999998" />
    <rect
       id="cvfx"
       x="103.1"
       y="302.60001"
       width="34.599998"
       height="9.1999998" />
    <rect
       id="cvfw"
       x="103.1"
       y="339.5"
       width="34.599998"
       height="9.1999998" />
    <rect
       id="cvfv"
       x="38.799999"
       y="339.5"
       width="34.599998"
       height="9.1999998" />
  </defs>
  <path
     id="circle1"
     style="display:inline;fill:#000000;fill-opacity:1;opacity:1"
     class="dot dot-a1"
     d="M 3.4005431 0.5500186 A 2.7 2.7 0 0 0 0.69999592 3.2505657 A 2.7 2.7 0 0 0 3.4005431 5.9511129 A 2.7 2.7 0 0 0 6.1010902 3.2505657 A 2.7 2.7 0 0 0 3.4005431 0.5500186 z M 11.499927 0.5500186 A 2.7 2.7 0 0 0 8.7993794 3.2505657 A 2.7 2.7 0 0 0 11.499927 5.9511129 A 2.7 2.7 0 0 0 14.200474 3.2505657 A 2.7 2.7 0 0 0 11.499927 0.5500186 z M 19.499959 0.5500186 A 2.7 2.7 0 0 0 16.799412 3.2505657 A 2.7 2.7 0 0 0 19.499959 5.9511129 A 2.7 2.7 0 0 0 22.200506 3.2505657 A 2.7 2.7 0 0 0 19.499959 0.5500186 z M 3.4005431 8.5997264 A 2.7 2.7 0 0 0 0.69999592 11.300274 A 2.7 2.7 0 0 0 3.4005431 14.000821 A 2.7 2.7 0 0 0 6.1010902 11.300274 A 2.7 2.7 0 0 0 3.4005431 8.5997264 z M 11.499927 8.5997264 A 2.7 2.7 0 0 0 8.7993794 11.300274 A 2.7 2.7 0 0 0 11.499927 14.000821 A 2.7 2.7 0 0 0 14.200474 11.300274 A 2.7 2.7 0 0 0 11.499927 8.5997264 z M 19.499959 8.5997264 A 2.7 2.7 0 0 0 16.799412 11.300274 A 2.7 2.7 0 0 0 19.499959 14.000821 A 2.7 2.7 0 0 0 22.200506 11.300274 A 2.7 2.7 0 0 0 19.499959 8.5997264 z M 3.4005431 16.800719 A 2.7 2.7 0 0 0 0.69999592 19.499008 A 2.7 2.7 0 0 0 3.4005431 22.199555 A 2.7 2.7 0 0 0 6.1010902 19.499008 A 2.7 2.7 0 0 0 3.4005431 16.800719 z M 11.499927 16.800719 A 2.7 2.7 0 0 0 8.7993794 19.499008 A 2.7 2.7 0 0 0 11.499927 22.199555 A 2.7 2.7 0 0 0 14.200474 19.499008 A 2.7 2.7 0 0 0 11.499927 16.800719 z M 19.499959 16.800719 A 2.7 2.7 0 0 0 16.799412 19.499008 A 2.7 2.7 0 0 0 19.499959 22.199555 A 2.7 2.7 0 0 0 22.200506 19.499008 A 2.7 2.7 0 0 0 19.499959 16.800719 z "
     transform="matrix(0.86498675,0,0,0.86498675,2.2382628,2.3367412)" />
</svg>
