<?xml version="1.0" encoding="UTF-8" standalone="no"?>
<svg
   enable-background="new 0 0 24 24"
   viewBox="0 0 24 24"
   id="nextcloud"
   version="1.1"
   width="24"
   height="24"
   sodipodi:docname="_ICONTEMPLATE.svg"
   inkscape:version="1.4 (e7c3feb100, 2024-10-09)"
   inkscape:export-filename="KeycloakIcon.svg"
   inkscape:export-xdpi="96"
   inkscape:export-ydpi="96"
   xmlns:inkscape="http://www.inkscape.org/namespaces/inkscape"
   xmlns:sodipodi="http://sodipodi.sourceforge.net/DTD/sodipodi-0.dtd"
   xmlns="http://www.w3.org/2000/svg"
   xmlns:svg="http://www.w3.org/2000/svg">
  <sodipodi:namedview
     id="namedview1"
     pagecolor="#ffffff"
     bordercolor="#000000"
     borderopacity="0.25"
     inkscape:showpageshadow="2"
     inkscape:pageopacity="0.0"
     inkscape:pagecheckerboard="true"
     inkscape:deskcolor="#d1d1d1"
     inkscape:zoom="28.963094"
     inkscape:cx="2.7103458"
     inkscape:cy="11.169387"
     inkscape:window-width="2305"
     inkscape:window-height="1110"
     inkscape:window-x="0"
     inkscape:window-y="0"
     inkscape:window-maximized="0"
     inkscape:current-layer="nextcloud">
    <inkscape:page
       x="0"
       y="0"
       width="24"
       height="24"
       id="page2"
       margin="0"
       bleed="0" />
  </sodipodi:namedview>
  <defs
     id="defs3" />
  <path
     id="path1"
     style="stroke-width:0.211302"
     d="M 15.417969 0.734375 C 15.198431 0.73030359 15.037777 0.94812302 15.027344 1.1835938 C 14.944514 2.3400513 14.936603 3.1992899 14.654297 4.1894531 A 0.80717489 0.80717489 0 0 0 14.46875 3.78125 A 0.74103728 0.74103728 0 0 0 14.101562 3.5488281 A 0.70997581 0.70997581 0 0 0 13.673828 3.5664062 A 0.74948938 0.74948938 0 0 0 13.326172 3.8300781 A 1.2762661 1.2762661 0 0 0 12.935547 3.0410156 A 1.1522316 1.1522316 0 0 0 12.148438 2.7246094 A 1.1522316 1.1522316 0 0 0 11.359375 3.0410156 A 1.2764774 1.2764774 0 0 0 10.96875 3.8300781 A 0.74948938 0.74948938 0 0 0 10.621094 3.5664062 A 0.70997581 0.70997581 0 0 0 10.193359 3.5488281 A 0.74124859 0.74124859 0 0 0 9.8261719 3.78125 A 0.80738619 0.80738619 0 0 0 9.640625 4.1894531 C 9.358325 3.2081649 9.3499806 2.3398392 9.2753906 1.1835938 C 9.2504506 0.80684201 8.8440405 0.48408592 8.4453125 1.0273438 C 7.4492338 2.3678454 7.4911377 4.4437596 7.7734375 4.9082031 C 7.8811945 5.1009105 8.0546483 5.2571619 8.2539062 5.3535156 A 0.7186392 0.7186392 0 0 0 7.8574219 5.4765625 C 7.7388859 5.5557949 7.6446279 5.6691906 7.5839844 5.8027344 A 0.82703733 0.82703733 0 0 0 7.515625 6.2304688 C 7.531469 6.3775347 7.5846108 6.5170186 7.671875 6.6328125 A 1.1670227 1.1670227 0 0 0 7.0058594 6.9960938 A 1.2813373 1.2813373 0 0 0 6.6777344 7.7070312 C 6.6441464 7.9753855 6.6947954 8.2483505 6.8203125 8.484375 A 1.213298 1.213298 0 0 0 7.3730469 9.0175781 A 0.78393166 0.78393166 0 0 0 7.078125 9.4179688 A 0.82978423 0.82978423 0 0 0 7.0761719 9.9238281 C 7.1281559 10.088856 7.2308972 10.230715 7.3671875 10.328125 A 0.71842791 0.71842791 0 0 0 7.8300781 10.462891 L 7.8710938 10.462891 A 1.3039467 1.3039467 0 0 0 8.2324219 11.326172 C 8.4534439 11.554379 8.7492488 11.685015 9.0585938 11.689453 C 8.7266378 13.196249 8.2294511 17.497825 7.8144531 21.431641 L 7.7070312 22.615234 C 9.1348014 22.562624 10.628318 22.535156 12.164062 22.535156 C 13.683326 22.535156 15.151853 22.561719 16.554688 22.605469 L 16.439453 21.501953 L 15.990234 17.007812 C 15.724627 14.659821 15.459664 12.627 15.251953 11.689453 C 15.55961 11.685253 15.853991 11.554798 16.072266 11.326172 A 1.2874651 1.2874651 0 0 0 16.421875 10.462891 L 16.464844 10.462891 C 16.629238 10.473481 16.791444 10.425314 16.927734 10.328125 A 0.78541076 0.78541076 0 0 0 17.21875 9.9238281 A 0.82999553 0.82999553 0 0 0 17.216797 9.4179688 A 0.78393166 0.78393166 0 0 0 16.919922 9.0175781 A 1.2135093 1.2135093 0 0 0 17.474609 8.4824219 A 1.3117649 1.3117649 0 0 0 17.613281 7.703125 A 1.2804921 1.2804921 0 0 0 17.283203 6.9921875 A 1.1663888 1.1663888 0 0 0 16.613281 6.6328125 A 0.81245745 0.81245745 0 0 0 16.771484 6.2304688 A 0.82703733 0.82703733 0 0 0 16.703125 5.8027344 A 0.77590217 0.77590217 0 0 0 16.427734 5.4765625 A 0.71885051 0.71885051 0 0 0 16.033203 5.3535156 C 16.240914 5.2571633 16.415034 5.0911862 16.53125 4.9160156 C 16.805097 4.4515734 16.845259 2.3767203 15.857422 1.0273438 C 15.701798 0.8203728 15.549691 0.73681784 15.417969 0.734375 z M 14.525391 6.953125 C 14.717233 6.9550366 14.910491 6.9668898 15.103516 6.984375 C 15.518726 7.028322 15.916823 7.1251601 16.332031 7.1953125 L 16.332031 7.9121094 C 16.332031 7.9645144 16.306607 8.044966 16.273438 8.0625 C 16.107353 8.141311 16.090243 8.2976574 16.048828 8.4550781 C 15.973818 8.735476 15.899877 9.0173278 15.808594 9.2890625 A 0.97093419 0.97093419 0 0 1 15.535156 9.7363281 A 0.89338624 0.89338624 0 0 1 15.078125 9.9628906 A 3.1984834 3.1984834 0 0 1 13.550781 9.9453125 C 13.394482 9.9016447 13.259275 9.8334035 13.146484 9.7324219 C 13.263566 10.223101 13.349347 10.723784 13.466797 11.224609 A 8.0113165 8.0113165 0 0 1 13.673828 12.539062 C 13.723696 13.222627 13.300745 13.808594 12.769531 13.808594 L 11.525391 13.808594 C 10.994177 13.808594 10.569271 13.222627 10.619141 12.539062 A 7.7626139 7.7626139 0 0 1 10.828125 11.232422 C 10.93758 10.761895 11.021554 10.295947 11.128906 9.8378906 A 1.1672341 1.1672341 0 0 1 10.486328 10.023438 C 10.096052 10.032258 9.7060407 9.99877 9.3242188 9.9375 C 8.9920506 9.902418 8.7681312 9.6737467 8.6601562 9.3496094 C 8.5523864 9.0516734 8.4946935 8.735436 8.3867188 8.4375 C 8.3453098 8.3062833 8.253844 8.1930792 8.1875 8.0703125 C 8.154332 8.0177036 8.1217394 7.9645092 8.1132812 7.9121094 L 8.1132812 7.2285156 A 6.0768436 6.0768436 0 0 1 10.146484 6.9667969 C 10.652975 6.9667969 11.143442 7.0533807 11.625 7.2460938 C 12.015064 7.3950632 12.43004 7.4039381 12.820312 7.2460938 C 13.380688 7.0226418 13.949863 6.9473902 14.525391 6.953125 z M 11.464844 20.847656 C 11.293537 20.970792 11.119395 21.075997 10.941406 21.162109 C 10.822747 21.219518 10.701504 21.268541 10.580078 21.308594 C 10.701551 21.268528 10.822716 21.219415 10.941406 21.162109 C 11.119441 21.076151 11.293729 20.970606 11.464844 20.847656 z M 10.396484 21.361328 C 10.274339 21.392186 10.150034 21.415131 10.025391 21.427734 C 10.150598 21.414726 10.273708 21.392535 10.396484 21.361328 z " />
  <path
     d="m 5.2404023,12.722797 c 0.074589,0.403166 0.3070214,0.718429 0.606015,0.806119 0,0.236659 0,0.48177 0.016482,0.718429 0.02494,0.289061 0.033385,0.578122 0.083047,0.840983 0.02494,0.201582 0.083047,0.192919 0.1079738,0 0.041625,-0.262649 0.049866,-0.551922 0.083047,-0.840983 l 0.016699,-0.718429 c 0.290541,-0.08769 0.5312141,-0.402953 0.5975624,-0.806119 a 1.4182612,1.4182612 0 0 1 -0.7471644,0.210247 c -0.2905409,0 -0.5479063,-0.08747 -0.7636462,-0.210247 z"
     fill="#f3921a"
     id="path5"
     style="stroke-width:0.211302;fill:#000000;fill-opacity:1" />
  <path
     d="m 17.576655,12.722797 c 0.06635,0.403166 0.307233,0.718429 0.597774,0.806119 0,0.236659 0,0.48177 0.02494,0.718429 0.02493,0.289061 0.03317,0.578122 0.08305,0.840983 0.02493,0.201582 0.07459,0.192919 0.107757,0 0.04163,-0.262649 0.04987,-0.551922 0.07481,-0.840983 0.01648,-0.236659 0.02493,-0.48177 0.01648,-0.718429 0.298993,-0.08769 0.539667,-0.402953 0.606227,-0.806119 a 1.4180499,1.4180499 0 0 1 -0.755618,0.210247 c -0.282088,0 -0.547907,-0.08747 -0.755406,-0.210247 z"
     fill="#f3921a"
     id="path8"
     style="stroke-width:0.211302;fill:#000000;fill-opacity:1" />
  <path
     d="m 13.085424,9.9017008 c -0.257367,0.1665062 -0.581082,0.2628602 -0.938183,0.2628602 -0.356889,0 -0.680604,-0.09635 -0.938182,-0.2628602 0.08325,0.5081812 0.373794,0.9022612 0.747376,1.0074892 0,0.297936 0,0.595872 0.02493,0.893808 0.03317,0.35034 0.04142,0.718429 0.09953,1.051231 0.04163,0.254196 0.09952,0.236658 0.132914,0 0.05811,-0.332802 0.06635,-0.700891 0.09953,-1.051231 0.02493,-0.297936 0.02493,-0.595872 0.02493,-0.893808 0.373583,-0.105014 0.664123,-0.499308 0.747165,-1.0074892 z"
     fill="#4e4a99"
     id="path11"
     style="stroke-width:0.211302;fill:#000000;fill-opacity:1" />
  <path
     id="path12"
     style="stroke-width:0.211302;fill:#000000;fill-opacity:1"
     d="M 3.3730469 5.3769531 C 3.2674106 5.3787627 3.1448306 5.4450362 3.0234375 5.609375 C 2.2264053 6.6870169 2.2601837 8.3588963 2.484375 8.7265625 C 2.5756633 8.8757423 2.7173675 8.9990977 2.875 9.078125 A 0.57495365 0.57495365 0 0 0 2.5566406 9.1757812 C 2.4615509 9.2391699 2.3845372 9.3303692 2.3359375 9.4375 A 0.6617989 0.6617989 0 0 0 2.28125 9.78125 C 2.293876 9.8989446 2.340006 10.010754 2.4101562 10.103516 A 0.93818235 0.93818235 0 0 0 1.8710938 10.394531 A 1.0303101 1.0303101 0 0 0 1.6054688 10.966797 A 1.0548212 1.0548212 0 0 0 1.7207031 11.59375 C 1.822133 11.783922 1.9786419 11.933793 2.1679688 12.021484 C 2.0572525 12.098194 1.9745355 12.211264 1.9316406 12.34375 A 0.66391194 0.66391194 0 0 0 1.9296875 12.753906 A 0.62756791 0.62756791 0 0 0 2.1679688 13.076172 A 0.57389711 0.57389711 0 0 0 2.5429688 13.177734 L 2.5664062 13.177734 C 2.5664062 13.230564 2.5675024 13.275507 2.5839844 13.328125 C 2.6587904 13.801442 3.0481673 14.160156 3.5214844 14.160156 C 3.2606018 15.347511 2.8714827 18.698623 2.5429688 21.814453 C 2.5339514 21.867702 2.5248249 21.921193 2.5175781 21.974609 L 2.4335938 22.921875 C 3.9361662 22.790441 5.5964168 22.693199 7.3730469 22.623047 C 7.4062139 22.220094 7.4403676 21.808313 7.4902344 21.396484 C 7.5897634 20.380119 7.7636326 18.725147 7.9628906 17.042969 C 7.9142848 17.223059 7.8621252 17.399058 7.8085938 17.572266 C 7.8623837 17.398915 7.9141194 17.223117 7.9628906 17.042969 C 8.1454556 15.465809 8.3541169 13.861747 8.5449219 12.705078 L 8.3457031 12.765625 C 7.9307051 12.853315 7.5317571 12.85501 7.125 12.75 C 7.0003272 12.72358 6.892703 12.660847 6.7929688 12.582031 C 6.8927017 12.97632 6.9588583 13.38025 7.0585938 13.783203 C 7.1414238 14.133753 7.1998866 14.483434 7.2246094 14.833984 C 7.2662354 15.385906 6.9254024 15.851563 6.5019531 15.851562 L 5.4980469 15.851562 C 5.0748081 15.851562 4.7339741 15.385906 4.7753906 14.833984 C 4.8003166 14.483434 4.8583707 14.133753 4.9414062 13.783203 C 5.0244532 13.415326 5.0901473 13.038901 5.1816406 12.679688 C 5.0320386 12.767157 4.8574625 12.8097 4.6582031 12.818359 C 4.3497019 12.820559 4.0429798 12.79883 3.7382812 12.75 A 0.62270797 0.62270797 0 0 1 3.4003906 12.597656 A 0.67806918 0.67806918 0 0 1 3.1972656 12.275391 C 3.1144355 12.038945 3.0652548 11.785274 2.9824219 11.548828 C 2.9490374 11.443596 2.8745095 11.348094 2.8164062 11.251953 C 2.7999245 11.208005 2.765625 11.163988 2.765625 11.128906 L 2.765625 10.576172 C 3.296839 10.400791 3.8446717 10.348547 4.3925781 10.357422 C 4.7993351 10.366222 5.1904419 10.445845 5.5722656 10.585938 C 5.8959807 10.708493 6.2274946 10.717371 6.5429688 10.585938 C 6.692359 10.524657 6.8423688 10.480175 7 10.445312 A 1.1687132 1.1687132 0 0 1 6.7207031 9.7890625 A 1.1904773 1.1904773 0 0 1 6.8671875 9.0878906 A 1.6240698 1.6240698 0 0 1 6.3652344 8.1816406 A 1.6826004 1.6826004 0 0 1 6.5019531 7.1425781 A 0.91155826 0.91155826 0 0 0 5.5996094 7.0859375 A 0.96713078 0.96713078 0 0 0 5.2363281 7.3964844 A 1.0381283 1.0381283 0 0 0 5.0585938 7.8515625 A 0.60073253 0.60073253 0 0 0 4.7753906 7.6347656 A 0.56798065 0.56798065 0 0 0 4.4277344 7.6191406 A 0.59375954 0.59375954 0 0 0 4.1308594 7.8144531 C 4.0524687 7.9086875 4.0015392 8.0241909 3.9863281 8.1484375 C 3.7623472 7.3598567 3.7534213 6.6600333 3.6953125 5.7402344 C 3.679725 5.5484775 3.5491073 5.3739372 3.3730469 5.3769531 z M 7.8085938 17.574219 C 7.7550502 17.747388 7.6988963 17.916321 7.640625 18.082031 C 7.6990203 17.916648 7.7549728 17.746945 7.8085938 17.574219 z M 7.640625 18.083984 C 6.9972294 19.91285 6.0714602 21.270081 4.9960938 21.767578 C 6.0683897 21.268002 6.9963866 19.907745 7.640625 18.083984 z M 4.9941406 21.767578 C 4.8969175 21.81247 4.7987941 21.8503 4.6992188 21.880859 C 4.7984692 21.850108 4.8971425 21.812687 4.9941406 21.767578 z " />
  <path
     id="path14"
     style="stroke-width:0.211302;fill:#000000;fill-opacity:1"
     d="M 20.953125 5.3671875 C 20.77819 5.3641519 20.651058 5.5388451 20.640625 5.7304688 C 20.574276 6.6504794 20.56599 7.3520455 20.341797 8.140625 A 0.64573991 0.64573991 0 0 0 20.193359 7.8144531 A 0.59312564 0.59312564 0 0 0 19.900391 7.6269531 A 0.56798065 0.56798065 0 0 0 19.556641 7.640625 A 0.59967604 0.59967604 0 0 0 19.279297 7.8515625 A 1.0377057 1.0377057 0 0 0 19.09375 7.3867188 A 0.96522904 0.96522904 0 0 0 18.720703 7.0742188 A 0.91050173 0.91050173 0 0 0 17.800781 7.1601562 A 1.6925316 1.6925316 0 0 1 17.925781 8.1894531 A 1.6327332 1.6327332 0 0 1 17.427734 9.0878906 C 17.545007 9.2934875 17.597565 9.5325016 17.578125 9.7714844 A 1.1723053 1.1723053 0 0 1 17.318359 10.417969 C 17.517618 10.461919 17.717186 10.506059 17.908203 10.59375 C 18.231918 10.707643 18.55562 10.716305 18.871094 10.59375 C 19.468868 10.348428 20.08301 10.33041 20.697266 10.382812 C 21.029433 10.417893 21.35295 10.489505 21.693359 10.550781 L 21.685547 11.128906 C 21.685547 11.163986 21.669461 11.233309 21.644531 11.242188 C 21.503382 11.303458 21.494112 11.434085 21.460938 11.556641 A 11.596061 11.596061 0 0 1 21.271484 12.232422 A 0.77611346 0.77611346 0 0 1 21.052734 12.587891 A 0.71420186 0.71420186 0 0 1 20.689453 12.765625 C 20.274243 12.853315 19.859882 12.85501 19.453125 12.75 C 19.328452 12.72359 19.220189 12.660847 19.128906 12.582031 C 19.228436 12.976321 19.294796 13.38025 19.394531 13.783203 C 19.477581 14.133755 19.527377 14.483433 19.560547 14.833984 C 19.593717 15.385906 19.261768 15.851562 18.830078 15.851562 L 17.833984 15.851562 C 17.402293 15.851562 17.062102 15.385906 17.103516 14.833984 C 17.136686 14.483433 17.186497 14.133755 17.269531 13.783203 C 17.352581 13.415327 17.428249 13.038902 17.519531 12.679688 C 17.369929 12.767178 17.1869 12.809699 16.996094 12.818359 A 5.5904259 5.5904259 0 0 1 16.066406 12.75 C 15.950191 12.7412 15.851048 12.688238 15.759766 12.626953 C 16.017132 14.238768 16.348915 17.11249 16.796875 21.466797 L 16.845703 21.931641 L 16.912109 22.623047 C 18.566184 22.681577 20.219504 22.781782 21.869141 22.921875 L 21.777344 22.027344 L 21.412109 18.417969 A 55.946097 55.946097 0 0 0 20.832031 14.158203 C 20.832299 14.155612 20.831764 14.152982 20.832031 14.150391 L 20.830078 14.150391 L 20.822266 14.150391 A 0.93057546 0.93057546 0 0 0 21.478516 13.859375 A 1.0349588 1.0349588 0 0 0 21.759766 13.169922 L 21.792969 13.169922 A 0.57474236 0.57474236 0 0 0 22.164062 13.0625 A 0.62820181 0.62820181 0 0 0 22.396484 12.740234 C 22.438324 12.608379 22.437721 12.464992 22.394531 12.333984 A 0.62714532 0.62714532 0 0 0 22.158203 12.013672 A 0.97537157 0.97537157 0 0 0 22.607422 11.582031 A 1.0552438 1.0552438 0 0 0 22.71875 10.955078 A 1.0296762 1.0296762 0 0 0 22.451172 10.380859 A 0.93733715 0.93733715 0 0 0 21.910156 10.09375 C 21.977766 10.00162 22.019412 9.8931376 22.03125 9.7773438 A 0.66201019 0.66201019 0 0 0 21.976562 9.4375 A 0.62186278 0.62186278 0 0 0 21.763672 9.1796875 A 0.57601015 0.57601015 0 0 0 21.453125 9.078125 A 0.99692441 0.99692441 0 0 0 21.84375 8.71875 C 22.067731 8.350872 22.10172 6.6772513 21.304688 5.5996094 C 21.180204 5.435269 21.058086 5.3690089 20.953125 5.3671875 z M 20.814453 14.291016 C 20.791962 14.49506 20.768628 14.698439 20.740234 14.898438 C 20.713444 15.087147 20.68226 15.272425 20.650391 15.457031 C 20.682321 15.272131 20.7134 15.087455 20.740234 14.898438 C 20.768577 14.698799 20.791992 14.494685 20.814453 14.291016 z M 20.591797 15.779297 C 20.556328 15.964962 20.518989 16.149495 20.478516 16.330078 C 20.42683 16.560689 20.37201 16.786449 20.3125 17.007812 C 20.25299 17.229176 20.190004 17.445213 20.123047 17.65625 C 20.05609 17.867287 19.984183 18.073805 19.910156 18.273438 C 19.848509 18.439685 19.783108 18.60016 19.716797 18.757812 C 19.783347 18.599661 19.848301 18.440242 19.910156 18.273438 C 19.984185 18.073805 20.056089 17.867287 20.123047 17.65625 C 20.190005 17.445213 20.25299 17.229176 20.3125 17.007812 C 20.37201 16.786449 20.42683 16.560689 20.478516 16.330078 C 20.518896 16.149909 20.556397 15.964525 20.591797 15.779297 z M 19.630859 18.957031 C 19.564355 19.106922 19.498376 19.253641 19.427734 19.394531 C 19.498082 19.254233 19.564614 19.106256 19.630859 18.957031 z " />
  <path
     d="m 16.55543,22.605619 h 0.02493 C 16.391453,20.735593 16.194942,18.866625 15.990823,16.99829 l 0.448384,4.503485 0.116215,1.103844"
     fill="#4e4a99"
     id="path16"
     style="stroke-width:0.211302" />
  <path
     d="m 15.252117,11.688896 c 0.207499,0.937548 0.473317,2.970276 0.738925,5.318268 a 52.568215,52.568215 0 0 0 -0.738925,-5.318268 z m -7.438264,9.742727 -0.116215,1.182871 z"
     fill="#3e3a78"
     id="path17"
     style="stroke-width:0.211302" />
</svg>
