<?xml version="1.0" encoding="UTF-8" standalone="no"?>
<svg
   enable-background="new 0 0 24 24"
   viewBox="0 0 24 24"
   id="nextcloud"
   version="1.1"
   width="24"
   height="24"
   sodipodi:docname="NextcloudIcon.astro"
   inkscape:version="1.4 (e7c3feb100, 2024-10-09)"
   xmlns:inkscape="http://www.inkscape.org/namespaces/inkscape"
   xmlns:sodipodi="http://sodipodi.sourceforge.net/DTD/sodipodi-0.dtd"
   xmlns="http://www.w3.org/2000/svg"
   xmlns:svg="http://www.w3.org/2000/svg">
  <sodipodi:namedview
     id="namedview1"
     pagecolor="#ffffff"
     bordercolor="#000000"
     borderopacity="0.25"
     inkscape:showpageshadow="2"
     inkscape:pageopacity="0.0"
     inkscape:pagecheckerboard="true"
     inkscape:deskcolor="#d1d1d1"
     inkscape:zoom="7.2407734"
     inkscape:cx="-6.3529125"
     inkscape:cy="-0.69053397"
     inkscape:window-width="1250"
     inkscape:window-height="1035"
     inkscape:window-x="0"
     inkscape:window-y="0"
     inkscape:window-maximized="0"
     inkscape:current-layer="nextcloud">
    <inkscape:page
       x="0"
       y="0"
       width="24"
       height="24"
       id="page2"
       margin="0"
       bleed="0" />
  </sodipodi:namedview>
  <defs
     id="defs3" />
  <path
     fill="#197ec3"
     d="m 23.206387,12.518183 v 0 c -0.0084,-1.853212 -1.496464,-3.3506159 -3.334656,-3.3590652 h -9.49e-4 c -1.329356,0 -2.469072,0.8111318 -3.003255,1.9536652 -0.61397,-2.1592643 -2.575144,-3.7599369 -4.909967,-3.7589979 -2.3470275,0 -4.3185315,1.61851 -4.9203081,3.7946729 C 6.5115146,9.9843327 5.3539612,9.1591178 4.0095851,9.1591178 2.1713933,9.1675681 0.6833779,10.665909 0.6749288,12.516305 v 9.49e-4 c 0.00845,1.850397 1.4974037,3.348739 3.3337171,3.358127 h 9.488e-4 c 1.3443773,0 2.5009928,-0.826154 3.0267264,-1.990279 0.6017779,2.178042 2.5742204,3.795612 4.9212479,3.795612 2.334821,0 4.295996,-1.599733 4.910918,-3.758998 0.534183,1.143471 1.673899,1.953665 3.002316,1.953665 1.839131,-0.0075 3.328084,-1.505853 3.335595,-3.357188 z M 4.0095851,13.903867 h -0.014088 c -0.7529269,0 -1.3631538,-0.613982 -1.3631538,-1.372541 v -0.01409 c 0,-0.777335 0.6045941,-1.385685 1.3772356,-1.385685 v -9.5e-4 c 0.7717023,0 1.3772357,0.609289 1.3772357,1.387563 0,0.776397 -0.6045942,1.385685 -1.3772357,1.385685 z m 7.9479719,1.806272 h -0.01409 c -1.743371,0 -3.1562825,-1.423237 -3.1562825,-3.178813 v -0.01409 c 0,-1.775291 1.4082165,-3.1928958 3.1703645,-3.1928958 1.763087,0 3.171302,1.4185428 3.171302,3.1928958 0,1.775291 -1.408215,3.192895 -3.171302,3.192895 z m 7.913236,-1.806272 h -0.01408 c -0.752925,0 -1.363152,-0.613982 -1.363152,-1.372541 v -0.01409 c 0,-0.777335 0.604593,-1.385685 1.377234,-1.385685 v -9.5e-4 c 0.772642,0 1.378174,0.609289 1.378174,1.387563 0,0.776397 -0.605532,1.385685 -1.378174,1.385685 z"
     id="path1"
     style="display:inline;fill:#ffffff;fill-opacity:1;stroke-width:0.93881" />
  <path
     fill="#166eaa"
     d="m 23.206387,12.517243 h -1.95742 v 0 c 0,0.777337 -0.605534,1.386624 -1.378174,1.386624 h -0.01408 c -0.752925,0 -1.363152,-0.613982 -1.363152,-1.372541 v -0.01409 0 h -3.364706 v 0 c 0,1.775291 -1.408215,3.192895 -3.171302,3.192895 h -0.01409 c -1.743371,0 -3.1562825,-1.423237 -3.1562825,-3.178812 v -0.01409 0 h -3.400361 v 0 c 0,0.777336 -0.6045942,1.385686 -1.3772344,1.386624 h -0.014088 c -0.7529269,0 -1.3631538,-0.613983 -1.3631538,-1.372541 v -0.01409 0 H 0.674924 c 0.00845,1.850396 1.4974024,3.348739 3.333717,3.358126 h 9.489e-4 c 1.3443773,0 2.5009928,-0.826153 3.0267264,-1.990279 0.6017778,2.178041 2.5742192,3.795613 4.9212477,3.795613 2.334821,0 4.295995,-1.599733 4.910917,-3.758999 0.534184,1.143471 1.6739,1.953665 3.002317,1.953665 1.839131,-0.0075 3.328084,-1.505853 3.335594,-3.358126 z"
     id="path3"
     style="display:inline;fill:#000000;fill-opacity:0.0432498;stroke-width:0.93881" />
</svg>
